%TF.GenerationSoftware,KiCad,Pcbnew,8.0.8*%
%TF.CreationDate,2025-03-27T11:20:44+01:00*%
%TF.ProjectId,PCB Symphonie,50434220-5379-46d7-9068-6f6e69652e6b,rev?*%
%TF.SameCoordinates,Original*%
%TF.FileFunction,Legend,Top*%
%TF.FilePolarity,Positive*%
%FSLAX46Y46*%
G04 Gerber Fmt 4.6, Leading zero omitted, Abs format (unit mm)*
G04 Created by KiCad (PCBNEW 8.0.8) date 2025-03-27 11:20:44*
%MOMM*%
%LPD*%
G01*
G04 APERTURE LIST*
%ADD10C,0.100000*%
%ADD11C,0.150000*%
%ADD12C,0.120000*%
G04 APERTURE END LIST*
D10*
X146052265Y-35806856D02*
X146195122Y-35854475D01*
X146195122Y-35854475D02*
X146433217Y-35854475D01*
X146433217Y-35854475D02*
X146528455Y-35806856D01*
X146528455Y-35806856D02*
X146576074Y-35759236D01*
X146576074Y-35759236D02*
X146623693Y-35663998D01*
X146623693Y-35663998D02*
X146623693Y-35568760D01*
X146623693Y-35568760D02*
X146576074Y-35473522D01*
X146576074Y-35473522D02*
X146528455Y-35425903D01*
X146528455Y-35425903D02*
X146433217Y-35378284D01*
X146433217Y-35378284D02*
X146242741Y-35330665D01*
X146242741Y-35330665D02*
X146147503Y-35283046D01*
X146147503Y-35283046D02*
X146099884Y-35235427D01*
X146099884Y-35235427D02*
X146052265Y-35140189D01*
X146052265Y-35140189D02*
X146052265Y-35044951D01*
X146052265Y-35044951D02*
X146099884Y-34949713D01*
X146099884Y-34949713D02*
X146147503Y-34902094D01*
X146147503Y-34902094D02*
X146242741Y-34854475D01*
X146242741Y-34854475D02*
X146480836Y-34854475D01*
X146480836Y-34854475D02*
X146623693Y-34902094D01*
X147195122Y-35854475D02*
X147099884Y-35806856D01*
X147099884Y-35806856D02*
X147052265Y-35759236D01*
X147052265Y-35759236D02*
X147004646Y-35663998D01*
X147004646Y-35663998D02*
X147004646Y-35378284D01*
X147004646Y-35378284D02*
X147052265Y-35283046D01*
X147052265Y-35283046D02*
X147099884Y-35235427D01*
X147099884Y-35235427D02*
X147195122Y-35187808D01*
X147195122Y-35187808D02*
X147337979Y-35187808D01*
X147337979Y-35187808D02*
X147433217Y-35235427D01*
X147433217Y-35235427D02*
X147480836Y-35283046D01*
X147480836Y-35283046D02*
X147528455Y-35378284D01*
X147528455Y-35378284D02*
X147528455Y-35663998D01*
X147528455Y-35663998D02*
X147480836Y-35759236D01*
X147480836Y-35759236D02*
X147433217Y-35806856D01*
X147433217Y-35806856D02*
X147337979Y-35854475D01*
X147337979Y-35854475D02*
X147195122Y-35854475D01*
X147957027Y-35854475D02*
X147957027Y-35187808D01*
X147957027Y-35378284D02*
X148004646Y-35283046D01*
X148004646Y-35283046D02*
X148052265Y-35235427D01*
X148052265Y-35235427D02*
X148147503Y-35187808D01*
X148147503Y-35187808D02*
X148242741Y-35187808D01*
X148433218Y-35187808D02*
X148814170Y-35187808D01*
X148576075Y-34854475D02*
X148576075Y-35711617D01*
X148576075Y-35711617D02*
X148623694Y-35806856D01*
X148623694Y-35806856D02*
X148718932Y-35854475D01*
X148718932Y-35854475D02*
X148814170Y-35854475D01*
X149147504Y-35854475D02*
X149147504Y-35187808D01*
X149147504Y-34854475D02*
X149099885Y-34902094D01*
X149099885Y-34902094D02*
X149147504Y-34949713D01*
X149147504Y-34949713D02*
X149195123Y-34902094D01*
X149195123Y-34902094D02*
X149147504Y-34854475D01*
X149147504Y-34854475D02*
X149147504Y-34949713D01*
X150004646Y-35806856D02*
X149909408Y-35854475D01*
X149909408Y-35854475D02*
X149718932Y-35854475D01*
X149718932Y-35854475D02*
X149623694Y-35806856D01*
X149623694Y-35806856D02*
X149576075Y-35711617D01*
X149576075Y-35711617D02*
X149576075Y-35330665D01*
X149576075Y-35330665D02*
X149623694Y-35235427D01*
X149623694Y-35235427D02*
X149718932Y-35187808D01*
X149718932Y-35187808D02*
X149909408Y-35187808D01*
X149909408Y-35187808D02*
X150004646Y-35235427D01*
X150004646Y-35235427D02*
X150052265Y-35330665D01*
X150052265Y-35330665D02*
X150052265Y-35425903D01*
X150052265Y-35425903D02*
X149576075Y-35521141D01*
X151195123Y-35806856D02*
X151290361Y-35854475D01*
X151290361Y-35854475D02*
X151480837Y-35854475D01*
X151480837Y-35854475D02*
X151576075Y-35806856D01*
X151576075Y-35806856D02*
X151623694Y-35711617D01*
X151623694Y-35711617D02*
X151623694Y-35663998D01*
X151623694Y-35663998D02*
X151576075Y-35568760D01*
X151576075Y-35568760D02*
X151480837Y-35521141D01*
X151480837Y-35521141D02*
X151337980Y-35521141D01*
X151337980Y-35521141D02*
X151242742Y-35473522D01*
X151242742Y-35473522D02*
X151195123Y-35378284D01*
X151195123Y-35378284D02*
X151195123Y-35330665D01*
X151195123Y-35330665D02*
X151242742Y-35235427D01*
X151242742Y-35235427D02*
X151337980Y-35187808D01*
X151337980Y-35187808D02*
X151480837Y-35187808D01*
X151480837Y-35187808D02*
X151576075Y-35235427D01*
X152052266Y-35854475D02*
X152052266Y-35187808D01*
X152052266Y-34854475D02*
X152004647Y-34902094D01*
X152004647Y-34902094D02*
X152052266Y-34949713D01*
X152052266Y-34949713D02*
X152099885Y-34902094D01*
X152099885Y-34902094D02*
X152052266Y-34854475D01*
X152052266Y-34854475D02*
X152052266Y-34949713D01*
X152957027Y-35187808D02*
X152957027Y-35997332D01*
X152957027Y-35997332D02*
X152909408Y-36092570D01*
X152909408Y-36092570D02*
X152861789Y-36140189D01*
X152861789Y-36140189D02*
X152766551Y-36187808D01*
X152766551Y-36187808D02*
X152623694Y-36187808D01*
X152623694Y-36187808D02*
X152528456Y-36140189D01*
X152957027Y-35806856D02*
X152861789Y-35854475D01*
X152861789Y-35854475D02*
X152671313Y-35854475D01*
X152671313Y-35854475D02*
X152576075Y-35806856D01*
X152576075Y-35806856D02*
X152528456Y-35759236D01*
X152528456Y-35759236D02*
X152480837Y-35663998D01*
X152480837Y-35663998D02*
X152480837Y-35378284D01*
X152480837Y-35378284D02*
X152528456Y-35283046D01*
X152528456Y-35283046D02*
X152576075Y-35235427D01*
X152576075Y-35235427D02*
X152671313Y-35187808D01*
X152671313Y-35187808D02*
X152861789Y-35187808D01*
X152861789Y-35187808D02*
X152957027Y-35235427D01*
X153433218Y-35187808D02*
X153433218Y-35854475D01*
X153433218Y-35283046D02*
X153480837Y-35235427D01*
X153480837Y-35235427D02*
X153576075Y-35187808D01*
X153576075Y-35187808D02*
X153718932Y-35187808D01*
X153718932Y-35187808D02*
X153814170Y-35235427D01*
X153814170Y-35235427D02*
X153861789Y-35330665D01*
X153861789Y-35330665D02*
X153861789Y-35854475D01*
X154766551Y-35854475D02*
X154766551Y-35330665D01*
X154766551Y-35330665D02*
X154718932Y-35235427D01*
X154718932Y-35235427D02*
X154623694Y-35187808D01*
X154623694Y-35187808D02*
X154433218Y-35187808D01*
X154433218Y-35187808D02*
X154337980Y-35235427D01*
X154766551Y-35806856D02*
X154671313Y-35854475D01*
X154671313Y-35854475D02*
X154433218Y-35854475D01*
X154433218Y-35854475D02*
X154337980Y-35806856D01*
X154337980Y-35806856D02*
X154290361Y-35711617D01*
X154290361Y-35711617D02*
X154290361Y-35616379D01*
X154290361Y-35616379D02*
X154337980Y-35521141D01*
X154337980Y-35521141D02*
X154433218Y-35473522D01*
X154433218Y-35473522D02*
X154671313Y-35473522D01*
X154671313Y-35473522D02*
X154766551Y-35425903D01*
X155385599Y-35854475D02*
X155290361Y-35806856D01*
X155290361Y-35806856D02*
X155242742Y-35711617D01*
X155242742Y-35711617D02*
X155242742Y-34854475D01*
X226871884Y-35686419D02*
X226871884Y-34686419D01*
X226871884Y-34686419D02*
X227443312Y-35686419D01*
X227443312Y-35686419D02*
X227443312Y-34686419D01*
X227919503Y-35162609D02*
X228252836Y-35162609D01*
X228395693Y-35686419D02*
X227919503Y-35686419D01*
X227919503Y-35686419D02*
X227919503Y-34686419D01*
X227919503Y-34686419D02*
X228395693Y-34686419D01*
X229014741Y-34686419D02*
X229205217Y-34686419D01*
X229205217Y-34686419D02*
X229300455Y-34734038D01*
X229300455Y-34734038D02*
X229395693Y-34829276D01*
X229395693Y-34829276D02*
X229443312Y-35019752D01*
X229443312Y-35019752D02*
X229443312Y-35353085D01*
X229443312Y-35353085D02*
X229395693Y-35543561D01*
X229395693Y-35543561D02*
X229300455Y-35638800D01*
X229300455Y-35638800D02*
X229205217Y-35686419D01*
X229205217Y-35686419D02*
X229014741Y-35686419D01*
X229014741Y-35686419D02*
X228919503Y-35638800D01*
X228919503Y-35638800D02*
X228824265Y-35543561D01*
X228824265Y-35543561D02*
X228776646Y-35353085D01*
X228776646Y-35353085D02*
X228776646Y-35019752D01*
X228776646Y-35019752D02*
X228824265Y-34829276D01*
X228824265Y-34829276D02*
X228919503Y-34734038D01*
X228919503Y-34734038D02*
X229014741Y-34686419D01*
X229871884Y-35686419D02*
X229871884Y-34686419D01*
X229871884Y-34686419D02*
X230252836Y-34686419D01*
X230252836Y-34686419D02*
X230348074Y-34734038D01*
X230348074Y-34734038D02*
X230395693Y-34781657D01*
X230395693Y-34781657D02*
X230443312Y-34876895D01*
X230443312Y-34876895D02*
X230443312Y-35019752D01*
X230443312Y-35019752D02*
X230395693Y-35114990D01*
X230395693Y-35114990D02*
X230348074Y-35162609D01*
X230348074Y-35162609D02*
X230252836Y-35210228D01*
X230252836Y-35210228D02*
X229871884Y-35210228D01*
X230871884Y-35686419D02*
X230871884Y-34686419D01*
X231252836Y-34686419D02*
X231919502Y-35686419D01*
X231919502Y-34686419D02*
X231252836Y-35686419D01*
X233062360Y-35686419D02*
X233062360Y-34686419D01*
X233062360Y-34686419D02*
X233443312Y-34686419D01*
X233443312Y-34686419D02*
X233538550Y-34734038D01*
X233538550Y-34734038D02*
X233586169Y-34781657D01*
X233586169Y-34781657D02*
X233633788Y-34876895D01*
X233633788Y-34876895D02*
X233633788Y-35019752D01*
X233633788Y-35019752D02*
X233586169Y-35114990D01*
X233586169Y-35114990D02*
X233538550Y-35162609D01*
X233538550Y-35162609D02*
X233443312Y-35210228D01*
X233443312Y-35210228D02*
X233062360Y-35210228D01*
X234062360Y-35686419D02*
X234062360Y-34686419D01*
X234490931Y-35400704D02*
X234967121Y-35400704D01*
X234395693Y-35686419D02*
X234729026Y-34686419D01*
X234729026Y-34686419D02*
X235062359Y-35686419D01*
X235395693Y-35686419D02*
X235395693Y-34686419D01*
X235395693Y-34686419D02*
X235967121Y-35686419D01*
X235967121Y-35686419D02*
X235967121Y-34686419D01*
X236633788Y-34686419D02*
X236824264Y-34686419D01*
X236824264Y-34686419D02*
X236919502Y-34734038D01*
X236919502Y-34734038D02*
X237014740Y-34829276D01*
X237014740Y-34829276D02*
X237062359Y-35019752D01*
X237062359Y-35019752D02*
X237062359Y-35353085D01*
X237062359Y-35353085D02*
X237014740Y-35543561D01*
X237014740Y-35543561D02*
X236919502Y-35638800D01*
X236919502Y-35638800D02*
X236824264Y-35686419D01*
X236824264Y-35686419D02*
X236633788Y-35686419D01*
X236633788Y-35686419D02*
X236538550Y-35638800D01*
X236538550Y-35638800D02*
X236443312Y-35543561D01*
X236443312Y-35543561D02*
X236395693Y-35353085D01*
X236395693Y-35353085D02*
X236395693Y-35019752D01*
X236395693Y-35019752D02*
X236443312Y-34829276D01*
X236443312Y-34829276D02*
X236538550Y-34734038D01*
X236538550Y-34734038D02*
X236633788Y-34686419D01*
X132207580Y-76472074D02*
X132207580Y-75995884D01*
X132207580Y-75995884D02*
X133207580Y-75995884D01*
X132207580Y-76805408D02*
X132874247Y-76805408D01*
X133207580Y-76805408D02*
X133159961Y-76757789D01*
X133159961Y-76757789D02*
X133112342Y-76805408D01*
X133112342Y-76805408D02*
X133159961Y-76853027D01*
X133159961Y-76853027D02*
X133207580Y-76805408D01*
X133207580Y-76805408D02*
X133112342Y-76805408D01*
X132874247Y-77710169D02*
X132064723Y-77710169D01*
X132064723Y-77710169D02*
X131969485Y-77662550D01*
X131969485Y-77662550D02*
X131921866Y-77614931D01*
X131921866Y-77614931D02*
X131874247Y-77519693D01*
X131874247Y-77519693D02*
X131874247Y-77376836D01*
X131874247Y-77376836D02*
X131921866Y-77281598D01*
X132255200Y-77710169D02*
X132207580Y-77614931D01*
X132207580Y-77614931D02*
X132207580Y-77424455D01*
X132207580Y-77424455D02*
X132255200Y-77329217D01*
X132255200Y-77329217D02*
X132302819Y-77281598D01*
X132302819Y-77281598D02*
X132398057Y-77233979D01*
X132398057Y-77233979D02*
X132683771Y-77233979D01*
X132683771Y-77233979D02*
X132779009Y-77281598D01*
X132779009Y-77281598D02*
X132826628Y-77329217D01*
X132826628Y-77329217D02*
X132874247Y-77424455D01*
X132874247Y-77424455D02*
X132874247Y-77614931D01*
X132874247Y-77614931D02*
X132826628Y-77710169D01*
X132874247Y-78186360D02*
X132207580Y-78186360D01*
X132779009Y-78186360D02*
X132826628Y-78233979D01*
X132826628Y-78233979D02*
X132874247Y-78329217D01*
X132874247Y-78329217D02*
X132874247Y-78472074D01*
X132874247Y-78472074D02*
X132826628Y-78567312D01*
X132826628Y-78567312D02*
X132731390Y-78614931D01*
X132731390Y-78614931D02*
X132207580Y-78614931D01*
X132255200Y-79472074D02*
X132207580Y-79376836D01*
X132207580Y-79376836D02*
X132207580Y-79186360D01*
X132207580Y-79186360D02*
X132255200Y-79091122D01*
X132255200Y-79091122D02*
X132350438Y-79043503D01*
X132350438Y-79043503D02*
X132731390Y-79043503D01*
X132731390Y-79043503D02*
X132826628Y-79091122D01*
X132826628Y-79091122D02*
X132874247Y-79186360D01*
X132874247Y-79186360D02*
X132874247Y-79376836D01*
X132874247Y-79376836D02*
X132826628Y-79472074D01*
X132826628Y-79472074D02*
X132731390Y-79519693D01*
X132731390Y-79519693D02*
X132636152Y-79519693D01*
X132636152Y-79519693D02*
X132540914Y-79043503D01*
X133207580Y-80900646D02*
X133207580Y-81091122D01*
X133207580Y-81091122D02*
X133159961Y-81186360D01*
X133159961Y-81186360D02*
X133064723Y-81281598D01*
X133064723Y-81281598D02*
X132874247Y-81329217D01*
X132874247Y-81329217D02*
X132540914Y-81329217D01*
X132540914Y-81329217D02*
X132350438Y-81281598D01*
X132350438Y-81281598D02*
X132255200Y-81186360D01*
X132255200Y-81186360D02*
X132207580Y-81091122D01*
X132207580Y-81091122D02*
X132207580Y-80900646D01*
X132207580Y-80900646D02*
X132255200Y-80805408D01*
X132255200Y-80805408D02*
X132350438Y-80710170D01*
X132350438Y-80710170D02*
X132540914Y-80662551D01*
X132540914Y-80662551D02*
X132874247Y-80662551D01*
X132874247Y-80662551D02*
X133064723Y-80710170D01*
X133064723Y-80710170D02*
X133159961Y-80805408D01*
X133159961Y-80805408D02*
X133207580Y-80900646D01*
X132255200Y-82186360D02*
X132207580Y-82091122D01*
X132207580Y-82091122D02*
X132207580Y-81900646D01*
X132207580Y-81900646D02*
X132255200Y-81805408D01*
X132255200Y-81805408D02*
X132302819Y-81757789D01*
X132302819Y-81757789D02*
X132398057Y-81710170D01*
X132398057Y-81710170D02*
X132683771Y-81710170D01*
X132683771Y-81710170D02*
X132779009Y-81757789D01*
X132779009Y-81757789D02*
X132826628Y-81805408D01*
X132826628Y-81805408D02*
X132874247Y-81900646D01*
X132874247Y-81900646D02*
X132874247Y-82091122D01*
X132874247Y-82091122D02*
X132826628Y-82186360D01*
X132874247Y-82472075D02*
X132874247Y-82853027D01*
X133207580Y-82614932D02*
X132350438Y-82614932D01*
X132350438Y-82614932D02*
X132255200Y-82662551D01*
X132255200Y-82662551D02*
X132207580Y-82757789D01*
X132207580Y-82757789D02*
X132207580Y-82853027D01*
X132207580Y-83614932D02*
X132731390Y-83614932D01*
X132731390Y-83614932D02*
X132826628Y-83567313D01*
X132826628Y-83567313D02*
X132874247Y-83472075D01*
X132874247Y-83472075D02*
X132874247Y-83281599D01*
X132874247Y-83281599D02*
X132826628Y-83186361D01*
X132255200Y-83614932D02*
X132207580Y-83519694D01*
X132207580Y-83519694D02*
X132207580Y-83281599D01*
X132207580Y-83281599D02*
X132255200Y-83186361D01*
X132255200Y-83186361D02*
X132350438Y-83138742D01*
X132350438Y-83138742D02*
X132445676Y-83138742D01*
X132445676Y-83138742D02*
X132540914Y-83186361D01*
X132540914Y-83186361D02*
X132588533Y-83281599D01*
X132588533Y-83281599D02*
X132588533Y-83519694D01*
X132588533Y-83519694D02*
X132636152Y-83614932D01*
X132874247Y-83995885D02*
X132207580Y-84233980D01*
X132207580Y-84233980D02*
X132874247Y-84472075D01*
X132255200Y-85233980D02*
X132207580Y-85138742D01*
X132207580Y-85138742D02*
X132207580Y-84948266D01*
X132207580Y-84948266D02*
X132255200Y-84853028D01*
X132255200Y-84853028D02*
X132350438Y-84805409D01*
X132350438Y-84805409D02*
X132731390Y-84805409D01*
X132731390Y-84805409D02*
X132826628Y-84853028D01*
X132826628Y-84853028D02*
X132874247Y-84948266D01*
X132874247Y-84948266D02*
X132874247Y-85138742D01*
X132874247Y-85138742D02*
X132826628Y-85233980D01*
X132826628Y-85233980D02*
X132731390Y-85281599D01*
X132731390Y-85281599D02*
X132636152Y-85281599D01*
X132636152Y-85281599D02*
X132540914Y-84805409D01*
X133112342Y-86424457D02*
X133159961Y-86472076D01*
X133159961Y-86472076D02*
X133207580Y-86567314D01*
X133207580Y-86567314D02*
X133207580Y-86805409D01*
X133207580Y-86805409D02*
X133159961Y-86900647D01*
X133159961Y-86900647D02*
X133112342Y-86948266D01*
X133112342Y-86948266D02*
X133017104Y-86995885D01*
X133017104Y-86995885D02*
X132921866Y-86995885D01*
X132921866Y-86995885D02*
X132779009Y-86948266D01*
X132779009Y-86948266D02*
X132207580Y-86376838D01*
X132207580Y-86376838D02*
X132207580Y-86995885D01*
X256666419Y-83039925D02*
X256666419Y-83516115D01*
X256666419Y-83516115D02*
X255666419Y-83516115D01*
X256666419Y-82706591D02*
X255999752Y-82706591D01*
X255666419Y-82706591D02*
X255714038Y-82754210D01*
X255714038Y-82754210D02*
X255761657Y-82706591D01*
X255761657Y-82706591D02*
X255714038Y-82658972D01*
X255714038Y-82658972D02*
X255666419Y-82706591D01*
X255666419Y-82706591D02*
X255761657Y-82706591D01*
X255999752Y-81801830D02*
X256809276Y-81801830D01*
X256809276Y-81801830D02*
X256904514Y-81849449D01*
X256904514Y-81849449D02*
X256952133Y-81897068D01*
X256952133Y-81897068D02*
X256999752Y-81992306D01*
X256999752Y-81992306D02*
X256999752Y-82135163D01*
X256999752Y-82135163D02*
X256952133Y-82230401D01*
X256618800Y-81801830D02*
X256666419Y-81897068D01*
X256666419Y-81897068D02*
X256666419Y-82087544D01*
X256666419Y-82087544D02*
X256618800Y-82182782D01*
X256618800Y-82182782D02*
X256571180Y-82230401D01*
X256571180Y-82230401D02*
X256475942Y-82278020D01*
X256475942Y-82278020D02*
X256190228Y-82278020D01*
X256190228Y-82278020D02*
X256094990Y-82230401D01*
X256094990Y-82230401D02*
X256047371Y-82182782D01*
X256047371Y-82182782D02*
X255999752Y-82087544D01*
X255999752Y-82087544D02*
X255999752Y-81897068D01*
X255999752Y-81897068D02*
X256047371Y-81801830D01*
X255999752Y-81325639D02*
X256666419Y-81325639D01*
X256094990Y-81325639D02*
X256047371Y-81278020D01*
X256047371Y-81278020D02*
X255999752Y-81182782D01*
X255999752Y-81182782D02*
X255999752Y-81039925D01*
X255999752Y-81039925D02*
X256047371Y-80944687D01*
X256047371Y-80944687D02*
X256142609Y-80897068D01*
X256142609Y-80897068D02*
X256666419Y-80897068D01*
X256618800Y-80039925D02*
X256666419Y-80135163D01*
X256666419Y-80135163D02*
X256666419Y-80325639D01*
X256666419Y-80325639D02*
X256618800Y-80420877D01*
X256618800Y-80420877D02*
X256523561Y-80468496D01*
X256523561Y-80468496D02*
X256142609Y-80468496D01*
X256142609Y-80468496D02*
X256047371Y-80420877D01*
X256047371Y-80420877D02*
X255999752Y-80325639D01*
X255999752Y-80325639D02*
X255999752Y-80135163D01*
X255999752Y-80135163D02*
X256047371Y-80039925D01*
X256047371Y-80039925D02*
X256142609Y-79992306D01*
X256142609Y-79992306D02*
X256237847Y-79992306D01*
X256237847Y-79992306D02*
X256333085Y-80468496D01*
X255666419Y-78611353D02*
X255666419Y-78420877D01*
X255666419Y-78420877D02*
X255714038Y-78325639D01*
X255714038Y-78325639D02*
X255809276Y-78230401D01*
X255809276Y-78230401D02*
X255999752Y-78182782D01*
X255999752Y-78182782D02*
X256333085Y-78182782D01*
X256333085Y-78182782D02*
X256523561Y-78230401D01*
X256523561Y-78230401D02*
X256618800Y-78325639D01*
X256618800Y-78325639D02*
X256666419Y-78420877D01*
X256666419Y-78420877D02*
X256666419Y-78611353D01*
X256666419Y-78611353D02*
X256618800Y-78706591D01*
X256618800Y-78706591D02*
X256523561Y-78801829D01*
X256523561Y-78801829D02*
X256333085Y-78849448D01*
X256333085Y-78849448D02*
X255999752Y-78849448D01*
X255999752Y-78849448D02*
X255809276Y-78801829D01*
X255809276Y-78801829D02*
X255714038Y-78706591D01*
X255714038Y-78706591D02*
X255666419Y-78611353D01*
X256618800Y-77325639D02*
X256666419Y-77420877D01*
X256666419Y-77420877D02*
X256666419Y-77611353D01*
X256666419Y-77611353D02*
X256618800Y-77706591D01*
X256618800Y-77706591D02*
X256571180Y-77754210D01*
X256571180Y-77754210D02*
X256475942Y-77801829D01*
X256475942Y-77801829D02*
X256190228Y-77801829D01*
X256190228Y-77801829D02*
X256094990Y-77754210D01*
X256094990Y-77754210D02*
X256047371Y-77706591D01*
X256047371Y-77706591D02*
X255999752Y-77611353D01*
X255999752Y-77611353D02*
X255999752Y-77420877D01*
X255999752Y-77420877D02*
X256047371Y-77325639D01*
X255999752Y-77039924D02*
X255999752Y-76658972D01*
X255666419Y-76897067D02*
X256523561Y-76897067D01*
X256523561Y-76897067D02*
X256618800Y-76849448D01*
X256618800Y-76849448D02*
X256666419Y-76754210D01*
X256666419Y-76754210D02*
X256666419Y-76658972D01*
X256666419Y-75897067D02*
X256142609Y-75897067D01*
X256142609Y-75897067D02*
X256047371Y-75944686D01*
X256047371Y-75944686D02*
X255999752Y-76039924D01*
X255999752Y-76039924D02*
X255999752Y-76230400D01*
X255999752Y-76230400D02*
X256047371Y-76325638D01*
X256618800Y-75897067D02*
X256666419Y-75992305D01*
X256666419Y-75992305D02*
X256666419Y-76230400D01*
X256666419Y-76230400D02*
X256618800Y-76325638D01*
X256618800Y-76325638D02*
X256523561Y-76373257D01*
X256523561Y-76373257D02*
X256428323Y-76373257D01*
X256428323Y-76373257D02*
X256333085Y-76325638D01*
X256333085Y-76325638D02*
X256285466Y-76230400D01*
X256285466Y-76230400D02*
X256285466Y-75992305D01*
X256285466Y-75992305D02*
X256237847Y-75897067D01*
X255999752Y-75516114D02*
X256666419Y-75278019D01*
X256666419Y-75278019D02*
X255999752Y-75039924D01*
X256618800Y-74278019D02*
X256666419Y-74373257D01*
X256666419Y-74373257D02*
X256666419Y-74563733D01*
X256666419Y-74563733D02*
X256618800Y-74658971D01*
X256618800Y-74658971D02*
X256523561Y-74706590D01*
X256523561Y-74706590D02*
X256142609Y-74706590D01*
X256142609Y-74706590D02*
X256047371Y-74658971D01*
X256047371Y-74658971D02*
X255999752Y-74563733D01*
X255999752Y-74563733D02*
X255999752Y-74373257D01*
X255999752Y-74373257D02*
X256047371Y-74278019D01*
X256047371Y-74278019D02*
X256142609Y-74230400D01*
X256142609Y-74230400D02*
X256237847Y-74230400D01*
X256237847Y-74230400D02*
X256333085Y-74706590D01*
X256666419Y-72516114D02*
X256666419Y-73087542D01*
X256666419Y-72801828D02*
X255666419Y-72801828D01*
X255666419Y-72801828D02*
X255809276Y-72897066D01*
X255809276Y-72897066D02*
X255904514Y-72992304D01*
X255904514Y-72992304D02*
X255952133Y-73087542D01*
X156831312Y-109251180D02*
X156783693Y-109298800D01*
X156783693Y-109298800D02*
X156640836Y-109346419D01*
X156640836Y-109346419D02*
X156545598Y-109346419D01*
X156545598Y-109346419D02*
X156402741Y-109298800D01*
X156402741Y-109298800D02*
X156307503Y-109203561D01*
X156307503Y-109203561D02*
X156259884Y-109108323D01*
X156259884Y-109108323D02*
X156212265Y-108917847D01*
X156212265Y-108917847D02*
X156212265Y-108774990D01*
X156212265Y-108774990D02*
X156259884Y-108584514D01*
X156259884Y-108584514D02*
X156307503Y-108489276D01*
X156307503Y-108489276D02*
X156402741Y-108394038D01*
X156402741Y-108394038D02*
X156545598Y-108346419D01*
X156545598Y-108346419D02*
X156640836Y-108346419D01*
X156640836Y-108346419D02*
X156783693Y-108394038D01*
X156783693Y-108394038D02*
X156831312Y-108441657D01*
X157402741Y-109346419D02*
X157307503Y-109298800D01*
X157307503Y-109298800D02*
X157259884Y-109251180D01*
X157259884Y-109251180D02*
X157212265Y-109155942D01*
X157212265Y-109155942D02*
X157212265Y-108870228D01*
X157212265Y-108870228D02*
X157259884Y-108774990D01*
X157259884Y-108774990D02*
X157307503Y-108727371D01*
X157307503Y-108727371D02*
X157402741Y-108679752D01*
X157402741Y-108679752D02*
X157545598Y-108679752D01*
X157545598Y-108679752D02*
X157640836Y-108727371D01*
X157640836Y-108727371D02*
X157688455Y-108774990D01*
X157688455Y-108774990D02*
X157736074Y-108870228D01*
X157736074Y-108870228D02*
X157736074Y-109155942D01*
X157736074Y-109155942D02*
X157688455Y-109251180D01*
X157688455Y-109251180D02*
X157640836Y-109298800D01*
X157640836Y-109298800D02*
X157545598Y-109346419D01*
X157545598Y-109346419D02*
X157402741Y-109346419D01*
X158307503Y-109346419D02*
X158212265Y-109298800D01*
X158212265Y-109298800D02*
X158164646Y-109203561D01*
X158164646Y-109203561D02*
X158164646Y-108346419D01*
X158831313Y-109346419D02*
X158736075Y-109298800D01*
X158736075Y-109298800D02*
X158688456Y-109251180D01*
X158688456Y-109251180D02*
X158640837Y-109155942D01*
X158640837Y-109155942D02*
X158640837Y-108870228D01*
X158640837Y-108870228D02*
X158688456Y-108774990D01*
X158688456Y-108774990D02*
X158736075Y-108727371D01*
X158736075Y-108727371D02*
X158831313Y-108679752D01*
X158831313Y-108679752D02*
X158974170Y-108679752D01*
X158974170Y-108679752D02*
X159069408Y-108727371D01*
X159069408Y-108727371D02*
X159117027Y-108774990D01*
X159117027Y-108774990D02*
X159164646Y-108870228D01*
X159164646Y-108870228D02*
X159164646Y-109155942D01*
X159164646Y-109155942D02*
X159117027Y-109251180D01*
X159117027Y-109251180D02*
X159069408Y-109298800D01*
X159069408Y-109298800D02*
X158974170Y-109346419D01*
X158974170Y-109346419D02*
X158831313Y-109346419D01*
X159593218Y-108679752D02*
X159593218Y-109346419D01*
X159593218Y-108774990D02*
X159640837Y-108727371D01*
X159640837Y-108727371D02*
X159736075Y-108679752D01*
X159736075Y-108679752D02*
X159878932Y-108679752D01*
X159878932Y-108679752D02*
X159974170Y-108727371D01*
X159974170Y-108727371D02*
X160021789Y-108822609D01*
X160021789Y-108822609D02*
X160021789Y-109346419D01*
X160497980Y-108679752D02*
X160497980Y-109346419D01*
X160497980Y-108774990D02*
X160545599Y-108727371D01*
X160545599Y-108727371D02*
X160640837Y-108679752D01*
X160640837Y-108679752D02*
X160783694Y-108679752D01*
X160783694Y-108679752D02*
X160878932Y-108727371D01*
X160878932Y-108727371D02*
X160926551Y-108822609D01*
X160926551Y-108822609D02*
X160926551Y-109346419D01*
X161783694Y-109298800D02*
X161688456Y-109346419D01*
X161688456Y-109346419D02*
X161497980Y-109346419D01*
X161497980Y-109346419D02*
X161402742Y-109298800D01*
X161402742Y-109298800D02*
X161355123Y-109203561D01*
X161355123Y-109203561D02*
X161355123Y-108822609D01*
X161355123Y-108822609D02*
X161402742Y-108727371D01*
X161402742Y-108727371D02*
X161497980Y-108679752D01*
X161497980Y-108679752D02*
X161688456Y-108679752D01*
X161688456Y-108679752D02*
X161783694Y-108727371D01*
X161783694Y-108727371D02*
X161831313Y-108822609D01*
X161831313Y-108822609D02*
X161831313Y-108917847D01*
X161831313Y-108917847D02*
X161355123Y-109013085D01*
X163164647Y-109346419D02*
X163069409Y-109298800D01*
X163069409Y-109298800D02*
X163021790Y-109251180D01*
X163021790Y-109251180D02*
X162974171Y-109155942D01*
X162974171Y-109155942D02*
X162974171Y-108870228D01*
X162974171Y-108870228D02*
X163021790Y-108774990D01*
X163021790Y-108774990D02*
X163069409Y-108727371D01*
X163069409Y-108727371D02*
X163164647Y-108679752D01*
X163164647Y-108679752D02*
X163307504Y-108679752D01*
X163307504Y-108679752D02*
X163402742Y-108727371D01*
X163402742Y-108727371D02*
X163450361Y-108774990D01*
X163450361Y-108774990D02*
X163497980Y-108870228D01*
X163497980Y-108870228D02*
X163497980Y-109155942D01*
X163497980Y-109155942D02*
X163450361Y-109251180D01*
X163450361Y-109251180D02*
X163402742Y-109298800D01*
X163402742Y-109298800D02*
X163307504Y-109346419D01*
X163307504Y-109346419D02*
X163164647Y-109346419D01*
X164355123Y-109298800D02*
X164259885Y-109346419D01*
X164259885Y-109346419D02*
X164069409Y-109346419D01*
X164069409Y-109346419D02*
X163974171Y-109298800D01*
X163974171Y-109298800D02*
X163926552Y-109251180D01*
X163926552Y-109251180D02*
X163878933Y-109155942D01*
X163878933Y-109155942D02*
X163878933Y-108870228D01*
X163878933Y-108870228D02*
X163926552Y-108774990D01*
X163926552Y-108774990D02*
X163974171Y-108727371D01*
X163974171Y-108727371D02*
X164069409Y-108679752D01*
X164069409Y-108679752D02*
X164259885Y-108679752D01*
X164259885Y-108679752D02*
X164355123Y-108727371D01*
X164640838Y-108679752D02*
X165021790Y-108679752D01*
X164783695Y-108346419D02*
X164783695Y-109203561D01*
X164783695Y-109203561D02*
X164831314Y-109298800D01*
X164831314Y-109298800D02*
X164926552Y-109346419D01*
X164926552Y-109346419D02*
X165021790Y-109346419D01*
X165783695Y-109346419D02*
X165783695Y-108822609D01*
X165783695Y-108822609D02*
X165736076Y-108727371D01*
X165736076Y-108727371D02*
X165640838Y-108679752D01*
X165640838Y-108679752D02*
X165450362Y-108679752D01*
X165450362Y-108679752D02*
X165355124Y-108727371D01*
X165783695Y-109298800D02*
X165688457Y-109346419D01*
X165688457Y-109346419D02*
X165450362Y-109346419D01*
X165450362Y-109346419D02*
X165355124Y-109298800D01*
X165355124Y-109298800D02*
X165307505Y-109203561D01*
X165307505Y-109203561D02*
X165307505Y-109108323D01*
X165307505Y-109108323D02*
X165355124Y-109013085D01*
X165355124Y-109013085D02*
X165450362Y-108965466D01*
X165450362Y-108965466D02*
X165688457Y-108965466D01*
X165688457Y-108965466D02*
X165783695Y-108917847D01*
X166164648Y-108679752D02*
X166402743Y-109346419D01*
X166402743Y-109346419D02*
X166640838Y-108679752D01*
X167402743Y-109298800D02*
X167307505Y-109346419D01*
X167307505Y-109346419D02*
X167117029Y-109346419D01*
X167117029Y-109346419D02*
X167021791Y-109298800D01*
X167021791Y-109298800D02*
X166974172Y-109203561D01*
X166974172Y-109203561D02*
X166974172Y-108822609D01*
X166974172Y-108822609D02*
X167021791Y-108727371D01*
X167021791Y-108727371D02*
X167117029Y-108679752D01*
X167117029Y-108679752D02*
X167307505Y-108679752D01*
X167307505Y-108679752D02*
X167402743Y-108727371D01*
X167402743Y-108727371D02*
X167450362Y-108822609D01*
X167450362Y-108822609D02*
X167450362Y-108917847D01*
X167450362Y-108917847D02*
X166974172Y-109013085D01*
X168593220Y-108441657D02*
X168640839Y-108394038D01*
X168640839Y-108394038D02*
X168736077Y-108346419D01*
X168736077Y-108346419D02*
X168974172Y-108346419D01*
X168974172Y-108346419D02*
X169069410Y-108394038D01*
X169069410Y-108394038D02*
X169117029Y-108441657D01*
X169117029Y-108441657D02*
X169164648Y-108536895D01*
X169164648Y-108536895D02*
X169164648Y-108632133D01*
X169164648Y-108632133D02*
X169117029Y-108774990D01*
X169117029Y-108774990D02*
X168545601Y-109346419D01*
X168545601Y-109346419D02*
X169164648Y-109346419D01*
X209758646Y-34940419D02*
X210377693Y-34940419D01*
X210377693Y-34940419D02*
X210044360Y-35321371D01*
X210044360Y-35321371D02*
X210187217Y-35321371D01*
X210187217Y-35321371D02*
X210282455Y-35368990D01*
X210282455Y-35368990D02*
X210330074Y-35416609D01*
X210330074Y-35416609D02*
X210377693Y-35511847D01*
X210377693Y-35511847D02*
X210377693Y-35749942D01*
X210377693Y-35749942D02*
X210330074Y-35845180D01*
X210330074Y-35845180D02*
X210282455Y-35892800D01*
X210282455Y-35892800D02*
X210187217Y-35940419D01*
X210187217Y-35940419D02*
X209901503Y-35940419D01*
X209901503Y-35940419D02*
X209806265Y-35892800D01*
X209806265Y-35892800D02*
X209758646Y-35845180D01*
X210663408Y-34940419D02*
X210996741Y-35940419D01*
X210996741Y-35940419D02*
X211330074Y-34940419D01*
X211568170Y-34940419D02*
X212187217Y-34940419D01*
X212187217Y-34940419D02*
X211853884Y-35321371D01*
X211853884Y-35321371D02*
X211996741Y-35321371D01*
X211996741Y-35321371D02*
X212091979Y-35368990D01*
X212091979Y-35368990D02*
X212139598Y-35416609D01*
X212139598Y-35416609D02*
X212187217Y-35511847D01*
X212187217Y-35511847D02*
X212187217Y-35749942D01*
X212187217Y-35749942D02*
X212139598Y-35845180D01*
X212139598Y-35845180D02*
X212091979Y-35892800D01*
X212091979Y-35892800D02*
X211996741Y-35940419D01*
X211996741Y-35940419D02*
X211711027Y-35940419D01*
X211711027Y-35940419D02*
X211615789Y-35892800D01*
X211615789Y-35892800D02*
X211568170Y-35845180D01*
X239063884Y-35686419D02*
X239063884Y-34686419D01*
X239063884Y-34686419D02*
X239635312Y-35686419D01*
X239635312Y-35686419D02*
X239635312Y-34686419D01*
X240111503Y-35162609D02*
X240444836Y-35162609D01*
X240587693Y-35686419D02*
X240111503Y-35686419D01*
X240111503Y-35686419D02*
X240111503Y-34686419D01*
X240111503Y-34686419D02*
X240587693Y-34686419D01*
X241206741Y-34686419D02*
X241397217Y-34686419D01*
X241397217Y-34686419D02*
X241492455Y-34734038D01*
X241492455Y-34734038D02*
X241587693Y-34829276D01*
X241587693Y-34829276D02*
X241635312Y-35019752D01*
X241635312Y-35019752D02*
X241635312Y-35353085D01*
X241635312Y-35353085D02*
X241587693Y-35543561D01*
X241587693Y-35543561D02*
X241492455Y-35638800D01*
X241492455Y-35638800D02*
X241397217Y-35686419D01*
X241397217Y-35686419D02*
X241206741Y-35686419D01*
X241206741Y-35686419D02*
X241111503Y-35638800D01*
X241111503Y-35638800D02*
X241016265Y-35543561D01*
X241016265Y-35543561D02*
X240968646Y-35353085D01*
X240968646Y-35353085D02*
X240968646Y-35019752D01*
X240968646Y-35019752D02*
X241016265Y-34829276D01*
X241016265Y-34829276D02*
X241111503Y-34734038D01*
X241111503Y-34734038D02*
X241206741Y-34686419D01*
X242063884Y-35686419D02*
X242063884Y-34686419D01*
X242063884Y-34686419D02*
X242444836Y-34686419D01*
X242444836Y-34686419D02*
X242540074Y-34734038D01*
X242540074Y-34734038D02*
X242587693Y-34781657D01*
X242587693Y-34781657D02*
X242635312Y-34876895D01*
X242635312Y-34876895D02*
X242635312Y-35019752D01*
X242635312Y-35019752D02*
X242587693Y-35114990D01*
X242587693Y-35114990D02*
X242540074Y-35162609D01*
X242540074Y-35162609D02*
X242444836Y-35210228D01*
X242444836Y-35210228D02*
X242063884Y-35210228D01*
X243063884Y-35686419D02*
X243063884Y-34686419D01*
X243444836Y-34686419D02*
X244111502Y-35686419D01*
X244111502Y-34686419D02*
X243444836Y-35686419D01*
X245587693Y-35162609D02*
X245730550Y-35210228D01*
X245730550Y-35210228D02*
X245778169Y-35257847D01*
X245778169Y-35257847D02*
X245825788Y-35353085D01*
X245825788Y-35353085D02*
X245825788Y-35495942D01*
X245825788Y-35495942D02*
X245778169Y-35591180D01*
X245778169Y-35591180D02*
X245730550Y-35638800D01*
X245730550Y-35638800D02*
X245635312Y-35686419D01*
X245635312Y-35686419D02*
X245254360Y-35686419D01*
X245254360Y-35686419D02*
X245254360Y-34686419D01*
X245254360Y-34686419D02*
X245587693Y-34686419D01*
X245587693Y-34686419D02*
X245682931Y-34734038D01*
X245682931Y-34734038D02*
X245730550Y-34781657D01*
X245730550Y-34781657D02*
X245778169Y-34876895D01*
X245778169Y-34876895D02*
X245778169Y-34972133D01*
X245778169Y-34972133D02*
X245730550Y-35067371D01*
X245730550Y-35067371D02*
X245682931Y-35114990D01*
X245682931Y-35114990D02*
X245587693Y-35162609D01*
X245587693Y-35162609D02*
X245254360Y-35162609D01*
X246206741Y-35400704D02*
X246682931Y-35400704D01*
X246111503Y-35686419D02*
X246444836Y-34686419D01*
X246444836Y-34686419D02*
X246778169Y-35686419D01*
X246968646Y-34686419D02*
X247540074Y-34686419D01*
X247254360Y-35686419D02*
X247254360Y-34686419D01*
X247730551Y-34686419D02*
X248301979Y-34686419D01*
X248016265Y-35686419D02*
X248016265Y-34686419D01*
X248635313Y-35162609D02*
X248968646Y-35162609D01*
X249111503Y-35686419D02*
X248635313Y-35686419D01*
X248635313Y-35686419D02*
X248635313Y-34686419D01*
X248635313Y-34686419D02*
X249111503Y-34686419D01*
X250111503Y-35686419D02*
X249778170Y-35210228D01*
X249540075Y-35686419D02*
X249540075Y-34686419D01*
X249540075Y-34686419D02*
X249921027Y-34686419D01*
X249921027Y-34686419D02*
X250016265Y-34734038D01*
X250016265Y-34734038D02*
X250063884Y-34781657D01*
X250063884Y-34781657D02*
X250111503Y-34876895D01*
X250111503Y-34876895D02*
X250111503Y-35019752D01*
X250111503Y-35019752D02*
X250063884Y-35114990D01*
X250063884Y-35114990D02*
X250016265Y-35162609D01*
X250016265Y-35162609D02*
X249921027Y-35210228D01*
X249921027Y-35210228D02*
X249540075Y-35210228D01*
X250540075Y-35686419D02*
X250540075Y-34686419D01*
X251016265Y-35162609D02*
X251349598Y-35162609D01*
X251492455Y-35686419D02*
X251016265Y-35686419D01*
X251016265Y-35686419D02*
X251016265Y-34686419D01*
X251016265Y-34686419D02*
X251492455Y-34686419D01*
X171325217Y-35416609D02*
X171468074Y-35464228D01*
X171468074Y-35464228D02*
X171515693Y-35511847D01*
X171515693Y-35511847D02*
X171563312Y-35607085D01*
X171563312Y-35607085D02*
X171563312Y-35749942D01*
X171563312Y-35749942D02*
X171515693Y-35845180D01*
X171515693Y-35845180D02*
X171468074Y-35892800D01*
X171468074Y-35892800D02*
X171372836Y-35940419D01*
X171372836Y-35940419D02*
X170991884Y-35940419D01*
X170991884Y-35940419D02*
X170991884Y-34940419D01*
X170991884Y-34940419D02*
X171325217Y-34940419D01*
X171325217Y-34940419D02*
X171420455Y-34988038D01*
X171420455Y-34988038D02*
X171468074Y-35035657D01*
X171468074Y-35035657D02*
X171515693Y-35130895D01*
X171515693Y-35130895D02*
X171515693Y-35226133D01*
X171515693Y-35226133D02*
X171468074Y-35321371D01*
X171468074Y-35321371D02*
X171420455Y-35368990D01*
X171420455Y-35368990D02*
X171325217Y-35416609D01*
X171325217Y-35416609D02*
X170991884Y-35416609D01*
X171849027Y-34940419D02*
X172420455Y-34940419D01*
X172134741Y-35940419D02*
X172134741Y-34940419D01*
X172753789Y-35940419D02*
X172753789Y-34940419D01*
X172753789Y-34940419D02*
X173325217Y-35940419D01*
X173325217Y-35940419D02*
X173325217Y-34940419D01*
X225665312Y-108743180D02*
X225617693Y-108790800D01*
X225617693Y-108790800D02*
X225474836Y-108838419D01*
X225474836Y-108838419D02*
X225379598Y-108838419D01*
X225379598Y-108838419D02*
X225236741Y-108790800D01*
X225236741Y-108790800D02*
X225141503Y-108695561D01*
X225141503Y-108695561D02*
X225093884Y-108600323D01*
X225093884Y-108600323D02*
X225046265Y-108409847D01*
X225046265Y-108409847D02*
X225046265Y-108266990D01*
X225046265Y-108266990D02*
X225093884Y-108076514D01*
X225093884Y-108076514D02*
X225141503Y-107981276D01*
X225141503Y-107981276D02*
X225236741Y-107886038D01*
X225236741Y-107886038D02*
X225379598Y-107838419D01*
X225379598Y-107838419D02*
X225474836Y-107838419D01*
X225474836Y-107838419D02*
X225617693Y-107886038D01*
X225617693Y-107886038D02*
X225665312Y-107933657D01*
X226236741Y-108838419D02*
X226141503Y-108790800D01*
X226141503Y-108790800D02*
X226093884Y-108743180D01*
X226093884Y-108743180D02*
X226046265Y-108647942D01*
X226046265Y-108647942D02*
X226046265Y-108362228D01*
X226046265Y-108362228D02*
X226093884Y-108266990D01*
X226093884Y-108266990D02*
X226141503Y-108219371D01*
X226141503Y-108219371D02*
X226236741Y-108171752D01*
X226236741Y-108171752D02*
X226379598Y-108171752D01*
X226379598Y-108171752D02*
X226474836Y-108219371D01*
X226474836Y-108219371D02*
X226522455Y-108266990D01*
X226522455Y-108266990D02*
X226570074Y-108362228D01*
X226570074Y-108362228D02*
X226570074Y-108647942D01*
X226570074Y-108647942D02*
X226522455Y-108743180D01*
X226522455Y-108743180D02*
X226474836Y-108790800D01*
X226474836Y-108790800D02*
X226379598Y-108838419D01*
X226379598Y-108838419D02*
X226236741Y-108838419D01*
X227141503Y-108838419D02*
X227046265Y-108790800D01*
X227046265Y-108790800D02*
X226998646Y-108695561D01*
X226998646Y-108695561D02*
X226998646Y-107838419D01*
X227665313Y-108838419D02*
X227570075Y-108790800D01*
X227570075Y-108790800D02*
X227522456Y-108743180D01*
X227522456Y-108743180D02*
X227474837Y-108647942D01*
X227474837Y-108647942D02*
X227474837Y-108362228D01*
X227474837Y-108362228D02*
X227522456Y-108266990D01*
X227522456Y-108266990D02*
X227570075Y-108219371D01*
X227570075Y-108219371D02*
X227665313Y-108171752D01*
X227665313Y-108171752D02*
X227808170Y-108171752D01*
X227808170Y-108171752D02*
X227903408Y-108219371D01*
X227903408Y-108219371D02*
X227951027Y-108266990D01*
X227951027Y-108266990D02*
X227998646Y-108362228D01*
X227998646Y-108362228D02*
X227998646Y-108647942D01*
X227998646Y-108647942D02*
X227951027Y-108743180D01*
X227951027Y-108743180D02*
X227903408Y-108790800D01*
X227903408Y-108790800D02*
X227808170Y-108838419D01*
X227808170Y-108838419D02*
X227665313Y-108838419D01*
X228427218Y-108171752D02*
X228427218Y-108838419D01*
X228427218Y-108266990D02*
X228474837Y-108219371D01*
X228474837Y-108219371D02*
X228570075Y-108171752D01*
X228570075Y-108171752D02*
X228712932Y-108171752D01*
X228712932Y-108171752D02*
X228808170Y-108219371D01*
X228808170Y-108219371D02*
X228855789Y-108314609D01*
X228855789Y-108314609D02*
X228855789Y-108838419D01*
X229331980Y-108171752D02*
X229331980Y-108838419D01*
X229331980Y-108266990D02*
X229379599Y-108219371D01*
X229379599Y-108219371D02*
X229474837Y-108171752D01*
X229474837Y-108171752D02*
X229617694Y-108171752D01*
X229617694Y-108171752D02*
X229712932Y-108219371D01*
X229712932Y-108219371D02*
X229760551Y-108314609D01*
X229760551Y-108314609D02*
X229760551Y-108838419D01*
X230617694Y-108790800D02*
X230522456Y-108838419D01*
X230522456Y-108838419D02*
X230331980Y-108838419D01*
X230331980Y-108838419D02*
X230236742Y-108790800D01*
X230236742Y-108790800D02*
X230189123Y-108695561D01*
X230189123Y-108695561D02*
X230189123Y-108314609D01*
X230189123Y-108314609D02*
X230236742Y-108219371D01*
X230236742Y-108219371D02*
X230331980Y-108171752D01*
X230331980Y-108171752D02*
X230522456Y-108171752D01*
X230522456Y-108171752D02*
X230617694Y-108219371D01*
X230617694Y-108219371D02*
X230665313Y-108314609D01*
X230665313Y-108314609D02*
X230665313Y-108409847D01*
X230665313Y-108409847D02*
X230189123Y-108505085D01*
X231998647Y-108838419D02*
X231903409Y-108790800D01*
X231903409Y-108790800D02*
X231855790Y-108743180D01*
X231855790Y-108743180D02*
X231808171Y-108647942D01*
X231808171Y-108647942D02*
X231808171Y-108362228D01*
X231808171Y-108362228D02*
X231855790Y-108266990D01*
X231855790Y-108266990D02*
X231903409Y-108219371D01*
X231903409Y-108219371D02*
X231998647Y-108171752D01*
X231998647Y-108171752D02*
X232141504Y-108171752D01*
X232141504Y-108171752D02*
X232236742Y-108219371D01*
X232236742Y-108219371D02*
X232284361Y-108266990D01*
X232284361Y-108266990D02*
X232331980Y-108362228D01*
X232331980Y-108362228D02*
X232331980Y-108647942D01*
X232331980Y-108647942D02*
X232284361Y-108743180D01*
X232284361Y-108743180D02*
X232236742Y-108790800D01*
X232236742Y-108790800D02*
X232141504Y-108838419D01*
X232141504Y-108838419D02*
X231998647Y-108838419D01*
X233189123Y-108790800D02*
X233093885Y-108838419D01*
X233093885Y-108838419D02*
X232903409Y-108838419D01*
X232903409Y-108838419D02*
X232808171Y-108790800D01*
X232808171Y-108790800D02*
X232760552Y-108743180D01*
X232760552Y-108743180D02*
X232712933Y-108647942D01*
X232712933Y-108647942D02*
X232712933Y-108362228D01*
X232712933Y-108362228D02*
X232760552Y-108266990D01*
X232760552Y-108266990D02*
X232808171Y-108219371D01*
X232808171Y-108219371D02*
X232903409Y-108171752D01*
X232903409Y-108171752D02*
X233093885Y-108171752D01*
X233093885Y-108171752D02*
X233189123Y-108219371D01*
X233474838Y-108171752D02*
X233855790Y-108171752D01*
X233617695Y-107838419D02*
X233617695Y-108695561D01*
X233617695Y-108695561D02*
X233665314Y-108790800D01*
X233665314Y-108790800D02*
X233760552Y-108838419D01*
X233760552Y-108838419D02*
X233855790Y-108838419D01*
X234617695Y-108838419D02*
X234617695Y-108314609D01*
X234617695Y-108314609D02*
X234570076Y-108219371D01*
X234570076Y-108219371D02*
X234474838Y-108171752D01*
X234474838Y-108171752D02*
X234284362Y-108171752D01*
X234284362Y-108171752D02*
X234189124Y-108219371D01*
X234617695Y-108790800D02*
X234522457Y-108838419D01*
X234522457Y-108838419D02*
X234284362Y-108838419D01*
X234284362Y-108838419D02*
X234189124Y-108790800D01*
X234189124Y-108790800D02*
X234141505Y-108695561D01*
X234141505Y-108695561D02*
X234141505Y-108600323D01*
X234141505Y-108600323D02*
X234189124Y-108505085D01*
X234189124Y-108505085D02*
X234284362Y-108457466D01*
X234284362Y-108457466D02*
X234522457Y-108457466D01*
X234522457Y-108457466D02*
X234617695Y-108409847D01*
X234998648Y-108171752D02*
X235236743Y-108838419D01*
X235236743Y-108838419D02*
X235474838Y-108171752D01*
X236236743Y-108790800D02*
X236141505Y-108838419D01*
X236141505Y-108838419D02*
X235951029Y-108838419D01*
X235951029Y-108838419D02*
X235855791Y-108790800D01*
X235855791Y-108790800D02*
X235808172Y-108695561D01*
X235808172Y-108695561D02*
X235808172Y-108314609D01*
X235808172Y-108314609D02*
X235855791Y-108219371D01*
X235855791Y-108219371D02*
X235951029Y-108171752D01*
X235951029Y-108171752D02*
X236141505Y-108171752D01*
X236141505Y-108171752D02*
X236236743Y-108219371D01*
X236236743Y-108219371D02*
X236284362Y-108314609D01*
X236284362Y-108314609D02*
X236284362Y-108409847D01*
X236284362Y-108409847D02*
X235808172Y-108505085D01*
X237998648Y-108838419D02*
X237427220Y-108838419D01*
X237712934Y-108838419D02*
X237712934Y-107838419D01*
X237712934Y-107838419D02*
X237617696Y-107981276D01*
X237617696Y-107981276D02*
X237522458Y-108076514D01*
X237522458Y-108076514D02*
X237427220Y-108124133D01*
D11*
X234795905Y-77644819D02*
X234795905Y-76644819D01*
X234795905Y-76644819D02*
X235034000Y-76644819D01*
X235034000Y-76644819D02*
X235176857Y-76692438D01*
X235176857Y-76692438D02*
X235272095Y-76787676D01*
X235272095Y-76787676D02*
X235319714Y-76882914D01*
X235319714Y-76882914D02*
X235367333Y-77073390D01*
X235367333Y-77073390D02*
X235367333Y-77216247D01*
X235367333Y-77216247D02*
X235319714Y-77406723D01*
X235319714Y-77406723D02*
X235272095Y-77501961D01*
X235272095Y-77501961D02*
X235176857Y-77597200D01*
X235176857Y-77597200D02*
X235034000Y-77644819D01*
X235034000Y-77644819D02*
X234795905Y-77644819D01*
X236224476Y-76644819D02*
X236034000Y-76644819D01*
X236034000Y-76644819D02*
X235938762Y-76692438D01*
X235938762Y-76692438D02*
X235891143Y-76740057D01*
X235891143Y-76740057D02*
X235795905Y-76882914D01*
X235795905Y-76882914D02*
X235748286Y-77073390D01*
X235748286Y-77073390D02*
X235748286Y-77454342D01*
X235748286Y-77454342D02*
X235795905Y-77549580D01*
X235795905Y-77549580D02*
X235843524Y-77597200D01*
X235843524Y-77597200D02*
X235938762Y-77644819D01*
X235938762Y-77644819D02*
X236129238Y-77644819D01*
X236129238Y-77644819D02*
X236224476Y-77597200D01*
X236224476Y-77597200D02*
X236272095Y-77549580D01*
X236272095Y-77549580D02*
X236319714Y-77454342D01*
X236319714Y-77454342D02*
X236319714Y-77216247D01*
X236319714Y-77216247D02*
X236272095Y-77121009D01*
X236272095Y-77121009D02*
X236224476Y-77073390D01*
X236224476Y-77073390D02*
X236129238Y-77025771D01*
X236129238Y-77025771D02*
X235938762Y-77025771D01*
X235938762Y-77025771D02*
X235843524Y-77073390D01*
X235843524Y-77073390D02*
X235795905Y-77121009D01*
X235795905Y-77121009D02*
X235748286Y-77216247D01*
X231462095Y-77964819D02*
X231462095Y-76964819D01*
X232033523Y-77964819D02*
X231604952Y-77393390D01*
X232033523Y-76964819D02*
X231462095Y-77536247D01*
X151185714Y-63794819D02*
X151185714Y-62794819D01*
X151185714Y-62794819D02*
X151423809Y-62794819D01*
X151423809Y-62794819D02*
X151566666Y-62842438D01*
X151566666Y-62842438D02*
X151661904Y-62937676D01*
X151661904Y-62937676D02*
X151709523Y-63032914D01*
X151709523Y-63032914D02*
X151757142Y-63223390D01*
X151757142Y-63223390D02*
X151757142Y-63366247D01*
X151757142Y-63366247D02*
X151709523Y-63556723D01*
X151709523Y-63556723D02*
X151661904Y-63651961D01*
X151661904Y-63651961D02*
X151566666Y-63747200D01*
X151566666Y-63747200D02*
X151423809Y-63794819D01*
X151423809Y-63794819D02*
X151185714Y-63794819D01*
X152138095Y-62890057D02*
X152185714Y-62842438D01*
X152185714Y-62842438D02*
X152280952Y-62794819D01*
X152280952Y-62794819D02*
X152519047Y-62794819D01*
X152519047Y-62794819D02*
X152614285Y-62842438D01*
X152614285Y-62842438D02*
X152661904Y-62890057D01*
X152661904Y-62890057D02*
X152709523Y-62985295D01*
X152709523Y-62985295D02*
X152709523Y-63080533D01*
X152709523Y-63080533D02*
X152661904Y-63223390D01*
X152661904Y-63223390D02*
X152090476Y-63794819D01*
X152090476Y-63794819D02*
X152709523Y-63794819D01*
X153661904Y-63794819D02*
X153090476Y-63794819D01*
X153376190Y-63794819D02*
X153376190Y-62794819D01*
X153376190Y-62794819D02*
X153280952Y-62937676D01*
X153280952Y-62937676D02*
X153185714Y-63032914D01*
X153185714Y-63032914D02*
X153090476Y-63080533D01*
X155948095Y-63474819D02*
X155948095Y-62474819D01*
X156519523Y-63474819D02*
X156090952Y-62903390D01*
X156519523Y-62474819D02*
X155948095Y-63046247D01*
X234795905Y-91744819D02*
X234795905Y-90744819D01*
X234795905Y-90744819D02*
X235034000Y-90744819D01*
X235034000Y-90744819D02*
X235176857Y-90792438D01*
X235176857Y-90792438D02*
X235272095Y-90887676D01*
X235272095Y-90887676D02*
X235319714Y-90982914D01*
X235319714Y-90982914D02*
X235367333Y-91173390D01*
X235367333Y-91173390D02*
X235367333Y-91316247D01*
X235367333Y-91316247D02*
X235319714Y-91506723D01*
X235319714Y-91506723D02*
X235272095Y-91601961D01*
X235272095Y-91601961D02*
X235176857Y-91697200D01*
X235176857Y-91697200D02*
X235034000Y-91744819D01*
X235034000Y-91744819D02*
X234795905Y-91744819D01*
X235748286Y-90840057D02*
X235795905Y-90792438D01*
X235795905Y-90792438D02*
X235891143Y-90744819D01*
X235891143Y-90744819D02*
X236129238Y-90744819D01*
X236129238Y-90744819D02*
X236224476Y-90792438D01*
X236224476Y-90792438D02*
X236272095Y-90840057D01*
X236272095Y-90840057D02*
X236319714Y-90935295D01*
X236319714Y-90935295D02*
X236319714Y-91030533D01*
X236319714Y-91030533D02*
X236272095Y-91173390D01*
X236272095Y-91173390D02*
X235700667Y-91744819D01*
X235700667Y-91744819D02*
X236319714Y-91744819D01*
X231462095Y-92064819D02*
X231462095Y-91064819D01*
X232033523Y-92064819D02*
X231604952Y-91493390D01*
X232033523Y-91064819D02*
X231462095Y-91636247D01*
X219765714Y-42530819D02*
X219765714Y-41530819D01*
X219765714Y-41530819D02*
X220003809Y-41530819D01*
X220003809Y-41530819D02*
X220146666Y-41578438D01*
X220146666Y-41578438D02*
X220241904Y-41673676D01*
X220241904Y-41673676D02*
X220289523Y-41768914D01*
X220289523Y-41768914D02*
X220337142Y-41959390D01*
X220337142Y-41959390D02*
X220337142Y-42102247D01*
X220337142Y-42102247D02*
X220289523Y-42292723D01*
X220289523Y-42292723D02*
X220241904Y-42387961D01*
X220241904Y-42387961D02*
X220146666Y-42483200D01*
X220146666Y-42483200D02*
X220003809Y-42530819D01*
X220003809Y-42530819D02*
X219765714Y-42530819D01*
X220718095Y-41626057D02*
X220765714Y-41578438D01*
X220765714Y-41578438D02*
X220860952Y-41530819D01*
X220860952Y-41530819D02*
X221099047Y-41530819D01*
X221099047Y-41530819D02*
X221194285Y-41578438D01*
X221194285Y-41578438D02*
X221241904Y-41626057D01*
X221241904Y-41626057D02*
X221289523Y-41721295D01*
X221289523Y-41721295D02*
X221289523Y-41816533D01*
X221289523Y-41816533D02*
X221241904Y-41959390D01*
X221241904Y-41959390D02*
X220670476Y-42530819D01*
X220670476Y-42530819D02*
X221289523Y-42530819D01*
X222146666Y-41530819D02*
X221956190Y-41530819D01*
X221956190Y-41530819D02*
X221860952Y-41578438D01*
X221860952Y-41578438D02*
X221813333Y-41626057D01*
X221813333Y-41626057D02*
X221718095Y-41768914D01*
X221718095Y-41768914D02*
X221670476Y-41959390D01*
X221670476Y-41959390D02*
X221670476Y-42340342D01*
X221670476Y-42340342D02*
X221718095Y-42435580D01*
X221718095Y-42435580D02*
X221765714Y-42483200D01*
X221765714Y-42483200D02*
X221860952Y-42530819D01*
X221860952Y-42530819D02*
X222051428Y-42530819D01*
X222051428Y-42530819D02*
X222146666Y-42483200D01*
X222146666Y-42483200D02*
X222194285Y-42435580D01*
X222194285Y-42435580D02*
X222241904Y-42340342D01*
X222241904Y-42340342D02*
X222241904Y-42102247D01*
X222241904Y-42102247D02*
X222194285Y-42007009D01*
X222194285Y-42007009D02*
X222146666Y-41959390D01*
X222146666Y-41959390D02*
X222051428Y-41911771D01*
X222051428Y-41911771D02*
X221860952Y-41911771D01*
X221860952Y-41911771D02*
X221765714Y-41959390D01*
X221765714Y-41959390D02*
X221718095Y-42007009D01*
X221718095Y-42007009D02*
X221670476Y-42102247D01*
X159244819Y-105743333D02*
X159959104Y-105743333D01*
X159959104Y-105743333D02*
X160101961Y-105790952D01*
X160101961Y-105790952D02*
X160197200Y-105886190D01*
X160197200Y-105886190D02*
X160244819Y-106029047D01*
X160244819Y-106029047D02*
X160244819Y-106124285D01*
X159673390Y-105124285D02*
X159625771Y-105219523D01*
X159625771Y-105219523D02*
X159578152Y-105267142D01*
X159578152Y-105267142D02*
X159482914Y-105314761D01*
X159482914Y-105314761D02*
X159435295Y-105314761D01*
X159435295Y-105314761D02*
X159340057Y-105267142D01*
X159340057Y-105267142D02*
X159292438Y-105219523D01*
X159292438Y-105219523D02*
X159244819Y-105124285D01*
X159244819Y-105124285D02*
X159244819Y-104933809D01*
X159244819Y-104933809D02*
X159292438Y-104838571D01*
X159292438Y-104838571D02*
X159340057Y-104790952D01*
X159340057Y-104790952D02*
X159435295Y-104743333D01*
X159435295Y-104743333D02*
X159482914Y-104743333D01*
X159482914Y-104743333D02*
X159578152Y-104790952D01*
X159578152Y-104790952D02*
X159625771Y-104838571D01*
X159625771Y-104838571D02*
X159673390Y-104933809D01*
X159673390Y-104933809D02*
X159673390Y-105124285D01*
X159673390Y-105124285D02*
X159721009Y-105219523D01*
X159721009Y-105219523D02*
X159768628Y-105267142D01*
X159768628Y-105267142D02*
X159863866Y-105314761D01*
X159863866Y-105314761D02*
X160054342Y-105314761D01*
X160054342Y-105314761D02*
X160149580Y-105267142D01*
X160149580Y-105267142D02*
X160197200Y-105219523D01*
X160197200Y-105219523D02*
X160244819Y-105124285D01*
X160244819Y-105124285D02*
X160244819Y-104933809D01*
X160244819Y-104933809D02*
X160197200Y-104838571D01*
X160197200Y-104838571D02*
X160149580Y-104790952D01*
X160149580Y-104790952D02*
X160054342Y-104743333D01*
X160054342Y-104743333D02*
X159863866Y-104743333D01*
X159863866Y-104743333D02*
X159768628Y-104790952D01*
X159768628Y-104790952D02*
X159721009Y-104838571D01*
X159721009Y-104838571D02*
X159673390Y-104933809D01*
X151185714Y-71414819D02*
X151185714Y-70414819D01*
X151185714Y-70414819D02*
X151423809Y-70414819D01*
X151423809Y-70414819D02*
X151566666Y-70462438D01*
X151566666Y-70462438D02*
X151661904Y-70557676D01*
X151661904Y-70557676D02*
X151709523Y-70652914D01*
X151709523Y-70652914D02*
X151757142Y-70843390D01*
X151757142Y-70843390D02*
X151757142Y-70986247D01*
X151757142Y-70986247D02*
X151709523Y-71176723D01*
X151709523Y-71176723D02*
X151661904Y-71271961D01*
X151661904Y-71271961D02*
X151566666Y-71367200D01*
X151566666Y-71367200D02*
X151423809Y-71414819D01*
X151423809Y-71414819D02*
X151185714Y-71414819D01*
X152709523Y-71414819D02*
X152138095Y-71414819D01*
X152423809Y-71414819D02*
X152423809Y-70414819D01*
X152423809Y-70414819D02*
X152328571Y-70557676D01*
X152328571Y-70557676D02*
X152233333Y-70652914D01*
X152233333Y-70652914D02*
X152138095Y-70700533D01*
X153042857Y-70414819D02*
X153709523Y-70414819D01*
X153709523Y-70414819D02*
X153280952Y-71414819D01*
X155948095Y-71094819D02*
X155948095Y-70094819D01*
X156519523Y-71094819D02*
X156090952Y-70523390D01*
X156519523Y-70094819D02*
X155948095Y-70666247D01*
X234795905Y-88194819D02*
X234795905Y-87194819D01*
X234795905Y-87194819D02*
X235034000Y-87194819D01*
X235034000Y-87194819D02*
X235176857Y-87242438D01*
X235176857Y-87242438D02*
X235272095Y-87337676D01*
X235272095Y-87337676D02*
X235319714Y-87432914D01*
X235319714Y-87432914D02*
X235367333Y-87623390D01*
X235367333Y-87623390D02*
X235367333Y-87766247D01*
X235367333Y-87766247D02*
X235319714Y-87956723D01*
X235319714Y-87956723D02*
X235272095Y-88051961D01*
X235272095Y-88051961D02*
X235176857Y-88147200D01*
X235176857Y-88147200D02*
X235034000Y-88194819D01*
X235034000Y-88194819D02*
X234795905Y-88194819D01*
X235700667Y-87194819D02*
X236319714Y-87194819D01*
X236319714Y-87194819D02*
X235986381Y-87575771D01*
X235986381Y-87575771D02*
X236129238Y-87575771D01*
X236129238Y-87575771D02*
X236224476Y-87623390D01*
X236224476Y-87623390D02*
X236272095Y-87671009D01*
X236272095Y-87671009D02*
X236319714Y-87766247D01*
X236319714Y-87766247D02*
X236319714Y-88004342D01*
X236319714Y-88004342D02*
X236272095Y-88099580D01*
X236272095Y-88099580D02*
X236224476Y-88147200D01*
X236224476Y-88147200D02*
X236129238Y-88194819D01*
X236129238Y-88194819D02*
X235843524Y-88194819D01*
X235843524Y-88194819D02*
X235748286Y-88147200D01*
X235748286Y-88147200D02*
X235700667Y-88099580D01*
X231462095Y-88514819D02*
X231462095Y-87514819D01*
X232033523Y-88514819D02*
X231604952Y-87943390D01*
X232033523Y-87514819D02*
X231462095Y-88086247D01*
X234795905Y-95144819D02*
X234795905Y-94144819D01*
X234795905Y-94144819D02*
X235034000Y-94144819D01*
X235034000Y-94144819D02*
X235176857Y-94192438D01*
X235176857Y-94192438D02*
X235272095Y-94287676D01*
X235272095Y-94287676D02*
X235319714Y-94382914D01*
X235319714Y-94382914D02*
X235367333Y-94573390D01*
X235367333Y-94573390D02*
X235367333Y-94716247D01*
X235367333Y-94716247D02*
X235319714Y-94906723D01*
X235319714Y-94906723D02*
X235272095Y-95001961D01*
X235272095Y-95001961D02*
X235176857Y-95097200D01*
X235176857Y-95097200D02*
X235034000Y-95144819D01*
X235034000Y-95144819D02*
X234795905Y-95144819D01*
X236319714Y-95144819D02*
X235748286Y-95144819D01*
X236034000Y-95144819D02*
X236034000Y-94144819D01*
X236034000Y-94144819D02*
X235938762Y-94287676D01*
X235938762Y-94287676D02*
X235843524Y-94382914D01*
X235843524Y-94382914D02*
X235748286Y-94430533D01*
X231462095Y-95464819D02*
X231462095Y-94464819D01*
X232033523Y-95464819D02*
X231604952Y-94893390D01*
X232033523Y-94464819D02*
X231462095Y-95036247D01*
X235415905Y-70944819D02*
X235415905Y-69944819D01*
X235415905Y-69944819D02*
X235654000Y-69944819D01*
X235654000Y-69944819D02*
X235796857Y-69992438D01*
X235796857Y-69992438D02*
X235892095Y-70087676D01*
X235892095Y-70087676D02*
X235939714Y-70182914D01*
X235939714Y-70182914D02*
X235987333Y-70373390D01*
X235987333Y-70373390D02*
X235987333Y-70516247D01*
X235987333Y-70516247D02*
X235939714Y-70706723D01*
X235939714Y-70706723D02*
X235892095Y-70801961D01*
X235892095Y-70801961D02*
X235796857Y-70897200D01*
X235796857Y-70897200D02*
X235654000Y-70944819D01*
X235654000Y-70944819D02*
X235415905Y-70944819D01*
X236558762Y-70373390D02*
X236463524Y-70325771D01*
X236463524Y-70325771D02*
X236415905Y-70278152D01*
X236415905Y-70278152D02*
X236368286Y-70182914D01*
X236368286Y-70182914D02*
X236368286Y-70135295D01*
X236368286Y-70135295D02*
X236415905Y-70040057D01*
X236415905Y-70040057D02*
X236463524Y-69992438D01*
X236463524Y-69992438D02*
X236558762Y-69944819D01*
X236558762Y-69944819D02*
X236749238Y-69944819D01*
X236749238Y-69944819D02*
X236844476Y-69992438D01*
X236844476Y-69992438D02*
X236892095Y-70040057D01*
X236892095Y-70040057D02*
X236939714Y-70135295D01*
X236939714Y-70135295D02*
X236939714Y-70182914D01*
X236939714Y-70182914D02*
X236892095Y-70278152D01*
X236892095Y-70278152D02*
X236844476Y-70325771D01*
X236844476Y-70325771D02*
X236749238Y-70373390D01*
X236749238Y-70373390D02*
X236558762Y-70373390D01*
X236558762Y-70373390D02*
X236463524Y-70421009D01*
X236463524Y-70421009D02*
X236415905Y-70468628D01*
X236415905Y-70468628D02*
X236368286Y-70563866D01*
X236368286Y-70563866D02*
X236368286Y-70754342D01*
X236368286Y-70754342D02*
X236415905Y-70849580D01*
X236415905Y-70849580D02*
X236463524Y-70897200D01*
X236463524Y-70897200D02*
X236558762Y-70944819D01*
X236558762Y-70944819D02*
X236749238Y-70944819D01*
X236749238Y-70944819D02*
X236844476Y-70897200D01*
X236844476Y-70897200D02*
X236892095Y-70849580D01*
X236892095Y-70849580D02*
X236939714Y-70754342D01*
X236939714Y-70754342D02*
X236939714Y-70563866D01*
X236939714Y-70563866D02*
X236892095Y-70468628D01*
X236892095Y-70468628D02*
X236844476Y-70421009D01*
X236844476Y-70421009D02*
X236749238Y-70373390D01*
X232082095Y-71264819D02*
X232082095Y-70264819D01*
X232653523Y-71264819D02*
X232224952Y-70693390D01*
X232653523Y-70264819D02*
X232082095Y-70836247D01*
X151185714Y-82844819D02*
X151185714Y-81844819D01*
X151185714Y-81844819D02*
X151423809Y-81844819D01*
X151423809Y-81844819D02*
X151566666Y-81892438D01*
X151566666Y-81892438D02*
X151661904Y-81987676D01*
X151661904Y-81987676D02*
X151709523Y-82082914D01*
X151709523Y-82082914D02*
X151757142Y-82273390D01*
X151757142Y-82273390D02*
X151757142Y-82416247D01*
X151757142Y-82416247D02*
X151709523Y-82606723D01*
X151709523Y-82606723D02*
X151661904Y-82701961D01*
X151661904Y-82701961D02*
X151566666Y-82797200D01*
X151566666Y-82797200D02*
X151423809Y-82844819D01*
X151423809Y-82844819D02*
X151185714Y-82844819D01*
X152138095Y-81940057D02*
X152185714Y-81892438D01*
X152185714Y-81892438D02*
X152280952Y-81844819D01*
X152280952Y-81844819D02*
X152519047Y-81844819D01*
X152519047Y-81844819D02*
X152614285Y-81892438D01*
X152614285Y-81892438D02*
X152661904Y-81940057D01*
X152661904Y-81940057D02*
X152709523Y-82035295D01*
X152709523Y-82035295D02*
X152709523Y-82130533D01*
X152709523Y-82130533D02*
X152661904Y-82273390D01*
X152661904Y-82273390D02*
X152090476Y-82844819D01*
X152090476Y-82844819D02*
X152709523Y-82844819D01*
X153090476Y-81940057D02*
X153138095Y-81892438D01*
X153138095Y-81892438D02*
X153233333Y-81844819D01*
X153233333Y-81844819D02*
X153471428Y-81844819D01*
X153471428Y-81844819D02*
X153566666Y-81892438D01*
X153566666Y-81892438D02*
X153614285Y-81940057D01*
X153614285Y-81940057D02*
X153661904Y-82035295D01*
X153661904Y-82035295D02*
X153661904Y-82130533D01*
X153661904Y-82130533D02*
X153614285Y-82273390D01*
X153614285Y-82273390D02*
X153042857Y-82844819D01*
X153042857Y-82844819D02*
X153661904Y-82844819D01*
X155948095Y-82524819D02*
X155948095Y-81524819D01*
X156519523Y-82524819D02*
X156090952Y-81953390D01*
X156519523Y-81524819D02*
X155948095Y-82096247D01*
X197344819Y-105743333D02*
X198059104Y-105743333D01*
X198059104Y-105743333D02*
X198201961Y-105790952D01*
X198201961Y-105790952D02*
X198297200Y-105886190D01*
X198297200Y-105886190D02*
X198344819Y-106029047D01*
X198344819Y-106029047D02*
X198344819Y-106124285D01*
X197344819Y-105362380D02*
X197344819Y-104695714D01*
X197344819Y-104695714D02*
X198344819Y-105124285D01*
X151185714Y-79034819D02*
X151185714Y-78034819D01*
X151185714Y-78034819D02*
X151423809Y-78034819D01*
X151423809Y-78034819D02*
X151566666Y-78082438D01*
X151566666Y-78082438D02*
X151661904Y-78177676D01*
X151661904Y-78177676D02*
X151709523Y-78272914D01*
X151709523Y-78272914D02*
X151757142Y-78463390D01*
X151757142Y-78463390D02*
X151757142Y-78606247D01*
X151757142Y-78606247D02*
X151709523Y-78796723D01*
X151709523Y-78796723D02*
X151661904Y-78891961D01*
X151661904Y-78891961D02*
X151566666Y-78987200D01*
X151566666Y-78987200D02*
X151423809Y-79034819D01*
X151423809Y-79034819D02*
X151185714Y-79034819D01*
X152138095Y-78130057D02*
X152185714Y-78082438D01*
X152185714Y-78082438D02*
X152280952Y-78034819D01*
X152280952Y-78034819D02*
X152519047Y-78034819D01*
X152519047Y-78034819D02*
X152614285Y-78082438D01*
X152614285Y-78082438D02*
X152661904Y-78130057D01*
X152661904Y-78130057D02*
X152709523Y-78225295D01*
X152709523Y-78225295D02*
X152709523Y-78320533D01*
X152709523Y-78320533D02*
X152661904Y-78463390D01*
X152661904Y-78463390D02*
X152090476Y-79034819D01*
X152090476Y-79034819D02*
X152709523Y-79034819D01*
X153566666Y-78368152D02*
X153566666Y-79034819D01*
X153328571Y-77987200D02*
X153090476Y-78701485D01*
X153090476Y-78701485D02*
X153709523Y-78701485D01*
X155948095Y-78714819D02*
X155948095Y-77714819D01*
X156519523Y-78714819D02*
X156090952Y-78143390D01*
X156519523Y-77714819D02*
X155948095Y-78286247D01*
X234795905Y-98644819D02*
X234795905Y-97644819D01*
X234795905Y-97644819D02*
X235034000Y-97644819D01*
X235034000Y-97644819D02*
X235176857Y-97692438D01*
X235176857Y-97692438D02*
X235272095Y-97787676D01*
X235272095Y-97787676D02*
X235319714Y-97882914D01*
X235319714Y-97882914D02*
X235367333Y-98073390D01*
X235367333Y-98073390D02*
X235367333Y-98216247D01*
X235367333Y-98216247D02*
X235319714Y-98406723D01*
X235319714Y-98406723D02*
X235272095Y-98501961D01*
X235272095Y-98501961D02*
X235176857Y-98597200D01*
X235176857Y-98597200D02*
X235034000Y-98644819D01*
X235034000Y-98644819D02*
X234795905Y-98644819D01*
X235986381Y-97644819D02*
X236081619Y-97644819D01*
X236081619Y-97644819D02*
X236176857Y-97692438D01*
X236176857Y-97692438D02*
X236224476Y-97740057D01*
X236224476Y-97740057D02*
X236272095Y-97835295D01*
X236272095Y-97835295D02*
X236319714Y-98025771D01*
X236319714Y-98025771D02*
X236319714Y-98263866D01*
X236319714Y-98263866D02*
X236272095Y-98454342D01*
X236272095Y-98454342D02*
X236224476Y-98549580D01*
X236224476Y-98549580D02*
X236176857Y-98597200D01*
X236176857Y-98597200D02*
X236081619Y-98644819D01*
X236081619Y-98644819D02*
X235986381Y-98644819D01*
X235986381Y-98644819D02*
X235891143Y-98597200D01*
X235891143Y-98597200D02*
X235843524Y-98549580D01*
X235843524Y-98549580D02*
X235795905Y-98454342D01*
X235795905Y-98454342D02*
X235748286Y-98263866D01*
X235748286Y-98263866D02*
X235748286Y-98025771D01*
X235748286Y-98025771D02*
X235795905Y-97835295D01*
X235795905Y-97835295D02*
X235843524Y-97740057D01*
X235843524Y-97740057D02*
X235891143Y-97692438D01*
X235891143Y-97692438D02*
X235986381Y-97644819D01*
X231462095Y-98964819D02*
X231462095Y-97964819D01*
X232033523Y-98964819D02*
X231604952Y-98393390D01*
X232033523Y-97964819D02*
X231462095Y-98536247D01*
X183054666Y-53004819D02*
X183054666Y-53719104D01*
X183054666Y-53719104D02*
X183007047Y-53861961D01*
X183007047Y-53861961D02*
X182911809Y-53957200D01*
X182911809Y-53957200D02*
X182768952Y-54004819D01*
X182768952Y-54004819D02*
X182673714Y-54004819D01*
X183959428Y-53004819D02*
X183768952Y-53004819D01*
X183768952Y-53004819D02*
X183673714Y-53052438D01*
X183673714Y-53052438D02*
X183626095Y-53100057D01*
X183626095Y-53100057D02*
X183530857Y-53242914D01*
X183530857Y-53242914D02*
X183483238Y-53433390D01*
X183483238Y-53433390D02*
X183483238Y-53814342D01*
X183483238Y-53814342D02*
X183530857Y-53909580D01*
X183530857Y-53909580D02*
X183578476Y-53957200D01*
X183578476Y-53957200D02*
X183673714Y-54004819D01*
X183673714Y-54004819D02*
X183864190Y-54004819D01*
X183864190Y-54004819D02*
X183959428Y-53957200D01*
X183959428Y-53957200D02*
X184007047Y-53909580D01*
X184007047Y-53909580D02*
X184054666Y-53814342D01*
X184054666Y-53814342D02*
X184054666Y-53576247D01*
X184054666Y-53576247D02*
X184007047Y-53481009D01*
X184007047Y-53481009D02*
X183959428Y-53433390D01*
X183959428Y-53433390D02*
X183864190Y-53385771D01*
X183864190Y-53385771D02*
X183673714Y-53385771D01*
X183673714Y-53385771D02*
X183578476Y-53433390D01*
X183578476Y-53433390D02*
X183530857Y-53481009D01*
X183530857Y-53481009D02*
X183483238Y-53576247D01*
X234795905Y-66644819D02*
X234795905Y-65644819D01*
X234795905Y-65644819D02*
X235034000Y-65644819D01*
X235034000Y-65644819D02*
X235176857Y-65692438D01*
X235176857Y-65692438D02*
X235272095Y-65787676D01*
X235272095Y-65787676D02*
X235319714Y-65882914D01*
X235319714Y-65882914D02*
X235367333Y-66073390D01*
X235367333Y-66073390D02*
X235367333Y-66216247D01*
X235367333Y-66216247D02*
X235319714Y-66406723D01*
X235319714Y-66406723D02*
X235272095Y-66501961D01*
X235272095Y-66501961D02*
X235176857Y-66597200D01*
X235176857Y-66597200D02*
X235034000Y-66644819D01*
X235034000Y-66644819D02*
X234795905Y-66644819D01*
X235843524Y-66644819D02*
X236034000Y-66644819D01*
X236034000Y-66644819D02*
X236129238Y-66597200D01*
X236129238Y-66597200D02*
X236176857Y-66549580D01*
X236176857Y-66549580D02*
X236272095Y-66406723D01*
X236272095Y-66406723D02*
X236319714Y-66216247D01*
X236319714Y-66216247D02*
X236319714Y-65835295D01*
X236319714Y-65835295D02*
X236272095Y-65740057D01*
X236272095Y-65740057D02*
X236224476Y-65692438D01*
X236224476Y-65692438D02*
X236129238Y-65644819D01*
X236129238Y-65644819D02*
X235938762Y-65644819D01*
X235938762Y-65644819D02*
X235843524Y-65692438D01*
X235843524Y-65692438D02*
X235795905Y-65740057D01*
X235795905Y-65740057D02*
X235748286Y-65835295D01*
X235748286Y-65835295D02*
X235748286Y-66073390D01*
X235748286Y-66073390D02*
X235795905Y-66168628D01*
X235795905Y-66168628D02*
X235843524Y-66216247D01*
X235843524Y-66216247D02*
X235938762Y-66263866D01*
X235938762Y-66263866D02*
X236129238Y-66263866D01*
X236129238Y-66263866D02*
X236224476Y-66216247D01*
X236224476Y-66216247D02*
X236272095Y-66168628D01*
X236272095Y-66168628D02*
X236319714Y-66073390D01*
X231462095Y-66964819D02*
X231462095Y-65964819D01*
X232033523Y-66964819D02*
X231604952Y-66393390D01*
X232033523Y-65964819D02*
X231462095Y-66536247D01*
X251274476Y-97474819D02*
X251274476Y-98189104D01*
X251274476Y-98189104D02*
X251226857Y-98331961D01*
X251226857Y-98331961D02*
X251131619Y-98427200D01*
X251131619Y-98427200D02*
X250988762Y-98474819D01*
X250988762Y-98474819D02*
X250893524Y-98474819D01*
X252274476Y-98474819D02*
X251703048Y-98474819D01*
X251988762Y-98474819D02*
X251988762Y-97474819D01*
X251988762Y-97474819D02*
X251893524Y-97617676D01*
X251893524Y-97617676D02*
X251798286Y-97712914D01*
X251798286Y-97712914D02*
X251703048Y-97760533D01*
X253226857Y-98474819D02*
X252655429Y-98474819D01*
X252941143Y-98474819D02*
X252941143Y-97474819D01*
X252941143Y-97474819D02*
X252845905Y-97617676D01*
X252845905Y-97617676D02*
X252750667Y-97712914D01*
X252750667Y-97712914D02*
X252655429Y-97760533D01*
X244566666Y-45428819D02*
X244566666Y-46143104D01*
X244566666Y-46143104D02*
X244519047Y-46285961D01*
X244519047Y-46285961D02*
X244423809Y-46381200D01*
X244423809Y-46381200D02*
X244280952Y-46428819D01*
X244280952Y-46428819D02*
X244185714Y-46428819D01*
X245566666Y-46428819D02*
X244995238Y-46428819D01*
X245280952Y-46428819D02*
X245280952Y-45428819D01*
X245280952Y-45428819D02*
X245185714Y-45571676D01*
X245185714Y-45571676D02*
X245090476Y-45666914D01*
X245090476Y-45666914D02*
X244995238Y-45714533D01*
X144613333Y-52382819D02*
X144280000Y-51906628D01*
X144041905Y-52382819D02*
X144041905Y-51382819D01*
X144041905Y-51382819D02*
X144422857Y-51382819D01*
X144422857Y-51382819D02*
X144518095Y-51430438D01*
X144518095Y-51430438D02*
X144565714Y-51478057D01*
X144565714Y-51478057D02*
X144613333Y-51573295D01*
X144613333Y-51573295D02*
X144613333Y-51716152D01*
X144613333Y-51716152D02*
X144565714Y-51811390D01*
X144565714Y-51811390D02*
X144518095Y-51859009D01*
X144518095Y-51859009D02*
X144422857Y-51906628D01*
X144422857Y-51906628D02*
X144041905Y-51906628D01*
X145565714Y-52382819D02*
X144994286Y-52382819D01*
X145280000Y-52382819D02*
X145280000Y-51382819D01*
X145280000Y-51382819D02*
X145184762Y-51525676D01*
X145184762Y-51525676D02*
X145089524Y-51620914D01*
X145089524Y-51620914D02*
X144994286Y-51668533D01*
X234795905Y-74144819D02*
X234795905Y-73144819D01*
X234795905Y-73144819D02*
X235034000Y-73144819D01*
X235034000Y-73144819D02*
X235176857Y-73192438D01*
X235176857Y-73192438D02*
X235272095Y-73287676D01*
X235272095Y-73287676D02*
X235319714Y-73382914D01*
X235319714Y-73382914D02*
X235367333Y-73573390D01*
X235367333Y-73573390D02*
X235367333Y-73716247D01*
X235367333Y-73716247D02*
X235319714Y-73906723D01*
X235319714Y-73906723D02*
X235272095Y-74001961D01*
X235272095Y-74001961D02*
X235176857Y-74097200D01*
X235176857Y-74097200D02*
X235034000Y-74144819D01*
X235034000Y-74144819D02*
X234795905Y-74144819D01*
X235700667Y-73144819D02*
X236367333Y-73144819D01*
X236367333Y-73144819D02*
X235938762Y-74144819D01*
X231462095Y-74464819D02*
X231462095Y-73464819D01*
X232033523Y-74464819D02*
X231604952Y-73893390D01*
X232033523Y-73464819D02*
X231462095Y-74036247D01*
X234675905Y-84414819D02*
X234675905Y-83414819D01*
X234675905Y-83414819D02*
X234914000Y-83414819D01*
X234914000Y-83414819D02*
X235056857Y-83462438D01*
X235056857Y-83462438D02*
X235152095Y-83557676D01*
X235152095Y-83557676D02*
X235199714Y-83652914D01*
X235199714Y-83652914D02*
X235247333Y-83843390D01*
X235247333Y-83843390D02*
X235247333Y-83986247D01*
X235247333Y-83986247D02*
X235199714Y-84176723D01*
X235199714Y-84176723D02*
X235152095Y-84271961D01*
X235152095Y-84271961D02*
X235056857Y-84367200D01*
X235056857Y-84367200D02*
X234914000Y-84414819D01*
X234914000Y-84414819D02*
X234675905Y-84414819D01*
X236104476Y-83748152D02*
X236104476Y-84414819D01*
X235866381Y-83367200D02*
X235628286Y-84081485D01*
X235628286Y-84081485D02*
X236247333Y-84081485D01*
X231342095Y-84734819D02*
X231342095Y-83734819D01*
X231913523Y-84734819D02*
X231484952Y-84163390D01*
X231913523Y-83734819D02*
X231342095Y-84306247D01*
X136826666Y-97734819D02*
X136826666Y-98449104D01*
X136826666Y-98449104D02*
X136779047Y-98591961D01*
X136779047Y-98591961D02*
X136683809Y-98687200D01*
X136683809Y-98687200D02*
X136540952Y-98734819D01*
X136540952Y-98734819D02*
X136445714Y-98734819D01*
X137350476Y-98734819D02*
X137540952Y-98734819D01*
X137540952Y-98734819D02*
X137636190Y-98687200D01*
X137636190Y-98687200D02*
X137683809Y-98639580D01*
X137683809Y-98639580D02*
X137779047Y-98496723D01*
X137779047Y-98496723D02*
X137826666Y-98306247D01*
X137826666Y-98306247D02*
X137826666Y-97925295D01*
X137826666Y-97925295D02*
X137779047Y-97830057D01*
X137779047Y-97830057D02*
X137731428Y-97782438D01*
X137731428Y-97782438D02*
X137636190Y-97734819D01*
X137636190Y-97734819D02*
X137445714Y-97734819D01*
X137445714Y-97734819D02*
X137350476Y-97782438D01*
X137350476Y-97782438D02*
X137302857Y-97830057D01*
X137302857Y-97830057D02*
X137255238Y-97925295D01*
X137255238Y-97925295D02*
X137255238Y-98163390D01*
X137255238Y-98163390D02*
X137302857Y-98258628D01*
X137302857Y-98258628D02*
X137350476Y-98306247D01*
X137350476Y-98306247D02*
X137445714Y-98353866D01*
X137445714Y-98353866D02*
X137636190Y-98353866D01*
X137636190Y-98353866D02*
X137731428Y-98306247D01*
X137731428Y-98306247D02*
X137779047Y-98258628D01*
X137779047Y-98258628D02*
X137826666Y-98163390D01*
X238361619Y-51036457D02*
X237885428Y-51369790D01*
X238361619Y-51607885D02*
X237361619Y-51607885D01*
X237361619Y-51607885D02*
X237361619Y-51226933D01*
X237361619Y-51226933D02*
X237409238Y-51131695D01*
X237409238Y-51131695D02*
X237456857Y-51084076D01*
X237456857Y-51084076D02*
X237552095Y-51036457D01*
X237552095Y-51036457D02*
X237694952Y-51036457D01*
X237694952Y-51036457D02*
X237790190Y-51084076D01*
X237790190Y-51084076D02*
X237837809Y-51131695D01*
X237837809Y-51131695D02*
X237885428Y-51226933D01*
X237885428Y-51226933D02*
X237885428Y-51607885D01*
X238361619Y-50084076D02*
X238361619Y-50655504D01*
X238361619Y-50369790D02*
X237361619Y-50369790D01*
X237361619Y-50369790D02*
X237504476Y-50465028D01*
X237504476Y-50465028D02*
X237599714Y-50560266D01*
X237599714Y-50560266D02*
X237647333Y-50655504D01*
X237790190Y-49512647D02*
X237742571Y-49607885D01*
X237742571Y-49607885D02*
X237694952Y-49655504D01*
X237694952Y-49655504D02*
X237599714Y-49703123D01*
X237599714Y-49703123D02*
X237552095Y-49703123D01*
X237552095Y-49703123D02*
X237456857Y-49655504D01*
X237456857Y-49655504D02*
X237409238Y-49607885D01*
X237409238Y-49607885D02*
X237361619Y-49512647D01*
X237361619Y-49512647D02*
X237361619Y-49322171D01*
X237361619Y-49322171D02*
X237409238Y-49226933D01*
X237409238Y-49226933D02*
X237456857Y-49179314D01*
X237456857Y-49179314D02*
X237552095Y-49131695D01*
X237552095Y-49131695D02*
X237599714Y-49131695D01*
X237599714Y-49131695D02*
X237694952Y-49179314D01*
X237694952Y-49179314D02*
X237742571Y-49226933D01*
X237742571Y-49226933D02*
X237790190Y-49322171D01*
X237790190Y-49322171D02*
X237790190Y-49512647D01*
X237790190Y-49512647D02*
X237837809Y-49607885D01*
X237837809Y-49607885D02*
X237885428Y-49655504D01*
X237885428Y-49655504D02*
X237980666Y-49703123D01*
X237980666Y-49703123D02*
X238171142Y-49703123D01*
X238171142Y-49703123D02*
X238266380Y-49655504D01*
X238266380Y-49655504D02*
X238314000Y-49607885D01*
X238314000Y-49607885D02*
X238361619Y-49512647D01*
X238361619Y-49512647D02*
X238361619Y-49322171D01*
X238361619Y-49322171D02*
X238314000Y-49226933D01*
X238314000Y-49226933D02*
X238266380Y-49179314D01*
X238266380Y-49179314D02*
X238171142Y-49131695D01*
X238171142Y-49131695D02*
X237980666Y-49131695D01*
X237980666Y-49131695D02*
X237885428Y-49179314D01*
X237885428Y-49179314D02*
X237837809Y-49226933D01*
X237837809Y-49226933D02*
X237790190Y-49322171D01*
X234795905Y-81144819D02*
X234795905Y-80144819D01*
X234795905Y-80144819D02*
X235034000Y-80144819D01*
X235034000Y-80144819D02*
X235176857Y-80192438D01*
X235176857Y-80192438D02*
X235272095Y-80287676D01*
X235272095Y-80287676D02*
X235319714Y-80382914D01*
X235319714Y-80382914D02*
X235367333Y-80573390D01*
X235367333Y-80573390D02*
X235367333Y-80716247D01*
X235367333Y-80716247D02*
X235319714Y-80906723D01*
X235319714Y-80906723D02*
X235272095Y-81001961D01*
X235272095Y-81001961D02*
X235176857Y-81097200D01*
X235176857Y-81097200D02*
X235034000Y-81144819D01*
X235034000Y-81144819D02*
X234795905Y-81144819D01*
X236272095Y-80144819D02*
X235795905Y-80144819D01*
X235795905Y-80144819D02*
X235748286Y-80621009D01*
X235748286Y-80621009D02*
X235795905Y-80573390D01*
X235795905Y-80573390D02*
X235891143Y-80525771D01*
X235891143Y-80525771D02*
X236129238Y-80525771D01*
X236129238Y-80525771D02*
X236224476Y-80573390D01*
X236224476Y-80573390D02*
X236272095Y-80621009D01*
X236272095Y-80621009D02*
X236319714Y-80716247D01*
X236319714Y-80716247D02*
X236319714Y-80954342D01*
X236319714Y-80954342D02*
X236272095Y-81049580D01*
X236272095Y-81049580D02*
X236224476Y-81097200D01*
X236224476Y-81097200D02*
X236129238Y-81144819D01*
X236129238Y-81144819D02*
X235891143Y-81144819D01*
X235891143Y-81144819D02*
X235795905Y-81097200D01*
X235795905Y-81097200D02*
X235748286Y-81049580D01*
X231462095Y-81464819D02*
X231462095Y-80464819D01*
X232033523Y-81464819D02*
X231604952Y-80893390D01*
X232033523Y-80464819D02*
X231462095Y-81036247D01*
X151185714Y-94274819D02*
X151185714Y-93274819D01*
X151185714Y-93274819D02*
X151423809Y-93274819D01*
X151423809Y-93274819D02*
X151566666Y-93322438D01*
X151566666Y-93322438D02*
X151661904Y-93417676D01*
X151661904Y-93417676D02*
X151709523Y-93512914D01*
X151709523Y-93512914D02*
X151757142Y-93703390D01*
X151757142Y-93703390D02*
X151757142Y-93846247D01*
X151757142Y-93846247D02*
X151709523Y-94036723D01*
X151709523Y-94036723D02*
X151661904Y-94131961D01*
X151661904Y-94131961D02*
X151566666Y-94227200D01*
X151566666Y-94227200D02*
X151423809Y-94274819D01*
X151423809Y-94274819D02*
X151185714Y-94274819D01*
X152709523Y-94274819D02*
X152138095Y-94274819D01*
X152423809Y-94274819D02*
X152423809Y-93274819D01*
X152423809Y-93274819D02*
X152328571Y-93417676D01*
X152328571Y-93417676D02*
X152233333Y-93512914D01*
X152233333Y-93512914D02*
X152138095Y-93560533D01*
X153566666Y-93274819D02*
X153376190Y-93274819D01*
X153376190Y-93274819D02*
X153280952Y-93322438D01*
X153280952Y-93322438D02*
X153233333Y-93370057D01*
X153233333Y-93370057D02*
X153138095Y-93512914D01*
X153138095Y-93512914D02*
X153090476Y-93703390D01*
X153090476Y-93703390D02*
X153090476Y-94084342D01*
X153090476Y-94084342D02*
X153138095Y-94179580D01*
X153138095Y-94179580D02*
X153185714Y-94227200D01*
X153185714Y-94227200D02*
X153280952Y-94274819D01*
X153280952Y-94274819D02*
X153471428Y-94274819D01*
X153471428Y-94274819D02*
X153566666Y-94227200D01*
X153566666Y-94227200D02*
X153614285Y-94179580D01*
X153614285Y-94179580D02*
X153661904Y-94084342D01*
X153661904Y-94084342D02*
X153661904Y-93846247D01*
X153661904Y-93846247D02*
X153614285Y-93751009D01*
X153614285Y-93751009D02*
X153566666Y-93703390D01*
X153566666Y-93703390D02*
X153471428Y-93655771D01*
X153471428Y-93655771D02*
X153280952Y-93655771D01*
X153280952Y-93655771D02*
X153185714Y-93703390D01*
X153185714Y-93703390D02*
X153138095Y-93751009D01*
X153138095Y-93751009D02*
X153090476Y-93846247D01*
X155948095Y-93954819D02*
X155948095Y-92954819D01*
X156519523Y-93954819D02*
X156090952Y-93383390D01*
X156519523Y-92954819D02*
X155948095Y-93526247D01*
X151185714Y-67604819D02*
X151185714Y-66604819D01*
X151185714Y-66604819D02*
X151423809Y-66604819D01*
X151423809Y-66604819D02*
X151566666Y-66652438D01*
X151566666Y-66652438D02*
X151661904Y-66747676D01*
X151661904Y-66747676D02*
X151709523Y-66842914D01*
X151709523Y-66842914D02*
X151757142Y-67033390D01*
X151757142Y-67033390D02*
X151757142Y-67176247D01*
X151757142Y-67176247D02*
X151709523Y-67366723D01*
X151709523Y-67366723D02*
X151661904Y-67461961D01*
X151661904Y-67461961D02*
X151566666Y-67557200D01*
X151566666Y-67557200D02*
X151423809Y-67604819D01*
X151423809Y-67604819D02*
X151185714Y-67604819D01*
X152709523Y-67604819D02*
X152138095Y-67604819D01*
X152423809Y-67604819D02*
X152423809Y-66604819D01*
X152423809Y-66604819D02*
X152328571Y-66747676D01*
X152328571Y-66747676D02*
X152233333Y-66842914D01*
X152233333Y-66842914D02*
X152138095Y-66890533D01*
X153185714Y-67604819D02*
X153376190Y-67604819D01*
X153376190Y-67604819D02*
X153471428Y-67557200D01*
X153471428Y-67557200D02*
X153519047Y-67509580D01*
X153519047Y-67509580D02*
X153614285Y-67366723D01*
X153614285Y-67366723D02*
X153661904Y-67176247D01*
X153661904Y-67176247D02*
X153661904Y-66795295D01*
X153661904Y-66795295D02*
X153614285Y-66700057D01*
X153614285Y-66700057D02*
X153566666Y-66652438D01*
X153566666Y-66652438D02*
X153471428Y-66604819D01*
X153471428Y-66604819D02*
X153280952Y-66604819D01*
X153280952Y-66604819D02*
X153185714Y-66652438D01*
X153185714Y-66652438D02*
X153138095Y-66700057D01*
X153138095Y-66700057D02*
X153090476Y-66795295D01*
X153090476Y-66795295D02*
X153090476Y-67033390D01*
X153090476Y-67033390D02*
X153138095Y-67128628D01*
X153138095Y-67128628D02*
X153185714Y-67176247D01*
X153185714Y-67176247D02*
X153280952Y-67223866D01*
X153280952Y-67223866D02*
X153471428Y-67223866D01*
X153471428Y-67223866D02*
X153566666Y-67176247D01*
X153566666Y-67176247D02*
X153614285Y-67128628D01*
X153614285Y-67128628D02*
X153661904Y-67033390D01*
X155948095Y-67284819D02*
X155948095Y-66284819D01*
X156519523Y-67284819D02*
X156090952Y-66713390D01*
X156519523Y-66284819D02*
X155948095Y-66856247D01*
X231822666Y-45174819D02*
X231822666Y-45889104D01*
X231822666Y-45889104D02*
X231775047Y-46031961D01*
X231775047Y-46031961D02*
X231679809Y-46127200D01*
X231679809Y-46127200D02*
X231536952Y-46174819D01*
X231536952Y-46174819D02*
X231441714Y-46174819D01*
X232251238Y-45270057D02*
X232298857Y-45222438D01*
X232298857Y-45222438D02*
X232394095Y-45174819D01*
X232394095Y-45174819D02*
X232632190Y-45174819D01*
X232632190Y-45174819D02*
X232727428Y-45222438D01*
X232727428Y-45222438D02*
X232775047Y-45270057D01*
X232775047Y-45270057D02*
X232822666Y-45365295D01*
X232822666Y-45365295D02*
X232822666Y-45460533D01*
X232822666Y-45460533D02*
X232775047Y-45603390D01*
X232775047Y-45603390D02*
X232203619Y-46174819D01*
X232203619Y-46174819D02*
X232822666Y-46174819D01*
X151185714Y-101634819D02*
X151185714Y-100634819D01*
X151185714Y-100634819D02*
X151423809Y-100634819D01*
X151423809Y-100634819D02*
X151566666Y-100682438D01*
X151566666Y-100682438D02*
X151661904Y-100777676D01*
X151661904Y-100777676D02*
X151709523Y-100872914D01*
X151709523Y-100872914D02*
X151757142Y-101063390D01*
X151757142Y-101063390D02*
X151757142Y-101206247D01*
X151757142Y-101206247D02*
X151709523Y-101396723D01*
X151709523Y-101396723D02*
X151661904Y-101491961D01*
X151661904Y-101491961D02*
X151566666Y-101587200D01*
X151566666Y-101587200D02*
X151423809Y-101634819D01*
X151423809Y-101634819D02*
X151185714Y-101634819D01*
X152709523Y-101634819D02*
X152138095Y-101634819D01*
X152423809Y-101634819D02*
X152423809Y-100634819D01*
X152423809Y-100634819D02*
X152328571Y-100777676D01*
X152328571Y-100777676D02*
X152233333Y-100872914D01*
X152233333Y-100872914D02*
X152138095Y-100920533D01*
X153042857Y-100634819D02*
X153661904Y-100634819D01*
X153661904Y-100634819D02*
X153328571Y-101015771D01*
X153328571Y-101015771D02*
X153471428Y-101015771D01*
X153471428Y-101015771D02*
X153566666Y-101063390D01*
X153566666Y-101063390D02*
X153614285Y-101111009D01*
X153614285Y-101111009D02*
X153661904Y-101206247D01*
X153661904Y-101206247D02*
X153661904Y-101444342D01*
X153661904Y-101444342D02*
X153614285Y-101539580D01*
X153614285Y-101539580D02*
X153566666Y-101587200D01*
X153566666Y-101587200D02*
X153471428Y-101634819D01*
X153471428Y-101634819D02*
X153185714Y-101634819D01*
X153185714Y-101634819D02*
X153090476Y-101587200D01*
X153090476Y-101587200D02*
X153042857Y-101539580D01*
X155948095Y-101314819D02*
X155948095Y-100314819D01*
X156519523Y-101314819D02*
X156090952Y-100743390D01*
X156519523Y-100314819D02*
X155948095Y-100886247D01*
X151185714Y-90464819D02*
X151185714Y-89464819D01*
X151185714Y-89464819D02*
X151423809Y-89464819D01*
X151423809Y-89464819D02*
X151566666Y-89512438D01*
X151566666Y-89512438D02*
X151661904Y-89607676D01*
X151661904Y-89607676D02*
X151709523Y-89702914D01*
X151709523Y-89702914D02*
X151757142Y-89893390D01*
X151757142Y-89893390D02*
X151757142Y-90036247D01*
X151757142Y-90036247D02*
X151709523Y-90226723D01*
X151709523Y-90226723D02*
X151661904Y-90321961D01*
X151661904Y-90321961D02*
X151566666Y-90417200D01*
X151566666Y-90417200D02*
X151423809Y-90464819D01*
X151423809Y-90464819D02*
X151185714Y-90464819D01*
X152709523Y-90464819D02*
X152138095Y-90464819D01*
X152423809Y-90464819D02*
X152423809Y-89464819D01*
X152423809Y-89464819D02*
X152328571Y-89607676D01*
X152328571Y-89607676D02*
X152233333Y-89702914D01*
X152233333Y-89702914D02*
X152138095Y-89750533D01*
X153280952Y-89893390D02*
X153185714Y-89845771D01*
X153185714Y-89845771D02*
X153138095Y-89798152D01*
X153138095Y-89798152D02*
X153090476Y-89702914D01*
X153090476Y-89702914D02*
X153090476Y-89655295D01*
X153090476Y-89655295D02*
X153138095Y-89560057D01*
X153138095Y-89560057D02*
X153185714Y-89512438D01*
X153185714Y-89512438D02*
X153280952Y-89464819D01*
X153280952Y-89464819D02*
X153471428Y-89464819D01*
X153471428Y-89464819D02*
X153566666Y-89512438D01*
X153566666Y-89512438D02*
X153614285Y-89560057D01*
X153614285Y-89560057D02*
X153661904Y-89655295D01*
X153661904Y-89655295D02*
X153661904Y-89702914D01*
X153661904Y-89702914D02*
X153614285Y-89798152D01*
X153614285Y-89798152D02*
X153566666Y-89845771D01*
X153566666Y-89845771D02*
X153471428Y-89893390D01*
X153471428Y-89893390D02*
X153280952Y-89893390D01*
X153280952Y-89893390D02*
X153185714Y-89941009D01*
X153185714Y-89941009D02*
X153138095Y-89988628D01*
X153138095Y-89988628D02*
X153090476Y-90083866D01*
X153090476Y-90083866D02*
X153090476Y-90274342D01*
X153090476Y-90274342D02*
X153138095Y-90369580D01*
X153138095Y-90369580D02*
X153185714Y-90417200D01*
X153185714Y-90417200D02*
X153280952Y-90464819D01*
X153280952Y-90464819D02*
X153471428Y-90464819D01*
X153471428Y-90464819D02*
X153566666Y-90417200D01*
X153566666Y-90417200D02*
X153614285Y-90369580D01*
X153614285Y-90369580D02*
X153661904Y-90274342D01*
X153661904Y-90274342D02*
X153661904Y-90083866D01*
X153661904Y-90083866D02*
X153614285Y-89988628D01*
X153614285Y-89988628D02*
X153566666Y-89941009D01*
X153566666Y-89941009D02*
X153471428Y-89893390D01*
X155948095Y-90144819D02*
X155948095Y-89144819D01*
X156519523Y-90144819D02*
X156090952Y-89573390D01*
X156519523Y-89144819D02*
X155948095Y-89716247D01*
X234357714Y-58814819D02*
X234357714Y-57814819D01*
X234357714Y-57814819D02*
X234595809Y-57814819D01*
X234595809Y-57814819D02*
X234738666Y-57862438D01*
X234738666Y-57862438D02*
X234833904Y-57957676D01*
X234833904Y-57957676D02*
X234881523Y-58052914D01*
X234881523Y-58052914D02*
X234929142Y-58243390D01*
X234929142Y-58243390D02*
X234929142Y-58386247D01*
X234929142Y-58386247D02*
X234881523Y-58576723D01*
X234881523Y-58576723D02*
X234833904Y-58671961D01*
X234833904Y-58671961D02*
X234738666Y-58767200D01*
X234738666Y-58767200D02*
X234595809Y-58814819D01*
X234595809Y-58814819D02*
X234357714Y-58814819D01*
X235881523Y-58814819D02*
X235310095Y-58814819D01*
X235595809Y-58814819D02*
X235595809Y-57814819D01*
X235595809Y-57814819D02*
X235500571Y-57957676D01*
X235500571Y-57957676D02*
X235405333Y-58052914D01*
X235405333Y-58052914D02*
X235310095Y-58100533D01*
X236833904Y-58814819D02*
X236262476Y-58814819D01*
X236548190Y-58814819D02*
X236548190Y-57814819D01*
X236548190Y-57814819D02*
X236452952Y-57957676D01*
X236452952Y-57957676D02*
X236357714Y-58052914D01*
X236357714Y-58052914D02*
X236262476Y-58100533D01*
X231500095Y-59134819D02*
X231500095Y-58134819D01*
X232071523Y-59134819D02*
X231642952Y-58563390D01*
X232071523Y-58134819D02*
X231500095Y-58706247D01*
X207946666Y-53004819D02*
X207946666Y-53719104D01*
X207946666Y-53719104D02*
X207899047Y-53861961D01*
X207899047Y-53861961D02*
X207803809Y-53957200D01*
X207803809Y-53957200D02*
X207660952Y-54004819D01*
X207660952Y-54004819D02*
X207565714Y-54004819D01*
X208899047Y-53004819D02*
X208422857Y-53004819D01*
X208422857Y-53004819D02*
X208375238Y-53481009D01*
X208375238Y-53481009D02*
X208422857Y-53433390D01*
X208422857Y-53433390D02*
X208518095Y-53385771D01*
X208518095Y-53385771D02*
X208756190Y-53385771D01*
X208756190Y-53385771D02*
X208851428Y-53433390D01*
X208851428Y-53433390D02*
X208899047Y-53481009D01*
X208899047Y-53481009D02*
X208946666Y-53576247D01*
X208946666Y-53576247D02*
X208946666Y-53814342D01*
X208946666Y-53814342D02*
X208899047Y-53909580D01*
X208899047Y-53909580D02*
X208851428Y-53957200D01*
X208851428Y-53957200D02*
X208756190Y-54004819D01*
X208756190Y-54004819D02*
X208518095Y-54004819D01*
X208518095Y-54004819D02*
X208422857Y-53957200D01*
X208422857Y-53957200D02*
X208375238Y-53909580D01*
X151185714Y-75224819D02*
X151185714Y-74224819D01*
X151185714Y-74224819D02*
X151423809Y-74224819D01*
X151423809Y-74224819D02*
X151566666Y-74272438D01*
X151566666Y-74272438D02*
X151661904Y-74367676D01*
X151661904Y-74367676D02*
X151709523Y-74462914D01*
X151709523Y-74462914D02*
X151757142Y-74653390D01*
X151757142Y-74653390D02*
X151757142Y-74796247D01*
X151757142Y-74796247D02*
X151709523Y-74986723D01*
X151709523Y-74986723D02*
X151661904Y-75081961D01*
X151661904Y-75081961D02*
X151566666Y-75177200D01*
X151566666Y-75177200D02*
X151423809Y-75224819D01*
X151423809Y-75224819D02*
X151185714Y-75224819D01*
X152709523Y-75224819D02*
X152138095Y-75224819D01*
X152423809Y-75224819D02*
X152423809Y-74224819D01*
X152423809Y-74224819D02*
X152328571Y-74367676D01*
X152328571Y-74367676D02*
X152233333Y-74462914D01*
X152233333Y-74462914D02*
X152138095Y-74510533D01*
X153614285Y-74224819D02*
X153138095Y-74224819D01*
X153138095Y-74224819D02*
X153090476Y-74701009D01*
X153090476Y-74701009D02*
X153138095Y-74653390D01*
X153138095Y-74653390D02*
X153233333Y-74605771D01*
X153233333Y-74605771D02*
X153471428Y-74605771D01*
X153471428Y-74605771D02*
X153566666Y-74653390D01*
X153566666Y-74653390D02*
X153614285Y-74701009D01*
X153614285Y-74701009D02*
X153661904Y-74796247D01*
X153661904Y-74796247D02*
X153661904Y-75034342D01*
X153661904Y-75034342D02*
X153614285Y-75129580D01*
X153614285Y-75129580D02*
X153566666Y-75177200D01*
X153566666Y-75177200D02*
X153471428Y-75224819D01*
X153471428Y-75224819D02*
X153233333Y-75224819D01*
X153233333Y-75224819D02*
X153138095Y-75177200D01*
X153138095Y-75177200D02*
X153090476Y-75129580D01*
X155948095Y-74904819D02*
X155948095Y-73904819D01*
X156519523Y-74904819D02*
X156090952Y-74333390D01*
X156519523Y-73904819D02*
X155948095Y-74476247D01*
X151185714Y-105184819D02*
X151185714Y-104184819D01*
X151185714Y-104184819D02*
X151423809Y-104184819D01*
X151423809Y-104184819D02*
X151566666Y-104232438D01*
X151566666Y-104232438D02*
X151661904Y-104327676D01*
X151661904Y-104327676D02*
X151709523Y-104422914D01*
X151709523Y-104422914D02*
X151757142Y-104613390D01*
X151757142Y-104613390D02*
X151757142Y-104756247D01*
X151757142Y-104756247D02*
X151709523Y-104946723D01*
X151709523Y-104946723D02*
X151661904Y-105041961D01*
X151661904Y-105041961D02*
X151566666Y-105137200D01*
X151566666Y-105137200D02*
X151423809Y-105184819D01*
X151423809Y-105184819D02*
X151185714Y-105184819D01*
X152709523Y-105184819D02*
X152138095Y-105184819D01*
X152423809Y-105184819D02*
X152423809Y-104184819D01*
X152423809Y-104184819D02*
X152328571Y-104327676D01*
X152328571Y-104327676D02*
X152233333Y-104422914D01*
X152233333Y-104422914D02*
X152138095Y-104470533D01*
X153090476Y-104280057D02*
X153138095Y-104232438D01*
X153138095Y-104232438D02*
X153233333Y-104184819D01*
X153233333Y-104184819D02*
X153471428Y-104184819D01*
X153471428Y-104184819D02*
X153566666Y-104232438D01*
X153566666Y-104232438D02*
X153614285Y-104280057D01*
X153614285Y-104280057D02*
X153661904Y-104375295D01*
X153661904Y-104375295D02*
X153661904Y-104470533D01*
X153661904Y-104470533D02*
X153614285Y-104613390D01*
X153614285Y-104613390D02*
X153042857Y-105184819D01*
X153042857Y-105184819D02*
X153661904Y-105184819D01*
X155948095Y-104864819D02*
X155948095Y-103864819D01*
X156519523Y-104864819D02*
X156090952Y-104293390D01*
X156519523Y-103864819D02*
X155948095Y-104436247D01*
X210232666Y-45682819D02*
X210232666Y-46397104D01*
X210232666Y-46397104D02*
X210185047Y-46539961D01*
X210185047Y-46539961D02*
X210089809Y-46635200D01*
X210089809Y-46635200D02*
X209946952Y-46682819D01*
X209946952Y-46682819D02*
X209851714Y-46682819D01*
X210613619Y-45682819D02*
X211232666Y-45682819D01*
X211232666Y-45682819D02*
X210899333Y-46063771D01*
X210899333Y-46063771D02*
X211042190Y-46063771D01*
X211042190Y-46063771D02*
X211137428Y-46111390D01*
X211137428Y-46111390D02*
X211185047Y-46159009D01*
X211185047Y-46159009D02*
X211232666Y-46254247D01*
X211232666Y-46254247D02*
X211232666Y-46492342D01*
X211232666Y-46492342D02*
X211185047Y-46587580D01*
X211185047Y-46587580D02*
X211137428Y-46635200D01*
X211137428Y-46635200D02*
X211042190Y-46682819D01*
X211042190Y-46682819D02*
X210756476Y-46682819D01*
X210756476Y-46682819D02*
X210661238Y-46635200D01*
X210661238Y-46635200D02*
X210613619Y-46587580D01*
X132114819Y-53792285D02*
X131114819Y-53792285D01*
X131114819Y-53792285D02*
X131114819Y-53554190D01*
X131114819Y-53554190D02*
X131162438Y-53411333D01*
X131162438Y-53411333D02*
X131257676Y-53316095D01*
X131257676Y-53316095D02*
X131352914Y-53268476D01*
X131352914Y-53268476D02*
X131543390Y-53220857D01*
X131543390Y-53220857D02*
X131686247Y-53220857D01*
X131686247Y-53220857D02*
X131876723Y-53268476D01*
X131876723Y-53268476D02*
X131971961Y-53316095D01*
X131971961Y-53316095D02*
X132067200Y-53411333D01*
X132067200Y-53411333D02*
X132114819Y-53554190D01*
X132114819Y-53554190D02*
X132114819Y-53792285D01*
X131210057Y-52839904D02*
X131162438Y-52792285D01*
X131162438Y-52792285D02*
X131114819Y-52697047D01*
X131114819Y-52697047D02*
X131114819Y-52458952D01*
X131114819Y-52458952D02*
X131162438Y-52363714D01*
X131162438Y-52363714D02*
X131210057Y-52316095D01*
X131210057Y-52316095D02*
X131305295Y-52268476D01*
X131305295Y-52268476D02*
X131400533Y-52268476D01*
X131400533Y-52268476D02*
X131543390Y-52316095D01*
X131543390Y-52316095D02*
X132114819Y-52887523D01*
X132114819Y-52887523D02*
X132114819Y-52268476D01*
X131114819Y-51363714D02*
X131114819Y-51839904D01*
X131114819Y-51839904D02*
X131591009Y-51887523D01*
X131591009Y-51887523D02*
X131543390Y-51839904D01*
X131543390Y-51839904D02*
X131495771Y-51744666D01*
X131495771Y-51744666D02*
X131495771Y-51506571D01*
X131495771Y-51506571D02*
X131543390Y-51411333D01*
X131543390Y-51411333D02*
X131591009Y-51363714D01*
X131591009Y-51363714D02*
X131686247Y-51316095D01*
X131686247Y-51316095D02*
X131924342Y-51316095D01*
X131924342Y-51316095D02*
X132019580Y-51363714D01*
X132019580Y-51363714D02*
X132067200Y-51411333D01*
X132067200Y-51411333D02*
X132114819Y-51506571D01*
X132114819Y-51506571D02*
X132114819Y-51744666D01*
X132114819Y-51744666D02*
X132067200Y-51839904D01*
X132067200Y-51839904D02*
X132019580Y-51887523D01*
X230771619Y-51036457D02*
X230295428Y-51369790D01*
X230771619Y-51607885D02*
X229771619Y-51607885D01*
X229771619Y-51607885D02*
X229771619Y-51226933D01*
X229771619Y-51226933D02*
X229819238Y-51131695D01*
X229819238Y-51131695D02*
X229866857Y-51084076D01*
X229866857Y-51084076D02*
X229962095Y-51036457D01*
X229962095Y-51036457D02*
X230104952Y-51036457D01*
X230104952Y-51036457D02*
X230200190Y-51084076D01*
X230200190Y-51084076D02*
X230247809Y-51131695D01*
X230247809Y-51131695D02*
X230295428Y-51226933D01*
X230295428Y-51226933D02*
X230295428Y-51607885D01*
X230771619Y-50084076D02*
X230771619Y-50655504D01*
X230771619Y-50369790D02*
X229771619Y-50369790D01*
X229771619Y-50369790D02*
X229914476Y-50465028D01*
X229914476Y-50465028D02*
X230009714Y-50560266D01*
X230009714Y-50560266D02*
X230057333Y-50655504D01*
X230771619Y-49607885D02*
X230771619Y-49417409D01*
X230771619Y-49417409D02*
X230724000Y-49322171D01*
X230724000Y-49322171D02*
X230676380Y-49274552D01*
X230676380Y-49274552D02*
X230533523Y-49179314D01*
X230533523Y-49179314D02*
X230343047Y-49131695D01*
X230343047Y-49131695D02*
X229962095Y-49131695D01*
X229962095Y-49131695D02*
X229866857Y-49179314D01*
X229866857Y-49179314D02*
X229819238Y-49226933D01*
X229819238Y-49226933D02*
X229771619Y-49322171D01*
X229771619Y-49322171D02*
X229771619Y-49512647D01*
X229771619Y-49512647D02*
X229819238Y-49607885D01*
X229819238Y-49607885D02*
X229866857Y-49655504D01*
X229866857Y-49655504D02*
X229962095Y-49703123D01*
X229962095Y-49703123D02*
X230200190Y-49703123D01*
X230200190Y-49703123D02*
X230295428Y-49655504D01*
X230295428Y-49655504D02*
X230343047Y-49607885D01*
X230343047Y-49607885D02*
X230390666Y-49512647D01*
X230390666Y-49512647D02*
X230390666Y-49322171D01*
X230390666Y-49322171D02*
X230343047Y-49226933D01*
X230343047Y-49226933D02*
X230295428Y-49179314D01*
X230295428Y-49179314D02*
X230200190Y-49131695D01*
X150578666Y-45468819D02*
X150578666Y-46183104D01*
X150578666Y-46183104D02*
X150531047Y-46325961D01*
X150531047Y-46325961D02*
X150435809Y-46421200D01*
X150435809Y-46421200D02*
X150292952Y-46468819D01*
X150292952Y-46468819D02*
X150197714Y-46468819D01*
X151483428Y-45802152D02*
X151483428Y-46468819D01*
X151245333Y-45421200D02*
X151007238Y-46135485D01*
X151007238Y-46135485D02*
X151626285Y-46135485D01*
X151185714Y-98084819D02*
X151185714Y-97084819D01*
X151185714Y-97084819D02*
X151423809Y-97084819D01*
X151423809Y-97084819D02*
X151566666Y-97132438D01*
X151566666Y-97132438D02*
X151661904Y-97227676D01*
X151661904Y-97227676D02*
X151709523Y-97322914D01*
X151709523Y-97322914D02*
X151757142Y-97513390D01*
X151757142Y-97513390D02*
X151757142Y-97656247D01*
X151757142Y-97656247D02*
X151709523Y-97846723D01*
X151709523Y-97846723D02*
X151661904Y-97941961D01*
X151661904Y-97941961D02*
X151566666Y-98037200D01*
X151566666Y-98037200D02*
X151423809Y-98084819D01*
X151423809Y-98084819D02*
X151185714Y-98084819D01*
X152709523Y-98084819D02*
X152138095Y-98084819D01*
X152423809Y-98084819D02*
X152423809Y-97084819D01*
X152423809Y-97084819D02*
X152328571Y-97227676D01*
X152328571Y-97227676D02*
X152233333Y-97322914D01*
X152233333Y-97322914D02*
X152138095Y-97370533D01*
X153566666Y-97418152D02*
X153566666Y-98084819D01*
X153328571Y-97037200D02*
X153090476Y-97751485D01*
X153090476Y-97751485D02*
X153709523Y-97751485D01*
X155948095Y-97764819D02*
X155948095Y-96764819D01*
X156519523Y-97764819D02*
X156090952Y-97193390D01*
X156519523Y-96764819D02*
X155948095Y-97336247D01*
X151185714Y-86654819D02*
X151185714Y-85654819D01*
X151185714Y-85654819D02*
X151423809Y-85654819D01*
X151423809Y-85654819D02*
X151566666Y-85702438D01*
X151566666Y-85702438D02*
X151661904Y-85797676D01*
X151661904Y-85797676D02*
X151709523Y-85892914D01*
X151709523Y-85892914D02*
X151757142Y-86083390D01*
X151757142Y-86083390D02*
X151757142Y-86226247D01*
X151757142Y-86226247D02*
X151709523Y-86416723D01*
X151709523Y-86416723D02*
X151661904Y-86511961D01*
X151661904Y-86511961D02*
X151566666Y-86607200D01*
X151566666Y-86607200D02*
X151423809Y-86654819D01*
X151423809Y-86654819D02*
X151185714Y-86654819D01*
X152138095Y-85750057D02*
X152185714Y-85702438D01*
X152185714Y-85702438D02*
X152280952Y-85654819D01*
X152280952Y-85654819D02*
X152519047Y-85654819D01*
X152519047Y-85654819D02*
X152614285Y-85702438D01*
X152614285Y-85702438D02*
X152661904Y-85750057D01*
X152661904Y-85750057D02*
X152709523Y-85845295D01*
X152709523Y-85845295D02*
X152709523Y-85940533D01*
X152709523Y-85940533D02*
X152661904Y-86083390D01*
X152661904Y-86083390D02*
X152090476Y-86654819D01*
X152090476Y-86654819D02*
X152709523Y-86654819D01*
X153328571Y-85654819D02*
X153423809Y-85654819D01*
X153423809Y-85654819D02*
X153519047Y-85702438D01*
X153519047Y-85702438D02*
X153566666Y-85750057D01*
X153566666Y-85750057D02*
X153614285Y-85845295D01*
X153614285Y-85845295D02*
X153661904Y-86035771D01*
X153661904Y-86035771D02*
X153661904Y-86273866D01*
X153661904Y-86273866D02*
X153614285Y-86464342D01*
X153614285Y-86464342D02*
X153566666Y-86559580D01*
X153566666Y-86559580D02*
X153519047Y-86607200D01*
X153519047Y-86607200D02*
X153423809Y-86654819D01*
X153423809Y-86654819D02*
X153328571Y-86654819D01*
X153328571Y-86654819D02*
X153233333Y-86607200D01*
X153233333Y-86607200D02*
X153185714Y-86559580D01*
X153185714Y-86559580D02*
X153138095Y-86464342D01*
X153138095Y-86464342D02*
X153090476Y-86273866D01*
X153090476Y-86273866D02*
X153090476Y-86035771D01*
X153090476Y-86035771D02*
X153138095Y-85845295D01*
X153138095Y-85845295D02*
X153185714Y-85750057D01*
X153185714Y-85750057D02*
X153233333Y-85702438D01*
X153233333Y-85702438D02*
X153328571Y-85654819D01*
X155948095Y-86334819D02*
X155948095Y-85334819D01*
X156519523Y-86334819D02*
X156090952Y-85763390D01*
X156519523Y-85334819D02*
X155948095Y-85906247D01*
X171438476Y-45468819D02*
X171438476Y-46183104D01*
X171438476Y-46183104D02*
X171390857Y-46325961D01*
X171390857Y-46325961D02*
X171295619Y-46421200D01*
X171295619Y-46421200D02*
X171152762Y-46468819D01*
X171152762Y-46468819D02*
X171057524Y-46468819D01*
X172438476Y-46468819D02*
X171867048Y-46468819D01*
X172152762Y-46468819D02*
X172152762Y-45468819D01*
X172152762Y-45468819D02*
X172057524Y-45611676D01*
X172057524Y-45611676D02*
X171962286Y-45706914D01*
X171962286Y-45706914D02*
X171867048Y-45754533D01*
X173057524Y-45468819D02*
X173152762Y-45468819D01*
X173152762Y-45468819D02*
X173248000Y-45516438D01*
X173248000Y-45516438D02*
X173295619Y-45564057D01*
X173295619Y-45564057D02*
X173343238Y-45659295D01*
X173343238Y-45659295D02*
X173390857Y-45849771D01*
X173390857Y-45849771D02*
X173390857Y-46087866D01*
X173390857Y-46087866D02*
X173343238Y-46278342D01*
X173343238Y-46278342D02*
X173295619Y-46373580D01*
X173295619Y-46373580D02*
X173248000Y-46421200D01*
X173248000Y-46421200D02*
X173152762Y-46468819D01*
X173152762Y-46468819D02*
X173057524Y-46468819D01*
X173057524Y-46468819D02*
X172962286Y-46421200D01*
X172962286Y-46421200D02*
X172914667Y-46373580D01*
X172914667Y-46373580D02*
X172867048Y-46278342D01*
X172867048Y-46278342D02*
X172819429Y-46087866D01*
X172819429Y-46087866D02*
X172819429Y-45849771D01*
X172819429Y-45849771D02*
X172867048Y-45659295D01*
X172867048Y-45659295D02*
X172914667Y-45564057D01*
X172914667Y-45564057D02*
X172962286Y-45516438D01*
X172962286Y-45516438D02*
X173057524Y-45468819D01*
X163434819Y-52776285D02*
X162434819Y-52776285D01*
X162434819Y-52776285D02*
X162434819Y-52538190D01*
X162434819Y-52538190D02*
X162482438Y-52395333D01*
X162482438Y-52395333D02*
X162577676Y-52300095D01*
X162577676Y-52300095D02*
X162672914Y-52252476D01*
X162672914Y-52252476D02*
X162863390Y-52204857D01*
X162863390Y-52204857D02*
X163006247Y-52204857D01*
X163006247Y-52204857D02*
X163196723Y-52252476D01*
X163196723Y-52252476D02*
X163291961Y-52300095D01*
X163291961Y-52300095D02*
X163387200Y-52395333D01*
X163387200Y-52395333D02*
X163434819Y-52538190D01*
X163434819Y-52538190D02*
X163434819Y-52776285D01*
X162530057Y-51823904D02*
X162482438Y-51776285D01*
X162482438Y-51776285D02*
X162434819Y-51681047D01*
X162434819Y-51681047D02*
X162434819Y-51442952D01*
X162434819Y-51442952D02*
X162482438Y-51347714D01*
X162482438Y-51347714D02*
X162530057Y-51300095D01*
X162530057Y-51300095D02*
X162625295Y-51252476D01*
X162625295Y-51252476D02*
X162720533Y-51252476D01*
X162720533Y-51252476D02*
X162863390Y-51300095D01*
X162863390Y-51300095D02*
X163434819Y-51871523D01*
X163434819Y-51871523D02*
X163434819Y-51252476D01*
X162434819Y-50919142D02*
X162434819Y-50300095D01*
X162434819Y-50300095D02*
X162815771Y-50633428D01*
X162815771Y-50633428D02*
X162815771Y-50490571D01*
X162815771Y-50490571D02*
X162863390Y-50395333D01*
X162863390Y-50395333D02*
X162911009Y-50347714D01*
X162911009Y-50347714D02*
X163006247Y-50300095D01*
X163006247Y-50300095D02*
X163244342Y-50300095D01*
X163244342Y-50300095D02*
X163339580Y-50347714D01*
X163339580Y-50347714D02*
X163387200Y-50395333D01*
X163387200Y-50395333D02*
X163434819Y-50490571D01*
X163434819Y-50490571D02*
X163434819Y-50776285D01*
X163434819Y-50776285D02*
X163387200Y-50871523D01*
X163387200Y-50871523D02*
X163339580Y-50919142D01*
X163754819Y-55633904D02*
X162754819Y-55633904D01*
X163754819Y-55062476D02*
X163183390Y-55491047D01*
X162754819Y-55062476D02*
X163326247Y-55633904D01*
X234319714Y-62644819D02*
X234319714Y-61644819D01*
X234319714Y-61644819D02*
X234557809Y-61644819D01*
X234557809Y-61644819D02*
X234700666Y-61692438D01*
X234700666Y-61692438D02*
X234795904Y-61787676D01*
X234795904Y-61787676D02*
X234843523Y-61882914D01*
X234843523Y-61882914D02*
X234891142Y-62073390D01*
X234891142Y-62073390D02*
X234891142Y-62216247D01*
X234891142Y-62216247D02*
X234843523Y-62406723D01*
X234843523Y-62406723D02*
X234795904Y-62501961D01*
X234795904Y-62501961D02*
X234700666Y-62597200D01*
X234700666Y-62597200D02*
X234557809Y-62644819D01*
X234557809Y-62644819D02*
X234319714Y-62644819D01*
X235843523Y-62644819D02*
X235272095Y-62644819D01*
X235557809Y-62644819D02*
X235557809Y-61644819D01*
X235557809Y-61644819D02*
X235462571Y-61787676D01*
X235462571Y-61787676D02*
X235367333Y-61882914D01*
X235367333Y-61882914D02*
X235272095Y-61930533D01*
X236462571Y-61644819D02*
X236557809Y-61644819D01*
X236557809Y-61644819D02*
X236653047Y-61692438D01*
X236653047Y-61692438D02*
X236700666Y-61740057D01*
X236700666Y-61740057D02*
X236748285Y-61835295D01*
X236748285Y-61835295D02*
X236795904Y-62025771D01*
X236795904Y-62025771D02*
X236795904Y-62263866D01*
X236795904Y-62263866D02*
X236748285Y-62454342D01*
X236748285Y-62454342D02*
X236700666Y-62549580D01*
X236700666Y-62549580D02*
X236653047Y-62597200D01*
X236653047Y-62597200D02*
X236557809Y-62644819D01*
X236557809Y-62644819D02*
X236462571Y-62644819D01*
X236462571Y-62644819D02*
X236367333Y-62597200D01*
X236367333Y-62597200D02*
X236319714Y-62549580D01*
X236319714Y-62549580D02*
X236272095Y-62454342D01*
X236272095Y-62454342D02*
X236224476Y-62263866D01*
X236224476Y-62263866D02*
X236224476Y-62025771D01*
X236224476Y-62025771D02*
X236272095Y-61835295D01*
X236272095Y-61835295D02*
X236319714Y-61740057D01*
X236319714Y-61740057D02*
X236367333Y-61692438D01*
X236367333Y-61692438D02*
X236462571Y-61644819D01*
X231462095Y-62964819D02*
X231462095Y-61964819D01*
X232033523Y-62964819D02*
X231604952Y-62393390D01*
X232033523Y-61964819D02*
X231462095Y-62536247D01*
D12*
%TO.C,D6*%
X232764000Y-79310000D02*
X233414000Y-79310000D01*
X233414000Y-78190000D02*
X233414000Y-80430000D01*
X233414000Y-80430000D02*
X237654000Y-80430000D01*
X234014000Y-78190000D02*
X234014000Y-80430000D01*
X234134000Y-78190000D02*
X234134000Y-80430000D01*
X234254000Y-78190000D02*
X234254000Y-80430000D01*
X237654000Y-78190000D02*
X233414000Y-78190000D01*
X237654000Y-80430000D02*
X237654000Y-78190000D01*
X238304000Y-79310000D02*
X237654000Y-79310000D01*
%TO.C,D21*%
X149630000Y-61220000D02*
X150280000Y-61220000D01*
X150280000Y-60100000D02*
X150280000Y-62340000D01*
X150280000Y-62340000D02*
X154520000Y-62340000D01*
X153680000Y-62340000D02*
X153680000Y-60100000D01*
X153800000Y-62340000D02*
X153800000Y-60100000D01*
X153920000Y-62340000D02*
X153920000Y-60100000D01*
X154520000Y-60100000D02*
X150280000Y-60100000D01*
X154520000Y-62340000D02*
X154520000Y-60100000D01*
X155170000Y-61220000D02*
X154520000Y-61220000D01*
%TO.C,D2*%
X232764000Y-93410000D02*
X233414000Y-93410000D01*
X233414000Y-92290000D02*
X233414000Y-94530000D01*
X233414000Y-94530000D02*
X237654000Y-94530000D01*
X234014000Y-92290000D02*
X234014000Y-94530000D01*
X234134000Y-92290000D02*
X234134000Y-94530000D01*
X234254000Y-92290000D02*
X234254000Y-94530000D01*
X237654000Y-92290000D02*
X233414000Y-92290000D01*
X237654000Y-94530000D02*
X237654000Y-92290000D01*
X238304000Y-93410000D02*
X237654000Y-93410000D01*
%TO.C,D26*%
X222540000Y-38036000D02*
X222540000Y-37880000D01*
X222540000Y-40352000D02*
X222540000Y-40196000D01*
X219308603Y-38035939D02*
G75*
G02*
X222540000Y-37880484I1671397J-1080061D01*
G01*
X219939090Y-38035951D02*
G75*
G02*
X222020961Y-38036000I1040910J-1080049D01*
G01*
X222020961Y-40196000D02*
G75*
G02*
X219939090Y-40196049I-1040961J1080000D01*
G01*
X222540000Y-40351516D02*
G75*
G02*
X219308603Y-40196061I-1560000J1235516D01*
G01*
%TO.C,J8*%
X161230000Y-104080000D02*
X162560000Y-104080000D01*
X161230000Y-105410000D02*
X161230000Y-104080000D01*
X163830000Y-104080000D02*
X191830000Y-104080000D01*
X163830000Y-106740000D02*
X163830000Y-104080000D01*
X163830000Y-106740000D02*
X191830000Y-106740000D01*
X191830000Y-106740000D02*
X191830000Y-104080000D01*
%TO.C,D17*%
X149630000Y-68840000D02*
X150280000Y-68840000D01*
X150280000Y-67720000D02*
X150280000Y-69960000D01*
X150280000Y-69960000D02*
X154520000Y-69960000D01*
X153680000Y-69960000D02*
X153680000Y-67720000D01*
X153800000Y-69960000D02*
X153800000Y-67720000D01*
X153920000Y-69960000D02*
X153920000Y-67720000D01*
X154520000Y-67720000D02*
X150280000Y-67720000D01*
X154520000Y-69960000D02*
X154520000Y-67720000D01*
X155170000Y-68840000D02*
X154520000Y-68840000D01*
%TO.C,D3*%
X232764000Y-89860000D02*
X233414000Y-89860000D01*
X233414000Y-88740000D02*
X233414000Y-90980000D01*
X233414000Y-90980000D02*
X237654000Y-90980000D01*
X234014000Y-88740000D02*
X234014000Y-90980000D01*
X234134000Y-88740000D02*
X234134000Y-90980000D01*
X234254000Y-88740000D02*
X234254000Y-90980000D01*
X237654000Y-88740000D02*
X233414000Y-88740000D01*
X237654000Y-90980000D02*
X237654000Y-88740000D01*
X238304000Y-89860000D02*
X237654000Y-89860000D01*
%TO.C,D1*%
X232764000Y-96810000D02*
X233414000Y-96810000D01*
X233414000Y-95690000D02*
X233414000Y-97930000D01*
X233414000Y-97930000D02*
X237654000Y-97930000D01*
X234014000Y-95690000D02*
X234014000Y-97930000D01*
X234134000Y-95690000D02*
X234134000Y-97930000D01*
X234254000Y-95690000D02*
X234254000Y-97930000D01*
X237654000Y-95690000D02*
X233414000Y-95690000D01*
X237654000Y-97930000D02*
X237654000Y-95690000D01*
X238304000Y-96810000D02*
X237654000Y-96810000D01*
%TO.C,D8*%
X232764000Y-72310000D02*
X233414000Y-72310000D01*
X233414000Y-71190000D02*
X233414000Y-73430000D01*
X233414000Y-73430000D02*
X237654000Y-73430000D01*
X234014000Y-71190000D02*
X234014000Y-73430000D01*
X234134000Y-71190000D02*
X234134000Y-73430000D01*
X234254000Y-71190000D02*
X234254000Y-73430000D01*
X237654000Y-71190000D02*
X233414000Y-71190000D01*
X237654000Y-73430000D02*
X237654000Y-71190000D01*
X238304000Y-72310000D02*
X237654000Y-72310000D01*
%TO.C,D22*%
X149630000Y-80270000D02*
X150280000Y-80270000D01*
X150280000Y-79150000D02*
X150280000Y-81390000D01*
X150280000Y-81390000D02*
X154520000Y-81390000D01*
X153680000Y-81390000D02*
X153680000Y-79150000D01*
X153800000Y-81390000D02*
X153800000Y-79150000D01*
X153920000Y-81390000D02*
X153920000Y-79150000D01*
X154520000Y-79150000D02*
X150280000Y-79150000D01*
X154520000Y-81390000D02*
X154520000Y-79150000D01*
X155170000Y-80270000D02*
X154520000Y-80270000D01*
%TO.C,J7*%
X199330000Y-104080000D02*
X200660000Y-104080000D01*
X199330000Y-105410000D02*
X199330000Y-104080000D01*
X201930000Y-104080000D02*
X229930000Y-104080000D01*
X201930000Y-106740000D02*
X201930000Y-104080000D01*
X201930000Y-106740000D02*
X229930000Y-106740000D01*
X229930000Y-106740000D02*
X229930000Y-104080000D01*
%TO.C,D24*%
X149630000Y-76460000D02*
X150280000Y-76460000D01*
X150280000Y-75340000D02*
X150280000Y-77580000D01*
X150280000Y-77580000D02*
X154520000Y-77580000D01*
X153680000Y-77580000D02*
X153680000Y-75340000D01*
X153800000Y-77580000D02*
X153800000Y-75340000D01*
X153920000Y-77580000D02*
X153920000Y-75340000D01*
X154520000Y-75340000D02*
X150280000Y-75340000D01*
X154520000Y-77580000D02*
X154520000Y-75340000D01*
X155170000Y-76460000D02*
X154520000Y-76460000D01*
%TO.C,D0*%
X232764000Y-100310000D02*
X233414000Y-100310000D01*
X233414000Y-99190000D02*
X233414000Y-101430000D01*
X233414000Y-101430000D02*
X237654000Y-101430000D01*
X234014000Y-99190000D02*
X234014000Y-101430000D01*
X234134000Y-99190000D02*
X234134000Y-101430000D01*
X234254000Y-99190000D02*
X234254000Y-101430000D01*
X237654000Y-99190000D02*
X233414000Y-99190000D01*
X237654000Y-101430000D02*
X237654000Y-99190000D01*
X238304000Y-100310000D02*
X237654000Y-100310000D01*
%TO.C,J6*%
X184718000Y-57150000D02*
X184718000Y-92770000D01*
X182058000Y-92770000D02*
X184718000Y-92770000D01*
X182058000Y-57150000D02*
X184718000Y-57150000D01*
X182058000Y-57150000D02*
X182058000Y-92770000D01*
X182058000Y-55880000D02*
X182058000Y-54550000D01*
X182058000Y-54550000D02*
X183388000Y-54550000D01*
%TO.C,D9*%
X232764000Y-68310000D02*
X233414000Y-68310000D01*
X233414000Y-67190000D02*
X233414000Y-69430000D01*
X233414000Y-69430000D02*
X237654000Y-69430000D01*
X234014000Y-67190000D02*
X234014000Y-69430000D01*
X234134000Y-67190000D02*
X234134000Y-69430000D01*
X234254000Y-67190000D02*
X234254000Y-69430000D01*
X237654000Y-67190000D02*
X233414000Y-67190000D01*
X237654000Y-69430000D02*
X237654000Y-67190000D01*
X238304000Y-68310000D02*
X237654000Y-68310000D01*
%TO.C,J11*%
X250754000Y-93980000D02*
X250754000Y-65980000D01*
X250754000Y-96580000D02*
X250754000Y-95250000D01*
X252084000Y-96580000D02*
X250754000Y-96580000D01*
X253414000Y-65980000D02*
X250754000Y-65980000D01*
X253414000Y-93980000D02*
X250754000Y-93980000D01*
X253414000Y-93980000D02*
X253414000Y-65980000D01*
%TO.C,J1*%
X239530000Y-36520000D02*
X239530000Y-44560000D01*
X239530000Y-36520000D02*
X250270000Y-36520000D01*
X239530000Y-40140000D02*
X240770000Y-40140000D01*
X239530000Y-41140000D02*
X240770000Y-41140000D01*
X239530000Y-42440000D02*
X240770000Y-42440000D01*
X239530000Y-44560000D02*
X242350000Y-44560000D01*
X242950000Y-44560000D02*
X250270000Y-44560000D01*
X244530000Y-40140000D02*
X245838000Y-40140000D01*
X244530000Y-41140000D02*
X245838000Y-41140000D01*
X244530000Y-42440000D02*
X247107000Y-42440000D01*
X246206000Y-41844000D02*
X246163000Y-41887000D01*
X246445000Y-42083000D02*
X246402000Y-42126000D01*
X248193000Y-42440000D02*
X250270000Y-42440000D01*
X248897000Y-39154000D02*
X248854000Y-39197000D01*
X249137000Y-39393000D02*
X249094000Y-39436000D01*
X249462000Y-40140000D02*
X250270000Y-40140000D01*
X249462000Y-41140000D02*
X250270000Y-41140000D01*
X250270000Y-36520000D02*
X250270000Y-44560000D01*
X240770000Y-41194000D02*
G75*
G02*
X240770139Y-40085528I1879990J554000D01*
G01*
X242096000Y-38760000D02*
G75*
G02*
X243204472Y-38760139I554000J-1880000D01*
G01*
X243204000Y-42520000D02*
G75*
G02*
X242095528Y-42519861I-554000J1879990D01*
G01*
X244530000Y-40086000D02*
G75*
G02*
X244529861Y-41194472I-1880000J-554000D01*
G01*
X249610000Y-40640000D02*
G75*
G02*
X245690000Y-40640000I-1960000J0D01*
G01*
X245690000Y-40640000D02*
G75*
G02*
X249610000Y-40640000I1960000J0D01*
G01*
X243090000Y-45170000D02*
X242210000Y-45170000D01*
X242650000Y-44560000D01*
X243090000Y-45170000D01*
G36*
X243090000Y-45170000D02*
G01*
X242210000Y-45170000D01*
X242650000Y-44560000D01*
X243090000Y-45170000D01*
G37*
%TO.C,R1*%
X141910000Y-53848000D02*
X142860000Y-53848000D01*
X142860000Y-52928000D02*
X142860000Y-54768000D01*
X142860000Y-54768000D02*
X146700000Y-54768000D01*
X146700000Y-52928000D02*
X142860000Y-52928000D01*
X146700000Y-54768000D02*
X146700000Y-52928000D01*
X147650000Y-53848000D02*
X146700000Y-53848000D01*
%TO.C,D7*%
X232764000Y-75810000D02*
X233414000Y-75810000D01*
X233414000Y-74690000D02*
X233414000Y-76930000D01*
X233414000Y-76930000D02*
X237654000Y-76930000D01*
X234014000Y-74690000D02*
X234014000Y-76930000D01*
X234134000Y-74690000D02*
X234134000Y-76930000D01*
X234254000Y-74690000D02*
X234254000Y-76930000D01*
X237654000Y-74690000D02*
X233414000Y-74690000D01*
X237654000Y-76930000D02*
X237654000Y-74690000D01*
X238304000Y-75810000D02*
X237654000Y-75810000D01*
%TO.C,D4*%
X232764000Y-86310000D02*
X233414000Y-86310000D01*
X233414000Y-85190000D02*
X233414000Y-87430000D01*
X233414000Y-87430000D02*
X237654000Y-87430000D01*
X234014000Y-85190000D02*
X234014000Y-87430000D01*
X234134000Y-85190000D02*
X234134000Y-87430000D01*
X234254000Y-85190000D02*
X234254000Y-87430000D01*
X237654000Y-85190000D02*
X233414000Y-85190000D01*
X237654000Y-87430000D02*
X237654000Y-85190000D01*
X238304000Y-86310000D02*
X237654000Y-86310000D01*
%TO.C,J9*%
X135830000Y-94240000D02*
X135830000Y-66240000D01*
X135830000Y-96840000D02*
X135830000Y-95510000D01*
X137160000Y-96840000D02*
X135830000Y-96840000D01*
X138490000Y-66240000D02*
X135830000Y-66240000D01*
X138490000Y-94240000D02*
X135830000Y-94240000D01*
X138490000Y-94240000D02*
X138490000Y-66240000D01*
%TO.C,R18*%
X238906800Y-48473600D02*
X238906800Y-52313600D01*
X238906800Y-52313600D02*
X240746800Y-52313600D01*
X239826800Y-47523600D02*
X239826800Y-48473600D01*
X239826800Y-53263600D02*
X239826800Y-52313600D01*
X240746800Y-48473600D02*
X238906800Y-48473600D01*
X240746800Y-52313600D02*
X240746800Y-48473600D01*
%TO.C,D5*%
X232764000Y-82810000D02*
X233414000Y-82810000D01*
X233414000Y-81690000D02*
X233414000Y-83930000D01*
X233414000Y-83930000D02*
X237654000Y-83930000D01*
X234014000Y-81690000D02*
X234014000Y-83930000D01*
X234134000Y-81690000D02*
X234134000Y-83930000D01*
X234254000Y-81690000D02*
X234254000Y-83930000D01*
X237654000Y-81690000D02*
X233414000Y-81690000D01*
X237654000Y-83930000D02*
X237654000Y-81690000D01*
X238304000Y-82810000D02*
X237654000Y-82810000D01*
%TO.C,D16*%
X149630000Y-91700000D02*
X150280000Y-91700000D01*
X150280000Y-90580000D02*
X150280000Y-92820000D01*
X150280000Y-92820000D02*
X154520000Y-92820000D01*
X153680000Y-92820000D02*
X153680000Y-90580000D01*
X153800000Y-92820000D02*
X153800000Y-90580000D01*
X153920000Y-92820000D02*
X153920000Y-90580000D01*
X154520000Y-90580000D02*
X150280000Y-90580000D01*
X154520000Y-92820000D02*
X154520000Y-90580000D01*
X155170000Y-91700000D02*
X154520000Y-91700000D01*
%TO.C,D19*%
X149630000Y-65030000D02*
X150280000Y-65030000D01*
X150280000Y-63910000D02*
X150280000Y-66150000D01*
X150280000Y-66150000D02*
X154520000Y-66150000D01*
X153680000Y-66150000D02*
X153680000Y-63910000D01*
X153800000Y-66150000D02*
X153800000Y-63910000D01*
X153920000Y-66150000D02*
X153920000Y-63910000D01*
X154520000Y-63910000D02*
X150280000Y-63910000D01*
X154520000Y-66150000D02*
X154520000Y-63910000D01*
X155170000Y-65030000D02*
X154520000Y-65030000D01*
%TO.C,J2*%
X226576000Y-36520000D02*
X226576000Y-44560000D01*
X226576000Y-36520000D02*
X237316000Y-36520000D01*
X226576000Y-40140000D02*
X227816000Y-40140000D01*
X226576000Y-41140000D02*
X227816000Y-41140000D01*
X226576000Y-42440000D02*
X227816000Y-42440000D01*
X226576000Y-44560000D02*
X229396000Y-44560000D01*
X229996000Y-44560000D02*
X237316000Y-44560000D01*
X231576000Y-40140000D02*
X232884000Y-40140000D01*
X231576000Y-41140000D02*
X232884000Y-41140000D01*
X231576000Y-42440000D02*
X234153000Y-42440000D01*
X233252000Y-41844000D02*
X233209000Y-41887000D01*
X233491000Y-42083000D02*
X233448000Y-42126000D01*
X235239000Y-42440000D02*
X237316000Y-42440000D01*
X235943000Y-39154000D02*
X235900000Y-39197000D01*
X236183000Y-39393000D02*
X236140000Y-39436000D01*
X236508000Y-40140000D02*
X237316000Y-40140000D01*
X236508000Y-41140000D02*
X237316000Y-41140000D01*
X237316000Y-36520000D02*
X237316000Y-44560000D01*
X227816000Y-41194000D02*
G75*
G02*
X227816139Y-40085528I1879990J554000D01*
G01*
X229142000Y-38760000D02*
G75*
G02*
X230250472Y-38760139I554000J-1880000D01*
G01*
X230250000Y-42520000D02*
G75*
G02*
X229141528Y-42519861I-554000J1879990D01*
G01*
X231576000Y-40086000D02*
G75*
G02*
X231575861Y-41194472I-1880000J-554000D01*
G01*
X236656000Y-40640000D02*
G75*
G02*
X232736000Y-40640000I-1960000J0D01*
G01*
X232736000Y-40640000D02*
G75*
G02*
X236656000Y-40640000I1960000J0D01*
G01*
X230136000Y-45170000D02*
X229256000Y-45170000D01*
X229696000Y-44560000D01*
X230136000Y-45170000D01*
G36*
X230136000Y-45170000D02*
G01*
X229256000Y-45170000D01*
X229696000Y-44560000D01*
X230136000Y-45170000D01*
G37*
%TO.C,D13*%
X149630000Y-99060000D02*
X150280000Y-99060000D01*
X150280000Y-97940000D02*
X150280000Y-100180000D01*
X150280000Y-100180000D02*
X154520000Y-100180000D01*
X153680000Y-100180000D02*
X153680000Y-97940000D01*
X153800000Y-100180000D02*
X153800000Y-97940000D01*
X153920000Y-100180000D02*
X153920000Y-97940000D01*
X154520000Y-97940000D02*
X150280000Y-97940000D01*
X154520000Y-100180000D02*
X154520000Y-97940000D01*
X155170000Y-99060000D02*
X154520000Y-99060000D01*
%TO.C,D18*%
X149630000Y-87890000D02*
X150280000Y-87890000D01*
X150280000Y-86770000D02*
X150280000Y-89010000D01*
X150280000Y-89010000D02*
X154520000Y-89010000D01*
X153680000Y-89010000D02*
X153680000Y-86770000D01*
X153800000Y-89010000D02*
X153800000Y-86770000D01*
X153920000Y-89010000D02*
X153920000Y-86770000D01*
X154520000Y-86770000D02*
X150280000Y-86770000D01*
X154520000Y-89010000D02*
X154520000Y-86770000D01*
X155170000Y-87890000D02*
X154520000Y-87890000D01*
%TO.C,D11*%
X232802000Y-60360000D02*
X233452000Y-60360000D01*
X233452000Y-59240000D02*
X233452000Y-61480000D01*
X233452000Y-61480000D02*
X237692000Y-61480000D01*
X234052000Y-59240000D02*
X234052000Y-61480000D01*
X234172000Y-59240000D02*
X234172000Y-61480000D01*
X234292000Y-59240000D02*
X234292000Y-61480000D01*
X237692000Y-59240000D02*
X233452000Y-59240000D01*
X237692000Y-61480000D02*
X237692000Y-59240000D01*
X238342000Y-60360000D02*
X237692000Y-60360000D01*
%TO.C,J5*%
X206950000Y-54550000D02*
X208280000Y-54550000D01*
X206950000Y-55880000D02*
X206950000Y-54550000D01*
X206950000Y-57150000D02*
X206950000Y-92770000D01*
X206950000Y-57150000D02*
X209610000Y-57150000D01*
X206950000Y-92770000D02*
X209610000Y-92770000D01*
X209610000Y-57150000D02*
X209610000Y-92770000D01*
%TO.C,D15*%
X149630000Y-72650000D02*
X150280000Y-72650000D01*
X150280000Y-71530000D02*
X150280000Y-73770000D01*
X150280000Y-73770000D02*
X154520000Y-73770000D01*
X153680000Y-73770000D02*
X153680000Y-71530000D01*
X153800000Y-73770000D02*
X153800000Y-71530000D01*
X153920000Y-73770000D02*
X153920000Y-71530000D01*
X154520000Y-71530000D02*
X150280000Y-71530000D01*
X154520000Y-73770000D02*
X154520000Y-71530000D01*
X155170000Y-72650000D02*
X154520000Y-72650000D01*
%TO.C,D12*%
X149630000Y-102610000D02*
X150280000Y-102610000D01*
X150280000Y-101490000D02*
X150280000Y-103730000D01*
X150280000Y-103730000D02*
X154520000Y-103730000D01*
X153680000Y-103730000D02*
X153680000Y-101490000D01*
X153800000Y-103730000D02*
X153800000Y-101490000D01*
X153920000Y-103730000D02*
X153920000Y-101490000D01*
X154520000Y-101490000D02*
X150280000Y-101490000D01*
X154520000Y-103730000D02*
X154520000Y-101490000D01*
X155170000Y-102610000D02*
X154520000Y-102610000D01*
%TO.C,J3*%
X205494000Y-36774000D02*
X205494000Y-44814000D01*
X205494000Y-36774000D02*
X216234000Y-36774000D01*
X205494000Y-40394000D02*
X206734000Y-40394000D01*
X205494000Y-41394000D02*
X206734000Y-41394000D01*
X205494000Y-42694000D02*
X206734000Y-42694000D01*
X205494000Y-44814000D02*
X208314000Y-44814000D01*
X208914000Y-44814000D02*
X216234000Y-44814000D01*
X210494000Y-40394000D02*
X211802000Y-40394000D01*
X210494000Y-41394000D02*
X211802000Y-41394000D01*
X210494000Y-42694000D02*
X213071000Y-42694000D01*
X212170000Y-42098000D02*
X212127000Y-42141000D01*
X212409000Y-42337000D02*
X212366000Y-42380000D01*
X214157000Y-42694000D02*
X216234000Y-42694000D01*
X214861000Y-39408000D02*
X214818000Y-39451000D01*
X215101000Y-39647000D02*
X215058000Y-39690000D01*
X215426000Y-40394000D02*
X216234000Y-40394000D01*
X215426000Y-41394000D02*
X216234000Y-41394000D01*
X216234000Y-36774000D02*
X216234000Y-44814000D01*
X206734000Y-41448000D02*
G75*
G02*
X206734139Y-40339528I1879990J554000D01*
G01*
X208060000Y-39014000D02*
G75*
G02*
X209168472Y-39014139I554000J-1880000D01*
G01*
X209168000Y-42774000D02*
G75*
G02*
X208059528Y-42773861I-554000J1879990D01*
G01*
X210494000Y-40340000D02*
G75*
G02*
X210493861Y-41448472I-1880000J-554000D01*
G01*
X215574000Y-40894000D02*
G75*
G02*
X211654000Y-40894000I-1960000J0D01*
G01*
X211654000Y-40894000D02*
G75*
G02*
X215574000Y-40894000I1960000J0D01*
G01*
X209054000Y-45424000D02*
X208174000Y-45424000D01*
X208614000Y-44814000D01*
X209054000Y-45424000D01*
G36*
X209054000Y-45424000D02*
G01*
X208174000Y-45424000D01*
X208614000Y-44814000D01*
X209054000Y-45424000D01*
G37*
%TO.C,D25*%
X133384000Y-54138000D02*
X133540000Y-54138000D01*
X135700000Y-54138000D02*
X135856000Y-54138000D01*
X133384484Y-54138000D02*
G75*
G02*
X133539939Y-50906603I1235516J1560000D01*
G01*
X133540000Y-53618961D02*
G75*
G02*
X133539951Y-51537090I1080000J1040961D01*
G01*
X135700049Y-51537090D02*
G75*
G02*
X135700000Y-53618961I-1080049J-1040910D01*
G01*
X135700061Y-50906603D02*
G75*
G02*
X135855516Y-54138000I-1080061J-1671397D01*
G01*
%TO.C,R19*%
X227476800Y-48473600D02*
X227476800Y-52313600D01*
X227476800Y-52313600D02*
X229316800Y-52313600D01*
X228396800Y-47523600D02*
X228396800Y-48473600D01*
X228396800Y-53263600D02*
X228396800Y-52313600D01*
X229316800Y-48473600D02*
X227476800Y-48473600D01*
X229316800Y-52313600D02*
X229316800Y-48473600D01*
%TO.C,J4*%
X145542000Y-45014000D02*
X145542000Y-36974000D01*
X146350000Y-40394000D02*
X145542000Y-40394000D01*
X146350000Y-41394000D02*
X145542000Y-41394000D01*
X146675000Y-42141000D02*
X146718000Y-42098000D01*
X146915000Y-42380000D02*
X146958000Y-42337000D01*
X147619000Y-39094000D02*
X145542000Y-39094000D01*
X149367000Y-39451000D02*
X149410000Y-39408000D01*
X149606000Y-39690000D02*
X149649000Y-39647000D01*
X151282000Y-39094000D02*
X148705000Y-39094000D01*
X151282000Y-40394000D02*
X149974000Y-40394000D01*
X151282000Y-41394000D02*
X149974000Y-41394000D01*
X152862000Y-36974000D02*
X145542000Y-36974000D01*
X156282000Y-36974000D02*
X153462000Y-36974000D01*
X156282000Y-39094000D02*
X155042000Y-39094000D01*
X156282000Y-40394000D02*
X155042000Y-40394000D01*
X156282000Y-41394000D02*
X155042000Y-41394000D01*
X156282000Y-45014000D02*
X145542000Y-45014000D01*
X156282000Y-45014000D02*
X156282000Y-36974000D01*
X151282000Y-41448000D02*
G75*
G02*
X151282139Y-40339528I1880000J554000D01*
G01*
X152608000Y-39014000D02*
G75*
G02*
X153716472Y-39014139I554000J-1879990D01*
G01*
X153716000Y-42774000D02*
G75*
G02*
X152607528Y-42773861I-554000J1880000D01*
G01*
X155042000Y-40340000D02*
G75*
G02*
X155041861Y-41448472I-1879990J-554000D01*
G01*
X150122000Y-40894000D02*
G75*
G02*
X146202000Y-40894000I-1960000J0D01*
G01*
X146202000Y-40894000D02*
G75*
G02*
X150122000Y-40894000I1960000J0D01*
G01*
X153162000Y-36974000D02*
X152722000Y-36364000D01*
X153602000Y-36364000D01*
X153162000Y-36974000D01*
G36*
X153162000Y-36974000D02*
G01*
X152722000Y-36364000D01*
X153602000Y-36364000D01*
X153162000Y-36974000D01*
G37*
%TO.C,D14*%
X149630000Y-95510000D02*
X150280000Y-95510000D01*
X150280000Y-94390000D02*
X150280000Y-96630000D01*
X150280000Y-96630000D02*
X154520000Y-96630000D01*
X153680000Y-96630000D02*
X153680000Y-94390000D01*
X153800000Y-96630000D02*
X153800000Y-94390000D01*
X153920000Y-96630000D02*
X153920000Y-94390000D01*
X154520000Y-94390000D02*
X150280000Y-94390000D01*
X154520000Y-96630000D02*
X154520000Y-94390000D01*
X155170000Y-95510000D02*
X154520000Y-95510000D01*
%TO.C,D20*%
X149630000Y-84080000D02*
X150280000Y-84080000D01*
X150280000Y-82960000D02*
X150280000Y-85200000D01*
X150280000Y-85200000D02*
X154520000Y-85200000D01*
X153680000Y-85200000D02*
X153680000Y-82960000D01*
X153800000Y-85200000D02*
X153800000Y-82960000D01*
X153920000Y-85200000D02*
X153920000Y-82960000D01*
X154520000Y-82960000D02*
X150280000Y-82960000D01*
X154520000Y-85200000D02*
X154520000Y-82960000D01*
X155170000Y-84080000D02*
X154520000Y-84080000D01*
%TO.C,J10*%
X166878000Y-45014000D02*
X166878000Y-36974000D01*
X167686000Y-40394000D02*
X166878000Y-40394000D01*
X167686000Y-41394000D02*
X166878000Y-41394000D01*
X168011000Y-42141000D02*
X168054000Y-42098000D01*
X168251000Y-42380000D02*
X168294000Y-42337000D01*
X168955000Y-39094000D02*
X166878000Y-39094000D01*
X170703000Y-39451000D02*
X170746000Y-39408000D01*
X170942000Y-39690000D02*
X170985000Y-39647000D01*
X172618000Y-39094000D02*
X170041000Y-39094000D01*
X172618000Y-40394000D02*
X171310000Y-40394000D01*
X172618000Y-41394000D02*
X171310000Y-41394000D01*
X174198000Y-36974000D02*
X166878000Y-36974000D01*
X177618000Y-36974000D02*
X174798000Y-36974000D01*
X177618000Y-39094000D02*
X176378000Y-39094000D01*
X177618000Y-40394000D02*
X176378000Y-40394000D01*
X177618000Y-41394000D02*
X176378000Y-41394000D01*
X177618000Y-45014000D02*
X166878000Y-45014000D01*
X177618000Y-45014000D02*
X177618000Y-36974000D01*
X172618000Y-41448000D02*
G75*
G02*
X172618139Y-40339528I1880000J554000D01*
G01*
X173944000Y-39014000D02*
G75*
G02*
X175052472Y-39014139I554000J-1879990D01*
G01*
X175052000Y-42774000D02*
G75*
G02*
X173943528Y-42773861I-554000J1880000D01*
G01*
X176378000Y-40340000D02*
G75*
G02*
X176377861Y-41448472I-1879990J-554000D01*
G01*
X171458000Y-40894000D02*
G75*
G02*
X167538000Y-40894000I-1960000J0D01*
G01*
X167538000Y-40894000D02*
G75*
G02*
X171458000Y-40894000I1960000J0D01*
G01*
X174498000Y-36974000D02*
X174058000Y-36364000D01*
X174938000Y-36364000D01*
X174498000Y-36974000D01*
G36*
X174498000Y-36974000D02*
G01*
X174058000Y-36364000D01*
X174938000Y-36364000D01*
X174498000Y-36974000D01*
G37*
%TO.C,D23*%
X163980000Y-49442000D02*
X163980000Y-53682000D01*
X163980000Y-52842000D02*
X166220000Y-52842000D01*
X163980000Y-52962000D02*
X166220000Y-52962000D01*
X163980000Y-53082000D02*
X166220000Y-53082000D01*
X163980000Y-53682000D02*
X166220000Y-53682000D01*
X165100000Y-48792000D02*
X165100000Y-49442000D01*
X165100000Y-54332000D02*
X165100000Y-53682000D01*
X166220000Y-49442000D02*
X163980000Y-49442000D01*
X166220000Y-53682000D02*
X166220000Y-49442000D01*
%TO.C,D10*%
X232764000Y-64310000D02*
X233414000Y-64310000D01*
X233414000Y-63190000D02*
X233414000Y-65430000D01*
X233414000Y-65430000D02*
X237654000Y-65430000D01*
X234014000Y-63190000D02*
X234014000Y-65430000D01*
X234134000Y-63190000D02*
X234134000Y-65430000D01*
X234254000Y-63190000D02*
X234254000Y-65430000D01*
X237654000Y-63190000D02*
X233414000Y-63190000D01*
X237654000Y-65430000D02*
X237654000Y-63190000D01*
X238304000Y-64310000D02*
X237654000Y-64310000D01*
%TD*%
M02*
