M48
; DRILL file {KiCad 8.0.8} date 2025-03-04T16:09:22+0100
; FORMAT={-:-/ absolute / inch / decimal}
; #@! TF.CreationDate,2025-03-04T16:09:22+01:00
; #@! TF.GenerationSoftware,Kicad,Pcbnew,8.0.8
; #@! TF.FileFunction,Plated,1,2,PTH
FMAT,2
INCH
; #@! TA.AperFunction,Plated,PTH,ViaDrill
T1C0.0118
; #@! TA.AperFunction,Plated,PTH,ComponentDrill
T2C0.0276
; #@! TA.AperFunction,Plated,PTH,ComponentDrill
T3C0.0315
; #@! TA.AperFunction,Plated,PTH,ComponentDrill
T4C0.0354
; #@! TA.AperFunction,Plated,PTH,ComponentDrill
T5C0.0394
; #@! TA.AperFunction,Plated,PTH,ComponentDrill
T6C0.0512
%
G90
G05
T1
X6.49Y-3.9
X6.93Y-2.9
X7.71Y-2.35
X7.96Y-3.51
T2
X5.55Y-2.12
X5.85Y-2.12
X8.992Y-1.834
X8.992Y-2.134
X9.442Y-1.834
X9.442Y-2.134
T3
X5.85Y-2.4102
X5.85Y-2.5602
X5.85Y-2.7102
X5.85Y-2.8602
X5.85Y-3.0102
X5.85Y-3.1602
X5.85Y-3.3102
X5.85Y-3.4602
X5.85Y-3.6102
X5.85Y-3.7602
X5.85Y-3.9
X5.85Y-4.0398
X6.15Y-2.4102
X6.15Y-2.5602
X6.15Y-2.7102
X6.15Y-2.8602
X6.15Y-3.0102
X6.15Y-3.1602
X6.15Y-3.3102
X6.15Y-3.4602
X6.15Y-3.6102
X6.15Y-3.7602
X6.15Y-3.9
X6.15Y-4.0398
X6.6623Y-1.87
X6.6623Y-2.17
X9.123Y-2.5319
X9.123Y-2.6894
X9.123Y-2.8469
X9.123Y-2.9846
X9.123Y-3.1224
X9.123Y-3.2602
X9.123Y-3.398
X9.123Y-3.5378
X9.123Y-3.6776
X9.123Y-3.8114
X9.123Y-3.9492
X9.1245Y-2.3764
X9.423Y-2.5319
X9.423Y-2.6894
X9.423Y-2.8469
X9.423Y-2.9846
X9.423Y-3.1224
X9.423Y-3.2602
X9.423Y-3.398
X9.423Y-3.5378
X9.423Y-3.6776
X9.423Y-3.8114
X9.423Y-3.9492
X9.4245Y-2.3764
T4
X5.3Y-2.02
X5.3Y-2.12
X8.65Y-1.54
X8.75Y-1.54
T5
X5.4Y-2.6602
X5.4Y-2.7602
X5.4Y-2.8602
X5.4Y-2.9602
X5.4Y-3.0602
X5.4Y-3.1602
X5.4Y-3.2602
X5.4Y-3.3602
X5.4Y-3.4602
X5.4Y-3.5602
X5.4Y-3.6602
X5.4Y-3.7602
X6.4Y-4.15
X6.5Y-4.15
X6.6Y-4.15
X6.7Y-4.15
X6.8Y-4.15
X6.9Y-4.15
X7.0Y-4.15
X7.1Y-4.15
X7.18Y-2.2
X7.18Y-2.3
X7.18Y-2.4
X7.18Y-2.5
X7.18Y-2.6
X7.18Y-2.7
X7.18Y-2.8
X7.18Y-2.9
X7.18Y-3.0
X7.18Y-3.1
X7.18Y-3.2
X7.18Y-3.3
X7.18Y-3.4
X7.18Y-3.5
X7.18Y-3.6
X7.2Y-4.15
X7.3Y-4.15
X7.4Y-4.15
X7.5Y-4.15
X7.9Y-4.15
X8.0Y-4.15
X8.1Y-4.15
X8.2Y-2.2
X8.2Y-2.3
X8.2Y-2.4
X8.2Y-2.5
X8.2Y-2.6
X8.2Y-2.7
X8.2Y-2.8
X8.2Y-2.9
X8.2Y-3.0
X8.2Y-3.1
X8.2Y-3.2
X8.2Y-3.3
X8.2Y-3.4
X8.2Y-3.5
X8.2Y-3.6
X8.2Y-4.15
X8.3Y-4.15
X8.4Y-4.15
X8.5Y-4.15
X8.6Y-4.15
X8.7Y-4.15
X8.8Y-4.15
X8.9Y-4.15
X9.0Y-4.15
X9.9246Y-2.65
X9.9246Y-2.75
X9.9246Y-2.85
X9.9246Y-2.95
X9.9246Y-3.05
X9.9246Y-3.15
X9.9246Y-3.25
X9.9246Y-3.35
X9.9246Y-3.45
X9.9246Y-3.55
X9.9246Y-3.65
X9.9246Y-3.75
T6
X5.8331Y-1.61
X6.03Y-1.61
X6.6731Y-1.61
X6.87Y-1.61
X8.2131Y-1.61
X8.41Y-1.61
X9.0431Y-1.6
X9.24Y-1.6
X9.5531Y-1.6
X9.75Y-1.6
M30
