%TF.GenerationSoftware,KiCad,Pcbnew,8.0.8*%
%TF.CreationDate,2025-03-04T16:09:27+01:00*%
%TF.ProjectId,PCB Symphonie,50434220-5379-46d7-9068-6f6e69652e6b,rev?*%
%TF.SameCoordinates,Original*%
%TF.FileFunction,Drillmap*%
%TF.FilePolarity,Positive*%
%FSLAX45Y45*%
G04 Gerber Fmt 4.5, Leading zero omitted, Abs format (unit mm)*
G04 Created by KiCad (PCBNEW 8.0.8) date 2025-03-04 16:09:27*
%MOMM*%
%LPD*%
G01*
G04 APERTURE LIST*
%ADD10C,0.050000*%
%ADD11C,0.200000*%
%ADD12C,0.100000*%
%ADD13C,0.130000*%
G04 APERTURE END LIST*
D10*
X25492600Y-3804640D02*
G75*
G02*
X25256600Y-3804640I-118000J0D01*
G01*
X25256600Y-3804640D02*
G75*
G02*
X25492600Y-3804640I118000J0D01*
G01*
X13595240Y-3805200D02*
G75*
G02*
X13359240Y-3805200I-118000J0D01*
G01*
X13359240Y-3805200D02*
G75*
G02*
X13595240Y-3805200I118000J0D01*
G01*
X25507560Y-11267160D02*
G75*
G02*
X25271560Y-11267160I-118000J0D01*
G01*
X25271560Y-11267160D02*
G75*
G02*
X25507560Y-11267160I118000J0D01*
G01*
X12974000Y-3302000D02*
X25888000Y-3302000D01*
X25888000Y-11770000D01*
X12974000Y-11770000D01*
X12974000Y-3302000D01*
X13595520Y-11262360D02*
G75*
G02*
X13359520Y-11262360I-118000J0D01*
G01*
X13359520Y-11262360D02*
G75*
G02*
X13595520Y-11262360I118000J0D01*
G01*
D11*
D12*
X16469600Y-9891000D02*
X16499600Y-9921000D01*
X16499600Y-9891000D02*
X16469600Y-9921000D01*
X17587200Y-7351000D02*
X17617200Y-7381000D01*
X17617200Y-7351000D02*
X17587200Y-7381000D01*
X19568400Y-5954000D02*
X19598400Y-5984000D01*
X19598400Y-5954000D02*
X19568400Y-5984000D01*
X20203400Y-8900400D02*
X20233400Y-8930400D01*
X20233400Y-8900400D02*
X20203400Y-8930400D01*
X14132000Y-5384800D02*
G75*
G02*
X14062000Y-5384800I-35000J0D01*
G01*
X14062000Y-5384800D02*
G75*
G02*
X14132000Y-5384800I35000J0D01*
G01*
X14894000Y-5384800D02*
G75*
G02*
X14824000Y-5384800I-35000J0D01*
G01*
X14824000Y-5384800D02*
G75*
G02*
X14894000Y-5384800I35000J0D01*
G01*
X22874680Y-4658360D02*
G75*
G02*
X22804680Y-4658360I-35000J0D01*
G01*
X22804680Y-4658360D02*
G75*
G02*
X22874680Y-4658360I35000J0D01*
G01*
X22874680Y-5420360D02*
G75*
G02*
X22804680Y-5420360I-35000J0D01*
G01*
X22804680Y-5420360D02*
G75*
G02*
X22874680Y-5420360I35000J0D01*
G01*
X24017680Y-4658360D02*
G75*
G02*
X23947680Y-4658360I-35000J0D01*
G01*
X23947680Y-4658360D02*
G75*
G02*
X24017680Y-4658360I35000J0D01*
G01*
X24017680Y-5420360D02*
G75*
G02*
X23947680Y-5420360I-35000J0D01*
G01*
X23947680Y-5420360D02*
G75*
G02*
X24017680Y-5420360I35000J0D01*
G01*
X14859000Y-6082000D02*
X14859000Y-6162000D01*
X14819000Y-6122000D02*
X14899000Y-6122000D01*
X14859000Y-6463000D02*
X14859000Y-6543000D01*
X14819000Y-6503000D02*
X14899000Y-6503000D01*
X14859000Y-6844000D02*
X14859000Y-6924000D01*
X14819000Y-6884000D02*
X14899000Y-6884000D01*
X14859000Y-7225000D02*
X14859000Y-7305000D01*
X14819000Y-7265000D02*
X14899000Y-7265000D01*
X14859000Y-7606000D02*
X14859000Y-7686000D01*
X14819000Y-7646000D02*
X14899000Y-7646000D01*
X14859000Y-7987000D02*
X14859000Y-8067000D01*
X14819000Y-8027000D02*
X14899000Y-8027000D01*
X14859000Y-8368000D02*
X14859000Y-8448000D01*
X14819000Y-8408000D02*
X14899000Y-8408000D01*
X14859000Y-8749000D02*
X14859000Y-8829000D01*
X14819000Y-8789000D02*
X14899000Y-8789000D01*
X14859000Y-9130000D02*
X14859000Y-9210000D01*
X14819000Y-9170000D02*
X14899000Y-9170000D01*
X14859000Y-9511000D02*
X14859000Y-9591000D01*
X14819000Y-9551000D02*
X14899000Y-9551000D01*
X14859000Y-9866000D02*
X14859000Y-9946000D01*
X14819000Y-9906000D02*
X14899000Y-9906000D01*
X14859000Y-10221000D02*
X14859000Y-10301000D01*
X14819000Y-10261000D02*
X14899000Y-10261000D01*
X15621000Y-6082000D02*
X15621000Y-6162000D01*
X15581000Y-6122000D02*
X15661000Y-6122000D01*
X15621000Y-6463000D02*
X15621000Y-6543000D01*
X15581000Y-6503000D02*
X15661000Y-6503000D01*
X15621000Y-6844000D02*
X15621000Y-6924000D01*
X15581000Y-6884000D02*
X15661000Y-6884000D01*
X15621000Y-7225000D02*
X15621000Y-7305000D01*
X15581000Y-7265000D02*
X15661000Y-7265000D01*
X15621000Y-7606000D02*
X15621000Y-7686000D01*
X15581000Y-7646000D02*
X15661000Y-7646000D01*
X15621000Y-7987000D02*
X15621000Y-8067000D01*
X15581000Y-8027000D02*
X15661000Y-8027000D01*
X15621000Y-8368000D02*
X15621000Y-8448000D01*
X15581000Y-8408000D02*
X15661000Y-8408000D01*
X15621000Y-8749000D02*
X15621000Y-8829000D01*
X15581000Y-8789000D02*
X15661000Y-8789000D01*
X15621000Y-9130000D02*
X15621000Y-9210000D01*
X15581000Y-9170000D02*
X15661000Y-9170000D01*
X15621000Y-9511000D02*
X15621000Y-9591000D01*
X15581000Y-9551000D02*
X15661000Y-9551000D01*
X15621000Y-9866000D02*
X15621000Y-9946000D01*
X15581000Y-9906000D02*
X15661000Y-9906000D01*
X15621000Y-10221000D02*
X15621000Y-10301000D01*
X15581000Y-10261000D02*
X15661000Y-10261000D01*
X16922350Y-4709800D02*
X16922350Y-4789800D01*
X16882350Y-4749800D02*
X16962350Y-4749800D01*
X16922350Y-5471800D02*
X16922350Y-5551800D01*
X16882350Y-5511800D02*
X16962350Y-5511800D01*
X23172400Y-6391000D02*
X23172400Y-6471000D01*
X23132400Y-6431000D02*
X23212400Y-6431000D01*
X23172400Y-6791000D02*
X23172400Y-6871000D01*
X23132400Y-6831000D02*
X23212400Y-6831000D01*
X23172400Y-7191000D02*
X23172400Y-7271000D01*
X23132400Y-7231000D02*
X23212400Y-7231000D01*
X23172400Y-7541000D02*
X23172400Y-7621000D01*
X23132400Y-7581000D02*
X23212400Y-7581000D01*
X23172400Y-7891000D02*
X23172400Y-7971000D01*
X23132400Y-7931000D02*
X23212400Y-7931000D01*
X23172400Y-8241000D02*
X23172400Y-8321000D01*
X23132400Y-8281000D02*
X23212400Y-8281000D01*
X23172400Y-8591000D02*
X23172400Y-8671000D01*
X23132400Y-8631000D02*
X23212400Y-8631000D01*
X23172400Y-8946000D02*
X23172400Y-9026000D01*
X23132400Y-8986000D02*
X23212400Y-8986000D01*
X23172400Y-9301000D02*
X23172400Y-9381000D01*
X23132400Y-9341000D02*
X23212400Y-9341000D01*
X23172400Y-9641000D02*
X23172400Y-9721000D01*
X23132400Y-9681000D02*
X23212400Y-9681000D01*
X23172400Y-9991000D02*
X23172400Y-10071000D01*
X23132400Y-10031000D02*
X23212400Y-10031000D01*
X23176200Y-5996000D02*
X23176200Y-6076000D01*
X23136200Y-6036000D02*
X23216200Y-6036000D01*
X23934400Y-6391000D02*
X23934400Y-6471000D01*
X23894400Y-6431000D02*
X23974400Y-6431000D01*
X23934400Y-6791000D02*
X23934400Y-6871000D01*
X23894400Y-6831000D02*
X23974400Y-6831000D01*
X23934400Y-7191000D02*
X23934400Y-7271000D01*
X23894400Y-7231000D02*
X23974400Y-7231000D01*
X23934400Y-7541000D02*
X23934400Y-7621000D01*
X23894400Y-7581000D02*
X23974400Y-7581000D01*
X23934400Y-7891000D02*
X23934400Y-7971000D01*
X23894400Y-7931000D02*
X23974400Y-7931000D01*
X23934400Y-8241000D02*
X23934400Y-8321000D01*
X23894400Y-8281000D02*
X23974400Y-8281000D01*
X23934400Y-8591000D02*
X23934400Y-8671000D01*
X23894400Y-8631000D02*
X23974400Y-8631000D01*
X23934400Y-8946000D02*
X23934400Y-9026000D01*
X23894400Y-8986000D02*
X23974400Y-8986000D01*
X23934400Y-9301000D02*
X23934400Y-9381000D01*
X23894400Y-9341000D02*
X23974400Y-9341000D01*
X23934400Y-9641000D02*
X23934400Y-9721000D01*
X23894400Y-9681000D02*
X23974400Y-9681000D01*
X23934400Y-9991000D02*
X23934400Y-10071000D01*
X23894400Y-10031000D02*
X23974400Y-10031000D01*
X23938200Y-5996000D02*
X23938200Y-6076000D01*
X23898200Y-6036000D02*
X23978200Y-6036000D01*
X13493820Y-5162620D02*
X13493820Y-5098980D01*
X13430180Y-5098980D01*
X13430180Y-5162620D01*
X13493820Y-5162620D01*
X13493820Y-5416620D02*
X13493820Y-5352980D01*
X13430180Y-5352980D01*
X13430180Y-5416620D01*
X13493820Y-5416620D01*
X22002820Y-3943420D02*
X22002820Y-3879780D01*
X21939180Y-3879780D01*
X21939180Y-3943420D01*
X22002820Y-3943420D01*
X22256820Y-3943420D02*
X22256820Y-3879780D01*
X22193180Y-3879780D01*
X22193180Y-3943420D01*
X22256820Y-3943420D01*
X13716000Y-6807000D02*
X13766000Y-6757000D01*
X13716000Y-6707000D01*
X13666000Y-6757000D01*
X13716000Y-6807000D01*
X13716000Y-7061000D02*
X13766000Y-7011000D01*
X13716000Y-6961000D01*
X13666000Y-7011000D01*
X13716000Y-7061000D01*
X13716000Y-7315000D02*
X13766000Y-7265000D01*
X13716000Y-7215000D01*
X13666000Y-7265000D01*
X13716000Y-7315000D01*
X13716000Y-7569000D02*
X13766000Y-7519000D01*
X13716000Y-7469000D01*
X13666000Y-7519000D01*
X13716000Y-7569000D01*
X13716000Y-7823000D02*
X13766000Y-7773000D01*
X13716000Y-7723000D01*
X13666000Y-7773000D01*
X13716000Y-7823000D01*
X13716000Y-8077000D02*
X13766000Y-8027000D01*
X13716000Y-7977000D01*
X13666000Y-8027000D01*
X13716000Y-8077000D01*
X13716000Y-8331000D02*
X13766000Y-8281000D01*
X13716000Y-8231000D01*
X13666000Y-8281000D01*
X13716000Y-8331000D01*
X13716000Y-8585000D02*
X13766000Y-8535000D01*
X13716000Y-8485000D01*
X13666000Y-8535000D01*
X13716000Y-8585000D01*
X13716000Y-8839000D02*
X13766000Y-8789000D01*
X13716000Y-8739000D01*
X13666000Y-8789000D01*
X13716000Y-8839000D01*
X13716000Y-9093000D02*
X13766000Y-9043000D01*
X13716000Y-8993000D01*
X13666000Y-9043000D01*
X13716000Y-9093000D01*
X13716000Y-9347000D02*
X13766000Y-9297000D01*
X13716000Y-9247000D01*
X13666000Y-9297000D01*
X13716000Y-9347000D01*
X13716000Y-9601000D02*
X13766000Y-9551000D01*
X13716000Y-9501000D01*
X13666000Y-9551000D01*
X13716000Y-9601000D01*
X16256000Y-10591000D02*
X16306000Y-10541000D01*
X16256000Y-10491000D01*
X16206000Y-10541000D01*
X16256000Y-10591000D01*
X16510000Y-10591000D02*
X16560000Y-10541000D01*
X16510000Y-10491000D01*
X16460000Y-10541000D01*
X16510000Y-10591000D01*
X16764000Y-10591000D02*
X16814000Y-10541000D01*
X16764000Y-10491000D01*
X16714000Y-10541000D01*
X16764000Y-10591000D01*
X17018000Y-10591000D02*
X17068000Y-10541000D01*
X17018000Y-10491000D01*
X16968000Y-10541000D01*
X17018000Y-10591000D01*
X17272000Y-10591000D02*
X17322000Y-10541000D01*
X17272000Y-10491000D01*
X17222000Y-10541000D01*
X17272000Y-10591000D01*
X17526000Y-10591000D02*
X17576000Y-10541000D01*
X17526000Y-10491000D01*
X17476000Y-10541000D01*
X17526000Y-10591000D01*
X17780000Y-10591000D02*
X17830000Y-10541000D01*
X17780000Y-10491000D01*
X17730000Y-10541000D01*
X17780000Y-10591000D01*
X18034000Y-10591000D02*
X18084000Y-10541000D01*
X18034000Y-10491000D01*
X17984000Y-10541000D01*
X18034000Y-10591000D01*
X18237200Y-5638000D02*
X18287200Y-5588000D01*
X18237200Y-5538000D01*
X18187200Y-5588000D01*
X18237200Y-5638000D01*
X18237200Y-5892000D02*
X18287200Y-5842000D01*
X18237200Y-5792000D01*
X18187200Y-5842000D01*
X18237200Y-5892000D01*
X18237200Y-6146000D02*
X18287200Y-6096000D01*
X18237200Y-6046000D01*
X18187200Y-6096000D01*
X18237200Y-6146000D01*
X18237200Y-6400000D02*
X18287200Y-6350000D01*
X18237200Y-6300000D01*
X18187200Y-6350000D01*
X18237200Y-6400000D01*
X18237200Y-6654000D02*
X18287200Y-6604000D01*
X18237200Y-6554000D01*
X18187200Y-6604000D01*
X18237200Y-6654000D01*
X18237200Y-6908000D02*
X18287200Y-6858000D01*
X18237200Y-6808000D01*
X18187200Y-6858000D01*
X18237200Y-6908000D01*
X18237200Y-7162000D02*
X18287200Y-7112000D01*
X18237200Y-7062000D01*
X18187200Y-7112000D01*
X18237200Y-7162000D01*
X18237200Y-7416000D02*
X18287200Y-7366000D01*
X18237200Y-7316000D01*
X18187200Y-7366000D01*
X18237200Y-7416000D01*
X18237200Y-7670000D02*
X18287200Y-7620000D01*
X18237200Y-7570000D01*
X18187200Y-7620000D01*
X18237200Y-7670000D01*
X18237200Y-7924000D02*
X18287200Y-7874000D01*
X18237200Y-7824000D01*
X18187200Y-7874000D01*
X18237200Y-7924000D01*
X18237200Y-8178000D02*
X18287200Y-8128000D01*
X18237200Y-8078000D01*
X18187200Y-8128000D01*
X18237200Y-8178000D01*
X18237200Y-8432000D02*
X18287200Y-8382000D01*
X18237200Y-8332000D01*
X18187200Y-8382000D01*
X18237200Y-8432000D01*
X18237200Y-8686000D02*
X18287200Y-8636000D01*
X18237200Y-8586000D01*
X18187200Y-8636000D01*
X18237200Y-8686000D01*
X18237200Y-8940000D02*
X18287200Y-8890000D01*
X18237200Y-8840000D01*
X18187200Y-8890000D01*
X18237200Y-8940000D01*
X18237200Y-9194000D02*
X18287200Y-9144000D01*
X18237200Y-9094000D01*
X18187200Y-9144000D01*
X18237200Y-9194000D01*
X18288000Y-10591000D02*
X18338000Y-10541000D01*
X18288000Y-10491000D01*
X18238000Y-10541000D01*
X18288000Y-10591000D01*
X18542000Y-10591000D02*
X18592000Y-10541000D01*
X18542000Y-10491000D01*
X18492000Y-10541000D01*
X18542000Y-10591000D01*
X18796000Y-10591000D02*
X18846000Y-10541000D01*
X18796000Y-10491000D01*
X18746000Y-10541000D01*
X18796000Y-10591000D01*
X19050000Y-10591000D02*
X19100000Y-10541000D01*
X19050000Y-10491000D01*
X19000000Y-10541000D01*
X19050000Y-10591000D01*
X20066000Y-10591000D02*
X20116000Y-10541000D01*
X20066000Y-10491000D01*
X20016000Y-10541000D01*
X20066000Y-10591000D01*
X20320000Y-10591000D02*
X20370000Y-10541000D01*
X20320000Y-10491000D01*
X20270000Y-10541000D01*
X20320000Y-10591000D01*
X20574000Y-10591000D02*
X20624000Y-10541000D01*
X20574000Y-10491000D01*
X20524000Y-10541000D01*
X20574000Y-10591000D01*
X20828000Y-5638000D02*
X20878000Y-5588000D01*
X20828000Y-5538000D01*
X20778000Y-5588000D01*
X20828000Y-5638000D01*
X20828000Y-5892000D02*
X20878000Y-5842000D01*
X20828000Y-5792000D01*
X20778000Y-5842000D01*
X20828000Y-5892000D01*
X20828000Y-6146000D02*
X20878000Y-6096000D01*
X20828000Y-6046000D01*
X20778000Y-6096000D01*
X20828000Y-6146000D01*
X20828000Y-6400000D02*
X20878000Y-6350000D01*
X20828000Y-6300000D01*
X20778000Y-6350000D01*
X20828000Y-6400000D01*
X20828000Y-6654000D02*
X20878000Y-6604000D01*
X20828000Y-6554000D01*
X20778000Y-6604000D01*
X20828000Y-6654000D01*
X20828000Y-6908000D02*
X20878000Y-6858000D01*
X20828000Y-6808000D01*
X20778000Y-6858000D01*
X20828000Y-6908000D01*
X20828000Y-7162000D02*
X20878000Y-7112000D01*
X20828000Y-7062000D01*
X20778000Y-7112000D01*
X20828000Y-7162000D01*
X20828000Y-7416000D02*
X20878000Y-7366000D01*
X20828000Y-7316000D01*
X20778000Y-7366000D01*
X20828000Y-7416000D01*
X20828000Y-7670000D02*
X20878000Y-7620000D01*
X20828000Y-7570000D01*
X20778000Y-7620000D01*
X20828000Y-7670000D01*
X20828000Y-7924000D02*
X20878000Y-7874000D01*
X20828000Y-7824000D01*
X20778000Y-7874000D01*
X20828000Y-7924000D01*
X20828000Y-8178000D02*
X20878000Y-8128000D01*
X20828000Y-8078000D01*
X20778000Y-8128000D01*
X20828000Y-8178000D01*
X20828000Y-8432000D02*
X20878000Y-8382000D01*
X20828000Y-8332000D01*
X20778000Y-8382000D01*
X20828000Y-8432000D01*
X20828000Y-8686000D02*
X20878000Y-8636000D01*
X20828000Y-8586000D01*
X20778000Y-8636000D01*
X20828000Y-8686000D01*
X20828000Y-8940000D02*
X20878000Y-8890000D01*
X20828000Y-8840000D01*
X20778000Y-8890000D01*
X20828000Y-8940000D01*
X20828000Y-9194000D02*
X20878000Y-9144000D01*
X20828000Y-9094000D01*
X20778000Y-9144000D01*
X20828000Y-9194000D01*
X20828000Y-10591000D02*
X20878000Y-10541000D01*
X20828000Y-10491000D01*
X20778000Y-10541000D01*
X20828000Y-10591000D01*
X21082000Y-10591000D02*
X21132000Y-10541000D01*
X21082000Y-10491000D01*
X21032000Y-10541000D01*
X21082000Y-10591000D01*
X21336000Y-10591000D02*
X21386000Y-10541000D01*
X21336000Y-10491000D01*
X21286000Y-10541000D01*
X21336000Y-10591000D01*
X21590000Y-10591000D02*
X21640000Y-10541000D01*
X21590000Y-10491000D01*
X21540000Y-10541000D01*
X21590000Y-10591000D01*
X21844000Y-10591000D02*
X21894000Y-10541000D01*
X21844000Y-10491000D01*
X21794000Y-10541000D01*
X21844000Y-10591000D01*
X22098000Y-10591000D02*
X22148000Y-10541000D01*
X22098000Y-10491000D01*
X22048000Y-10541000D01*
X22098000Y-10591000D01*
X22352000Y-10591000D02*
X22402000Y-10541000D01*
X22352000Y-10491000D01*
X22302000Y-10541000D01*
X22352000Y-10591000D01*
X22606000Y-10591000D02*
X22656000Y-10541000D01*
X22606000Y-10491000D01*
X22556000Y-10541000D01*
X22606000Y-10591000D01*
X22860000Y-10591000D02*
X22910000Y-10541000D01*
X22860000Y-10491000D01*
X22810000Y-10541000D01*
X22860000Y-10591000D01*
X25208400Y-6781000D02*
X25258400Y-6731000D01*
X25208400Y-6681000D01*
X25158400Y-6731000D01*
X25208400Y-6781000D01*
X25208400Y-7035000D02*
X25258400Y-6985000D01*
X25208400Y-6935000D01*
X25158400Y-6985000D01*
X25208400Y-7035000D01*
X25208400Y-7289000D02*
X25258400Y-7239000D01*
X25208400Y-7189000D01*
X25158400Y-7239000D01*
X25208400Y-7289000D01*
X25208400Y-7543000D02*
X25258400Y-7493000D01*
X25208400Y-7443000D01*
X25158400Y-7493000D01*
X25208400Y-7543000D01*
X25208400Y-7797000D02*
X25258400Y-7747000D01*
X25208400Y-7697000D01*
X25158400Y-7747000D01*
X25208400Y-7797000D01*
X25208400Y-8051000D02*
X25258400Y-8001000D01*
X25208400Y-7951000D01*
X25158400Y-8001000D01*
X25208400Y-8051000D01*
X25208400Y-8305000D02*
X25258400Y-8255000D01*
X25208400Y-8205000D01*
X25158400Y-8255000D01*
X25208400Y-8305000D01*
X25208400Y-8559000D02*
X25258400Y-8509000D01*
X25208400Y-8459000D01*
X25158400Y-8509000D01*
X25208400Y-8559000D01*
X25208400Y-8813000D02*
X25258400Y-8763000D01*
X25208400Y-8713000D01*
X25158400Y-8763000D01*
X25208400Y-8813000D01*
X25208400Y-9067000D02*
X25258400Y-9017000D01*
X25208400Y-8967000D01*
X25158400Y-9017000D01*
X25208400Y-9067000D01*
X25208400Y-9321000D02*
X25258400Y-9271000D01*
X25208400Y-9221000D01*
X25158400Y-9271000D01*
X25208400Y-9321000D01*
X25208400Y-9575000D02*
X25258400Y-9525000D01*
X25208400Y-9475000D01*
X25158400Y-9525000D01*
X25208400Y-9575000D01*
D13*
X14751200Y-4024400D02*
X14881200Y-4154400D01*
X14881200Y-4024400D02*
X14751200Y-4154400D01*
X14881200Y-4089400D02*
G75*
G02*
X14751200Y-4089400I-65000J0D01*
G01*
X14751200Y-4089400D02*
G75*
G02*
X14881200Y-4089400I65000J0D01*
G01*
X15251200Y-4024400D02*
X15381200Y-4154400D01*
X15381200Y-4024400D02*
X15251200Y-4154400D01*
X15381200Y-4089400D02*
G75*
G02*
X15251200Y-4089400I-65000J0D01*
G01*
X15251200Y-4089400D02*
G75*
G02*
X15381200Y-4089400I65000J0D01*
G01*
X16884800Y-4024400D02*
X17014800Y-4154400D01*
X17014800Y-4024400D02*
X16884800Y-4154400D01*
X17014800Y-4089400D02*
G75*
G02*
X16884800Y-4089400I-65000J0D01*
G01*
X16884800Y-4089400D02*
G75*
G02*
X17014800Y-4089400I65000J0D01*
G01*
X17384800Y-4024400D02*
X17514800Y-4154400D01*
X17514800Y-4024400D02*
X17384800Y-4154400D01*
X17514800Y-4089400D02*
G75*
G02*
X17384800Y-4089400I-65000J0D01*
G01*
X17384800Y-4089400D02*
G75*
G02*
X17514800Y-4089400I65000J0D01*
G01*
X20796400Y-4024400D02*
X20926400Y-4154400D01*
X20926400Y-4024400D02*
X20796400Y-4154400D01*
X20926400Y-4089400D02*
G75*
G02*
X20796400Y-4089400I-65000J0D01*
G01*
X20796400Y-4089400D02*
G75*
G02*
X20926400Y-4089400I65000J0D01*
G01*
X21296400Y-4024400D02*
X21426400Y-4154400D01*
X21426400Y-4024400D02*
X21296400Y-4154400D01*
X21426400Y-4089400D02*
G75*
G02*
X21296400Y-4089400I-65000J0D01*
G01*
X21296400Y-4089400D02*
G75*
G02*
X21426400Y-4089400I65000J0D01*
G01*
X22904600Y-3999000D02*
X23034600Y-4129000D01*
X23034600Y-3999000D02*
X22904600Y-4129000D01*
X23034600Y-4064000D02*
G75*
G02*
X22904600Y-4064000I-65000J0D01*
G01*
X22904600Y-4064000D02*
G75*
G02*
X23034600Y-4064000I65000J0D01*
G01*
X23404600Y-3999000D02*
X23534600Y-4129000D01*
X23534600Y-3999000D02*
X23404600Y-4129000D01*
X23534600Y-4064000D02*
G75*
G02*
X23404600Y-4064000I-65000J0D01*
G01*
X23404600Y-4064000D02*
G75*
G02*
X23534600Y-4064000I65000J0D01*
G01*
X24200000Y-3999000D02*
X24330000Y-4129000D01*
X24330000Y-3999000D02*
X24200000Y-4129000D01*
X24330000Y-4064000D02*
G75*
G02*
X24200000Y-4064000I-65000J0D01*
G01*
X24200000Y-4064000D02*
G75*
G02*
X24330000Y-4064000I65000J0D01*
G01*
X24700000Y-3999000D02*
X24830000Y-4129000D01*
X24830000Y-3999000D02*
X24700000Y-4129000D01*
X24830000Y-4064000D02*
G75*
G02*
X24700000Y-4064000I-65000J0D01*
G01*
X24700000Y-4064000D02*
G75*
G02*
X24830000Y-4064000I65000J0D01*
G01*
D11*
X13232277Y-12083984D02*
X13232277Y-11883984D01*
X13232277Y-11883984D02*
X13279896Y-11883984D01*
X13279896Y-11883984D02*
X13308467Y-11893508D01*
X13308467Y-11893508D02*
X13327515Y-11912555D01*
X13327515Y-11912555D02*
X13337039Y-11931603D01*
X13337039Y-11931603D02*
X13346562Y-11969698D01*
X13346562Y-11969698D02*
X13346562Y-11998269D01*
X13346562Y-11998269D02*
X13337039Y-12036365D01*
X13337039Y-12036365D02*
X13327515Y-12055412D01*
X13327515Y-12055412D02*
X13308467Y-12074460D01*
X13308467Y-12074460D02*
X13279896Y-12083984D01*
X13279896Y-12083984D02*
X13232277Y-12083984D01*
X13432277Y-12083984D02*
X13432277Y-11950650D01*
X13432277Y-11988746D02*
X13441801Y-11969698D01*
X13441801Y-11969698D02*
X13451324Y-11960174D01*
X13451324Y-11960174D02*
X13470372Y-11950650D01*
X13470372Y-11950650D02*
X13489420Y-11950650D01*
X13556086Y-12083984D02*
X13556086Y-11950650D01*
X13556086Y-11883984D02*
X13546562Y-11893508D01*
X13546562Y-11893508D02*
X13556086Y-11903031D01*
X13556086Y-11903031D02*
X13565610Y-11893508D01*
X13565610Y-11893508D02*
X13556086Y-11883984D01*
X13556086Y-11883984D02*
X13556086Y-11903031D01*
X13679896Y-12083984D02*
X13660848Y-12074460D01*
X13660848Y-12074460D02*
X13651324Y-12055412D01*
X13651324Y-12055412D02*
X13651324Y-11883984D01*
X13784658Y-12083984D02*
X13765610Y-12074460D01*
X13765610Y-12074460D02*
X13756086Y-12055412D01*
X13756086Y-12055412D02*
X13756086Y-11883984D01*
X14013229Y-12083984D02*
X14013229Y-11883984D01*
X14013229Y-11883984D02*
X14079896Y-12026841D01*
X14079896Y-12026841D02*
X14146562Y-11883984D01*
X14146562Y-11883984D02*
X14146562Y-12083984D01*
X14327515Y-12083984D02*
X14327515Y-11979222D01*
X14327515Y-11979222D02*
X14317991Y-11960174D01*
X14317991Y-11960174D02*
X14298943Y-11950650D01*
X14298943Y-11950650D02*
X14260848Y-11950650D01*
X14260848Y-11950650D02*
X14241801Y-11960174D01*
X14327515Y-12074460D02*
X14308467Y-12083984D01*
X14308467Y-12083984D02*
X14260848Y-12083984D01*
X14260848Y-12083984D02*
X14241801Y-12074460D01*
X14241801Y-12074460D02*
X14232277Y-12055412D01*
X14232277Y-12055412D02*
X14232277Y-12036365D01*
X14232277Y-12036365D02*
X14241801Y-12017317D01*
X14241801Y-12017317D02*
X14260848Y-12007793D01*
X14260848Y-12007793D02*
X14308467Y-12007793D01*
X14308467Y-12007793D02*
X14327515Y-11998269D01*
X14422753Y-11950650D02*
X14422753Y-12150650D01*
X14422753Y-11960174D02*
X14441801Y-11950650D01*
X14441801Y-11950650D02*
X14479896Y-11950650D01*
X14479896Y-11950650D02*
X14498943Y-11960174D01*
X14498943Y-11960174D02*
X14508467Y-11969698D01*
X14508467Y-11969698D02*
X14517991Y-11988746D01*
X14517991Y-11988746D02*
X14517991Y-12045888D01*
X14517991Y-12045888D02*
X14508467Y-12064936D01*
X14508467Y-12064936D02*
X14498943Y-12074460D01*
X14498943Y-12074460D02*
X14479896Y-12083984D01*
X14479896Y-12083984D02*
X14441801Y-12083984D01*
X14441801Y-12083984D02*
X14422753Y-12074460D01*
X14603705Y-12064936D02*
X14613229Y-12074460D01*
X14613229Y-12074460D02*
X14603705Y-12083984D01*
X14603705Y-12083984D02*
X14594182Y-12074460D01*
X14594182Y-12074460D02*
X14603705Y-12064936D01*
X14603705Y-12064936D02*
X14603705Y-12083984D01*
X14603705Y-11960174D02*
X14613229Y-11969698D01*
X14613229Y-11969698D02*
X14603705Y-11979222D01*
X14603705Y-11979222D02*
X14594182Y-11969698D01*
X14594182Y-11969698D02*
X14603705Y-11960174D01*
X14603705Y-11960174D02*
X14603705Y-11979222D01*
D12*
X12941500Y-12397500D02*
X12971500Y-12427500D01*
X12971500Y-12397500D02*
X12941500Y-12427500D01*
D11*
X13270372Y-12303984D02*
X13289420Y-12303984D01*
X13289420Y-12303984D02*
X13308467Y-12313508D01*
X13308467Y-12313508D02*
X13317991Y-12323031D01*
X13317991Y-12323031D02*
X13327515Y-12342079D01*
X13327515Y-12342079D02*
X13337039Y-12380174D01*
X13337039Y-12380174D02*
X13337039Y-12427793D01*
X13337039Y-12427793D02*
X13327515Y-12465888D01*
X13327515Y-12465888D02*
X13317991Y-12484936D01*
X13317991Y-12484936D02*
X13308467Y-12494460D01*
X13308467Y-12494460D02*
X13289420Y-12503984D01*
X13289420Y-12503984D02*
X13270372Y-12503984D01*
X13270372Y-12503984D02*
X13251324Y-12494460D01*
X13251324Y-12494460D02*
X13241801Y-12484936D01*
X13241801Y-12484936D02*
X13232277Y-12465888D01*
X13232277Y-12465888D02*
X13222753Y-12427793D01*
X13222753Y-12427793D02*
X13222753Y-12380174D01*
X13222753Y-12380174D02*
X13232277Y-12342079D01*
X13232277Y-12342079D02*
X13241801Y-12323031D01*
X13241801Y-12323031D02*
X13251324Y-12313508D01*
X13251324Y-12313508D02*
X13270372Y-12303984D01*
X13422753Y-12484936D02*
X13432277Y-12494460D01*
X13432277Y-12494460D02*
X13422753Y-12503984D01*
X13422753Y-12503984D02*
X13413229Y-12494460D01*
X13413229Y-12494460D02*
X13422753Y-12484936D01*
X13422753Y-12484936D02*
X13422753Y-12503984D01*
X13498943Y-12303984D02*
X13622753Y-12303984D01*
X13622753Y-12303984D02*
X13556086Y-12380174D01*
X13556086Y-12380174D02*
X13584658Y-12380174D01*
X13584658Y-12380174D02*
X13603705Y-12389698D01*
X13603705Y-12389698D02*
X13613229Y-12399222D01*
X13613229Y-12399222D02*
X13622753Y-12418269D01*
X13622753Y-12418269D02*
X13622753Y-12465888D01*
X13622753Y-12465888D02*
X13613229Y-12484936D01*
X13613229Y-12484936D02*
X13603705Y-12494460D01*
X13603705Y-12494460D02*
X13584658Y-12503984D01*
X13584658Y-12503984D02*
X13527515Y-12503984D01*
X13527515Y-12503984D02*
X13508467Y-12494460D01*
X13508467Y-12494460D02*
X13498943Y-12484936D01*
X13746562Y-12303984D02*
X13765610Y-12303984D01*
X13765610Y-12303984D02*
X13784658Y-12313508D01*
X13784658Y-12313508D02*
X13794182Y-12323031D01*
X13794182Y-12323031D02*
X13803705Y-12342079D01*
X13803705Y-12342079D02*
X13813229Y-12380174D01*
X13813229Y-12380174D02*
X13813229Y-12427793D01*
X13813229Y-12427793D02*
X13803705Y-12465888D01*
X13803705Y-12465888D02*
X13794182Y-12484936D01*
X13794182Y-12484936D02*
X13784658Y-12494460D01*
X13784658Y-12494460D02*
X13765610Y-12503984D01*
X13765610Y-12503984D02*
X13746562Y-12503984D01*
X13746562Y-12503984D02*
X13727515Y-12494460D01*
X13727515Y-12494460D02*
X13717991Y-12484936D01*
X13717991Y-12484936D02*
X13708467Y-12465888D01*
X13708467Y-12465888D02*
X13698943Y-12427793D01*
X13698943Y-12427793D02*
X13698943Y-12380174D01*
X13698943Y-12380174D02*
X13708467Y-12342079D01*
X13708467Y-12342079D02*
X13717991Y-12323031D01*
X13717991Y-12323031D02*
X13727515Y-12313508D01*
X13727515Y-12313508D02*
X13746562Y-12303984D01*
X13937039Y-12303984D02*
X13956086Y-12303984D01*
X13956086Y-12303984D02*
X13975134Y-12313508D01*
X13975134Y-12313508D02*
X13984658Y-12323031D01*
X13984658Y-12323031D02*
X13994182Y-12342079D01*
X13994182Y-12342079D02*
X14003705Y-12380174D01*
X14003705Y-12380174D02*
X14003705Y-12427793D01*
X14003705Y-12427793D02*
X13994182Y-12465888D01*
X13994182Y-12465888D02*
X13984658Y-12484936D01*
X13984658Y-12484936D02*
X13975134Y-12494460D01*
X13975134Y-12494460D02*
X13956086Y-12503984D01*
X13956086Y-12503984D02*
X13937039Y-12503984D01*
X13937039Y-12503984D02*
X13917991Y-12494460D01*
X13917991Y-12494460D02*
X13908467Y-12484936D01*
X13908467Y-12484936D02*
X13898943Y-12465888D01*
X13898943Y-12465888D02*
X13889420Y-12427793D01*
X13889420Y-12427793D02*
X13889420Y-12380174D01*
X13889420Y-12380174D02*
X13898943Y-12342079D01*
X13898943Y-12342079D02*
X13908467Y-12323031D01*
X13908467Y-12323031D02*
X13917991Y-12313508D01*
X13917991Y-12313508D02*
X13937039Y-12303984D01*
X14089420Y-12503984D02*
X14089420Y-12370650D01*
X14089420Y-12389698D02*
X14098943Y-12380174D01*
X14098943Y-12380174D02*
X14117991Y-12370650D01*
X14117991Y-12370650D02*
X14146563Y-12370650D01*
X14146563Y-12370650D02*
X14165610Y-12380174D01*
X14165610Y-12380174D02*
X14175134Y-12399222D01*
X14175134Y-12399222D02*
X14175134Y-12503984D01*
X14175134Y-12399222D02*
X14184658Y-12380174D01*
X14184658Y-12380174D02*
X14203705Y-12370650D01*
X14203705Y-12370650D02*
X14232277Y-12370650D01*
X14232277Y-12370650D02*
X14251324Y-12380174D01*
X14251324Y-12380174D02*
X14260848Y-12399222D01*
X14260848Y-12399222D02*
X14260848Y-12503984D01*
X14356086Y-12503984D02*
X14356086Y-12370650D01*
X14356086Y-12389698D02*
X14365610Y-12380174D01*
X14365610Y-12380174D02*
X14384658Y-12370650D01*
X14384658Y-12370650D02*
X14413229Y-12370650D01*
X14413229Y-12370650D02*
X14432277Y-12380174D01*
X14432277Y-12380174D02*
X14441801Y-12399222D01*
X14441801Y-12399222D02*
X14441801Y-12503984D01*
X14441801Y-12399222D02*
X14451324Y-12380174D01*
X14451324Y-12380174D02*
X14470372Y-12370650D01*
X14470372Y-12370650D02*
X14498943Y-12370650D01*
X14498943Y-12370650D02*
X14517991Y-12380174D01*
X14517991Y-12380174D02*
X14527515Y-12399222D01*
X14527515Y-12399222D02*
X14527515Y-12503984D01*
X14917991Y-12294460D02*
X14746563Y-12551603D01*
X15175134Y-12303984D02*
X15194182Y-12303984D01*
X15194182Y-12303984D02*
X15213229Y-12313508D01*
X15213229Y-12313508D02*
X15222753Y-12323031D01*
X15222753Y-12323031D02*
X15232277Y-12342079D01*
X15232277Y-12342079D02*
X15241801Y-12380174D01*
X15241801Y-12380174D02*
X15241801Y-12427793D01*
X15241801Y-12427793D02*
X15232277Y-12465888D01*
X15232277Y-12465888D02*
X15222753Y-12484936D01*
X15222753Y-12484936D02*
X15213229Y-12494460D01*
X15213229Y-12494460D02*
X15194182Y-12503984D01*
X15194182Y-12503984D02*
X15175134Y-12503984D01*
X15175134Y-12503984D02*
X15156086Y-12494460D01*
X15156086Y-12494460D02*
X15146563Y-12484936D01*
X15146563Y-12484936D02*
X15137039Y-12465888D01*
X15137039Y-12465888D02*
X15127515Y-12427793D01*
X15127515Y-12427793D02*
X15127515Y-12380174D01*
X15127515Y-12380174D02*
X15137039Y-12342079D01*
X15137039Y-12342079D02*
X15146563Y-12323031D01*
X15146563Y-12323031D02*
X15156086Y-12313508D01*
X15156086Y-12313508D02*
X15175134Y-12303984D01*
X15327515Y-12484936D02*
X15337039Y-12494460D01*
X15337039Y-12494460D02*
X15327515Y-12503984D01*
X15327515Y-12503984D02*
X15317991Y-12494460D01*
X15317991Y-12494460D02*
X15327515Y-12484936D01*
X15327515Y-12484936D02*
X15327515Y-12503984D01*
X15460848Y-12303984D02*
X15479896Y-12303984D01*
X15479896Y-12303984D02*
X15498944Y-12313508D01*
X15498944Y-12313508D02*
X15508467Y-12323031D01*
X15508467Y-12323031D02*
X15517991Y-12342079D01*
X15517991Y-12342079D02*
X15527515Y-12380174D01*
X15527515Y-12380174D02*
X15527515Y-12427793D01*
X15527515Y-12427793D02*
X15517991Y-12465888D01*
X15517991Y-12465888D02*
X15508467Y-12484936D01*
X15508467Y-12484936D02*
X15498944Y-12494460D01*
X15498944Y-12494460D02*
X15479896Y-12503984D01*
X15479896Y-12503984D02*
X15460848Y-12503984D01*
X15460848Y-12503984D02*
X15441801Y-12494460D01*
X15441801Y-12494460D02*
X15432277Y-12484936D01*
X15432277Y-12484936D02*
X15422753Y-12465888D01*
X15422753Y-12465888D02*
X15413229Y-12427793D01*
X15413229Y-12427793D02*
X15413229Y-12380174D01*
X15413229Y-12380174D02*
X15422753Y-12342079D01*
X15422753Y-12342079D02*
X15432277Y-12323031D01*
X15432277Y-12323031D02*
X15441801Y-12313508D01*
X15441801Y-12313508D02*
X15460848Y-12303984D01*
X15717991Y-12503984D02*
X15603706Y-12503984D01*
X15660848Y-12503984D02*
X15660848Y-12303984D01*
X15660848Y-12303984D02*
X15641801Y-12332555D01*
X15641801Y-12332555D02*
X15622753Y-12351603D01*
X15622753Y-12351603D02*
X15603706Y-12361127D01*
X15908467Y-12503984D02*
X15794182Y-12503984D01*
X15851325Y-12503984D02*
X15851325Y-12303984D01*
X15851325Y-12303984D02*
X15832277Y-12332555D01*
X15832277Y-12332555D02*
X15813229Y-12351603D01*
X15813229Y-12351603D02*
X15794182Y-12361127D01*
X16022753Y-12389698D02*
X16003706Y-12380174D01*
X16003706Y-12380174D02*
X15994182Y-12370650D01*
X15994182Y-12370650D02*
X15984658Y-12351603D01*
X15984658Y-12351603D02*
X15984658Y-12342079D01*
X15984658Y-12342079D02*
X15994182Y-12323031D01*
X15994182Y-12323031D02*
X16003706Y-12313508D01*
X16003706Y-12313508D02*
X16022753Y-12303984D01*
X16022753Y-12303984D02*
X16060848Y-12303984D01*
X16060848Y-12303984D02*
X16079896Y-12313508D01*
X16079896Y-12313508D02*
X16089420Y-12323031D01*
X16089420Y-12323031D02*
X16098944Y-12342079D01*
X16098944Y-12342079D02*
X16098944Y-12351603D01*
X16098944Y-12351603D02*
X16089420Y-12370650D01*
X16089420Y-12370650D02*
X16079896Y-12380174D01*
X16079896Y-12380174D02*
X16060848Y-12389698D01*
X16060848Y-12389698D02*
X16022753Y-12389698D01*
X16022753Y-12389698D02*
X16003706Y-12399222D01*
X16003706Y-12399222D02*
X15994182Y-12408746D01*
X15994182Y-12408746D02*
X15984658Y-12427793D01*
X15984658Y-12427793D02*
X15984658Y-12465888D01*
X15984658Y-12465888D02*
X15994182Y-12484936D01*
X15994182Y-12484936D02*
X16003706Y-12494460D01*
X16003706Y-12494460D02*
X16022753Y-12503984D01*
X16022753Y-12503984D02*
X16060848Y-12503984D01*
X16060848Y-12503984D02*
X16079896Y-12494460D01*
X16079896Y-12494460D02*
X16089420Y-12484936D01*
X16089420Y-12484936D02*
X16098944Y-12465888D01*
X16098944Y-12465888D02*
X16098944Y-12427793D01*
X16098944Y-12427793D02*
X16089420Y-12408746D01*
X16089420Y-12408746D02*
X16079896Y-12399222D01*
X16079896Y-12399222D02*
X16060848Y-12389698D01*
X16175134Y-12303984D02*
X16175134Y-12342079D01*
X16251325Y-12303984D02*
X16251325Y-12342079D01*
X16546563Y-12580174D02*
X16537039Y-12570650D01*
X16537039Y-12570650D02*
X16517991Y-12542079D01*
X16517991Y-12542079D02*
X16508468Y-12523031D01*
X16508468Y-12523031D02*
X16498944Y-12494460D01*
X16498944Y-12494460D02*
X16489420Y-12446841D01*
X16489420Y-12446841D02*
X16489420Y-12408746D01*
X16489420Y-12408746D02*
X16498944Y-12361127D01*
X16498944Y-12361127D02*
X16508468Y-12332555D01*
X16508468Y-12332555D02*
X16517991Y-12313508D01*
X16517991Y-12313508D02*
X16537039Y-12284936D01*
X16537039Y-12284936D02*
X16546563Y-12275412D01*
X16708468Y-12370650D02*
X16708468Y-12503984D01*
X16660848Y-12294460D02*
X16613229Y-12437317D01*
X16613229Y-12437317D02*
X16737039Y-12437317D01*
X16965611Y-12503984D02*
X16965611Y-12303984D01*
X17051325Y-12503984D02*
X17051325Y-12399222D01*
X17051325Y-12399222D02*
X17041801Y-12380174D01*
X17041801Y-12380174D02*
X17022753Y-12370650D01*
X17022753Y-12370650D02*
X16994182Y-12370650D01*
X16994182Y-12370650D02*
X16975134Y-12380174D01*
X16975134Y-12380174D02*
X16965611Y-12389698D01*
X17175134Y-12503984D02*
X17156087Y-12494460D01*
X17156087Y-12494460D02*
X17146563Y-12484936D01*
X17146563Y-12484936D02*
X17137039Y-12465888D01*
X17137039Y-12465888D02*
X17137039Y-12408746D01*
X17137039Y-12408746D02*
X17146563Y-12389698D01*
X17146563Y-12389698D02*
X17156087Y-12380174D01*
X17156087Y-12380174D02*
X17175134Y-12370650D01*
X17175134Y-12370650D02*
X17203706Y-12370650D01*
X17203706Y-12370650D02*
X17222753Y-12380174D01*
X17222753Y-12380174D02*
X17232277Y-12389698D01*
X17232277Y-12389698D02*
X17241801Y-12408746D01*
X17241801Y-12408746D02*
X17241801Y-12465888D01*
X17241801Y-12465888D02*
X17232277Y-12484936D01*
X17232277Y-12484936D02*
X17222753Y-12494460D01*
X17222753Y-12494460D02*
X17203706Y-12503984D01*
X17203706Y-12503984D02*
X17175134Y-12503984D01*
X17356087Y-12503984D02*
X17337039Y-12494460D01*
X17337039Y-12494460D02*
X17327515Y-12475412D01*
X17327515Y-12475412D02*
X17327515Y-12303984D01*
X17508468Y-12494460D02*
X17489420Y-12503984D01*
X17489420Y-12503984D02*
X17451325Y-12503984D01*
X17451325Y-12503984D02*
X17432277Y-12494460D01*
X17432277Y-12494460D02*
X17422753Y-12475412D01*
X17422753Y-12475412D02*
X17422753Y-12399222D01*
X17422753Y-12399222D02*
X17432277Y-12380174D01*
X17432277Y-12380174D02*
X17451325Y-12370650D01*
X17451325Y-12370650D02*
X17489420Y-12370650D01*
X17489420Y-12370650D02*
X17508468Y-12380174D01*
X17508468Y-12380174D02*
X17517992Y-12399222D01*
X17517992Y-12399222D02*
X17517992Y-12418269D01*
X17517992Y-12418269D02*
X17422753Y-12437317D01*
X17594182Y-12494460D02*
X17613230Y-12503984D01*
X17613230Y-12503984D02*
X17651325Y-12503984D01*
X17651325Y-12503984D02*
X17670373Y-12494460D01*
X17670373Y-12494460D02*
X17679896Y-12475412D01*
X17679896Y-12475412D02*
X17679896Y-12465888D01*
X17679896Y-12465888D02*
X17670373Y-12446841D01*
X17670373Y-12446841D02*
X17651325Y-12437317D01*
X17651325Y-12437317D02*
X17622753Y-12437317D01*
X17622753Y-12437317D02*
X17603706Y-12427793D01*
X17603706Y-12427793D02*
X17594182Y-12408746D01*
X17594182Y-12408746D02*
X17594182Y-12399222D01*
X17594182Y-12399222D02*
X17603706Y-12380174D01*
X17603706Y-12380174D02*
X17622753Y-12370650D01*
X17622753Y-12370650D02*
X17651325Y-12370650D01*
X17651325Y-12370650D02*
X17670373Y-12380174D01*
X17746563Y-12580174D02*
X17756087Y-12570650D01*
X17756087Y-12570650D02*
X17775134Y-12542079D01*
X17775134Y-12542079D02*
X17784658Y-12523031D01*
X17784658Y-12523031D02*
X17794182Y-12494460D01*
X17794182Y-12494460D02*
X17803706Y-12446841D01*
X17803706Y-12446841D02*
X17803706Y-12408746D01*
X17803706Y-12408746D02*
X17794182Y-12361127D01*
X17794182Y-12361127D02*
X17784658Y-12332555D01*
X17784658Y-12332555D02*
X17775134Y-12313508D01*
X17775134Y-12313508D02*
X17756087Y-12284936D01*
X17756087Y-12284936D02*
X17746563Y-12275412D01*
D12*
X12971500Y-12676500D02*
G75*
G02*
X12901500Y-12676500I-35000J0D01*
G01*
X12901500Y-12676500D02*
G75*
G02*
X12971500Y-12676500I35000J0D01*
G01*
D11*
X13270372Y-12567984D02*
X13289420Y-12567984D01*
X13289420Y-12567984D02*
X13308467Y-12577508D01*
X13308467Y-12577508D02*
X13317991Y-12587031D01*
X13317991Y-12587031D02*
X13327515Y-12606079D01*
X13327515Y-12606079D02*
X13337039Y-12644174D01*
X13337039Y-12644174D02*
X13337039Y-12691793D01*
X13337039Y-12691793D02*
X13327515Y-12729888D01*
X13327515Y-12729888D02*
X13317991Y-12748936D01*
X13317991Y-12748936D02*
X13308467Y-12758460D01*
X13308467Y-12758460D02*
X13289420Y-12767984D01*
X13289420Y-12767984D02*
X13270372Y-12767984D01*
X13270372Y-12767984D02*
X13251324Y-12758460D01*
X13251324Y-12758460D02*
X13241801Y-12748936D01*
X13241801Y-12748936D02*
X13232277Y-12729888D01*
X13232277Y-12729888D02*
X13222753Y-12691793D01*
X13222753Y-12691793D02*
X13222753Y-12644174D01*
X13222753Y-12644174D02*
X13232277Y-12606079D01*
X13232277Y-12606079D02*
X13241801Y-12587031D01*
X13241801Y-12587031D02*
X13251324Y-12577508D01*
X13251324Y-12577508D02*
X13270372Y-12567984D01*
X13422753Y-12748936D02*
X13432277Y-12758460D01*
X13432277Y-12758460D02*
X13422753Y-12767984D01*
X13422753Y-12767984D02*
X13413229Y-12758460D01*
X13413229Y-12758460D02*
X13422753Y-12748936D01*
X13422753Y-12748936D02*
X13422753Y-12767984D01*
X13498943Y-12567984D02*
X13632277Y-12567984D01*
X13632277Y-12567984D02*
X13546562Y-12767984D01*
X13746562Y-12567984D02*
X13765610Y-12567984D01*
X13765610Y-12567984D02*
X13784658Y-12577508D01*
X13784658Y-12577508D02*
X13794182Y-12587031D01*
X13794182Y-12587031D02*
X13803705Y-12606079D01*
X13803705Y-12606079D02*
X13813229Y-12644174D01*
X13813229Y-12644174D02*
X13813229Y-12691793D01*
X13813229Y-12691793D02*
X13803705Y-12729888D01*
X13803705Y-12729888D02*
X13794182Y-12748936D01*
X13794182Y-12748936D02*
X13784658Y-12758460D01*
X13784658Y-12758460D02*
X13765610Y-12767984D01*
X13765610Y-12767984D02*
X13746562Y-12767984D01*
X13746562Y-12767984D02*
X13727515Y-12758460D01*
X13727515Y-12758460D02*
X13717991Y-12748936D01*
X13717991Y-12748936D02*
X13708467Y-12729888D01*
X13708467Y-12729888D02*
X13698943Y-12691793D01*
X13698943Y-12691793D02*
X13698943Y-12644174D01*
X13698943Y-12644174D02*
X13708467Y-12606079D01*
X13708467Y-12606079D02*
X13717991Y-12587031D01*
X13717991Y-12587031D02*
X13727515Y-12577508D01*
X13727515Y-12577508D02*
X13746562Y-12567984D01*
X13937039Y-12567984D02*
X13956086Y-12567984D01*
X13956086Y-12567984D02*
X13975134Y-12577508D01*
X13975134Y-12577508D02*
X13984658Y-12587031D01*
X13984658Y-12587031D02*
X13994182Y-12606079D01*
X13994182Y-12606079D02*
X14003705Y-12644174D01*
X14003705Y-12644174D02*
X14003705Y-12691793D01*
X14003705Y-12691793D02*
X13994182Y-12729888D01*
X13994182Y-12729888D02*
X13984658Y-12748936D01*
X13984658Y-12748936D02*
X13975134Y-12758460D01*
X13975134Y-12758460D02*
X13956086Y-12767984D01*
X13956086Y-12767984D02*
X13937039Y-12767984D01*
X13937039Y-12767984D02*
X13917991Y-12758460D01*
X13917991Y-12758460D02*
X13908467Y-12748936D01*
X13908467Y-12748936D02*
X13898943Y-12729888D01*
X13898943Y-12729888D02*
X13889420Y-12691793D01*
X13889420Y-12691793D02*
X13889420Y-12644174D01*
X13889420Y-12644174D02*
X13898943Y-12606079D01*
X13898943Y-12606079D02*
X13908467Y-12587031D01*
X13908467Y-12587031D02*
X13917991Y-12577508D01*
X13917991Y-12577508D02*
X13937039Y-12567984D01*
X14089420Y-12767984D02*
X14089420Y-12634650D01*
X14089420Y-12653698D02*
X14098943Y-12644174D01*
X14098943Y-12644174D02*
X14117991Y-12634650D01*
X14117991Y-12634650D02*
X14146563Y-12634650D01*
X14146563Y-12634650D02*
X14165610Y-12644174D01*
X14165610Y-12644174D02*
X14175134Y-12663222D01*
X14175134Y-12663222D02*
X14175134Y-12767984D01*
X14175134Y-12663222D02*
X14184658Y-12644174D01*
X14184658Y-12644174D02*
X14203705Y-12634650D01*
X14203705Y-12634650D02*
X14232277Y-12634650D01*
X14232277Y-12634650D02*
X14251324Y-12644174D01*
X14251324Y-12644174D02*
X14260848Y-12663222D01*
X14260848Y-12663222D02*
X14260848Y-12767984D01*
X14356086Y-12767984D02*
X14356086Y-12634650D01*
X14356086Y-12653698D02*
X14365610Y-12644174D01*
X14365610Y-12644174D02*
X14384658Y-12634650D01*
X14384658Y-12634650D02*
X14413229Y-12634650D01*
X14413229Y-12634650D02*
X14432277Y-12644174D01*
X14432277Y-12644174D02*
X14441801Y-12663222D01*
X14441801Y-12663222D02*
X14441801Y-12767984D01*
X14441801Y-12663222D02*
X14451324Y-12644174D01*
X14451324Y-12644174D02*
X14470372Y-12634650D01*
X14470372Y-12634650D02*
X14498943Y-12634650D01*
X14498943Y-12634650D02*
X14517991Y-12644174D01*
X14517991Y-12644174D02*
X14527515Y-12663222D01*
X14527515Y-12663222D02*
X14527515Y-12767984D01*
X14917991Y-12558460D02*
X14746563Y-12815603D01*
X15175134Y-12567984D02*
X15194182Y-12567984D01*
X15194182Y-12567984D02*
X15213229Y-12577508D01*
X15213229Y-12577508D02*
X15222753Y-12587031D01*
X15222753Y-12587031D02*
X15232277Y-12606079D01*
X15232277Y-12606079D02*
X15241801Y-12644174D01*
X15241801Y-12644174D02*
X15241801Y-12691793D01*
X15241801Y-12691793D02*
X15232277Y-12729888D01*
X15232277Y-12729888D02*
X15222753Y-12748936D01*
X15222753Y-12748936D02*
X15213229Y-12758460D01*
X15213229Y-12758460D02*
X15194182Y-12767984D01*
X15194182Y-12767984D02*
X15175134Y-12767984D01*
X15175134Y-12767984D02*
X15156086Y-12758460D01*
X15156086Y-12758460D02*
X15146563Y-12748936D01*
X15146563Y-12748936D02*
X15137039Y-12729888D01*
X15137039Y-12729888D02*
X15127515Y-12691793D01*
X15127515Y-12691793D02*
X15127515Y-12644174D01*
X15127515Y-12644174D02*
X15137039Y-12606079D01*
X15137039Y-12606079D02*
X15146563Y-12587031D01*
X15146563Y-12587031D02*
X15156086Y-12577508D01*
X15156086Y-12577508D02*
X15175134Y-12567984D01*
X15327515Y-12748936D02*
X15337039Y-12758460D01*
X15337039Y-12758460D02*
X15327515Y-12767984D01*
X15327515Y-12767984D02*
X15317991Y-12758460D01*
X15317991Y-12758460D02*
X15327515Y-12748936D01*
X15327515Y-12748936D02*
X15327515Y-12767984D01*
X15460848Y-12567984D02*
X15479896Y-12567984D01*
X15479896Y-12567984D02*
X15498944Y-12577508D01*
X15498944Y-12577508D02*
X15508467Y-12587031D01*
X15508467Y-12587031D02*
X15517991Y-12606079D01*
X15517991Y-12606079D02*
X15527515Y-12644174D01*
X15527515Y-12644174D02*
X15527515Y-12691793D01*
X15527515Y-12691793D02*
X15517991Y-12729888D01*
X15517991Y-12729888D02*
X15508467Y-12748936D01*
X15508467Y-12748936D02*
X15498944Y-12758460D01*
X15498944Y-12758460D02*
X15479896Y-12767984D01*
X15479896Y-12767984D02*
X15460848Y-12767984D01*
X15460848Y-12767984D02*
X15441801Y-12758460D01*
X15441801Y-12758460D02*
X15432277Y-12748936D01*
X15432277Y-12748936D02*
X15422753Y-12729888D01*
X15422753Y-12729888D02*
X15413229Y-12691793D01*
X15413229Y-12691793D02*
X15413229Y-12644174D01*
X15413229Y-12644174D02*
X15422753Y-12606079D01*
X15422753Y-12606079D02*
X15432277Y-12587031D01*
X15432277Y-12587031D02*
X15441801Y-12577508D01*
X15441801Y-12577508D02*
X15460848Y-12567984D01*
X15603706Y-12587031D02*
X15613229Y-12577508D01*
X15613229Y-12577508D02*
X15632277Y-12567984D01*
X15632277Y-12567984D02*
X15679896Y-12567984D01*
X15679896Y-12567984D02*
X15698944Y-12577508D01*
X15698944Y-12577508D02*
X15708467Y-12587031D01*
X15708467Y-12587031D02*
X15717991Y-12606079D01*
X15717991Y-12606079D02*
X15717991Y-12625127D01*
X15717991Y-12625127D02*
X15708467Y-12653698D01*
X15708467Y-12653698D02*
X15594182Y-12767984D01*
X15594182Y-12767984D02*
X15717991Y-12767984D01*
X15784658Y-12567984D02*
X15917991Y-12567984D01*
X15917991Y-12567984D02*
X15832277Y-12767984D01*
X16079896Y-12567984D02*
X16041801Y-12567984D01*
X16041801Y-12567984D02*
X16022753Y-12577508D01*
X16022753Y-12577508D02*
X16013229Y-12587031D01*
X16013229Y-12587031D02*
X15994182Y-12615603D01*
X15994182Y-12615603D02*
X15984658Y-12653698D01*
X15984658Y-12653698D02*
X15984658Y-12729888D01*
X15984658Y-12729888D02*
X15994182Y-12748936D01*
X15994182Y-12748936D02*
X16003706Y-12758460D01*
X16003706Y-12758460D02*
X16022753Y-12767984D01*
X16022753Y-12767984D02*
X16060848Y-12767984D01*
X16060848Y-12767984D02*
X16079896Y-12758460D01*
X16079896Y-12758460D02*
X16089420Y-12748936D01*
X16089420Y-12748936D02*
X16098944Y-12729888D01*
X16098944Y-12729888D02*
X16098944Y-12682269D01*
X16098944Y-12682269D02*
X16089420Y-12663222D01*
X16089420Y-12663222D02*
X16079896Y-12653698D01*
X16079896Y-12653698D02*
X16060848Y-12644174D01*
X16060848Y-12644174D02*
X16022753Y-12644174D01*
X16022753Y-12644174D02*
X16003706Y-12653698D01*
X16003706Y-12653698D02*
X15994182Y-12663222D01*
X15994182Y-12663222D02*
X15984658Y-12682269D01*
X16175134Y-12567984D02*
X16175134Y-12606079D01*
X16251325Y-12567984D02*
X16251325Y-12606079D01*
X16546563Y-12844174D02*
X16537039Y-12834650D01*
X16537039Y-12834650D02*
X16517991Y-12806079D01*
X16517991Y-12806079D02*
X16508468Y-12787031D01*
X16508468Y-12787031D02*
X16498944Y-12758460D01*
X16498944Y-12758460D02*
X16489420Y-12710841D01*
X16489420Y-12710841D02*
X16489420Y-12672746D01*
X16489420Y-12672746D02*
X16498944Y-12625127D01*
X16498944Y-12625127D02*
X16508468Y-12596555D01*
X16508468Y-12596555D02*
X16517991Y-12577508D01*
X16517991Y-12577508D02*
X16537039Y-12548936D01*
X16537039Y-12548936D02*
X16546563Y-12539412D01*
X16708468Y-12567984D02*
X16670372Y-12567984D01*
X16670372Y-12567984D02*
X16651325Y-12577508D01*
X16651325Y-12577508D02*
X16641801Y-12587031D01*
X16641801Y-12587031D02*
X16622753Y-12615603D01*
X16622753Y-12615603D02*
X16613229Y-12653698D01*
X16613229Y-12653698D02*
X16613229Y-12729888D01*
X16613229Y-12729888D02*
X16622753Y-12748936D01*
X16622753Y-12748936D02*
X16632277Y-12758460D01*
X16632277Y-12758460D02*
X16651325Y-12767984D01*
X16651325Y-12767984D02*
X16689420Y-12767984D01*
X16689420Y-12767984D02*
X16708468Y-12758460D01*
X16708468Y-12758460D02*
X16717991Y-12748936D01*
X16717991Y-12748936D02*
X16727515Y-12729888D01*
X16727515Y-12729888D02*
X16727515Y-12682269D01*
X16727515Y-12682269D02*
X16717991Y-12663222D01*
X16717991Y-12663222D02*
X16708468Y-12653698D01*
X16708468Y-12653698D02*
X16689420Y-12644174D01*
X16689420Y-12644174D02*
X16651325Y-12644174D01*
X16651325Y-12644174D02*
X16632277Y-12653698D01*
X16632277Y-12653698D02*
X16622753Y-12663222D01*
X16622753Y-12663222D02*
X16613229Y-12682269D01*
X16965611Y-12767984D02*
X16965611Y-12567984D01*
X17051325Y-12767984D02*
X17051325Y-12663222D01*
X17051325Y-12663222D02*
X17041801Y-12644174D01*
X17041801Y-12644174D02*
X17022753Y-12634650D01*
X17022753Y-12634650D02*
X16994182Y-12634650D01*
X16994182Y-12634650D02*
X16975134Y-12644174D01*
X16975134Y-12644174D02*
X16965611Y-12653698D01*
X17175134Y-12767984D02*
X17156087Y-12758460D01*
X17156087Y-12758460D02*
X17146563Y-12748936D01*
X17146563Y-12748936D02*
X17137039Y-12729888D01*
X17137039Y-12729888D02*
X17137039Y-12672746D01*
X17137039Y-12672746D02*
X17146563Y-12653698D01*
X17146563Y-12653698D02*
X17156087Y-12644174D01*
X17156087Y-12644174D02*
X17175134Y-12634650D01*
X17175134Y-12634650D02*
X17203706Y-12634650D01*
X17203706Y-12634650D02*
X17222753Y-12644174D01*
X17222753Y-12644174D02*
X17232277Y-12653698D01*
X17232277Y-12653698D02*
X17241801Y-12672746D01*
X17241801Y-12672746D02*
X17241801Y-12729888D01*
X17241801Y-12729888D02*
X17232277Y-12748936D01*
X17232277Y-12748936D02*
X17222753Y-12758460D01*
X17222753Y-12758460D02*
X17203706Y-12767984D01*
X17203706Y-12767984D02*
X17175134Y-12767984D01*
X17356087Y-12767984D02*
X17337039Y-12758460D01*
X17337039Y-12758460D02*
X17327515Y-12739412D01*
X17327515Y-12739412D02*
X17327515Y-12567984D01*
X17508468Y-12758460D02*
X17489420Y-12767984D01*
X17489420Y-12767984D02*
X17451325Y-12767984D01*
X17451325Y-12767984D02*
X17432277Y-12758460D01*
X17432277Y-12758460D02*
X17422753Y-12739412D01*
X17422753Y-12739412D02*
X17422753Y-12663222D01*
X17422753Y-12663222D02*
X17432277Y-12644174D01*
X17432277Y-12644174D02*
X17451325Y-12634650D01*
X17451325Y-12634650D02*
X17489420Y-12634650D01*
X17489420Y-12634650D02*
X17508468Y-12644174D01*
X17508468Y-12644174D02*
X17517992Y-12663222D01*
X17517992Y-12663222D02*
X17517992Y-12682269D01*
X17517992Y-12682269D02*
X17422753Y-12701317D01*
X17594182Y-12758460D02*
X17613230Y-12767984D01*
X17613230Y-12767984D02*
X17651325Y-12767984D01*
X17651325Y-12767984D02*
X17670373Y-12758460D01*
X17670373Y-12758460D02*
X17679896Y-12739412D01*
X17679896Y-12739412D02*
X17679896Y-12729888D01*
X17679896Y-12729888D02*
X17670373Y-12710841D01*
X17670373Y-12710841D02*
X17651325Y-12701317D01*
X17651325Y-12701317D02*
X17622753Y-12701317D01*
X17622753Y-12701317D02*
X17603706Y-12691793D01*
X17603706Y-12691793D02*
X17594182Y-12672746D01*
X17594182Y-12672746D02*
X17594182Y-12663222D01*
X17594182Y-12663222D02*
X17603706Y-12644174D01*
X17603706Y-12644174D02*
X17622753Y-12634650D01*
X17622753Y-12634650D02*
X17651325Y-12634650D01*
X17651325Y-12634650D02*
X17670373Y-12644174D01*
X17746563Y-12844174D02*
X17756087Y-12834650D01*
X17756087Y-12834650D02*
X17775134Y-12806079D01*
X17775134Y-12806079D02*
X17784658Y-12787031D01*
X17784658Y-12787031D02*
X17794182Y-12758460D01*
X17794182Y-12758460D02*
X17803706Y-12710841D01*
X17803706Y-12710841D02*
X17803706Y-12672746D01*
X17803706Y-12672746D02*
X17794182Y-12625127D01*
X17794182Y-12625127D02*
X17784658Y-12596555D01*
X17784658Y-12596555D02*
X17775134Y-12577508D01*
X17775134Y-12577508D02*
X17756087Y-12548936D01*
X17756087Y-12548936D02*
X17746563Y-12539412D01*
D12*
X12931500Y-12900500D02*
X12931500Y-12980500D01*
X12891500Y-12940500D02*
X12971500Y-12940500D01*
D11*
X13270372Y-12831984D02*
X13289420Y-12831984D01*
X13289420Y-12831984D02*
X13308467Y-12841508D01*
X13308467Y-12841508D02*
X13317991Y-12851031D01*
X13317991Y-12851031D02*
X13327515Y-12870079D01*
X13327515Y-12870079D02*
X13337039Y-12908174D01*
X13337039Y-12908174D02*
X13337039Y-12955793D01*
X13337039Y-12955793D02*
X13327515Y-12993888D01*
X13327515Y-12993888D02*
X13317991Y-13012936D01*
X13317991Y-13012936D02*
X13308467Y-13022460D01*
X13308467Y-13022460D02*
X13289420Y-13031984D01*
X13289420Y-13031984D02*
X13270372Y-13031984D01*
X13270372Y-13031984D02*
X13251324Y-13022460D01*
X13251324Y-13022460D02*
X13241801Y-13012936D01*
X13241801Y-13012936D02*
X13232277Y-12993888D01*
X13232277Y-12993888D02*
X13222753Y-12955793D01*
X13222753Y-12955793D02*
X13222753Y-12908174D01*
X13222753Y-12908174D02*
X13232277Y-12870079D01*
X13232277Y-12870079D02*
X13241801Y-12851031D01*
X13241801Y-12851031D02*
X13251324Y-12841508D01*
X13251324Y-12841508D02*
X13270372Y-12831984D01*
X13422753Y-13012936D02*
X13432277Y-13022460D01*
X13432277Y-13022460D02*
X13422753Y-13031984D01*
X13422753Y-13031984D02*
X13413229Y-13022460D01*
X13413229Y-13022460D02*
X13422753Y-13012936D01*
X13422753Y-13012936D02*
X13422753Y-13031984D01*
X13546562Y-12917698D02*
X13527515Y-12908174D01*
X13527515Y-12908174D02*
X13517991Y-12898650D01*
X13517991Y-12898650D02*
X13508467Y-12879603D01*
X13508467Y-12879603D02*
X13508467Y-12870079D01*
X13508467Y-12870079D02*
X13517991Y-12851031D01*
X13517991Y-12851031D02*
X13527515Y-12841508D01*
X13527515Y-12841508D02*
X13546562Y-12831984D01*
X13546562Y-12831984D02*
X13584658Y-12831984D01*
X13584658Y-12831984D02*
X13603705Y-12841508D01*
X13603705Y-12841508D02*
X13613229Y-12851031D01*
X13613229Y-12851031D02*
X13622753Y-12870079D01*
X13622753Y-12870079D02*
X13622753Y-12879603D01*
X13622753Y-12879603D02*
X13613229Y-12898650D01*
X13613229Y-12898650D02*
X13603705Y-12908174D01*
X13603705Y-12908174D02*
X13584658Y-12917698D01*
X13584658Y-12917698D02*
X13546562Y-12917698D01*
X13546562Y-12917698D02*
X13527515Y-12927222D01*
X13527515Y-12927222D02*
X13517991Y-12936746D01*
X13517991Y-12936746D02*
X13508467Y-12955793D01*
X13508467Y-12955793D02*
X13508467Y-12993888D01*
X13508467Y-12993888D02*
X13517991Y-13012936D01*
X13517991Y-13012936D02*
X13527515Y-13022460D01*
X13527515Y-13022460D02*
X13546562Y-13031984D01*
X13546562Y-13031984D02*
X13584658Y-13031984D01*
X13584658Y-13031984D02*
X13603705Y-13022460D01*
X13603705Y-13022460D02*
X13613229Y-13012936D01*
X13613229Y-13012936D02*
X13622753Y-12993888D01*
X13622753Y-12993888D02*
X13622753Y-12955793D01*
X13622753Y-12955793D02*
X13613229Y-12936746D01*
X13613229Y-12936746D02*
X13603705Y-12927222D01*
X13603705Y-12927222D02*
X13584658Y-12917698D01*
X13746562Y-12831984D02*
X13765610Y-12831984D01*
X13765610Y-12831984D02*
X13784658Y-12841508D01*
X13784658Y-12841508D02*
X13794182Y-12851031D01*
X13794182Y-12851031D02*
X13803705Y-12870079D01*
X13803705Y-12870079D02*
X13813229Y-12908174D01*
X13813229Y-12908174D02*
X13813229Y-12955793D01*
X13813229Y-12955793D02*
X13803705Y-12993888D01*
X13803705Y-12993888D02*
X13794182Y-13012936D01*
X13794182Y-13012936D02*
X13784658Y-13022460D01*
X13784658Y-13022460D02*
X13765610Y-13031984D01*
X13765610Y-13031984D02*
X13746562Y-13031984D01*
X13746562Y-13031984D02*
X13727515Y-13022460D01*
X13727515Y-13022460D02*
X13717991Y-13012936D01*
X13717991Y-13012936D02*
X13708467Y-12993888D01*
X13708467Y-12993888D02*
X13698943Y-12955793D01*
X13698943Y-12955793D02*
X13698943Y-12908174D01*
X13698943Y-12908174D02*
X13708467Y-12870079D01*
X13708467Y-12870079D02*
X13717991Y-12851031D01*
X13717991Y-12851031D02*
X13727515Y-12841508D01*
X13727515Y-12841508D02*
X13746562Y-12831984D01*
X13937039Y-12831984D02*
X13956086Y-12831984D01*
X13956086Y-12831984D02*
X13975134Y-12841508D01*
X13975134Y-12841508D02*
X13984658Y-12851031D01*
X13984658Y-12851031D02*
X13994182Y-12870079D01*
X13994182Y-12870079D02*
X14003705Y-12908174D01*
X14003705Y-12908174D02*
X14003705Y-12955793D01*
X14003705Y-12955793D02*
X13994182Y-12993888D01*
X13994182Y-12993888D02*
X13984658Y-13012936D01*
X13984658Y-13012936D02*
X13975134Y-13022460D01*
X13975134Y-13022460D02*
X13956086Y-13031984D01*
X13956086Y-13031984D02*
X13937039Y-13031984D01*
X13937039Y-13031984D02*
X13917991Y-13022460D01*
X13917991Y-13022460D02*
X13908467Y-13012936D01*
X13908467Y-13012936D02*
X13898943Y-12993888D01*
X13898943Y-12993888D02*
X13889420Y-12955793D01*
X13889420Y-12955793D02*
X13889420Y-12908174D01*
X13889420Y-12908174D02*
X13898943Y-12870079D01*
X13898943Y-12870079D02*
X13908467Y-12851031D01*
X13908467Y-12851031D02*
X13917991Y-12841508D01*
X13917991Y-12841508D02*
X13937039Y-12831984D01*
X14089420Y-13031984D02*
X14089420Y-12898650D01*
X14089420Y-12917698D02*
X14098943Y-12908174D01*
X14098943Y-12908174D02*
X14117991Y-12898650D01*
X14117991Y-12898650D02*
X14146563Y-12898650D01*
X14146563Y-12898650D02*
X14165610Y-12908174D01*
X14165610Y-12908174D02*
X14175134Y-12927222D01*
X14175134Y-12927222D02*
X14175134Y-13031984D01*
X14175134Y-12927222D02*
X14184658Y-12908174D01*
X14184658Y-12908174D02*
X14203705Y-12898650D01*
X14203705Y-12898650D02*
X14232277Y-12898650D01*
X14232277Y-12898650D02*
X14251324Y-12908174D01*
X14251324Y-12908174D02*
X14260848Y-12927222D01*
X14260848Y-12927222D02*
X14260848Y-13031984D01*
X14356086Y-13031984D02*
X14356086Y-12898650D01*
X14356086Y-12917698D02*
X14365610Y-12908174D01*
X14365610Y-12908174D02*
X14384658Y-12898650D01*
X14384658Y-12898650D02*
X14413229Y-12898650D01*
X14413229Y-12898650D02*
X14432277Y-12908174D01*
X14432277Y-12908174D02*
X14441801Y-12927222D01*
X14441801Y-12927222D02*
X14441801Y-13031984D01*
X14441801Y-12927222D02*
X14451324Y-12908174D01*
X14451324Y-12908174D02*
X14470372Y-12898650D01*
X14470372Y-12898650D02*
X14498943Y-12898650D01*
X14498943Y-12898650D02*
X14517991Y-12908174D01*
X14517991Y-12908174D02*
X14527515Y-12927222D01*
X14527515Y-12927222D02*
X14527515Y-13031984D01*
X14917991Y-12822460D02*
X14746563Y-13079603D01*
X15175134Y-12831984D02*
X15194182Y-12831984D01*
X15194182Y-12831984D02*
X15213229Y-12841508D01*
X15213229Y-12841508D02*
X15222753Y-12851031D01*
X15222753Y-12851031D02*
X15232277Y-12870079D01*
X15232277Y-12870079D02*
X15241801Y-12908174D01*
X15241801Y-12908174D02*
X15241801Y-12955793D01*
X15241801Y-12955793D02*
X15232277Y-12993888D01*
X15232277Y-12993888D02*
X15222753Y-13012936D01*
X15222753Y-13012936D02*
X15213229Y-13022460D01*
X15213229Y-13022460D02*
X15194182Y-13031984D01*
X15194182Y-13031984D02*
X15175134Y-13031984D01*
X15175134Y-13031984D02*
X15156086Y-13022460D01*
X15156086Y-13022460D02*
X15146563Y-13012936D01*
X15146563Y-13012936D02*
X15137039Y-12993888D01*
X15137039Y-12993888D02*
X15127515Y-12955793D01*
X15127515Y-12955793D02*
X15127515Y-12908174D01*
X15127515Y-12908174D02*
X15137039Y-12870079D01*
X15137039Y-12870079D02*
X15146563Y-12851031D01*
X15146563Y-12851031D02*
X15156086Y-12841508D01*
X15156086Y-12841508D02*
X15175134Y-12831984D01*
X15327515Y-13012936D02*
X15337039Y-13022460D01*
X15337039Y-13022460D02*
X15327515Y-13031984D01*
X15327515Y-13031984D02*
X15317991Y-13022460D01*
X15317991Y-13022460D02*
X15327515Y-13012936D01*
X15327515Y-13012936D02*
X15327515Y-13031984D01*
X15460848Y-12831984D02*
X15479896Y-12831984D01*
X15479896Y-12831984D02*
X15498944Y-12841508D01*
X15498944Y-12841508D02*
X15508467Y-12851031D01*
X15508467Y-12851031D02*
X15517991Y-12870079D01*
X15517991Y-12870079D02*
X15527515Y-12908174D01*
X15527515Y-12908174D02*
X15527515Y-12955793D01*
X15527515Y-12955793D02*
X15517991Y-12993888D01*
X15517991Y-12993888D02*
X15508467Y-13012936D01*
X15508467Y-13012936D02*
X15498944Y-13022460D01*
X15498944Y-13022460D02*
X15479896Y-13031984D01*
X15479896Y-13031984D02*
X15460848Y-13031984D01*
X15460848Y-13031984D02*
X15441801Y-13022460D01*
X15441801Y-13022460D02*
X15432277Y-13012936D01*
X15432277Y-13012936D02*
X15422753Y-12993888D01*
X15422753Y-12993888D02*
X15413229Y-12955793D01*
X15413229Y-12955793D02*
X15413229Y-12908174D01*
X15413229Y-12908174D02*
X15422753Y-12870079D01*
X15422753Y-12870079D02*
X15432277Y-12851031D01*
X15432277Y-12851031D02*
X15441801Y-12841508D01*
X15441801Y-12841508D02*
X15460848Y-12831984D01*
X15594182Y-12831984D02*
X15717991Y-12831984D01*
X15717991Y-12831984D02*
X15651325Y-12908174D01*
X15651325Y-12908174D02*
X15679896Y-12908174D01*
X15679896Y-12908174D02*
X15698944Y-12917698D01*
X15698944Y-12917698D02*
X15708467Y-12927222D01*
X15708467Y-12927222D02*
X15717991Y-12946269D01*
X15717991Y-12946269D02*
X15717991Y-12993888D01*
X15717991Y-12993888D02*
X15708467Y-13012936D01*
X15708467Y-13012936D02*
X15698944Y-13022460D01*
X15698944Y-13022460D02*
X15679896Y-13031984D01*
X15679896Y-13031984D02*
X15622753Y-13031984D01*
X15622753Y-13031984D02*
X15603706Y-13022460D01*
X15603706Y-13022460D02*
X15594182Y-13012936D01*
X15908467Y-13031984D02*
X15794182Y-13031984D01*
X15851325Y-13031984D02*
X15851325Y-12831984D01*
X15851325Y-12831984D02*
X15832277Y-12860555D01*
X15832277Y-12860555D02*
X15813229Y-12879603D01*
X15813229Y-12879603D02*
X15794182Y-12889127D01*
X16089420Y-12831984D02*
X15994182Y-12831984D01*
X15994182Y-12831984D02*
X15984658Y-12927222D01*
X15984658Y-12927222D02*
X15994182Y-12917698D01*
X15994182Y-12917698D02*
X16013229Y-12908174D01*
X16013229Y-12908174D02*
X16060848Y-12908174D01*
X16060848Y-12908174D02*
X16079896Y-12917698D01*
X16079896Y-12917698D02*
X16089420Y-12927222D01*
X16089420Y-12927222D02*
X16098944Y-12946269D01*
X16098944Y-12946269D02*
X16098944Y-12993888D01*
X16098944Y-12993888D02*
X16089420Y-13012936D01*
X16089420Y-13012936D02*
X16079896Y-13022460D01*
X16079896Y-13022460D02*
X16060848Y-13031984D01*
X16060848Y-13031984D02*
X16013229Y-13031984D01*
X16013229Y-13031984D02*
X15994182Y-13022460D01*
X15994182Y-13022460D02*
X15984658Y-13012936D01*
X16175134Y-12831984D02*
X16175134Y-12870079D01*
X16251325Y-12831984D02*
X16251325Y-12870079D01*
X16546563Y-13108174D02*
X16537039Y-13098650D01*
X16537039Y-13098650D02*
X16517991Y-13070079D01*
X16517991Y-13070079D02*
X16508468Y-13051031D01*
X16508468Y-13051031D02*
X16498944Y-13022460D01*
X16498944Y-13022460D02*
X16489420Y-12974841D01*
X16489420Y-12974841D02*
X16489420Y-12936746D01*
X16489420Y-12936746D02*
X16498944Y-12889127D01*
X16498944Y-12889127D02*
X16508468Y-12860555D01*
X16508468Y-12860555D02*
X16517991Y-12841508D01*
X16517991Y-12841508D02*
X16537039Y-12812936D01*
X16537039Y-12812936D02*
X16546563Y-12803412D01*
X16717991Y-12831984D02*
X16622753Y-12831984D01*
X16622753Y-12831984D02*
X16613229Y-12927222D01*
X16613229Y-12927222D02*
X16622753Y-12917698D01*
X16622753Y-12917698D02*
X16641801Y-12908174D01*
X16641801Y-12908174D02*
X16689420Y-12908174D01*
X16689420Y-12908174D02*
X16708468Y-12917698D01*
X16708468Y-12917698D02*
X16717991Y-12927222D01*
X16717991Y-12927222D02*
X16727515Y-12946269D01*
X16727515Y-12946269D02*
X16727515Y-12993888D01*
X16727515Y-12993888D02*
X16717991Y-13012936D01*
X16717991Y-13012936D02*
X16708468Y-13022460D01*
X16708468Y-13022460D02*
X16689420Y-13031984D01*
X16689420Y-13031984D02*
X16641801Y-13031984D01*
X16641801Y-13031984D02*
X16622753Y-13022460D01*
X16622753Y-13022460D02*
X16613229Y-13012936D01*
X16851325Y-12831984D02*
X16870372Y-12831984D01*
X16870372Y-12831984D02*
X16889420Y-12841508D01*
X16889420Y-12841508D02*
X16898944Y-12851031D01*
X16898944Y-12851031D02*
X16908468Y-12870079D01*
X16908468Y-12870079D02*
X16917991Y-12908174D01*
X16917991Y-12908174D02*
X16917991Y-12955793D01*
X16917991Y-12955793D02*
X16908468Y-12993888D01*
X16908468Y-12993888D02*
X16898944Y-13012936D01*
X16898944Y-13012936D02*
X16889420Y-13022460D01*
X16889420Y-13022460D02*
X16870372Y-13031984D01*
X16870372Y-13031984D02*
X16851325Y-13031984D01*
X16851325Y-13031984D02*
X16832277Y-13022460D01*
X16832277Y-13022460D02*
X16822753Y-13012936D01*
X16822753Y-13012936D02*
X16813230Y-12993888D01*
X16813230Y-12993888D02*
X16803706Y-12955793D01*
X16803706Y-12955793D02*
X16803706Y-12908174D01*
X16803706Y-12908174D02*
X16813230Y-12870079D01*
X16813230Y-12870079D02*
X16822753Y-12851031D01*
X16822753Y-12851031D02*
X16832277Y-12841508D01*
X16832277Y-12841508D02*
X16851325Y-12831984D01*
X17156087Y-13031984D02*
X17156087Y-12831984D01*
X17241801Y-13031984D02*
X17241801Y-12927222D01*
X17241801Y-12927222D02*
X17232277Y-12908174D01*
X17232277Y-12908174D02*
X17213230Y-12898650D01*
X17213230Y-12898650D02*
X17184658Y-12898650D01*
X17184658Y-12898650D02*
X17165611Y-12908174D01*
X17165611Y-12908174D02*
X17156087Y-12917698D01*
X17365611Y-13031984D02*
X17346563Y-13022460D01*
X17346563Y-13022460D02*
X17337039Y-13012936D01*
X17337039Y-13012936D02*
X17327515Y-12993888D01*
X17327515Y-12993888D02*
X17327515Y-12936746D01*
X17327515Y-12936746D02*
X17337039Y-12917698D01*
X17337039Y-12917698D02*
X17346563Y-12908174D01*
X17346563Y-12908174D02*
X17365611Y-12898650D01*
X17365611Y-12898650D02*
X17394182Y-12898650D01*
X17394182Y-12898650D02*
X17413230Y-12908174D01*
X17413230Y-12908174D02*
X17422753Y-12917698D01*
X17422753Y-12917698D02*
X17432277Y-12936746D01*
X17432277Y-12936746D02*
X17432277Y-12993888D01*
X17432277Y-12993888D02*
X17422753Y-13012936D01*
X17422753Y-13012936D02*
X17413230Y-13022460D01*
X17413230Y-13022460D02*
X17394182Y-13031984D01*
X17394182Y-13031984D02*
X17365611Y-13031984D01*
X17546563Y-13031984D02*
X17527515Y-13022460D01*
X17527515Y-13022460D02*
X17517992Y-13003412D01*
X17517992Y-13003412D02*
X17517992Y-12831984D01*
X17698944Y-13022460D02*
X17679896Y-13031984D01*
X17679896Y-13031984D02*
X17641801Y-13031984D01*
X17641801Y-13031984D02*
X17622753Y-13022460D01*
X17622753Y-13022460D02*
X17613230Y-13003412D01*
X17613230Y-13003412D02*
X17613230Y-12927222D01*
X17613230Y-12927222D02*
X17622753Y-12908174D01*
X17622753Y-12908174D02*
X17641801Y-12898650D01*
X17641801Y-12898650D02*
X17679896Y-12898650D01*
X17679896Y-12898650D02*
X17698944Y-12908174D01*
X17698944Y-12908174D02*
X17708468Y-12927222D01*
X17708468Y-12927222D02*
X17708468Y-12946269D01*
X17708468Y-12946269D02*
X17613230Y-12965317D01*
X17784658Y-13022460D02*
X17803706Y-13031984D01*
X17803706Y-13031984D02*
X17841801Y-13031984D01*
X17841801Y-13031984D02*
X17860849Y-13022460D01*
X17860849Y-13022460D02*
X17870373Y-13003412D01*
X17870373Y-13003412D02*
X17870373Y-12993888D01*
X17870373Y-12993888D02*
X17860849Y-12974841D01*
X17860849Y-12974841D02*
X17841801Y-12965317D01*
X17841801Y-12965317D02*
X17813230Y-12965317D01*
X17813230Y-12965317D02*
X17794182Y-12955793D01*
X17794182Y-12955793D02*
X17784658Y-12936746D01*
X17784658Y-12936746D02*
X17784658Y-12927222D01*
X17784658Y-12927222D02*
X17794182Y-12908174D01*
X17794182Y-12908174D02*
X17813230Y-12898650D01*
X17813230Y-12898650D02*
X17841801Y-12898650D01*
X17841801Y-12898650D02*
X17860849Y-12908174D01*
X17937039Y-13108174D02*
X17946563Y-13098650D01*
X17946563Y-13098650D02*
X17965611Y-13070079D01*
X17965611Y-13070079D02*
X17975134Y-13051031D01*
X17975134Y-13051031D02*
X17984658Y-13022460D01*
X17984658Y-13022460D02*
X17994182Y-12974841D01*
X17994182Y-12974841D02*
X17994182Y-12936746D01*
X17994182Y-12936746D02*
X17984658Y-12889127D01*
X17984658Y-12889127D02*
X17975134Y-12860555D01*
X17975134Y-12860555D02*
X17965611Y-12841508D01*
X17965611Y-12841508D02*
X17946563Y-12812936D01*
X17946563Y-12812936D02*
X17937039Y-12803412D01*
D12*
X12958320Y-13236320D02*
X12958320Y-13172680D01*
X12894680Y-13172680D01*
X12894680Y-13236320D01*
X12958320Y-13236320D01*
D11*
X13270372Y-13095984D02*
X13289420Y-13095984D01*
X13289420Y-13095984D02*
X13308467Y-13105508D01*
X13308467Y-13105508D02*
X13317991Y-13115031D01*
X13317991Y-13115031D02*
X13327515Y-13134079D01*
X13327515Y-13134079D02*
X13337039Y-13172174D01*
X13337039Y-13172174D02*
X13337039Y-13219793D01*
X13337039Y-13219793D02*
X13327515Y-13257888D01*
X13327515Y-13257888D02*
X13317991Y-13276936D01*
X13317991Y-13276936D02*
X13308467Y-13286460D01*
X13308467Y-13286460D02*
X13289420Y-13295984D01*
X13289420Y-13295984D02*
X13270372Y-13295984D01*
X13270372Y-13295984D02*
X13251324Y-13286460D01*
X13251324Y-13286460D02*
X13241801Y-13276936D01*
X13241801Y-13276936D02*
X13232277Y-13257888D01*
X13232277Y-13257888D02*
X13222753Y-13219793D01*
X13222753Y-13219793D02*
X13222753Y-13172174D01*
X13222753Y-13172174D02*
X13232277Y-13134079D01*
X13232277Y-13134079D02*
X13241801Y-13115031D01*
X13241801Y-13115031D02*
X13251324Y-13105508D01*
X13251324Y-13105508D02*
X13270372Y-13095984D01*
X13422753Y-13276936D02*
X13432277Y-13286460D01*
X13432277Y-13286460D02*
X13422753Y-13295984D01*
X13422753Y-13295984D02*
X13413229Y-13286460D01*
X13413229Y-13286460D02*
X13422753Y-13276936D01*
X13422753Y-13276936D02*
X13422753Y-13295984D01*
X13527515Y-13295984D02*
X13565610Y-13295984D01*
X13565610Y-13295984D02*
X13584658Y-13286460D01*
X13584658Y-13286460D02*
X13594182Y-13276936D01*
X13594182Y-13276936D02*
X13613229Y-13248365D01*
X13613229Y-13248365D02*
X13622753Y-13210269D01*
X13622753Y-13210269D02*
X13622753Y-13134079D01*
X13622753Y-13134079D02*
X13613229Y-13115031D01*
X13613229Y-13115031D02*
X13603705Y-13105508D01*
X13603705Y-13105508D02*
X13584658Y-13095984D01*
X13584658Y-13095984D02*
X13546562Y-13095984D01*
X13546562Y-13095984D02*
X13527515Y-13105508D01*
X13527515Y-13105508D02*
X13517991Y-13115031D01*
X13517991Y-13115031D02*
X13508467Y-13134079D01*
X13508467Y-13134079D02*
X13508467Y-13181698D01*
X13508467Y-13181698D02*
X13517991Y-13200746D01*
X13517991Y-13200746D02*
X13527515Y-13210269D01*
X13527515Y-13210269D02*
X13546562Y-13219793D01*
X13546562Y-13219793D02*
X13584658Y-13219793D01*
X13584658Y-13219793D02*
X13603705Y-13210269D01*
X13603705Y-13210269D02*
X13613229Y-13200746D01*
X13613229Y-13200746D02*
X13622753Y-13181698D01*
X13746562Y-13095984D02*
X13765610Y-13095984D01*
X13765610Y-13095984D02*
X13784658Y-13105508D01*
X13784658Y-13105508D02*
X13794182Y-13115031D01*
X13794182Y-13115031D02*
X13803705Y-13134079D01*
X13803705Y-13134079D02*
X13813229Y-13172174D01*
X13813229Y-13172174D02*
X13813229Y-13219793D01*
X13813229Y-13219793D02*
X13803705Y-13257888D01*
X13803705Y-13257888D02*
X13794182Y-13276936D01*
X13794182Y-13276936D02*
X13784658Y-13286460D01*
X13784658Y-13286460D02*
X13765610Y-13295984D01*
X13765610Y-13295984D02*
X13746562Y-13295984D01*
X13746562Y-13295984D02*
X13727515Y-13286460D01*
X13727515Y-13286460D02*
X13717991Y-13276936D01*
X13717991Y-13276936D02*
X13708467Y-13257888D01*
X13708467Y-13257888D02*
X13698943Y-13219793D01*
X13698943Y-13219793D02*
X13698943Y-13172174D01*
X13698943Y-13172174D02*
X13708467Y-13134079D01*
X13708467Y-13134079D02*
X13717991Y-13115031D01*
X13717991Y-13115031D02*
X13727515Y-13105508D01*
X13727515Y-13105508D02*
X13746562Y-13095984D01*
X13937039Y-13095984D02*
X13956086Y-13095984D01*
X13956086Y-13095984D02*
X13975134Y-13105508D01*
X13975134Y-13105508D02*
X13984658Y-13115031D01*
X13984658Y-13115031D02*
X13994182Y-13134079D01*
X13994182Y-13134079D02*
X14003705Y-13172174D01*
X14003705Y-13172174D02*
X14003705Y-13219793D01*
X14003705Y-13219793D02*
X13994182Y-13257888D01*
X13994182Y-13257888D02*
X13984658Y-13276936D01*
X13984658Y-13276936D02*
X13975134Y-13286460D01*
X13975134Y-13286460D02*
X13956086Y-13295984D01*
X13956086Y-13295984D02*
X13937039Y-13295984D01*
X13937039Y-13295984D02*
X13917991Y-13286460D01*
X13917991Y-13286460D02*
X13908467Y-13276936D01*
X13908467Y-13276936D02*
X13898943Y-13257888D01*
X13898943Y-13257888D02*
X13889420Y-13219793D01*
X13889420Y-13219793D02*
X13889420Y-13172174D01*
X13889420Y-13172174D02*
X13898943Y-13134079D01*
X13898943Y-13134079D02*
X13908467Y-13115031D01*
X13908467Y-13115031D02*
X13917991Y-13105508D01*
X13917991Y-13105508D02*
X13937039Y-13095984D01*
X14089420Y-13295984D02*
X14089420Y-13162650D01*
X14089420Y-13181698D02*
X14098943Y-13172174D01*
X14098943Y-13172174D02*
X14117991Y-13162650D01*
X14117991Y-13162650D02*
X14146563Y-13162650D01*
X14146563Y-13162650D02*
X14165610Y-13172174D01*
X14165610Y-13172174D02*
X14175134Y-13191222D01*
X14175134Y-13191222D02*
X14175134Y-13295984D01*
X14175134Y-13191222D02*
X14184658Y-13172174D01*
X14184658Y-13172174D02*
X14203705Y-13162650D01*
X14203705Y-13162650D02*
X14232277Y-13162650D01*
X14232277Y-13162650D02*
X14251324Y-13172174D01*
X14251324Y-13172174D02*
X14260848Y-13191222D01*
X14260848Y-13191222D02*
X14260848Y-13295984D01*
X14356086Y-13295984D02*
X14356086Y-13162650D01*
X14356086Y-13181698D02*
X14365610Y-13172174D01*
X14365610Y-13172174D02*
X14384658Y-13162650D01*
X14384658Y-13162650D02*
X14413229Y-13162650D01*
X14413229Y-13162650D02*
X14432277Y-13172174D01*
X14432277Y-13172174D02*
X14441801Y-13191222D01*
X14441801Y-13191222D02*
X14441801Y-13295984D01*
X14441801Y-13191222D02*
X14451324Y-13172174D01*
X14451324Y-13172174D02*
X14470372Y-13162650D01*
X14470372Y-13162650D02*
X14498943Y-13162650D01*
X14498943Y-13162650D02*
X14517991Y-13172174D01*
X14517991Y-13172174D02*
X14527515Y-13191222D01*
X14527515Y-13191222D02*
X14527515Y-13295984D01*
X14917991Y-13086460D02*
X14746563Y-13343603D01*
X15175134Y-13095984D02*
X15194182Y-13095984D01*
X15194182Y-13095984D02*
X15213229Y-13105508D01*
X15213229Y-13105508D02*
X15222753Y-13115031D01*
X15222753Y-13115031D02*
X15232277Y-13134079D01*
X15232277Y-13134079D02*
X15241801Y-13172174D01*
X15241801Y-13172174D02*
X15241801Y-13219793D01*
X15241801Y-13219793D02*
X15232277Y-13257888D01*
X15232277Y-13257888D02*
X15222753Y-13276936D01*
X15222753Y-13276936D02*
X15213229Y-13286460D01*
X15213229Y-13286460D02*
X15194182Y-13295984D01*
X15194182Y-13295984D02*
X15175134Y-13295984D01*
X15175134Y-13295984D02*
X15156086Y-13286460D01*
X15156086Y-13286460D02*
X15146563Y-13276936D01*
X15146563Y-13276936D02*
X15137039Y-13257888D01*
X15137039Y-13257888D02*
X15127515Y-13219793D01*
X15127515Y-13219793D02*
X15127515Y-13172174D01*
X15127515Y-13172174D02*
X15137039Y-13134079D01*
X15137039Y-13134079D02*
X15146563Y-13115031D01*
X15146563Y-13115031D02*
X15156086Y-13105508D01*
X15156086Y-13105508D02*
X15175134Y-13095984D01*
X15327515Y-13276936D02*
X15337039Y-13286460D01*
X15337039Y-13286460D02*
X15327515Y-13295984D01*
X15327515Y-13295984D02*
X15317991Y-13286460D01*
X15317991Y-13286460D02*
X15327515Y-13276936D01*
X15327515Y-13276936D02*
X15327515Y-13295984D01*
X15460848Y-13095984D02*
X15479896Y-13095984D01*
X15479896Y-13095984D02*
X15498944Y-13105508D01*
X15498944Y-13105508D02*
X15508467Y-13115031D01*
X15508467Y-13115031D02*
X15517991Y-13134079D01*
X15517991Y-13134079D02*
X15527515Y-13172174D01*
X15527515Y-13172174D02*
X15527515Y-13219793D01*
X15527515Y-13219793D02*
X15517991Y-13257888D01*
X15517991Y-13257888D02*
X15508467Y-13276936D01*
X15508467Y-13276936D02*
X15498944Y-13286460D01*
X15498944Y-13286460D02*
X15479896Y-13295984D01*
X15479896Y-13295984D02*
X15460848Y-13295984D01*
X15460848Y-13295984D02*
X15441801Y-13286460D01*
X15441801Y-13286460D02*
X15432277Y-13276936D01*
X15432277Y-13276936D02*
X15422753Y-13257888D01*
X15422753Y-13257888D02*
X15413229Y-13219793D01*
X15413229Y-13219793D02*
X15413229Y-13172174D01*
X15413229Y-13172174D02*
X15422753Y-13134079D01*
X15422753Y-13134079D02*
X15432277Y-13115031D01*
X15432277Y-13115031D02*
X15441801Y-13105508D01*
X15441801Y-13105508D02*
X15460848Y-13095984D01*
X15594182Y-13095984D02*
X15717991Y-13095984D01*
X15717991Y-13095984D02*
X15651325Y-13172174D01*
X15651325Y-13172174D02*
X15679896Y-13172174D01*
X15679896Y-13172174D02*
X15698944Y-13181698D01*
X15698944Y-13181698D02*
X15708467Y-13191222D01*
X15708467Y-13191222D02*
X15717991Y-13210269D01*
X15717991Y-13210269D02*
X15717991Y-13257888D01*
X15717991Y-13257888D02*
X15708467Y-13276936D01*
X15708467Y-13276936D02*
X15698944Y-13286460D01*
X15698944Y-13286460D02*
X15679896Y-13295984D01*
X15679896Y-13295984D02*
X15622753Y-13295984D01*
X15622753Y-13295984D02*
X15603706Y-13286460D01*
X15603706Y-13286460D02*
X15594182Y-13276936D01*
X15898944Y-13095984D02*
X15803706Y-13095984D01*
X15803706Y-13095984D02*
X15794182Y-13191222D01*
X15794182Y-13191222D02*
X15803706Y-13181698D01*
X15803706Y-13181698D02*
X15822753Y-13172174D01*
X15822753Y-13172174D02*
X15870372Y-13172174D01*
X15870372Y-13172174D02*
X15889420Y-13181698D01*
X15889420Y-13181698D02*
X15898944Y-13191222D01*
X15898944Y-13191222D02*
X15908467Y-13210269D01*
X15908467Y-13210269D02*
X15908467Y-13257888D01*
X15908467Y-13257888D02*
X15898944Y-13276936D01*
X15898944Y-13276936D02*
X15889420Y-13286460D01*
X15889420Y-13286460D02*
X15870372Y-13295984D01*
X15870372Y-13295984D02*
X15822753Y-13295984D01*
X15822753Y-13295984D02*
X15803706Y-13286460D01*
X15803706Y-13286460D02*
X15794182Y-13276936D01*
X16079896Y-13162650D02*
X16079896Y-13295984D01*
X16032277Y-13086460D02*
X15984658Y-13229317D01*
X15984658Y-13229317D02*
X16108467Y-13229317D01*
X16175134Y-13095984D02*
X16175134Y-13134079D01*
X16251325Y-13095984D02*
X16251325Y-13134079D01*
X16546563Y-13372174D02*
X16537039Y-13362650D01*
X16537039Y-13362650D02*
X16517991Y-13334079D01*
X16517991Y-13334079D02*
X16508468Y-13315031D01*
X16508468Y-13315031D02*
X16498944Y-13286460D01*
X16498944Y-13286460D02*
X16489420Y-13238841D01*
X16489420Y-13238841D02*
X16489420Y-13200746D01*
X16489420Y-13200746D02*
X16498944Y-13153127D01*
X16498944Y-13153127D02*
X16508468Y-13124555D01*
X16508468Y-13124555D02*
X16517991Y-13105508D01*
X16517991Y-13105508D02*
X16537039Y-13076936D01*
X16537039Y-13076936D02*
X16546563Y-13067412D01*
X16708468Y-13162650D02*
X16708468Y-13295984D01*
X16660848Y-13086460D02*
X16613229Y-13229317D01*
X16613229Y-13229317D02*
X16737039Y-13229317D01*
X16965611Y-13295984D02*
X16965611Y-13095984D01*
X17051325Y-13295984D02*
X17051325Y-13191222D01*
X17051325Y-13191222D02*
X17041801Y-13172174D01*
X17041801Y-13172174D02*
X17022753Y-13162650D01*
X17022753Y-13162650D02*
X16994182Y-13162650D01*
X16994182Y-13162650D02*
X16975134Y-13172174D01*
X16975134Y-13172174D02*
X16965611Y-13181698D01*
X17175134Y-13295984D02*
X17156087Y-13286460D01*
X17156087Y-13286460D02*
X17146563Y-13276936D01*
X17146563Y-13276936D02*
X17137039Y-13257888D01*
X17137039Y-13257888D02*
X17137039Y-13200746D01*
X17137039Y-13200746D02*
X17146563Y-13181698D01*
X17146563Y-13181698D02*
X17156087Y-13172174D01*
X17156087Y-13172174D02*
X17175134Y-13162650D01*
X17175134Y-13162650D02*
X17203706Y-13162650D01*
X17203706Y-13162650D02*
X17222753Y-13172174D01*
X17222753Y-13172174D02*
X17232277Y-13181698D01*
X17232277Y-13181698D02*
X17241801Y-13200746D01*
X17241801Y-13200746D02*
X17241801Y-13257888D01*
X17241801Y-13257888D02*
X17232277Y-13276936D01*
X17232277Y-13276936D02*
X17222753Y-13286460D01*
X17222753Y-13286460D02*
X17203706Y-13295984D01*
X17203706Y-13295984D02*
X17175134Y-13295984D01*
X17356087Y-13295984D02*
X17337039Y-13286460D01*
X17337039Y-13286460D02*
X17327515Y-13267412D01*
X17327515Y-13267412D02*
X17327515Y-13095984D01*
X17508468Y-13286460D02*
X17489420Y-13295984D01*
X17489420Y-13295984D02*
X17451325Y-13295984D01*
X17451325Y-13295984D02*
X17432277Y-13286460D01*
X17432277Y-13286460D02*
X17422753Y-13267412D01*
X17422753Y-13267412D02*
X17422753Y-13191222D01*
X17422753Y-13191222D02*
X17432277Y-13172174D01*
X17432277Y-13172174D02*
X17451325Y-13162650D01*
X17451325Y-13162650D02*
X17489420Y-13162650D01*
X17489420Y-13162650D02*
X17508468Y-13172174D01*
X17508468Y-13172174D02*
X17517992Y-13191222D01*
X17517992Y-13191222D02*
X17517992Y-13210269D01*
X17517992Y-13210269D02*
X17422753Y-13229317D01*
X17594182Y-13286460D02*
X17613230Y-13295984D01*
X17613230Y-13295984D02*
X17651325Y-13295984D01*
X17651325Y-13295984D02*
X17670373Y-13286460D01*
X17670373Y-13286460D02*
X17679896Y-13267412D01*
X17679896Y-13267412D02*
X17679896Y-13257888D01*
X17679896Y-13257888D02*
X17670373Y-13238841D01*
X17670373Y-13238841D02*
X17651325Y-13229317D01*
X17651325Y-13229317D02*
X17622753Y-13229317D01*
X17622753Y-13229317D02*
X17603706Y-13219793D01*
X17603706Y-13219793D02*
X17594182Y-13200746D01*
X17594182Y-13200746D02*
X17594182Y-13191222D01*
X17594182Y-13191222D02*
X17603706Y-13172174D01*
X17603706Y-13172174D02*
X17622753Y-13162650D01*
X17622753Y-13162650D02*
X17651325Y-13162650D01*
X17651325Y-13162650D02*
X17670373Y-13172174D01*
X17746563Y-13372174D02*
X17756087Y-13362650D01*
X17756087Y-13362650D02*
X17775134Y-13334079D01*
X17775134Y-13334079D02*
X17784658Y-13315031D01*
X17784658Y-13315031D02*
X17794182Y-13286460D01*
X17794182Y-13286460D02*
X17803706Y-13238841D01*
X17803706Y-13238841D02*
X17803706Y-13200746D01*
X17803706Y-13200746D02*
X17794182Y-13153127D01*
X17794182Y-13153127D02*
X17784658Y-13124555D01*
X17784658Y-13124555D02*
X17775134Y-13105508D01*
X17775134Y-13105508D02*
X17756087Y-13076936D01*
X17756087Y-13076936D02*
X17746563Y-13067412D01*
D12*
X12921500Y-13518500D02*
X12971500Y-13468500D01*
X12921500Y-13418500D01*
X12871500Y-13468500D01*
X12921500Y-13518500D01*
D11*
X13337039Y-13559984D02*
X13222753Y-13559984D01*
X13279896Y-13559984D02*
X13279896Y-13359984D01*
X13279896Y-13359984D02*
X13260848Y-13388555D01*
X13260848Y-13388555D02*
X13241801Y-13407603D01*
X13241801Y-13407603D02*
X13222753Y-13417127D01*
X13422753Y-13540936D02*
X13432277Y-13550460D01*
X13432277Y-13550460D02*
X13422753Y-13559984D01*
X13422753Y-13559984D02*
X13413229Y-13550460D01*
X13413229Y-13550460D02*
X13422753Y-13540936D01*
X13422753Y-13540936D02*
X13422753Y-13559984D01*
X13556086Y-13359984D02*
X13575134Y-13359984D01*
X13575134Y-13359984D02*
X13594182Y-13369508D01*
X13594182Y-13369508D02*
X13603705Y-13379031D01*
X13603705Y-13379031D02*
X13613229Y-13398079D01*
X13613229Y-13398079D02*
X13622753Y-13436174D01*
X13622753Y-13436174D02*
X13622753Y-13483793D01*
X13622753Y-13483793D02*
X13613229Y-13521888D01*
X13613229Y-13521888D02*
X13603705Y-13540936D01*
X13603705Y-13540936D02*
X13594182Y-13550460D01*
X13594182Y-13550460D02*
X13575134Y-13559984D01*
X13575134Y-13559984D02*
X13556086Y-13559984D01*
X13556086Y-13559984D02*
X13537039Y-13550460D01*
X13537039Y-13550460D02*
X13527515Y-13540936D01*
X13527515Y-13540936D02*
X13517991Y-13521888D01*
X13517991Y-13521888D02*
X13508467Y-13483793D01*
X13508467Y-13483793D02*
X13508467Y-13436174D01*
X13508467Y-13436174D02*
X13517991Y-13398079D01*
X13517991Y-13398079D02*
X13527515Y-13379031D01*
X13527515Y-13379031D02*
X13537039Y-13369508D01*
X13537039Y-13369508D02*
X13556086Y-13359984D01*
X13746562Y-13359984D02*
X13765610Y-13359984D01*
X13765610Y-13359984D02*
X13784658Y-13369508D01*
X13784658Y-13369508D02*
X13794182Y-13379031D01*
X13794182Y-13379031D02*
X13803705Y-13398079D01*
X13803705Y-13398079D02*
X13813229Y-13436174D01*
X13813229Y-13436174D02*
X13813229Y-13483793D01*
X13813229Y-13483793D02*
X13803705Y-13521888D01*
X13803705Y-13521888D02*
X13794182Y-13540936D01*
X13794182Y-13540936D02*
X13784658Y-13550460D01*
X13784658Y-13550460D02*
X13765610Y-13559984D01*
X13765610Y-13559984D02*
X13746562Y-13559984D01*
X13746562Y-13559984D02*
X13727515Y-13550460D01*
X13727515Y-13550460D02*
X13717991Y-13540936D01*
X13717991Y-13540936D02*
X13708467Y-13521888D01*
X13708467Y-13521888D02*
X13698943Y-13483793D01*
X13698943Y-13483793D02*
X13698943Y-13436174D01*
X13698943Y-13436174D02*
X13708467Y-13398079D01*
X13708467Y-13398079D02*
X13717991Y-13379031D01*
X13717991Y-13379031D02*
X13727515Y-13369508D01*
X13727515Y-13369508D02*
X13746562Y-13359984D01*
X13937039Y-13359984D02*
X13956086Y-13359984D01*
X13956086Y-13359984D02*
X13975134Y-13369508D01*
X13975134Y-13369508D02*
X13984658Y-13379031D01*
X13984658Y-13379031D02*
X13994182Y-13398079D01*
X13994182Y-13398079D02*
X14003705Y-13436174D01*
X14003705Y-13436174D02*
X14003705Y-13483793D01*
X14003705Y-13483793D02*
X13994182Y-13521888D01*
X13994182Y-13521888D02*
X13984658Y-13540936D01*
X13984658Y-13540936D02*
X13975134Y-13550460D01*
X13975134Y-13550460D02*
X13956086Y-13559984D01*
X13956086Y-13559984D02*
X13937039Y-13559984D01*
X13937039Y-13559984D02*
X13917991Y-13550460D01*
X13917991Y-13550460D02*
X13908467Y-13540936D01*
X13908467Y-13540936D02*
X13898943Y-13521888D01*
X13898943Y-13521888D02*
X13889420Y-13483793D01*
X13889420Y-13483793D02*
X13889420Y-13436174D01*
X13889420Y-13436174D02*
X13898943Y-13398079D01*
X13898943Y-13398079D02*
X13908467Y-13379031D01*
X13908467Y-13379031D02*
X13917991Y-13369508D01*
X13917991Y-13369508D02*
X13937039Y-13359984D01*
X14089420Y-13559984D02*
X14089420Y-13426650D01*
X14089420Y-13445698D02*
X14098943Y-13436174D01*
X14098943Y-13436174D02*
X14117991Y-13426650D01*
X14117991Y-13426650D02*
X14146563Y-13426650D01*
X14146563Y-13426650D02*
X14165610Y-13436174D01*
X14165610Y-13436174D02*
X14175134Y-13455222D01*
X14175134Y-13455222D02*
X14175134Y-13559984D01*
X14175134Y-13455222D02*
X14184658Y-13436174D01*
X14184658Y-13436174D02*
X14203705Y-13426650D01*
X14203705Y-13426650D02*
X14232277Y-13426650D01*
X14232277Y-13426650D02*
X14251324Y-13436174D01*
X14251324Y-13436174D02*
X14260848Y-13455222D01*
X14260848Y-13455222D02*
X14260848Y-13559984D01*
X14356086Y-13559984D02*
X14356086Y-13426650D01*
X14356086Y-13445698D02*
X14365610Y-13436174D01*
X14365610Y-13436174D02*
X14384658Y-13426650D01*
X14384658Y-13426650D02*
X14413229Y-13426650D01*
X14413229Y-13426650D02*
X14432277Y-13436174D01*
X14432277Y-13436174D02*
X14441801Y-13455222D01*
X14441801Y-13455222D02*
X14441801Y-13559984D01*
X14441801Y-13455222D02*
X14451324Y-13436174D01*
X14451324Y-13436174D02*
X14470372Y-13426650D01*
X14470372Y-13426650D02*
X14498943Y-13426650D01*
X14498943Y-13426650D02*
X14517991Y-13436174D01*
X14517991Y-13436174D02*
X14527515Y-13455222D01*
X14527515Y-13455222D02*
X14527515Y-13559984D01*
X14917991Y-13350460D02*
X14746563Y-13607603D01*
X15175134Y-13359984D02*
X15194182Y-13359984D01*
X15194182Y-13359984D02*
X15213229Y-13369508D01*
X15213229Y-13369508D02*
X15222753Y-13379031D01*
X15222753Y-13379031D02*
X15232277Y-13398079D01*
X15232277Y-13398079D02*
X15241801Y-13436174D01*
X15241801Y-13436174D02*
X15241801Y-13483793D01*
X15241801Y-13483793D02*
X15232277Y-13521888D01*
X15232277Y-13521888D02*
X15222753Y-13540936D01*
X15222753Y-13540936D02*
X15213229Y-13550460D01*
X15213229Y-13550460D02*
X15194182Y-13559984D01*
X15194182Y-13559984D02*
X15175134Y-13559984D01*
X15175134Y-13559984D02*
X15156086Y-13550460D01*
X15156086Y-13550460D02*
X15146563Y-13540936D01*
X15146563Y-13540936D02*
X15137039Y-13521888D01*
X15137039Y-13521888D02*
X15127515Y-13483793D01*
X15127515Y-13483793D02*
X15127515Y-13436174D01*
X15127515Y-13436174D02*
X15137039Y-13398079D01*
X15137039Y-13398079D02*
X15146563Y-13379031D01*
X15146563Y-13379031D02*
X15156086Y-13369508D01*
X15156086Y-13369508D02*
X15175134Y-13359984D01*
X15327515Y-13540936D02*
X15337039Y-13550460D01*
X15337039Y-13550460D02*
X15327515Y-13559984D01*
X15327515Y-13559984D02*
X15317991Y-13550460D01*
X15317991Y-13550460D02*
X15327515Y-13540936D01*
X15327515Y-13540936D02*
X15327515Y-13559984D01*
X15460848Y-13359984D02*
X15479896Y-13359984D01*
X15479896Y-13359984D02*
X15498944Y-13369508D01*
X15498944Y-13369508D02*
X15508467Y-13379031D01*
X15508467Y-13379031D02*
X15517991Y-13398079D01*
X15517991Y-13398079D02*
X15527515Y-13436174D01*
X15527515Y-13436174D02*
X15527515Y-13483793D01*
X15527515Y-13483793D02*
X15517991Y-13521888D01*
X15517991Y-13521888D02*
X15508467Y-13540936D01*
X15508467Y-13540936D02*
X15498944Y-13550460D01*
X15498944Y-13550460D02*
X15479896Y-13559984D01*
X15479896Y-13559984D02*
X15460848Y-13559984D01*
X15460848Y-13559984D02*
X15441801Y-13550460D01*
X15441801Y-13550460D02*
X15432277Y-13540936D01*
X15432277Y-13540936D02*
X15422753Y-13521888D01*
X15422753Y-13521888D02*
X15413229Y-13483793D01*
X15413229Y-13483793D02*
X15413229Y-13436174D01*
X15413229Y-13436174D02*
X15422753Y-13398079D01*
X15422753Y-13398079D02*
X15432277Y-13379031D01*
X15432277Y-13379031D02*
X15441801Y-13369508D01*
X15441801Y-13369508D02*
X15460848Y-13359984D01*
X15594182Y-13359984D02*
X15717991Y-13359984D01*
X15717991Y-13359984D02*
X15651325Y-13436174D01*
X15651325Y-13436174D02*
X15679896Y-13436174D01*
X15679896Y-13436174D02*
X15698944Y-13445698D01*
X15698944Y-13445698D02*
X15708467Y-13455222D01*
X15708467Y-13455222D02*
X15717991Y-13474269D01*
X15717991Y-13474269D02*
X15717991Y-13521888D01*
X15717991Y-13521888D02*
X15708467Y-13540936D01*
X15708467Y-13540936D02*
X15698944Y-13550460D01*
X15698944Y-13550460D02*
X15679896Y-13559984D01*
X15679896Y-13559984D02*
X15622753Y-13559984D01*
X15622753Y-13559984D02*
X15603706Y-13550460D01*
X15603706Y-13550460D02*
X15594182Y-13540936D01*
X15813229Y-13559984D02*
X15851325Y-13559984D01*
X15851325Y-13559984D02*
X15870372Y-13550460D01*
X15870372Y-13550460D02*
X15879896Y-13540936D01*
X15879896Y-13540936D02*
X15898944Y-13512365D01*
X15898944Y-13512365D02*
X15908467Y-13474269D01*
X15908467Y-13474269D02*
X15908467Y-13398079D01*
X15908467Y-13398079D02*
X15898944Y-13379031D01*
X15898944Y-13379031D02*
X15889420Y-13369508D01*
X15889420Y-13369508D02*
X15870372Y-13359984D01*
X15870372Y-13359984D02*
X15832277Y-13359984D01*
X15832277Y-13359984D02*
X15813229Y-13369508D01*
X15813229Y-13369508D02*
X15803706Y-13379031D01*
X15803706Y-13379031D02*
X15794182Y-13398079D01*
X15794182Y-13398079D02*
X15794182Y-13445698D01*
X15794182Y-13445698D02*
X15803706Y-13464746D01*
X15803706Y-13464746D02*
X15813229Y-13474269D01*
X15813229Y-13474269D02*
X15832277Y-13483793D01*
X15832277Y-13483793D02*
X15870372Y-13483793D01*
X15870372Y-13483793D02*
X15889420Y-13474269D01*
X15889420Y-13474269D02*
X15898944Y-13464746D01*
X15898944Y-13464746D02*
X15908467Y-13445698D01*
X16079896Y-13426650D02*
X16079896Y-13559984D01*
X16032277Y-13350460D02*
X15984658Y-13493317D01*
X15984658Y-13493317D02*
X16108467Y-13493317D01*
X16175134Y-13359984D02*
X16175134Y-13398079D01*
X16251325Y-13359984D02*
X16251325Y-13398079D01*
X16546563Y-13636174D02*
X16537039Y-13626650D01*
X16537039Y-13626650D02*
X16517991Y-13598079D01*
X16517991Y-13598079D02*
X16508468Y-13579031D01*
X16508468Y-13579031D02*
X16498944Y-13550460D01*
X16498944Y-13550460D02*
X16489420Y-13502841D01*
X16489420Y-13502841D02*
X16489420Y-13464746D01*
X16489420Y-13464746D02*
X16498944Y-13417127D01*
X16498944Y-13417127D02*
X16508468Y-13388555D01*
X16508468Y-13388555D02*
X16517991Y-13369508D01*
X16517991Y-13369508D02*
X16537039Y-13340936D01*
X16537039Y-13340936D02*
X16546563Y-13331412D01*
X16603706Y-13359984D02*
X16737039Y-13359984D01*
X16737039Y-13359984D02*
X16651325Y-13559984D01*
X16841801Y-13445698D02*
X16822753Y-13436174D01*
X16822753Y-13436174D02*
X16813230Y-13426650D01*
X16813230Y-13426650D02*
X16803706Y-13407603D01*
X16803706Y-13407603D02*
X16803706Y-13398079D01*
X16803706Y-13398079D02*
X16813230Y-13379031D01*
X16813230Y-13379031D02*
X16822753Y-13369508D01*
X16822753Y-13369508D02*
X16841801Y-13359984D01*
X16841801Y-13359984D02*
X16879896Y-13359984D01*
X16879896Y-13359984D02*
X16898944Y-13369508D01*
X16898944Y-13369508D02*
X16908468Y-13379031D01*
X16908468Y-13379031D02*
X16917991Y-13398079D01*
X16917991Y-13398079D02*
X16917991Y-13407603D01*
X16917991Y-13407603D02*
X16908468Y-13426650D01*
X16908468Y-13426650D02*
X16898944Y-13436174D01*
X16898944Y-13436174D02*
X16879896Y-13445698D01*
X16879896Y-13445698D02*
X16841801Y-13445698D01*
X16841801Y-13445698D02*
X16822753Y-13455222D01*
X16822753Y-13455222D02*
X16813230Y-13464746D01*
X16813230Y-13464746D02*
X16803706Y-13483793D01*
X16803706Y-13483793D02*
X16803706Y-13521888D01*
X16803706Y-13521888D02*
X16813230Y-13540936D01*
X16813230Y-13540936D02*
X16822753Y-13550460D01*
X16822753Y-13550460D02*
X16841801Y-13559984D01*
X16841801Y-13559984D02*
X16879896Y-13559984D01*
X16879896Y-13559984D02*
X16898944Y-13550460D01*
X16898944Y-13550460D02*
X16908468Y-13540936D01*
X16908468Y-13540936D02*
X16917991Y-13521888D01*
X16917991Y-13521888D02*
X16917991Y-13483793D01*
X16917991Y-13483793D02*
X16908468Y-13464746D01*
X16908468Y-13464746D02*
X16898944Y-13455222D01*
X16898944Y-13455222D02*
X16879896Y-13445698D01*
X17156087Y-13559984D02*
X17156087Y-13359984D01*
X17241801Y-13559984D02*
X17241801Y-13455222D01*
X17241801Y-13455222D02*
X17232277Y-13436174D01*
X17232277Y-13436174D02*
X17213230Y-13426650D01*
X17213230Y-13426650D02*
X17184658Y-13426650D01*
X17184658Y-13426650D02*
X17165611Y-13436174D01*
X17165611Y-13436174D02*
X17156087Y-13445698D01*
X17365611Y-13559984D02*
X17346563Y-13550460D01*
X17346563Y-13550460D02*
X17337039Y-13540936D01*
X17337039Y-13540936D02*
X17327515Y-13521888D01*
X17327515Y-13521888D02*
X17327515Y-13464746D01*
X17327515Y-13464746D02*
X17337039Y-13445698D01*
X17337039Y-13445698D02*
X17346563Y-13436174D01*
X17346563Y-13436174D02*
X17365611Y-13426650D01*
X17365611Y-13426650D02*
X17394182Y-13426650D01*
X17394182Y-13426650D02*
X17413230Y-13436174D01*
X17413230Y-13436174D02*
X17422753Y-13445698D01*
X17422753Y-13445698D02*
X17432277Y-13464746D01*
X17432277Y-13464746D02*
X17432277Y-13521888D01*
X17432277Y-13521888D02*
X17422753Y-13540936D01*
X17422753Y-13540936D02*
X17413230Y-13550460D01*
X17413230Y-13550460D02*
X17394182Y-13559984D01*
X17394182Y-13559984D02*
X17365611Y-13559984D01*
X17546563Y-13559984D02*
X17527515Y-13550460D01*
X17527515Y-13550460D02*
X17517992Y-13531412D01*
X17517992Y-13531412D02*
X17517992Y-13359984D01*
X17698944Y-13550460D02*
X17679896Y-13559984D01*
X17679896Y-13559984D02*
X17641801Y-13559984D01*
X17641801Y-13559984D02*
X17622753Y-13550460D01*
X17622753Y-13550460D02*
X17613230Y-13531412D01*
X17613230Y-13531412D02*
X17613230Y-13455222D01*
X17613230Y-13455222D02*
X17622753Y-13436174D01*
X17622753Y-13436174D02*
X17641801Y-13426650D01*
X17641801Y-13426650D02*
X17679896Y-13426650D01*
X17679896Y-13426650D02*
X17698944Y-13436174D01*
X17698944Y-13436174D02*
X17708468Y-13455222D01*
X17708468Y-13455222D02*
X17708468Y-13474269D01*
X17708468Y-13474269D02*
X17613230Y-13493317D01*
X17784658Y-13550460D02*
X17803706Y-13559984D01*
X17803706Y-13559984D02*
X17841801Y-13559984D01*
X17841801Y-13559984D02*
X17860849Y-13550460D01*
X17860849Y-13550460D02*
X17870373Y-13531412D01*
X17870373Y-13531412D02*
X17870373Y-13521888D01*
X17870373Y-13521888D02*
X17860849Y-13502841D01*
X17860849Y-13502841D02*
X17841801Y-13493317D01*
X17841801Y-13493317D02*
X17813230Y-13493317D01*
X17813230Y-13493317D02*
X17794182Y-13483793D01*
X17794182Y-13483793D02*
X17784658Y-13464746D01*
X17784658Y-13464746D02*
X17784658Y-13455222D01*
X17784658Y-13455222D02*
X17794182Y-13436174D01*
X17794182Y-13436174D02*
X17813230Y-13426650D01*
X17813230Y-13426650D02*
X17841801Y-13426650D01*
X17841801Y-13426650D02*
X17860849Y-13436174D01*
X17937039Y-13636174D02*
X17946563Y-13626650D01*
X17946563Y-13626650D02*
X17965611Y-13598079D01*
X17965611Y-13598079D02*
X17975134Y-13579031D01*
X17975134Y-13579031D02*
X17984658Y-13550460D01*
X17984658Y-13550460D02*
X17994182Y-13502841D01*
X17994182Y-13502841D02*
X17994182Y-13464746D01*
X17994182Y-13464746D02*
X17984658Y-13417127D01*
X17984658Y-13417127D02*
X17975134Y-13388555D01*
X17975134Y-13388555D02*
X17965611Y-13369508D01*
X17965611Y-13369508D02*
X17946563Y-13340936D01*
X17946563Y-13340936D02*
X17937039Y-13331412D01*
D13*
X12841500Y-13667500D02*
X12971500Y-13797500D01*
X12971500Y-13667500D02*
X12841500Y-13797500D01*
X12971500Y-13732500D02*
G75*
G02*
X12841500Y-13732500I-65000J0D01*
G01*
X12841500Y-13732500D02*
G75*
G02*
X12971500Y-13732500I65000J0D01*
G01*
D11*
X13337039Y-13823984D02*
X13222753Y-13823984D01*
X13279896Y-13823984D02*
X13279896Y-13623984D01*
X13279896Y-13623984D02*
X13260848Y-13652555D01*
X13260848Y-13652555D02*
X13241801Y-13671603D01*
X13241801Y-13671603D02*
X13222753Y-13681127D01*
X13422753Y-13804936D02*
X13432277Y-13814460D01*
X13432277Y-13814460D02*
X13422753Y-13823984D01*
X13422753Y-13823984D02*
X13413229Y-13814460D01*
X13413229Y-13814460D02*
X13422753Y-13804936D01*
X13422753Y-13804936D02*
X13422753Y-13823984D01*
X13498943Y-13623984D02*
X13622753Y-13623984D01*
X13622753Y-13623984D02*
X13556086Y-13700174D01*
X13556086Y-13700174D02*
X13584658Y-13700174D01*
X13584658Y-13700174D02*
X13603705Y-13709698D01*
X13603705Y-13709698D02*
X13613229Y-13719222D01*
X13613229Y-13719222D02*
X13622753Y-13738269D01*
X13622753Y-13738269D02*
X13622753Y-13785888D01*
X13622753Y-13785888D02*
X13613229Y-13804936D01*
X13613229Y-13804936D02*
X13603705Y-13814460D01*
X13603705Y-13814460D02*
X13584658Y-13823984D01*
X13584658Y-13823984D02*
X13527515Y-13823984D01*
X13527515Y-13823984D02*
X13508467Y-13814460D01*
X13508467Y-13814460D02*
X13498943Y-13804936D01*
X13746562Y-13623984D02*
X13765610Y-13623984D01*
X13765610Y-13623984D02*
X13784658Y-13633508D01*
X13784658Y-13633508D02*
X13794182Y-13643031D01*
X13794182Y-13643031D02*
X13803705Y-13662079D01*
X13803705Y-13662079D02*
X13813229Y-13700174D01*
X13813229Y-13700174D02*
X13813229Y-13747793D01*
X13813229Y-13747793D02*
X13803705Y-13785888D01*
X13803705Y-13785888D02*
X13794182Y-13804936D01*
X13794182Y-13804936D02*
X13784658Y-13814460D01*
X13784658Y-13814460D02*
X13765610Y-13823984D01*
X13765610Y-13823984D02*
X13746562Y-13823984D01*
X13746562Y-13823984D02*
X13727515Y-13814460D01*
X13727515Y-13814460D02*
X13717991Y-13804936D01*
X13717991Y-13804936D02*
X13708467Y-13785888D01*
X13708467Y-13785888D02*
X13698943Y-13747793D01*
X13698943Y-13747793D02*
X13698943Y-13700174D01*
X13698943Y-13700174D02*
X13708467Y-13662079D01*
X13708467Y-13662079D02*
X13717991Y-13643031D01*
X13717991Y-13643031D02*
X13727515Y-13633508D01*
X13727515Y-13633508D02*
X13746562Y-13623984D01*
X13937039Y-13623984D02*
X13956086Y-13623984D01*
X13956086Y-13623984D02*
X13975134Y-13633508D01*
X13975134Y-13633508D02*
X13984658Y-13643031D01*
X13984658Y-13643031D02*
X13994182Y-13662079D01*
X13994182Y-13662079D02*
X14003705Y-13700174D01*
X14003705Y-13700174D02*
X14003705Y-13747793D01*
X14003705Y-13747793D02*
X13994182Y-13785888D01*
X13994182Y-13785888D02*
X13984658Y-13804936D01*
X13984658Y-13804936D02*
X13975134Y-13814460D01*
X13975134Y-13814460D02*
X13956086Y-13823984D01*
X13956086Y-13823984D02*
X13937039Y-13823984D01*
X13937039Y-13823984D02*
X13917991Y-13814460D01*
X13917991Y-13814460D02*
X13908467Y-13804936D01*
X13908467Y-13804936D02*
X13898943Y-13785888D01*
X13898943Y-13785888D02*
X13889420Y-13747793D01*
X13889420Y-13747793D02*
X13889420Y-13700174D01*
X13889420Y-13700174D02*
X13898943Y-13662079D01*
X13898943Y-13662079D02*
X13908467Y-13643031D01*
X13908467Y-13643031D02*
X13917991Y-13633508D01*
X13917991Y-13633508D02*
X13937039Y-13623984D01*
X14089420Y-13823984D02*
X14089420Y-13690650D01*
X14089420Y-13709698D02*
X14098943Y-13700174D01*
X14098943Y-13700174D02*
X14117991Y-13690650D01*
X14117991Y-13690650D02*
X14146563Y-13690650D01*
X14146563Y-13690650D02*
X14165610Y-13700174D01*
X14165610Y-13700174D02*
X14175134Y-13719222D01*
X14175134Y-13719222D02*
X14175134Y-13823984D01*
X14175134Y-13719222D02*
X14184658Y-13700174D01*
X14184658Y-13700174D02*
X14203705Y-13690650D01*
X14203705Y-13690650D02*
X14232277Y-13690650D01*
X14232277Y-13690650D02*
X14251324Y-13700174D01*
X14251324Y-13700174D02*
X14260848Y-13719222D01*
X14260848Y-13719222D02*
X14260848Y-13823984D01*
X14356086Y-13823984D02*
X14356086Y-13690650D01*
X14356086Y-13709698D02*
X14365610Y-13700174D01*
X14365610Y-13700174D02*
X14384658Y-13690650D01*
X14384658Y-13690650D02*
X14413229Y-13690650D01*
X14413229Y-13690650D02*
X14432277Y-13700174D01*
X14432277Y-13700174D02*
X14441801Y-13719222D01*
X14441801Y-13719222D02*
X14441801Y-13823984D01*
X14441801Y-13719222D02*
X14451324Y-13700174D01*
X14451324Y-13700174D02*
X14470372Y-13690650D01*
X14470372Y-13690650D02*
X14498943Y-13690650D01*
X14498943Y-13690650D02*
X14517991Y-13700174D01*
X14517991Y-13700174D02*
X14527515Y-13719222D01*
X14527515Y-13719222D02*
X14527515Y-13823984D01*
X14917991Y-13614460D02*
X14746563Y-13871603D01*
X15175134Y-13623984D02*
X15194182Y-13623984D01*
X15194182Y-13623984D02*
X15213229Y-13633508D01*
X15213229Y-13633508D02*
X15222753Y-13643031D01*
X15222753Y-13643031D02*
X15232277Y-13662079D01*
X15232277Y-13662079D02*
X15241801Y-13700174D01*
X15241801Y-13700174D02*
X15241801Y-13747793D01*
X15241801Y-13747793D02*
X15232277Y-13785888D01*
X15232277Y-13785888D02*
X15222753Y-13804936D01*
X15222753Y-13804936D02*
X15213229Y-13814460D01*
X15213229Y-13814460D02*
X15194182Y-13823984D01*
X15194182Y-13823984D02*
X15175134Y-13823984D01*
X15175134Y-13823984D02*
X15156086Y-13814460D01*
X15156086Y-13814460D02*
X15146563Y-13804936D01*
X15146563Y-13804936D02*
X15137039Y-13785888D01*
X15137039Y-13785888D02*
X15127515Y-13747793D01*
X15127515Y-13747793D02*
X15127515Y-13700174D01*
X15127515Y-13700174D02*
X15137039Y-13662079D01*
X15137039Y-13662079D02*
X15146563Y-13643031D01*
X15146563Y-13643031D02*
X15156086Y-13633508D01*
X15156086Y-13633508D02*
X15175134Y-13623984D01*
X15327515Y-13804936D02*
X15337039Y-13814460D01*
X15337039Y-13814460D02*
X15327515Y-13823984D01*
X15327515Y-13823984D02*
X15317991Y-13814460D01*
X15317991Y-13814460D02*
X15327515Y-13804936D01*
X15327515Y-13804936D02*
X15327515Y-13823984D01*
X15460848Y-13623984D02*
X15479896Y-13623984D01*
X15479896Y-13623984D02*
X15498944Y-13633508D01*
X15498944Y-13633508D02*
X15508467Y-13643031D01*
X15508467Y-13643031D02*
X15517991Y-13662079D01*
X15517991Y-13662079D02*
X15527515Y-13700174D01*
X15527515Y-13700174D02*
X15527515Y-13747793D01*
X15527515Y-13747793D02*
X15517991Y-13785888D01*
X15517991Y-13785888D02*
X15508467Y-13804936D01*
X15508467Y-13804936D02*
X15498944Y-13814460D01*
X15498944Y-13814460D02*
X15479896Y-13823984D01*
X15479896Y-13823984D02*
X15460848Y-13823984D01*
X15460848Y-13823984D02*
X15441801Y-13814460D01*
X15441801Y-13814460D02*
X15432277Y-13804936D01*
X15432277Y-13804936D02*
X15422753Y-13785888D01*
X15422753Y-13785888D02*
X15413229Y-13747793D01*
X15413229Y-13747793D02*
X15413229Y-13700174D01*
X15413229Y-13700174D02*
X15422753Y-13662079D01*
X15422753Y-13662079D02*
X15432277Y-13643031D01*
X15432277Y-13643031D02*
X15441801Y-13633508D01*
X15441801Y-13633508D02*
X15460848Y-13623984D01*
X15708467Y-13623984D02*
X15613229Y-13623984D01*
X15613229Y-13623984D02*
X15603706Y-13719222D01*
X15603706Y-13719222D02*
X15613229Y-13709698D01*
X15613229Y-13709698D02*
X15632277Y-13700174D01*
X15632277Y-13700174D02*
X15679896Y-13700174D01*
X15679896Y-13700174D02*
X15698944Y-13709698D01*
X15698944Y-13709698D02*
X15708467Y-13719222D01*
X15708467Y-13719222D02*
X15717991Y-13738269D01*
X15717991Y-13738269D02*
X15717991Y-13785888D01*
X15717991Y-13785888D02*
X15708467Y-13804936D01*
X15708467Y-13804936D02*
X15698944Y-13814460D01*
X15698944Y-13814460D02*
X15679896Y-13823984D01*
X15679896Y-13823984D02*
X15632277Y-13823984D01*
X15632277Y-13823984D02*
X15613229Y-13814460D01*
X15613229Y-13814460D02*
X15603706Y-13804936D01*
X15908467Y-13823984D02*
X15794182Y-13823984D01*
X15851325Y-13823984D02*
X15851325Y-13623984D01*
X15851325Y-13623984D02*
X15832277Y-13652555D01*
X15832277Y-13652555D02*
X15813229Y-13671603D01*
X15813229Y-13671603D02*
X15794182Y-13681127D01*
X15984658Y-13643031D02*
X15994182Y-13633508D01*
X15994182Y-13633508D02*
X16013229Y-13623984D01*
X16013229Y-13623984D02*
X16060848Y-13623984D01*
X16060848Y-13623984D02*
X16079896Y-13633508D01*
X16079896Y-13633508D02*
X16089420Y-13643031D01*
X16089420Y-13643031D02*
X16098944Y-13662079D01*
X16098944Y-13662079D02*
X16098944Y-13681127D01*
X16098944Y-13681127D02*
X16089420Y-13709698D01*
X16089420Y-13709698D02*
X15975134Y-13823984D01*
X15975134Y-13823984D02*
X16098944Y-13823984D01*
X16175134Y-13623984D02*
X16175134Y-13662079D01*
X16251325Y-13623984D02*
X16251325Y-13662079D01*
X16546563Y-13900174D02*
X16537039Y-13890650D01*
X16537039Y-13890650D02*
X16517991Y-13862079D01*
X16517991Y-13862079D02*
X16508468Y-13843031D01*
X16508468Y-13843031D02*
X16498944Y-13814460D01*
X16498944Y-13814460D02*
X16489420Y-13766841D01*
X16489420Y-13766841D02*
X16489420Y-13728746D01*
X16489420Y-13728746D02*
X16498944Y-13681127D01*
X16498944Y-13681127D02*
X16508468Y-13652555D01*
X16508468Y-13652555D02*
X16517991Y-13633508D01*
X16517991Y-13633508D02*
X16537039Y-13604936D01*
X16537039Y-13604936D02*
X16546563Y-13595412D01*
X16727515Y-13823984D02*
X16613229Y-13823984D01*
X16670372Y-13823984D02*
X16670372Y-13623984D01*
X16670372Y-13623984D02*
X16651325Y-13652555D01*
X16651325Y-13652555D02*
X16632277Y-13671603D01*
X16632277Y-13671603D02*
X16613229Y-13681127D01*
X16851325Y-13623984D02*
X16870372Y-13623984D01*
X16870372Y-13623984D02*
X16889420Y-13633508D01*
X16889420Y-13633508D02*
X16898944Y-13643031D01*
X16898944Y-13643031D02*
X16908468Y-13662079D01*
X16908468Y-13662079D02*
X16917991Y-13700174D01*
X16917991Y-13700174D02*
X16917991Y-13747793D01*
X16917991Y-13747793D02*
X16908468Y-13785888D01*
X16908468Y-13785888D02*
X16898944Y-13804936D01*
X16898944Y-13804936D02*
X16889420Y-13814460D01*
X16889420Y-13814460D02*
X16870372Y-13823984D01*
X16870372Y-13823984D02*
X16851325Y-13823984D01*
X16851325Y-13823984D02*
X16832277Y-13814460D01*
X16832277Y-13814460D02*
X16822753Y-13804936D01*
X16822753Y-13804936D02*
X16813230Y-13785888D01*
X16813230Y-13785888D02*
X16803706Y-13747793D01*
X16803706Y-13747793D02*
X16803706Y-13700174D01*
X16803706Y-13700174D02*
X16813230Y-13662079D01*
X16813230Y-13662079D02*
X16822753Y-13643031D01*
X16822753Y-13643031D02*
X16832277Y-13633508D01*
X16832277Y-13633508D02*
X16851325Y-13623984D01*
X17156087Y-13823984D02*
X17156087Y-13623984D01*
X17241801Y-13823984D02*
X17241801Y-13719222D01*
X17241801Y-13719222D02*
X17232277Y-13700174D01*
X17232277Y-13700174D02*
X17213230Y-13690650D01*
X17213230Y-13690650D02*
X17184658Y-13690650D01*
X17184658Y-13690650D02*
X17165611Y-13700174D01*
X17165611Y-13700174D02*
X17156087Y-13709698D01*
X17365611Y-13823984D02*
X17346563Y-13814460D01*
X17346563Y-13814460D02*
X17337039Y-13804936D01*
X17337039Y-13804936D02*
X17327515Y-13785888D01*
X17327515Y-13785888D02*
X17327515Y-13728746D01*
X17327515Y-13728746D02*
X17337039Y-13709698D01*
X17337039Y-13709698D02*
X17346563Y-13700174D01*
X17346563Y-13700174D02*
X17365611Y-13690650D01*
X17365611Y-13690650D02*
X17394182Y-13690650D01*
X17394182Y-13690650D02*
X17413230Y-13700174D01*
X17413230Y-13700174D02*
X17422753Y-13709698D01*
X17422753Y-13709698D02*
X17432277Y-13728746D01*
X17432277Y-13728746D02*
X17432277Y-13785888D01*
X17432277Y-13785888D02*
X17422753Y-13804936D01*
X17422753Y-13804936D02*
X17413230Y-13814460D01*
X17413230Y-13814460D02*
X17394182Y-13823984D01*
X17394182Y-13823984D02*
X17365611Y-13823984D01*
X17546563Y-13823984D02*
X17527515Y-13814460D01*
X17527515Y-13814460D02*
X17517992Y-13795412D01*
X17517992Y-13795412D02*
X17517992Y-13623984D01*
X17698944Y-13814460D02*
X17679896Y-13823984D01*
X17679896Y-13823984D02*
X17641801Y-13823984D01*
X17641801Y-13823984D02*
X17622753Y-13814460D01*
X17622753Y-13814460D02*
X17613230Y-13795412D01*
X17613230Y-13795412D02*
X17613230Y-13719222D01*
X17613230Y-13719222D02*
X17622753Y-13700174D01*
X17622753Y-13700174D02*
X17641801Y-13690650D01*
X17641801Y-13690650D02*
X17679896Y-13690650D01*
X17679896Y-13690650D02*
X17698944Y-13700174D01*
X17698944Y-13700174D02*
X17708468Y-13719222D01*
X17708468Y-13719222D02*
X17708468Y-13738269D01*
X17708468Y-13738269D02*
X17613230Y-13757317D01*
X17784658Y-13814460D02*
X17803706Y-13823984D01*
X17803706Y-13823984D02*
X17841801Y-13823984D01*
X17841801Y-13823984D02*
X17860849Y-13814460D01*
X17860849Y-13814460D02*
X17870373Y-13795412D01*
X17870373Y-13795412D02*
X17870373Y-13785888D01*
X17870373Y-13785888D02*
X17860849Y-13766841D01*
X17860849Y-13766841D02*
X17841801Y-13757317D01*
X17841801Y-13757317D02*
X17813230Y-13757317D01*
X17813230Y-13757317D02*
X17794182Y-13747793D01*
X17794182Y-13747793D02*
X17784658Y-13728746D01*
X17784658Y-13728746D02*
X17784658Y-13719222D01*
X17784658Y-13719222D02*
X17794182Y-13700174D01*
X17794182Y-13700174D02*
X17813230Y-13690650D01*
X17813230Y-13690650D02*
X17841801Y-13690650D01*
X17841801Y-13690650D02*
X17860849Y-13700174D01*
X17937039Y-13900174D02*
X17946563Y-13890650D01*
X17946563Y-13890650D02*
X17965611Y-13862079D01*
X17965611Y-13862079D02*
X17975134Y-13843031D01*
X17975134Y-13843031D02*
X17984658Y-13814460D01*
X17984658Y-13814460D02*
X17994182Y-13766841D01*
X17994182Y-13766841D02*
X17994182Y-13728746D01*
X17994182Y-13728746D02*
X17984658Y-13681127D01*
X17984658Y-13681127D02*
X17975134Y-13652555D01*
X17975134Y-13652555D02*
X17965611Y-13633508D01*
X17965611Y-13633508D02*
X17946563Y-13604936D01*
X17946563Y-13604936D02*
X17937039Y-13595412D01*
M02*
