%TF.GenerationSoftware,KiCad,Pcbnew,8.0.8*%
%TF.CreationDate,2025-03-04T16:09:32+01:00*%
%TF.ProjectId,PCB Symphonie,50434220-5379-46d7-9068-6f6e69652e6b,rev?*%
%TF.SameCoordinates,Original*%
%TF.FileFunction,Legend,Bot*%
%TF.FilePolarity,Positive*%
%FSLAX46Y46*%
G04 Gerber Fmt 4.6, Leading zero omitted, Abs format (unit mm)*
G04 Created by KiCad (PCBNEW 8.0.8) date 2025-03-04 16:09:32*
%MOMM*%
%LPD*%
G01*
G04 APERTURE LIST*
%ADD10C,0.100000*%
G04 APERTURE END LIST*
D10*
X247774782Y-113054665D02*
X248108115Y-113054665D01*
X248108115Y-113578475D02*
X248108115Y-112578475D01*
X248108115Y-112578475D02*
X247631925Y-112578475D01*
X247298591Y-113292760D02*
X246822401Y-113292760D01*
X247393829Y-113578475D02*
X247060496Y-112578475D01*
X247060496Y-112578475D02*
X246727163Y-113578475D01*
X245631924Y-113054665D02*
X245298591Y-113054665D01*
X245155734Y-113578475D02*
X245631924Y-113578475D01*
X245631924Y-113578475D02*
X245631924Y-112578475D01*
X245631924Y-112578475D02*
X245155734Y-112578475D01*
X244774781Y-113530856D02*
X244631924Y-113578475D01*
X244631924Y-113578475D02*
X244393829Y-113578475D01*
X244393829Y-113578475D02*
X244298591Y-113530856D01*
X244298591Y-113530856D02*
X244250972Y-113483236D01*
X244250972Y-113483236D02*
X244203353Y-113387998D01*
X244203353Y-113387998D02*
X244203353Y-113292760D01*
X244203353Y-113292760D02*
X244250972Y-113197522D01*
X244250972Y-113197522D02*
X244298591Y-113149903D01*
X244298591Y-113149903D02*
X244393829Y-113102284D01*
X244393829Y-113102284D02*
X244584305Y-113054665D01*
X244584305Y-113054665D02*
X244679543Y-113007046D01*
X244679543Y-113007046D02*
X244727162Y-112959427D01*
X244727162Y-112959427D02*
X244774781Y-112864189D01*
X244774781Y-112864189D02*
X244774781Y-112768951D01*
X244774781Y-112768951D02*
X244727162Y-112673713D01*
X244727162Y-112673713D02*
X244679543Y-112626094D01*
X244679543Y-112626094D02*
X244584305Y-112578475D01*
X244584305Y-112578475D02*
X244346210Y-112578475D01*
X244346210Y-112578475D02*
X244203353Y-112626094D01*
X243774781Y-113054665D02*
X243441448Y-113054665D01*
X243298591Y-113578475D02*
X243774781Y-113578475D01*
X243774781Y-113578475D02*
X243774781Y-112578475D01*
X243774781Y-112578475D02*
X243298591Y-112578475D01*
X242155733Y-112673713D02*
X242108114Y-112626094D01*
X242108114Y-112626094D02*
X242012876Y-112578475D01*
X242012876Y-112578475D02*
X241774781Y-112578475D01*
X241774781Y-112578475D02*
X241679543Y-112626094D01*
X241679543Y-112626094D02*
X241631924Y-112673713D01*
X241631924Y-112673713D02*
X241584305Y-112768951D01*
X241584305Y-112768951D02*
X241584305Y-112864189D01*
X241584305Y-112864189D02*
X241631924Y-113007046D01*
X241631924Y-113007046D02*
X242203352Y-113578475D01*
X242203352Y-113578475D02*
X241584305Y-113578475D01*
X240965257Y-112578475D02*
X240870019Y-112578475D01*
X240870019Y-112578475D02*
X240774781Y-112626094D01*
X240774781Y-112626094D02*
X240727162Y-112673713D01*
X240727162Y-112673713D02*
X240679543Y-112768951D01*
X240679543Y-112768951D02*
X240631924Y-112959427D01*
X240631924Y-112959427D02*
X240631924Y-113197522D01*
X240631924Y-113197522D02*
X240679543Y-113387998D01*
X240679543Y-113387998D02*
X240727162Y-113483236D01*
X240727162Y-113483236D02*
X240774781Y-113530856D01*
X240774781Y-113530856D02*
X240870019Y-113578475D01*
X240870019Y-113578475D02*
X240965257Y-113578475D01*
X240965257Y-113578475D02*
X241060495Y-113530856D01*
X241060495Y-113530856D02*
X241108114Y-113483236D01*
X241108114Y-113483236D02*
X241155733Y-113387998D01*
X241155733Y-113387998D02*
X241203352Y-113197522D01*
X241203352Y-113197522D02*
X241203352Y-112959427D01*
X241203352Y-112959427D02*
X241155733Y-112768951D01*
X241155733Y-112768951D02*
X241108114Y-112673713D01*
X241108114Y-112673713D02*
X241060495Y-112626094D01*
X241060495Y-112626094D02*
X240965257Y-112578475D01*
X240250971Y-112673713D02*
X240203352Y-112626094D01*
X240203352Y-112626094D02*
X240108114Y-112578475D01*
X240108114Y-112578475D02*
X239870019Y-112578475D01*
X239870019Y-112578475D02*
X239774781Y-112626094D01*
X239774781Y-112626094D02*
X239727162Y-112673713D01*
X239727162Y-112673713D02*
X239679543Y-112768951D01*
X239679543Y-112768951D02*
X239679543Y-112864189D01*
X239679543Y-112864189D02*
X239727162Y-113007046D01*
X239727162Y-113007046D02*
X240298590Y-113578475D01*
X240298590Y-113578475D02*
X239679543Y-113578475D01*
X238774781Y-112578475D02*
X239250971Y-112578475D01*
X239250971Y-112578475D02*
X239298590Y-113054665D01*
X239298590Y-113054665D02*
X239250971Y-113007046D01*
X239250971Y-113007046D02*
X239155733Y-112959427D01*
X239155733Y-112959427D02*
X238917638Y-112959427D01*
X238917638Y-112959427D02*
X238822400Y-113007046D01*
X238822400Y-113007046D02*
X238774781Y-113054665D01*
X238774781Y-113054665D02*
X238727162Y-113149903D01*
X238727162Y-113149903D02*
X238727162Y-113387998D01*
X238727162Y-113387998D02*
X238774781Y-113483236D01*
X238774781Y-113483236D02*
X238822400Y-113530856D01*
X238822400Y-113530856D02*
X238917638Y-113578475D01*
X238917638Y-113578475D02*
X239155733Y-113578475D01*
X239155733Y-113578475D02*
X239250971Y-113530856D01*
X239250971Y-113530856D02*
X239298590Y-113483236D01*
X248108115Y-115188419D02*
X248108115Y-114188419D01*
X247536687Y-115188419D02*
X247965258Y-114616990D01*
X247536687Y-114188419D02*
X248108115Y-114759847D01*
X247155734Y-114902704D02*
X246679544Y-114902704D01*
X247250972Y-115188419D02*
X246917639Y-114188419D01*
X246917639Y-114188419D02*
X246584306Y-115188419D01*
X246250972Y-115188419D02*
X246250972Y-114188419D01*
X246250972Y-114188419D02*
X245679544Y-115188419D01*
X245679544Y-115188419D02*
X245679544Y-114188419D01*
X245203353Y-114664609D02*
X244870020Y-114664609D01*
X244727163Y-115188419D02*
X245203353Y-115188419D01*
X245203353Y-115188419D02*
X245203353Y-114188419D01*
X245203353Y-114188419D02*
X244727163Y-114188419D01*
X243536686Y-115188419D02*
X243536686Y-114188419D01*
X242965258Y-115188419D02*
X243393829Y-114616990D01*
X242965258Y-114188419D02*
X243536686Y-114759847D01*
X242584305Y-114902704D02*
X242108115Y-114902704D01*
X242679543Y-115188419D02*
X242346210Y-114188419D01*
X242346210Y-114188419D02*
X242012877Y-115188419D01*
X241679543Y-115188419D02*
X241679543Y-114188419D01*
X241679543Y-114188419D02*
X241108115Y-115188419D01*
X241108115Y-115188419D02*
X241108115Y-114188419D01*
X240631924Y-115188419D02*
X240631924Y-114188419D01*
X240203353Y-114902704D02*
X239727163Y-114902704D01*
X240298591Y-115188419D02*
X239965258Y-114188419D01*
X239965258Y-114188419D02*
X239631925Y-115188419D01*
X238536686Y-115188419D02*
X238536686Y-114188419D01*
X238536686Y-114188419D02*
X238203353Y-114902704D01*
X238203353Y-114902704D02*
X237870020Y-114188419D01*
X237870020Y-114188419D02*
X237870020Y-115188419D01*
X237441448Y-114902704D02*
X236965258Y-114902704D01*
X237536686Y-115188419D02*
X237203353Y-114188419D01*
X237203353Y-114188419D02*
X236870020Y-115188419D01*
X235965258Y-115188419D02*
X236298591Y-114712228D01*
X236536686Y-115188419D02*
X236536686Y-114188419D01*
X236536686Y-114188419D02*
X236155734Y-114188419D01*
X236155734Y-114188419D02*
X236060496Y-114236038D01*
X236060496Y-114236038D02*
X236012877Y-114283657D01*
X236012877Y-114283657D02*
X235965258Y-114378895D01*
X235965258Y-114378895D02*
X235965258Y-114521752D01*
X235965258Y-114521752D02*
X236012877Y-114616990D01*
X236012877Y-114616990D02*
X236060496Y-114664609D01*
X236060496Y-114664609D02*
X236155734Y-114712228D01*
X236155734Y-114712228D02*
X236536686Y-114712228D01*
X235679543Y-114188419D02*
X235108115Y-114188419D01*
X235393829Y-115188419D02*
X235393829Y-114188419D01*
X234774781Y-115188419D02*
X234774781Y-114188419D01*
X234298591Y-115188419D02*
X234298591Y-114188419D01*
X234298591Y-114188419D02*
X233727163Y-115188419D01*
X233727163Y-115188419D02*
X233727163Y-114188419D01*
M02*
