%TF.GenerationSoftware,KiCad,Pcbnew,8.0.8*%
%TF.CreationDate,2025-04-04T11:38:52+02:00*%
%TF.ProjectId,Mise a niveau signal,4d697365-2061-4206-9e69-766561752073,rev?*%
%TF.SameCoordinates,Original*%
%TF.FileFunction,Copper,L2,Bot*%
%TF.FilePolarity,Positive*%
%FSLAX46Y46*%
G04 Gerber Fmt 4.6, Leading zero omitted, Abs format (unit mm)*
G04 Created by KiCad (PCBNEW 8.0.8) date 2025-04-04 11:38:52*
%MOMM*%
%LPD*%
G01*
G04 APERTURE LIST*
G04 Aperture macros list*
%AMRoundRect*
0 Rectangle with rounded corners*
0 $1 Rounding radius*
0 $2 $3 $4 $5 $6 $7 $8 $9 X,Y pos of 4 corners*
0 Add a 4 corners polygon primitive as box body*
4,1,4,$2,$3,$4,$5,$6,$7,$8,$9,$2,$3,0*
0 Add four circle primitives for the rounded corners*
1,1,$1+$1,$2,$3*
1,1,$1+$1,$4,$5*
1,1,$1+$1,$6,$7*
1,1,$1+$1,$8,$9*
0 Add four rect primitives between the rounded corners*
20,1,$1+$1,$2,$3,$4,$5,0*
20,1,$1+$1,$4,$5,$6,$7,0*
20,1,$1+$1,$6,$7,$8,$9,0*
20,1,$1+$1,$8,$9,$2,$3,0*%
G04 Aperture macros list end*
%TA.AperFunction,ComponentPad*%
%ADD10RoundRect,0.250001X-1.149999X-1.149999X1.149999X-1.149999X1.149999X1.149999X-1.149999X1.149999X0*%
%TD*%
%TA.AperFunction,ComponentPad*%
%ADD11C,2.800000*%
%TD*%
%TA.AperFunction,ComponentPad*%
%ADD12R,1.600000X1.600000*%
%TD*%
%TA.AperFunction,ComponentPad*%
%ADD13O,1.600000X1.600000*%
%TD*%
%TA.AperFunction,ComponentPad*%
%ADD14C,1.600000*%
%TD*%
%TA.AperFunction,ComponentPad*%
%ADD15RoundRect,0.250001X1.149999X-1.149999X1.149999X1.149999X-1.149999X1.149999X-1.149999X-1.149999X0*%
%TD*%
%TA.AperFunction,Conductor*%
%ADD16C,1.000000*%
%TD*%
%TA.AperFunction,Conductor*%
%ADD17C,0.200000*%
%TD*%
G04 APERTURE END LIST*
D10*
%TO.P,J3,1,Pin_1*%
%TO.N,Earth*%
X119866400Y-50647600D03*
D11*
%TO.P,J3,2,Pin_2*%
%TO.N,Net-(J3-Pin_2)*%
X124866400Y-50647600D03*
%TD*%
D12*
%TO.P,U2,1,NULL*%
%TO.N,unconnected-(U2-NULL-Pad1)*%
X108180000Y-63180000D03*
D13*
%TO.P,U2,2,-*%
%TO.N,Net-(U2--)*%
X108180000Y-65720000D03*
%TO.P,U2,3,+*%
%TO.N,Net-(U2-+)*%
X108180000Y-68260000D03*
%TO.P,U2,4,V-*%
%TO.N,-5V*%
X108180000Y-70800000D03*
%TO.P,U2,5,NULL*%
%TO.N,unconnected-(U2-NULL-Pad5)*%
X115800000Y-70800000D03*
%TO.P,U2,6*%
%TO.N,Net-(U2--)*%
X115800000Y-68260000D03*
%TO.P,U2,7,V+*%
%TO.N,+5V*%
X115800000Y-65720000D03*
%TO.P,U2,8,NC*%
%TO.N,unconnected-(U2-NC-Pad8)*%
X115800000Y-63180000D03*
%TD*%
D14*
%TO.P,R3,1*%
%TO.N,Earth*%
X132020000Y-67860000D03*
D13*
%TO.P,R3,2*%
%TO.N,Net-(J3-Pin_2)*%
X132020000Y-60240000D03*
%TD*%
D14*
%TO.P,C1,1*%
%TO.N,Net-(U2--)*%
X121590000Y-63370000D03*
%TO.P,C1,2*%
%TO.N,Net-(J3-Pin_2)*%
X126590000Y-63370000D03*
%TD*%
D11*
%TO.P,J4,2,Pin_2*%
%TO.N,-5V*%
X84020000Y-50420000D03*
D10*
%TO.P,J4,1,Pin_1*%
%TO.N,Earth*%
X79020000Y-50420000D03*
%TD*%
D14*
%TO.P,R1,1*%
%TO.N,Net-(U1--)*%
X85598000Y-63246000D03*
D13*
%TO.P,R1,2*%
%TO.N,Net-(J1-Pin_2)*%
X77978000Y-63246000D03*
%TD*%
D12*
%TO.P,U1,1,NULL*%
%TO.N,unconnected-(U1-NULL-Pad1)*%
X90678000Y-62738000D03*
D13*
%TO.P,U1,2,-*%
%TO.N,Net-(U1--)*%
X90678000Y-65278000D03*
%TO.P,U1,3,+*%
%TO.N,Earth*%
X90678000Y-67818000D03*
%TO.P,U1,4,V-*%
%TO.N,-5V*%
X90678000Y-70358000D03*
%TO.P,U1,5,NULL*%
%TO.N,unconnected-(U1-NULL-Pad5)*%
X98298000Y-70358000D03*
%TO.P,U1,6*%
%TO.N,Net-(U2-+)*%
X98298000Y-67818000D03*
%TO.P,U1,7,V+*%
%TO.N,+5V*%
X98298000Y-65278000D03*
%TO.P,U1,8,NC*%
%TO.N,unconnected-(U1-NC-Pad8)*%
X98298000Y-62738000D03*
%TD*%
D10*
%TO.P,J2,1,Pin_1*%
%TO.N,Earth*%
X107014000Y-50546000D03*
D11*
%TO.P,J2,2,Pin_2*%
%TO.N,+5V*%
X112014000Y-50546000D03*
%TD*%
D15*
%TO.P,J1,1,Pin_1*%
%TO.N,Earth*%
X69596000Y-64008000D03*
D11*
%TO.P,J1,2,Pin_2*%
%TO.N,Net-(J1-Pin_2)*%
X69596000Y-59008000D03*
%TD*%
D14*
%TO.P,R2,1*%
%TO.N,Net-(U1--)*%
X90424000Y-57150000D03*
D13*
%TO.P,R2,2*%
%TO.N,Net-(U2-+)*%
X98044000Y-57150000D03*
%TD*%
D16*
%TO.N,Net-(U2--)*%
X121590000Y-66573200D02*
X121590000Y-63370000D01*
X119903200Y-68260000D02*
X121590000Y-66573200D01*
X115800000Y-68260000D02*
X119903200Y-68260000D01*
%TO.N,Net-(J3-Pin_2)*%
X128261200Y-60240000D02*
X132020000Y-60240000D01*
X124866400Y-56845200D02*
X128261200Y-60240000D01*
X124866400Y-50647600D02*
X124866400Y-56845200D01*
%TO.N,-5V*%
X97580000Y-50420000D02*
X89536000Y-50420000D01*
X104090000Y-56930000D02*
X97580000Y-50420000D01*
X108180000Y-70800000D02*
X104090000Y-66710000D01*
X104090000Y-66710000D02*
X104090000Y-56930000D01*
X89536000Y-50420000D02*
X93472000Y-54356000D01*
X84020000Y-50420000D02*
X89536000Y-50420000D01*
%TO.N,Net-(U2-+)*%
X111710000Y-71860000D02*
X110130000Y-73440000D01*
X103920000Y-73440000D02*
X98298000Y-67818000D01*
X111710000Y-69710000D02*
X111710000Y-71860000D01*
X110260000Y-68260000D02*
X111710000Y-69710000D01*
X108180000Y-68260000D02*
X110260000Y-68260000D01*
X110130000Y-73440000D02*
X103920000Y-73440000D01*
%TO.N,Net-(U1--)*%
X87450000Y-57150000D02*
X90424000Y-57150000D01*
X85598000Y-59002000D02*
X87450000Y-57150000D01*
X85598000Y-63246000D02*
X85598000Y-59002000D01*
%TO.N,Net-(U2-+)*%
X102010000Y-66120000D02*
X100312000Y-67818000D01*
X100312000Y-67818000D02*
X98298000Y-67818000D01*
X102010000Y-59480000D02*
X102010000Y-66120000D01*
X99680000Y-57150000D02*
X102010000Y-59480000D01*
X98044000Y-57150000D02*
X99680000Y-57150000D01*
%TO.N,Net-(U1--)*%
X87630000Y-65278000D02*
X90678000Y-65278000D01*
X85598000Y-63246000D02*
X87630000Y-65278000D01*
%TO.N,+5V*%
X95590000Y-67986000D02*
X98298000Y-65278000D01*
X98330000Y-75440000D02*
X95590000Y-72700000D01*
X120000000Y-75440000D02*
X98330000Y-75440000D01*
X121880000Y-57940000D02*
X124620000Y-60680000D01*
X95590000Y-72700000D02*
X95590000Y-67986000D01*
X115150000Y-57940000D02*
X121880000Y-57940000D01*
X124620000Y-70820000D02*
X120000000Y-75440000D01*
X112014000Y-54804000D02*
X115150000Y-57940000D01*
X112014000Y-50546000D02*
X112014000Y-54804000D01*
X124620000Y-60680000D02*
X124620000Y-70820000D01*
%TO.N,Net-(J3-Pin_2)*%
X128890000Y-63370000D02*
X132020000Y-60240000D01*
X126590000Y-63370000D02*
X128890000Y-63370000D01*
%TO.N,Net-(U2--)*%
X110290000Y-65720000D02*
X112830000Y-68260000D01*
X108180000Y-65720000D02*
X110290000Y-65720000D01*
X112830000Y-68260000D02*
X115800000Y-68260000D01*
%TO.N,+5V*%
X112014000Y-61934000D02*
X115800000Y-65720000D01*
X112014000Y-50546000D02*
X112014000Y-61934000D01*
%TO.N,Net-(J1-Pin_2)*%
X69596000Y-59008000D02*
X73740000Y-59008000D01*
D17*
X77898000Y-63326000D02*
X77978000Y-63246000D01*
D16*
X73740000Y-59008000D02*
X77978000Y-63246000D01*
%TO.N,-5V*%
X93472000Y-67564000D02*
X90678000Y-70358000D01*
X93472000Y-54356000D02*
X93472000Y-67564000D01*
%TD*%
%TA.AperFunction,Conductor*%
%TO.N,Earth*%
G36*
X136034539Y-44462185D02*
G01*
X136080294Y-44514989D01*
X136091500Y-44566500D01*
X136091500Y-76683500D01*
X136071815Y-76750539D01*
X136019011Y-76796294D01*
X135967500Y-76807500D01*
X64378500Y-76807500D01*
X64311461Y-76787815D01*
X64265706Y-76735011D01*
X64254500Y-76683500D01*
X64254500Y-73285594D01*
X65312556Y-73285594D01*
X65312556Y-73285605D01*
X65332310Y-73599604D01*
X65332311Y-73599611D01*
X65391270Y-73908683D01*
X65488497Y-74207916D01*
X65488499Y-74207921D01*
X65622461Y-74492603D01*
X65622464Y-74492609D01*
X65791051Y-74758261D01*
X65791054Y-74758265D01*
X65991606Y-75000690D01*
X65991608Y-75000692D01*
X66220968Y-75216076D01*
X66220978Y-75216084D01*
X66475504Y-75401008D01*
X66475509Y-75401010D01*
X66475516Y-75401016D01*
X66751234Y-75552594D01*
X66751239Y-75552596D01*
X66751241Y-75552597D01*
X66751242Y-75552598D01*
X67043771Y-75668418D01*
X67043774Y-75668419D01*
X67348523Y-75746665D01*
X67348527Y-75746666D01*
X67414010Y-75754938D01*
X67660670Y-75786099D01*
X67660679Y-75786099D01*
X67660682Y-75786100D01*
X67660684Y-75786100D01*
X67975316Y-75786100D01*
X67975318Y-75786100D01*
X67975321Y-75786099D01*
X67975329Y-75786099D01*
X68161593Y-75762568D01*
X68287473Y-75746666D01*
X68592225Y-75668419D01*
X68592228Y-75668418D01*
X68884757Y-75552598D01*
X68884758Y-75552597D01*
X68884756Y-75552597D01*
X68884766Y-75552594D01*
X69160484Y-75401016D01*
X69415030Y-75216078D01*
X69644390Y-75000694D01*
X69844947Y-74758263D01*
X70013537Y-74492607D01*
X70147503Y-74207915D01*
X70244731Y-73908679D01*
X70303688Y-73599615D01*
X70307916Y-73532410D01*
X70323444Y-73285605D01*
X70323444Y-73285594D01*
X70303689Y-72971595D01*
X70303688Y-72971588D01*
X70303688Y-72971585D01*
X70244731Y-72662521D01*
X70147503Y-72363285D01*
X70133678Y-72333906D01*
X70026183Y-72105468D01*
X70013537Y-72078593D01*
X69844947Y-71812937D01*
X69844945Y-71812934D01*
X69644393Y-71570509D01*
X69644391Y-71570507D01*
X69415031Y-71355123D01*
X69415021Y-71355115D01*
X69160495Y-71170191D01*
X69160488Y-71170186D01*
X69160484Y-71170184D01*
X68884766Y-71018606D01*
X68884763Y-71018604D01*
X68884758Y-71018602D01*
X68884757Y-71018601D01*
X68592228Y-70902781D01*
X68592225Y-70902780D01*
X68287476Y-70824534D01*
X68287463Y-70824532D01*
X67975329Y-70785100D01*
X67975318Y-70785100D01*
X67660682Y-70785100D01*
X67660670Y-70785100D01*
X67348536Y-70824532D01*
X67348523Y-70824534D01*
X67043774Y-70902780D01*
X67043771Y-70902781D01*
X66751242Y-71018601D01*
X66751241Y-71018602D01*
X66475516Y-71170184D01*
X66475504Y-71170191D01*
X66220978Y-71355115D01*
X66220968Y-71355123D01*
X65991608Y-71570507D01*
X65991606Y-71570509D01*
X65791054Y-71812934D01*
X65791051Y-71812938D01*
X65622464Y-72078590D01*
X65622461Y-72078596D01*
X65488499Y-72363278D01*
X65488497Y-72363283D01*
X65391270Y-72662516D01*
X65332311Y-72971588D01*
X65332310Y-72971595D01*
X65312556Y-73285594D01*
X64254500Y-73285594D01*
X64254500Y-62808014D01*
X67696000Y-62808014D01*
X67696000Y-63758000D01*
X68995999Y-63758000D01*
X68970979Y-63818402D01*
X68946000Y-63943981D01*
X68946000Y-64072019D01*
X68970979Y-64197598D01*
X68995999Y-64258000D01*
X67696000Y-64258000D01*
X67696000Y-65207985D01*
X67706493Y-65310689D01*
X67706494Y-65310696D01*
X67761641Y-65477118D01*
X67761643Y-65477123D01*
X67853684Y-65626344D01*
X67977655Y-65750315D01*
X68126876Y-65842356D01*
X68126881Y-65842358D01*
X68293303Y-65897505D01*
X68293310Y-65897506D01*
X68396014Y-65907999D01*
X68396027Y-65908000D01*
X69346000Y-65908000D01*
X69346000Y-64608001D01*
X69406402Y-64633021D01*
X69531981Y-64658000D01*
X69660019Y-64658000D01*
X69785598Y-64633021D01*
X69846000Y-64608001D01*
X69846000Y-65908000D01*
X70795973Y-65908000D01*
X70795985Y-65907999D01*
X70898689Y-65897506D01*
X70898696Y-65897505D01*
X71065118Y-65842358D01*
X71065123Y-65842356D01*
X71214344Y-65750315D01*
X71338315Y-65626344D01*
X71430356Y-65477123D01*
X71430358Y-65477118D01*
X71485505Y-65310696D01*
X71485506Y-65310689D01*
X71495999Y-65207985D01*
X71496000Y-65207972D01*
X71496000Y-64258000D01*
X70196001Y-64258000D01*
X70221021Y-64197598D01*
X70246000Y-64072019D01*
X70246000Y-63943981D01*
X70221021Y-63818402D01*
X70196001Y-63758000D01*
X71496000Y-63758000D01*
X71496000Y-62808027D01*
X71495999Y-62808014D01*
X71485506Y-62705310D01*
X71485505Y-62705303D01*
X71430358Y-62538881D01*
X71430356Y-62538876D01*
X71338315Y-62389655D01*
X71214344Y-62265684D01*
X71065123Y-62173643D01*
X71065118Y-62173641D01*
X70898696Y-62118494D01*
X70898689Y-62118493D01*
X70795985Y-62108000D01*
X69846000Y-62108000D01*
X69846000Y-63407998D01*
X69785598Y-63382979D01*
X69660019Y-63358000D01*
X69531981Y-63358000D01*
X69406402Y-63382979D01*
X69346000Y-63407998D01*
X69346000Y-62108000D01*
X68396014Y-62108000D01*
X68293310Y-62118493D01*
X68293303Y-62118494D01*
X68126881Y-62173641D01*
X68126876Y-62173643D01*
X67977655Y-62265684D01*
X67853684Y-62389655D01*
X67761643Y-62538876D01*
X67761641Y-62538881D01*
X67706494Y-62705303D01*
X67706493Y-62705310D01*
X67696000Y-62808014D01*
X64254500Y-62808014D01*
X64254500Y-59007998D01*
X67690645Y-59007998D01*
X67690645Y-59008001D01*
X67710039Y-59279160D01*
X67710040Y-59279167D01*
X67767823Y-59544793D01*
X67767825Y-59544801D01*
X67844330Y-59749920D01*
X67862830Y-59799519D01*
X67993109Y-60038107D01*
X67993110Y-60038108D01*
X67993113Y-60038113D01*
X68156029Y-60255742D01*
X68156033Y-60255746D01*
X68156038Y-60255752D01*
X68348247Y-60447961D01*
X68348253Y-60447966D01*
X68348258Y-60447971D01*
X68565887Y-60610887D01*
X68565891Y-60610889D01*
X68565892Y-60610890D01*
X68804481Y-60741169D01*
X68804480Y-60741169D01*
X68804484Y-60741170D01*
X68804487Y-60741172D01*
X69059199Y-60836175D01*
X69324840Y-60893961D01*
X69576605Y-60911967D01*
X69595999Y-60913355D01*
X69596000Y-60913355D01*
X69596001Y-60913355D01*
X69614100Y-60912060D01*
X69867160Y-60893961D01*
X70132801Y-60836175D01*
X70387513Y-60741172D01*
X70387517Y-60741169D01*
X70387519Y-60741169D01*
X70506813Y-60676029D01*
X70626113Y-60610887D01*
X70843742Y-60447971D01*
X71035971Y-60255742D01*
X71183858Y-60058188D01*
X71239792Y-60016318D01*
X71283125Y-60008500D01*
X73274218Y-60008500D01*
X73341257Y-60028185D01*
X73361899Y-60044819D01*
X76651111Y-63334031D01*
X76684596Y-63395354D01*
X76686958Y-63410902D01*
X76692364Y-63472688D01*
X76692366Y-63472697D01*
X76751258Y-63692488D01*
X76751261Y-63692497D01*
X76847431Y-63898732D01*
X76847432Y-63898734D01*
X76977954Y-64085141D01*
X77138858Y-64246045D01*
X77138861Y-64246047D01*
X77325266Y-64376568D01*
X77531504Y-64472739D01*
X77531509Y-64472740D01*
X77531511Y-64472741D01*
X77584415Y-64486916D01*
X77751308Y-64531635D01*
X77913230Y-64545801D01*
X77977998Y-64551468D01*
X77978000Y-64551468D01*
X77978002Y-64551468D01*
X78034673Y-64546509D01*
X78204692Y-64531635D01*
X78424496Y-64472739D01*
X78630734Y-64376568D01*
X78817139Y-64246047D01*
X78978047Y-64085139D01*
X79108568Y-63898734D01*
X79204739Y-63692496D01*
X79263635Y-63472692D01*
X79283468Y-63246000D01*
X79263635Y-63019308D01*
X79204739Y-62799504D01*
X79108568Y-62593266D01*
X78978784Y-62407914D01*
X78978045Y-62406858D01*
X78817141Y-62245954D01*
X78630734Y-62115432D01*
X78630732Y-62115431D01*
X78424497Y-62019261D01*
X78424488Y-62019258D01*
X78204697Y-61960366D01*
X78204688Y-61960364D01*
X78142902Y-61954958D01*
X78077834Y-61929504D01*
X78066031Y-61919111D01*
X74521479Y-58374559D01*
X74521459Y-58374537D01*
X74377785Y-58230863D01*
X74377781Y-58230860D01*
X74213920Y-58121371D01*
X74213911Y-58121366D01*
X74130683Y-58086892D01*
X74085165Y-58068038D01*
X74058500Y-58056993D01*
X74031837Y-58045949D01*
X74031833Y-58045948D01*
X73921511Y-58024004D01*
X73838543Y-58007500D01*
X73838541Y-58007500D01*
X71283125Y-58007500D01*
X71216086Y-57987815D01*
X71183858Y-57957811D01*
X71067768Y-57802734D01*
X71035971Y-57760258D01*
X71035966Y-57760253D01*
X71035961Y-57760247D01*
X70843752Y-57568038D01*
X70843746Y-57568033D01*
X70843742Y-57568029D01*
X70626113Y-57405113D01*
X70626108Y-57405110D01*
X70626107Y-57405109D01*
X70387518Y-57274830D01*
X70387519Y-57274830D01*
X70337920Y-57256330D01*
X70132801Y-57179825D01*
X70132794Y-57179823D01*
X70132793Y-57179823D01*
X69867167Y-57122040D01*
X69867160Y-57122039D01*
X69596001Y-57102645D01*
X69595999Y-57102645D01*
X69324839Y-57122039D01*
X69324832Y-57122040D01*
X69059206Y-57179823D01*
X69059202Y-57179824D01*
X69059199Y-57179825D01*
X68953041Y-57219420D01*
X68804480Y-57274830D01*
X68565892Y-57405109D01*
X68565891Y-57405110D01*
X68348259Y-57568028D01*
X68348247Y-57568038D01*
X68156038Y-57760247D01*
X68156028Y-57760259D01*
X67993110Y-57977891D01*
X67993109Y-57977892D01*
X67862830Y-58216480D01*
X67838927Y-58280567D01*
X67767825Y-58471199D01*
X67767824Y-58471202D01*
X67767823Y-58471206D01*
X67710040Y-58736832D01*
X67710039Y-58736839D01*
X67690645Y-59007998D01*
X64254500Y-59007998D01*
X64254500Y-47973994D01*
X65331356Y-47973994D01*
X65331356Y-47974005D01*
X65351110Y-48288004D01*
X65351111Y-48288011D01*
X65351112Y-48288015D01*
X65409066Y-48591823D01*
X65410070Y-48597083D01*
X65507297Y-48896316D01*
X65507299Y-48896321D01*
X65641261Y-49181003D01*
X65641264Y-49181009D01*
X65809851Y-49446661D01*
X65809854Y-49446665D01*
X66010406Y-49689090D01*
X66010408Y-49689092D01*
X66239768Y-49904476D01*
X66239778Y-49904484D01*
X66494304Y-50089408D01*
X66494309Y-50089410D01*
X66494316Y-50089416D01*
X66770034Y-50240994D01*
X66770039Y-50240996D01*
X66770041Y-50240997D01*
X66770042Y-50240998D01*
X67062571Y-50356818D01*
X67062574Y-50356819D01*
X67308641Y-50419998D01*
X67367327Y-50435066D01*
X67432810Y-50443338D01*
X67679470Y-50474499D01*
X67679479Y-50474499D01*
X67679482Y-50474500D01*
X67679484Y-50474500D01*
X67994116Y-50474500D01*
X67994118Y-50474500D01*
X67994121Y-50474499D01*
X67994129Y-50474499D01*
X68180393Y-50450968D01*
X68306273Y-50435066D01*
X68611025Y-50356819D01*
X68611028Y-50356818D01*
X68903557Y-50240998D01*
X68903558Y-50240997D01*
X68903556Y-50240997D01*
X68903566Y-50240994D01*
X69179284Y-50089416D01*
X69433830Y-49904478D01*
X69663190Y-49689094D01*
X69863747Y-49446663D01*
X70007582Y-49220014D01*
X77120000Y-49220014D01*
X77120000Y-50170000D01*
X78419999Y-50170000D01*
X78394979Y-50230402D01*
X78370000Y-50355981D01*
X78370000Y-50484019D01*
X78394979Y-50609598D01*
X78419999Y-50670000D01*
X77120000Y-50670000D01*
X77120000Y-51619985D01*
X77130493Y-51722689D01*
X77130494Y-51722696D01*
X77185641Y-51889118D01*
X77185643Y-51889123D01*
X77277684Y-52038344D01*
X77401655Y-52162315D01*
X77550876Y-52254356D01*
X77550881Y-52254358D01*
X77717303Y-52309505D01*
X77717310Y-52309506D01*
X77820014Y-52319999D01*
X77820027Y-52320000D01*
X78770000Y-52320000D01*
X78770000Y-51020001D01*
X78830402Y-51045021D01*
X78955981Y-51070000D01*
X79084019Y-51070000D01*
X79209598Y-51045021D01*
X79270000Y-51020001D01*
X79270000Y-52320000D01*
X80219973Y-52320000D01*
X80219985Y-52319999D01*
X80322689Y-52309506D01*
X80322696Y-52309505D01*
X80489118Y-52254358D01*
X80489123Y-52254356D01*
X80638344Y-52162315D01*
X80762315Y-52038344D01*
X80854356Y-51889123D01*
X80854358Y-51889118D01*
X80909505Y-51722696D01*
X80909506Y-51722689D01*
X80919999Y-51619985D01*
X80920000Y-51619972D01*
X80920000Y-50670000D01*
X79620001Y-50670000D01*
X79645021Y-50609598D01*
X79670000Y-50484019D01*
X79670000Y-50419998D01*
X82114645Y-50419998D01*
X82114645Y-50420000D01*
X82134039Y-50691160D01*
X82134040Y-50691167D01*
X82183551Y-50918767D01*
X82191825Y-50956801D01*
X82264813Y-51152488D01*
X82286830Y-51211519D01*
X82417109Y-51450107D01*
X82417110Y-51450108D01*
X82417113Y-51450113D01*
X82580029Y-51667742D01*
X82580033Y-51667746D01*
X82580038Y-51667752D01*
X82772247Y-51859961D01*
X82772253Y-51859966D01*
X82772258Y-51859971D01*
X82989887Y-52022887D01*
X82989891Y-52022889D01*
X82989892Y-52022890D01*
X83228481Y-52153169D01*
X83228480Y-52153169D01*
X83228484Y-52153170D01*
X83228487Y-52153172D01*
X83483199Y-52248175D01*
X83748840Y-52305961D01*
X84000605Y-52323967D01*
X84019999Y-52325355D01*
X84020000Y-52325355D01*
X84020001Y-52325355D01*
X84038100Y-52324060D01*
X84291160Y-52305961D01*
X84556801Y-52248175D01*
X84811513Y-52153172D01*
X84811517Y-52153169D01*
X84811519Y-52153169D01*
X84931671Y-52087561D01*
X85050113Y-52022887D01*
X85267742Y-51859971D01*
X85459971Y-51667742D01*
X85607858Y-51470188D01*
X85663792Y-51428318D01*
X85707125Y-51420500D01*
X89070218Y-51420500D01*
X89137257Y-51440185D01*
X89157899Y-51456819D01*
X92435181Y-54734101D01*
X92468666Y-54795424D01*
X92471500Y-54821782D01*
X92471500Y-67098216D01*
X92451815Y-67165255D01*
X92435181Y-67185897D01*
X92129071Y-67492006D01*
X92067748Y-67525491D01*
X91998056Y-67520507D01*
X91942123Y-67478635D01*
X91921615Y-67436418D01*
X91904269Y-67371682D01*
X91904265Y-67371673D01*
X91808134Y-67165517D01*
X91677657Y-66979179D01*
X91516820Y-66818342D01*
X91330482Y-66687865D01*
X91272133Y-66660657D01*
X91219694Y-66614484D01*
X91200542Y-66547291D01*
X91220758Y-66480410D01*
X91272129Y-66435895D01*
X91330734Y-66408568D01*
X91517139Y-66278047D01*
X91678047Y-66117139D01*
X91808568Y-65930734D01*
X91904739Y-65724496D01*
X91963635Y-65504692D01*
X91983468Y-65278000D01*
X91983074Y-65273502D01*
X91972974Y-65158053D01*
X91963635Y-65051308D01*
X91905239Y-64833371D01*
X91904741Y-64831511D01*
X91904738Y-64831502D01*
X91880740Y-64780038D01*
X91808568Y-64625266D01*
X91678047Y-64438861D01*
X91678045Y-64438858D01*
X91517143Y-64277956D01*
X91492536Y-64260726D01*
X91448912Y-64206149D01*
X91441719Y-64136650D01*
X91473241Y-64074296D01*
X91533471Y-64038882D01*
X91550404Y-64035861D01*
X91585483Y-64032091D01*
X91720331Y-63981796D01*
X91835546Y-63895546D01*
X91921796Y-63780331D01*
X91972091Y-63645483D01*
X91978500Y-63585873D01*
X91978499Y-61890128D01*
X91972091Y-61830517D01*
X91937567Y-61737954D01*
X91921797Y-61695671D01*
X91921793Y-61695664D01*
X91835547Y-61580455D01*
X91835544Y-61580452D01*
X91720335Y-61494206D01*
X91720328Y-61494202D01*
X91585482Y-61443908D01*
X91585483Y-61443908D01*
X91525883Y-61437501D01*
X91525881Y-61437500D01*
X91525873Y-61437500D01*
X91525864Y-61437500D01*
X89830129Y-61437500D01*
X89830123Y-61437501D01*
X89770516Y-61443908D01*
X89635671Y-61494202D01*
X89635664Y-61494206D01*
X89520455Y-61580452D01*
X89520452Y-61580455D01*
X89434206Y-61695664D01*
X89434202Y-61695671D01*
X89383908Y-61830517D01*
X89377501Y-61890116D01*
X89377501Y-61890123D01*
X89377500Y-61890135D01*
X89377500Y-63585870D01*
X89377501Y-63585876D01*
X89383908Y-63645483D01*
X89434202Y-63780328D01*
X89434206Y-63780335D01*
X89520452Y-63895544D01*
X89520455Y-63895547D01*
X89635664Y-63981793D01*
X89635671Y-63981797D01*
X89770511Y-64032089D01*
X89770512Y-64032089D01*
X89770517Y-64032091D01*
X89770521Y-64032091D01*
X89773613Y-64032822D01*
X89775771Y-64034050D01*
X89777785Y-64034802D01*
X89777663Y-64035128D01*
X89834330Y-64067394D01*
X89866717Y-64129304D01*
X89860493Y-64198896D01*
X89817632Y-64254075D01*
X89751743Y-64277322D01*
X89745101Y-64277500D01*
X88095782Y-64277500D01*
X88028743Y-64257815D01*
X88008101Y-64241181D01*
X86924887Y-63157967D01*
X86891402Y-63096644D01*
X86889040Y-63081093D01*
X86883635Y-63019312D01*
X86883635Y-63019308D01*
X86824739Y-62799504D01*
X86728568Y-62593266D01*
X86620924Y-62439532D01*
X86598597Y-62373326D01*
X86598500Y-62368410D01*
X86598500Y-59467782D01*
X86618185Y-59400743D01*
X86634819Y-59380101D01*
X87828102Y-58186819D01*
X87889425Y-58153334D01*
X87915783Y-58150500D01*
X89546412Y-58150500D01*
X89613451Y-58170185D01*
X89617523Y-58172917D01*
X89771266Y-58280568D01*
X89977504Y-58376739D01*
X90197308Y-58435635D01*
X90359230Y-58449801D01*
X90423998Y-58455468D01*
X90424000Y-58455468D01*
X90424002Y-58455468D01*
X90480673Y-58450509D01*
X90650692Y-58435635D01*
X90870496Y-58376739D01*
X91076734Y-58280568D01*
X91263139Y-58150047D01*
X91424047Y-57989139D01*
X91554568Y-57802734D01*
X91650739Y-57596496D01*
X91709635Y-57376692D01*
X91729468Y-57150000D01*
X91709635Y-56923308D01*
X91650739Y-56703504D01*
X91554568Y-56497266D01*
X91424047Y-56310861D01*
X91424045Y-56310858D01*
X91263141Y-56149954D01*
X91076734Y-56019432D01*
X91076732Y-56019431D01*
X90870497Y-55923261D01*
X90870488Y-55923258D01*
X90650697Y-55864366D01*
X90650693Y-55864365D01*
X90650692Y-55864365D01*
X90650691Y-55864364D01*
X90650686Y-55864364D01*
X90424002Y-55844532D01*
X90423998Y-55844532D01*
X90197313Y-55864364D01*
X90197302Y-55864366D01*
X89977511Y-55923258D01*
X89977502Y-55923261D01*
X89771267Y-56019431D01*
X89771265Y-56019432D01*
X89617535Y-56127075D01*
X89551329Y-56149402D01*
X89546412Y-56149500D01*
X87554675Y-56149500D01*
X87554655Y-56149499D01*
X87548541Y-56149499D01*
X87351460Y-56149499D01*
X87351457Y-56149499D01*
X87158172Y-56187946D01*
X87158164Y-56187948D01*
X86976088Y-56263366D01*
X86976079Y-56263371D01*
X86812219Y-56372859D01*
X86812215Y-56372862D01*
X85382347Y-57802732D01*
X84960220Y-58224859D01*
X84960218Y-58224861D01*
X84904512Y-58280567D01*
X84820859Y-58364219D01*
X84711371Y-58528080D01*
X84711364Y-58528093D01*
X84684328Y-58593367D01*
X84684328Y-58593368D01*
X84635950Y-58710161D01*
X84635947Y-58710170D01*
X84630642Y-58736842D01*
X84597500Y-58903454D01*
X84597500Y-62368410D01*
X84577815Y-62435449D01*
X84575076Y-62439532D01*
X84467431Y-62593267D01*
X84371261Y-62799502D01*
X84371258Y-62799511D01*
X84312366Y-63019302D01*
X84312364Y-63019313D01*
X84292532Y-63245998D01*
X84292532Y-63246001D01*
X84312364Y-63472686D01*
X84312366Y-63472697D01*
X84371258Y-63692488D01*
X84371261Y-63692497D01*
X84467431Y-63898732D01*
X84467432Y-63898734D01*
X84597954Y-64085141D01*
X84758858Y-64246045D01*
X84758861Y-64246047D01*
X84945266Y-64376568D01*
X85151504Y-64472739D01*
X85151509Y-64472740D01*
X85151511Y-64472741D01*
X85204415Y-64486916D01*
X85371308Y-64531635D01*
X85433094Y-64537040D01*
X85498161Y-64562492D01*
X85509967Y-64572887D01*
X86849735Y-65912655D01*
X86849764Y-65912686D01*
X86992214Y-66055136D01*
X86992218Y-66055139D01*
X87156079Y-66164628D01*
X87156092Y-66164635D01*
X87284833Y-66217961D01*
X87327744Y-66235735D01*
X87338164Y-66240051D01*
X87434812Y-66259275D01*
X87483135Y-66268887D01*
X87531458Y-66278500D01*
X87531459Y-66278500D01*
X87531460Y-66278500D01*
X87728540Y-66278500D01*
X89800412Y-66278500D01*
X89867451Y-66298185D01*
X89871523Y-66300917D01*
X90025266Y-66408568D01*
X90083865Y-66435893D01*
X90136305Y-66482065D01*
X90155457Y-66549258D01*
X90135242Y-66616139D01*
X90083867Y-66660657D01*
X90025515Y-66687867D01*
X89839179Y-66818342D01*
X89678342Y-66979179D01*
X89547865Y-67165517D01*
X89451734Y-67371673D01*
X89451730Y-67371682D01*
X89399127Y-67567999D01*
X89399128Y-67568000D01*
X90362314Y-67568000D01*
X90357920Y-67572394D01*
X90305259Y-67663606D01*
X90278000Y-67765339D01*
X90278000Y-67870661D01*
X90305259Y-67972394D01*
X90357920Y-68063606D01*
X90362314Y-68068000D01*
X89399128Y-68068000D01*
X89451730Y-68264317D01*
X89451734Y-68264326D01*
X89547865Y-68470482D01*
X89678342Y-68656820D01*
X89839179Y-68817657D01*
X90025518Y-68948134D01*
X90025520Y-68948135D01*
X90083865Y-68975342D01*
X90136305Y-69021514D01*
X90155457Y-69088707D01*
X90135242Y-69155589D01*
X90083867Y-69200105D01*
X90083275Y-69200382D01*
X90025264Y-69227433D01*
X89838858Y-69357954D01*
X89677954Y-69518858D01*
X89547432Y-69705265D01*
X89547431Y-69705267D01*
X89451261Y-69911502D01*
X89451258Y-69911511D01*
X89392366Y-70131302D01*
X89392364Y-70131313D01*
X89372532Y-70357998D01*
X89372532Y-70358001D01*
X89392364Y-70584686D01*
X89392366Y-70584697D01*
X89451258Y-70804488D01*
X89451261Y-70804497D01*
X89547431Y-71010732D01*
X89547432Y-71010734D01*
X89677954Y-71197141D01*
X89838858Y-71358045D01*
X89838861Y-71358047D01*
X90025266Y-71488568D01*
X90231504Y-71584739D01*
X90451308Y-71643635D01*
X90613230Y-71657801D01*
X90677998Y-71663468D01*
X90678000Y-71663468D01*
X90678002Y-71663468D01*
X90734673Y-71658509D01*
X90904692Y-71643635D01*
X91124496Y-71584739D01*
X91330734Y-71488568D01*
X91517139Y-71358047D01*
X91678047Y-71197139D01*
X91808568Y-71010734D01*
X91904739Y-70804496D01*
X91963635Y-70584692D01*
X91969040Y-70522905D01*
X91994492Y-70457838D01*
X92004879Y-70446040D01*
X94249140Y-68201781D01*
X94313402Y-68105606D01*
X94362017Y-68032849D01*
X94364239Y-68034334D01*
X94405092Y-67992737D01*
X94473227Y-67977268D01*
X94538910Y-68001092D01*
X94581285Y-68056645D01*
X94589500Y-68101027D01*
X94589500Y-72798541D01*
X94589500Y-72798543D01*
X94589499Y-72798543D01*
X94627947Y-72991829D01*
X94627950Y-72991839D01*
X94703364Y-73173907D01*
X94703371Y-73173920D01*
X94812860Y-73337781D01*
X94812863Y-73337785D01*
X94956537Y-73481459D01*
X94956559Y-73481479D01*
X97549735Y-76074655D01*
X97549764Y-76074686D01*
X97692214Y-76217136D01*
X97692218Y-76217139D01*
X97856079Y-76326628D01*
X97856092Y-76326635D01*
X97984833Y-76379961D01*
X98027744Y-76397735D01*
X98038164Y-76402051D01*
X98134812Y-76421275D01*
X98183135Y-76430887D01*
X98231458Y-76440500D01*
X98231459Y-76440500D01*
X120098542Y-76440500D01*
X120117870Y-76436655D01*
X120195188Y-76421275D01*
X120291836Y-76402051D01*
X120345165Y-76379961D01*
X120473914Y-76326632D01*
X120637782Y-76217139D01*
X120777139Y-76077782D01*
X120777139Y-76077780D01*
X120787347Y-76067573D01*
X120787348Y-76067570D01*
X123569326Y-73285594D01*
X130114556Y-73285594D01*
X130114556Y-73285605D01*
X130134310Y-73599604D01*
X130134311Y-73599611D01*
X130193270Y-73908683D01*
X130290497Y-74207916D01*
X130290499Y-74207921D01*
X130424461Y-74492603D01*
X130424464Y-74492609D01*
X130593051Y-74758261D01*
X130593054Y-74758265D01*
X130793606Y-75000690D01*
X130793608Y-75000692D01*
X131022968Y-75216076D01*
X131022978Y-75216084D01*
X131277504Y-75401008D01*
X131277509Y-75401010D01*
X131277516Y-75401016D01*
X131553234Y-75552594D01*
X131553239Y-75552596D01*
X131553241Y-75552597D01*
X131553242Y-75552598D01*
X131845771Y-75668418D01*
X131845774Y-75668419D01*
X132150523Y-75746665D01*
X132150527Y-75746666D01*
X132216010Y-75754938D01*
X132462670Y-75786099D01*
X132462679Y-75786099D01*
X132462682Y-75786100D01*
X132462684Y-75786100D01*
X132777316Y-75786100D01*
X132777318Y-75786100D01*
X132777321Y-75786099D01*
X132777329Y-75786099D01*
X132963593Y-75762568D01*
X133089473Y-75746666D01*
X133394225Y-75668419D01*
X133394228Y-75668418D01*
X133686757Y-75552598D01*
X133686758Y-75552597D01*
X133686756Y-75552597D01*
X133686766Y-75552594D01*
X133962484Y-75401016D01*
X134217030Y-75216078D01*
X134446390Y-75000694D01*
X134646947Y-74758263D01*
X134815537Y-74492607D01*
X134949503Y-74207915D01*
X135046731Y-73908679D01*
X135105688Y-73599615D01*
X135109916Y-73532410D01*
X135125444Y-73285605D01*
X135125444Y-73285594D01*
X135105689Y-72971595D01*
X135105688Y-72971588D01*
X135105688Y-72971585D01*
X135046731Y-72662521D01*
X134949503Y-72363285D01*
X134935678Y-72333906D01*
X134828183Y-72105468D01*
X134815537Y-72078593D01*
X134646947Y-71812937D01*
X134646945Y-71812934D01*
X134446393Y-71570509D01*
X134446391Y-71570507D01*
X134217031Y-71355123D01*
X134217021Y-71355115D01*
X133962495Y-71170191D01*
X133962488Y-71170186D01*
X133962484Y-71170184D01*
X133686766Y-71018606D01*
X133686763Y-71018604D01*
X133686758Y-71018602D01*
X133686757Y-71018601D01*
X133394228Y-70902781D01*
X133394225Y-70902780D01*
X133089476Y-70824534D01*
X133089463Y-70824532D01*
X132777329Y-70785100D01*
X132777318Y-70785100D01*
X132462682Y-70785100D01*
X132462670Y-70785100D01*
X132150536Y-70824532D01*
X132150523Y-70824534D01*
X131845774Y-70902780D01*
X131845771Y-70902781D01*
X131553242Y-71018601D01*
X131553241Y-71018602D01*
X131277516Y-71170184D01*
X131277504Y-71170191D01*
X131022978Y-71355115D01*
X131022968Y-71355123D01*
X130793608Y-71570507D01*
X130793606Y-71570509D01*
X130593054Y-71812934D01*
X130593051Y-71812938D01*
X130424464Y-72078590D01*
X130424461Y-72078596D01*
X130290499Y-72363278D01*
X130290497Y-72363283D01*
X130193270Y-72662516D01*
X130134311Y-72971588D01*
X130134310Y-72971595D01*
X130114556Y-73285594D01*
X123569326Y-73285594D01*
X125397140Y-71457781D01*
X125506632Y-71293914D01*
X125582052Y-71111835D01*
X125620500Y-70918540D01*
X125620500Y-70721459D01*
X125620500Y-67859997D01*
X130715034Y-67859997D01*
X130715034Y-67860002D01*
X130734858Y-68086599D01*
X130734860Y-68086610D01*
X130793730Y-68306317D01*
X130793735Y-68306331D01*
X130889863Y-68512478D01*
X130940974Y-68585472D01*
X131620000Y-67906446D01*
X131620000Y-67912661D01*
X131647259Y-68014394D01*
X131699920Y-68105606D01*
X131774394Y-68180080D01*
X131865606Y-68232741D01*
X131967339Y-68260000D01*
X131973553Y-68260000D01*
X131294526Y-68939025D01*
X131367513Y-68990132D01*
X131367521Y-68990136D01*
X131573668Y-69086264D01*
X131573682Y-69086269D01*
X131793389Y-69145139D01*
X131793400Y-69145141D01*
X132019998Y-69164966D01*
X132020002Y-69164966D01*
X132246599Y-69145141D01*
X132246610Y-69145139D01*
X132466317Y-69086269D01*
X132466331Y-69086264D01*
X132672478Y-68990136D01*
X132745471Y-68939024D01*
X132066447Y-68260000D01*
X132072661Y-68260000D01*
X132174394Y-68232741D01*
X132265606Y-68180080D01*
X132340080Y-68105606D01*
X132392741Y-68014394D01*
X132420000Y-67912661D01*
X132420000Y-67906447D01*
X133099024Y-68585471D01*
X133150136Y-68512478D01*
X133246264Y-68306331D01*
X133246269Y-68306317D01*
X133305139Y-68086610D01*
X133305141Y-68086599D01*
X133324966Y-67860002D01*
X133324966Y-67859997D01*
X133305141Y-67633400D01*
X133305139Y-67633389D01*
X133246269Y-67413682D01*
X133246264Y-67413668D01*
X133150136Y-67207521D01*
X133150132Y-67207513D01*
X133099025Y-67134526D01*
X132420000Y-67813551D01*
X132420000Y-67807339D01*
X132392741Y-67705606D01*
X132340080Y-67614394D01*
X132265606Y-67539920D01*
X132174394Y-67487259D01*
X132072661Y-67460000D01*
X132066445Y-67460000D01*
X132745472Y-66780974D01*
X132672478Y-66729863D01*
X132466331Y-66633735D01*
X132466317Y-66633730D01*
X132246610Y-66574860D01*
X132246599Y-66574858D01*
X132020002Y-66555034D01*
X132019998Y-66555034D01*
X131793400Y-66574858D01*
X131793389Y-66574860D01*
X131573682Y-66633730D01*
X131573673Y-66633734D01*
X131367516Y-66729866D01*
X131367512Y-66729868D01*
X131294526Y-66780973D01*
X131294526Y-66780974D01*
X131973553Y-67460000D01*
X131967339Y-67460000D01*
X131865606Y-67487259D01*
X131774394Y-67539920D01*
X131699920Y-67614394D01*
X131647259Y-67705606D01*
X131620000Y-67807339D01*
X131620000Y-67813552D01*
X130940974Y-67134526D01*
X130940973Y-67134526D01*
X130889868Y-67207512D01*
X130889866Y-67207516D01*
X130793734Y-67413673D01*
X130793730Y-67413682D01*
X130734860Y-67633389D01*
X130734858Y-67633400D01*
X130715034Y-67859997D01*
X125620500Y-67859997D01*
X125620500Y-64516968D01*
X125640185Y-64449929D01*
X125692989Y-64404174D01*
X125762147Y-64394230D01*
X125815621Y-64415392D01*
X125937266Y-64500568D01*
X126143504Y-64596739D01*
X126363308Y-64655635D01*
X126525230Y-64669801D01*
X126589998Y-64675468D01*
X126590000Y-64675468D01*
X126590002Y-64675468D01*
X126646673Y-64670509D01*
X126816692Y-64655635D01*
X127036496Y-64596739D01*
X127242734Y-64500568D01*
X127396465Y-64392924D01*
X127462671Y-64370598D01*
X127467588Y-64370500D01*
X128988542Y-64370500D01*
X129007870Y-64366655D01*
X129085188Y-64351275D01*
X129181836Y-64332051D01*
X129235165Y-64309961D01*
X129363914Y-64256632D01*
X129527782Y-64147139D01*
X129667139Y-64007782D01*
X129667139Y-64007780D01*
X129677347Y-63997573D01*
X129677348Y-63997570D01*
X132108034Y-61566885D01*
X132169355Y-61533402D01*
X132184900Y-61531041D01*
X132246692Y-61525635D01*
X132466496Y-61466739D01*
X132672734Y-61370568D01*
X132859139Y-61240047D01*
X133020047Y-61079139D01*
X133150568Y-60892734D01*
X133246739Y-60686496D01*
X133305635Y-60466692D01*
X133325468Y-60240000D01*
X133322501Y-60206092D01*
X133319801Y-60175230D01*
X133305635Y-60013308D01*
X133246739Y-59793504D01*
X133150568Y-59587266D01*
X133020047Y-59400861D01*
X133020045Y-59400858D01*
X132859141Y-59239954D01*
X132672734Y-59109432D01*
X132672732Y-59109431D01*
X132466497Y-59013261D01*
X132466488Y-59013258D01*
X132246697Y-58954366D01*
X132246693Y-58954365D01*
X132246692Y-58954365D01*
X132246691Y-58954364D01*
X132246686Y-58954364D01*
X132020002Y-58934532D01*
X132019998Y-58934532D01*
X131793313Y-58954364D01*
X131793302Y-58954366D01*
X131573511Y-59013258D01*
X131573502Y-59013261D01*
X131367267Y-59109431D01*
X131367265Y-59109432D01*
X131264595Y-59181322D01*
X131233378Y-59203181D01*
X131213535Y-59217075D01*
X131147329Y-59239402D01*
X131142412Y-59239500D01*
X128726982Y-59239500D01*
X128659943Y-59219815D01*
X128639301Y-59203181D01*
X125903219Y-56467099D01*
X125869734Y-56405776D01*
X125866900Y-56379418D01*
X125866900Y-52334724D01*
X125886585Y-52267685D01*
X125916588Y-52235458D01*
X126114142Y-52087571D01*
X126306371Y-51895342D01*
X126469287Y-51677713D01*
X126593566Y-51450113D01*
X126599569Y-51439119D01*
X126599569Y-51439117D01*
X126599572Y-51439113D01*
X126694575Y-51184401D01*
X126752361Y-50918760D01*
X126771755Y-50647600D01*
X126752361Y-50376440D01*
X126694575Y-50110799D01*
X126599572Y-49856087D01*
X126599570Y-49856084D01*
X126599569Y-49856080D01*
X126469290Y-49617492D01*
X126469289Y-49617491D01*
X126469287Y-49617487D01*
X126306371Y-49399858D01*
X126306366Y-49399853D01*
X126306361Y-49399847D01*
X126114152Y-49207638D01*
X126114146Y-49207633D01*
X126114142Y-49207629D01*
X125896513Y-49044713D01*
X125896508Y-49044710D01*
X125896507Y-49044709D01*
X125657918Y-48914430D01*
X125657919Y-48914430D01*
X125605857Y-48895012D01*
X125403201Y-48819425D01*
X125403194Y-48819423D01*
X125403193Y-48819423D01*
X125137567Y-48761640D01*
X125137560Y-48761639D01*
X124866401Y-48742245D01*
X124866399Y-48742245D01*
X124595239Y-48761639D01*
X124595232Y-48761640D01*
X124329606Y-48819423D01*
X124329602Y-48819424D01*
X124329599Y-48819425D01*
X124202243Y-48866926D01*
X124074880Y-48914430D01*
X123836292Y-49044709D01*
X123836291Y-49044710D01*
X123618659Y-49207628D01*
X123618647Y-49207638D01*
X123426438Y-49399847D01*
X123426428Y-49399859D01*
X123263510Y-49617491D01*
X123263509Y-49617492D01*
X123133230Y-49856080D01*
X123109024Y-49920979D01*
X123038225Y-50110799D01*
X123038224Y-50110802D01*
X123038223Y-50110806D01*
X122980440Y-50376432D01*
X122980439Y-50376439D01*
X122961045Y-50647598D01*
X122961045Y-50647601D01*
X122980439Y-50918760D01*
X122980440Y-50918767D01*
X123024655Y-51122022D01*
X123038225Y-51184401D01*
X123114730Y-51389520D01*
X123133230Y-51439119D01*
X123263509Y-51677707D01*
X123263510Y-51677708D01*
X123263513Y-51677713D01*
X123426429Y-51895342D01*
X123426433Y-51895346D01*
X123426438Y-51895352D01*
X123618647Y-52087561D01*
X123618665Y-52087577D01*
X123657600Y-52116723D01*
X123816210Y-52235458D01*
X123858082Y-52291390D01*
X123865900Y-52334724D01*
X123865900Y-56943741D01*
X123865900Y-56943743D01*
X123865899Y-56943743D01*
X123904347Y-57137029D01*
X123904350Y-57137039D01*
X123979764Y-57319107D01*
X123979771Y-57319120D01*
X124089260Y-57482981D01*
X124089263Y-57482985D01*
X124232937Y-57626659D01*
X124232959Y-57626679D01*
X127480935Y-60874655D01*
X127480964Y-60874686D01*
X127623414Y-61017136D01*
X127623418Y-61017139D01*
X127787279Y-61126628D01*
X127787292Y-61126635D01*
X127916033Y-61179961D01*
X127958944Y-61197735D01*
X127969364Y-61202051D01*
X128066012Y-61221275D01*
X128114335Y-61230887D01*
X128162658Y-61240500D01*
X128162659Y-61240500D01*
X128162660Y-61240500D01*
X128359740Y-61240500D01*
X129305218Y-61240500D01*
X129372257Y-61260185D01*
X129418012Y-61312989D01*
X129427956Y-61382147D01*
X129398931Y-61445703D01*
X129392899Y-61452181D01*
X128511899Y-62333181D01*
X128450576Y-62366666D01*
X128424218Y-62369500D01*
X127467588Y-62369500D01*
X127400549Y-62349815D01*
X127396465Y-62347075D01*
X127387590Y-62340861D01*
X127242734Y-62239432D01*
X127213584Y-62225839D01*
X127036497Y-62143261D01*
X127036488Y-62143258D01*
X126816697Y-62084366D01*
X126816693Y-62084365D01*
X126816692Y-62084365D01*
X126816691Y-62084364D01*
X126816686Y-62084364D01*
X126590002Y-62064532D01*
X126589998Y-62064532D01*
X126363313Y-62084364D01*
X126363302Y-62084366D01*
X126143511Y-62143258D01*
X126143502Y-62143261D01*
X125966416Y-62225839D01*
X125937266Y-62239432D01*
X125815621Y-62324607D01*
X125749416Y-62346934D01*
X125681649Y-62329922D01*
X125633837Y-62278974D01*
X125620500Y-62223031D01*
X125620500Y-60581456D01*
X125582052Y-60388170D01*
X125582051Y-60388169D01*
X125582051Y-60388165D01*
X125582049Y-60388160D01*
X125506635Y-60206092D01*
X125506628Y-60206079D01*
X125397139Y-60042218D01*
X125397136Y-60042214D01*
X125254686Y-59899764D01*
X125254655Y-59899735D01*
X122661479Y-57306559D01*
X122661459Y-57306537D01*
X122517785Y-57162863D01*
X122517781Y-57162860D01*
X122353920Y-57053371D01*
X122353911Y-57053366D01*
X122281315Y-57023296D01*
X122225165Y-57000038D01*
X122171836Y-56977949D01*
X122171832Y-56977948D01*
X122171828Y-56977946D01*
X122075188Y-56958724D01*
X121978544Y-56939500D01*
X121978541Y-56939500D01*
X115615783Y-56939500D01*
X115548744Y-56919815D01*
X115528102Y-56903181D01*
X113050819Y-54425898D01*
X113017334Y-54364575D01*
X113014500Y-54338217D01*
X113014500Y-52233124D01*
X113034185Y-52166085D01*
X113064188Y-52133858D01*
X113261742Y-51985971D01*
X113453971Y-51793742D01*
X113616887Y-51576113D01*
X113747172Y-51337513D01*
X113842175Y-51082801D01*
X113899961Y-50817160D01*
X113919355Y-50546000D01*
X113899961Y-50274840D01*
X113842175Y-50009199D01*
X113747172Y-49754487D01*
X113747170Y-49754484D01*
X113747169Y-49754480D01*
X113616890Y-49515892D01*
X113616889Y-49515891D01*
X113616887Y-49515887D01*
X113565778Y-49447614D01*
X117966400Y-49447614D01*
X117966400Y-50397600D01*
X119266399Y-50397600D01*
X119241379Y-50458002D01*
X119216400Y-50583581D01*
X119216400Y-50711619D01*
X119241379Y-50837198D01*
X119266399Y-50897600D01*
X117966400Y-50897600D01*
X117966400Y-51847585D01*
X117976893Y-51950289D01*
X117976894Y-51950296D01*
X118032041Y-52116718D01*
X118032043Y-52116723D01*
X118124084Y-52265944D01*
X118248055Y-52389915D01*
X118397276Y-52481956D01*
X118397281Y-52481958D01*
X118563703Y-52537105D01*
X118563710Y-52537106D01*
X118666414Y-52547599D01*
X118666427Y-52547600D01*
X119616400Y-52547600D01*
X119616400Y-51247601D01*
X119676802Y-51272621D01*
X119802381Y-51297600D01*
X119930419Y-51297600D01*
X120055998Y-51272621D01*
X120116400Y-51247601D01*
X120116400Y-52547600D01*
X121066373Y-52547600D01*
X121066385Y-52547599D01*
X121169089Y-52537106D01*
X121169096Y-52537105D01*
X121335518Y-52481958D01*
X121335523Y-52481956D01*
X121484744Y-52389915D01*
X121608715Y-52265944D01*
X121700756Y-52116723D01*
X121700758Y-52116718D01*
X121755905Y-51950296D01*
X121755906Y-51950289D01*
X121766399Y-51847585D01*
X121766400Y-51847572D01*
X121766400Y-50897600D01*
X120466401Y-50897600D01*
X120491421Y-50837198D01*
X120516400Y-50711619D01*
X120516400Y-50583581D01*
X120491421Y-50458002D01*
X120466401Y-50397600D01*
X121766400Y-50397600D01*
X121766400Y-49447627D01*
X121766399Y-49447614D01*
X121755906Y-49344910D01*
X121755905Y-49344903D01*
X121700758Y-49178481D01*
X121700756Y-49178476D01*
X121608715Y-49029255D01*
X121484744Y-48905284D01*
X121335523Y-48813243D01*
X121335518Y-48813241D01*
X121169096Y-48758094D01*
X121169089Y-48758093D01*
X121066385Y-48747600D01*
X120116400Y-48747600D01*
X120116400Y-50047598D01*
X120055998Y-50022579D01*
X119930419Y-49997600D01*
X119802381Y-49997600D01*
X119676802Y-50022579D01*
X119616400Y-50047598D01*
X119616400Y-48747600D01*
X118666414Y-48747600D01*
X118563710Y-48758093D01*
X118563703Y-48758094D01*
X118397281Y-48813241D01*
X118397276Y-48813243D01*
X118248055Y-48905284D01*
X118124084Y-49029255D01*
X118032043Y-49178476D01*
X118032041Y-49178481D01*
X117976894Y-49344903D01*
X117976893Y-49344910D01*
X117966400Y-49447614D01*
X113565778Y-49447614D01*
X113453971Y-49298258D01*
X113453966Y-49298253D01*
X113453961Y-49298247D01*
X113261752Y-49106038D01*
X113261746Y-49106033D01*
X113261742Y-49106029D01*
X113044113Y-48943113D01*
X113044108Y-48943110D01*
X113044107Y-48943109D01*
X112805518Y-48812830D01*
X112805519Y-48812830D01*
X112755920Y-48794330D01*
X112550801Y-48717825D01*
X112550794Y-48717823D01*
X112550793Y-48717823D01*
X112285167Y-48660040D01*
X112285160Y-48660039D01*
X112014001Y-48640645D01*
X112013999Y-48640645D01*
X111742839Y-48660039D01*
X111742832Y-48660040D01*
X111477206Y-48717823D01*
X111477202Y-48717824D01*
X111477199Y-48717825D01*
X111369237Y-48758093D01*
X111222480Y-48812830D01*
X110983892Y-48943109D01*
X110983891Y-48943110D01*
X110766259Y-49106028D01*
X110766247Y-49106038D01*
X110574038Y-49298247D01*
X110574028Y-49298259D01*
X110411110Y-49515891D01*
X110411109Y-49515892D01*
X110280830Y-49754480D01*
X110267847Y-49789289D01*
X110185825Y-50009199D01*
X110185824Y-50009202D01*
X110185823Y-50009206D01*
X110128040Y-50274832D01*
X110128039Y-50274839D01*
X110108645Y-50545998D01*
X110108645Y-50546000D01*
X110128039Y-50817160D01*
X110128040Y-50817167D01*
X110178883Y-51050888D01*
X110185825Y-51082801D01*
X110262330Y-51287920D01*
X110280830Y-51337519D01*
X110411109Y-51576107D01*
X110411110Y-51576108D01*
X110411113Y-51576113D01*
X110574029Y-51793742D01*
X110574033Y-51793746D01*
X110574038Y-51793752D01*
X110766247Y-51985961D01*
X110766265Y-51985977D01*
X110889674Y-52078359D01*
X110963810Y-52133858D01*
X111005682Y-52189790D01*
X111013500Y-52233124D01*
X111013500Y-62032541D01*
X111013500Y-62032543D01*
X111013499Y-62032543D01*
X111051947Y-62225829D01*
X111051950Y-62225839D01*
X111127364Y-62407907D01*
X111127371Y-62407920D01*
X111236859Y-62571780D01*
X111236860Y-62571781D01*
X111236861Y-62571782D01*
X111376218Y-62711139D01*
X111376219Y-62711139D01*
X111383286Y-62718206D01*
X111383285Y-62718206D01*
X111383289Y-62718209D01*
X114473111Y-65808032D01*
X114506596Y-65869355D01*
X114508958Y-65884903D01*
X114514364Y-65946688D01*
X114514366Y-65946697D01*
X114573258Y-66166488D01*
X114573261Y-66166497D01*
X114669431Y-66372732D01*
X114669432Y-66372734D01*
X114799954Y-66559141D01*
X114960858Y-66720045D01*
X114960861Y-66720047D01*
X115147266Y-66850568D01*
X115178293Y-66865036D01*
X115205275Y-66877618D01*
X115257714Y-66923791D01*
X115276866Y-66990984D01*
X115256650Y-67057865D01*
X115205275Y-67102382D01*
X115147267Y-67129431D01*
X115147265Y-67129432D01*
X115076712Y-67178834D01*
X115013378Y-67223181D01*
X114993535Y-67237075D01*
X114927329Y-67259402D01*
X114922412Y-67259500D01*
X113295783Y-67259500D01*
X113228744Y-67239815D01*
X113208102Y-67223181D01*
X111074209Y-65089289D01*
X111074206Y-65089285D01*
X111074206Y-65089286D01*
X111067139Y-65082219D01*
X111067139Y-65082218D01*
X110927782Y-64942861D01*
X110927781Y-64942860D01*
X110927780Y-64942859D01*
X110763920Y-64833371D01*
X110763911Y-64833366D01*
X110691315Y-64803296D01*
X110635165Y-64780038D01*
X110581836Y-64757949D01*
X110581832Y-64757948D01*
X110581828Y-64757946D01*
X110485188Y-64738724D01*
X110388544Y-64719500D01*
X110388541Y-64719500D01*
X109112901Y-64719500D01*
X109045862Y-64699815D01*
X109000107Y-64647011D01*
X108990163Y-64577853D01*
X109019188Y-64514297D01*
X109077966Y-64476523D01*
X109084384Y-64474824D01*
X109087479Y-64474092D01*
X109087481Y-64474091D01*
X109087483Y-64474091D01*
X109222331Y-64423796D01*
X109337546Y-64337546D01*
X109423796Y-64222331D01*
X109474091Y-64087483D01*
X109480500Y-64027873D01*
X109480499Y-62332128D01*
X109474091Y-62272517D01*
X109471542Y-62265684D01*
X109423797Y-62137671D01*
X109423793Y-62137664D01*
X109337547Y-62022455D01*
X109337544Y-62022452D01*
X109222335Y-61936206D01*
X109222328Y-61936202D01*
X109087482Y-61885908D01*
X109087483Y-61885908D01*
X109027883Y-61879501D01*
X109027881Y-61879500D01*
X109027873Y-61879500D01*
X109027864Y-61879500D01*
X107332129Y-61879500D01*
X107332123Y-61879501D01*
X107272516Y-61885908D01*
X107137671Y-61936202D01*
X107137664Y-61936206D01*
X107022455Y-62022452D01*
X107022452Y-62022455D01*
X106936206Y-62137664D01*
X106936202Y-62137671D01*
X106885908Y-62272517D01*
X106879737Y-62329922D01*
X106879501Y-62332123D01*
X106879500Y-62332135D01*
X106879500Y-64027870D01*
X106879501Y-64027876D01*
X106885908Y-64087483D01*
X106936202Y-64222328D01*
X106936206Y-64222335D01*
X107022452Y-64337544D01*
X107022455Y-64337547D01*
X107137664Y-64423793D01*
X107137671Y-64423797D01*
X107178052Y-64438858D01*
X107272517Y-64474091D01*
X107307596Y-64477862D01*
X107372144Y-64504599D01*
X107411993Y-64561991D01*
X107414488Y-64631816D01*
X107378836Y-64691905D01*
X107365464Y-64702725D01*
X107340858Y-64719954D01*
X107179954Y-64880858D01*
X107049432Y-65067265D01*
X107049431Y-65067267D01*
X106953261Y-65273502D01*
X106953258Y-65273511D01*
X106894366Y-65493302D01*
X106894364Y-65493313D01*
X106874532Y-65719998D01*
X106874532Y-65720001D01*
X106894364Y-65946686D01*
X106894366Y-65946697D01*
X106953258Y-66166488D01*
X106953261Y-66166497D01*
X107049431Y-66372732D01*
X107049432Y-66372734D01*
X107179954Y-66559141D01*
X107340858Y-66720045D01*
X107340861Y-66720047D01*
X107527266Y-66850568D01*
X107558293Y-66865036D01*
X107585275Y-66877618D01*
X107637714Y-66923791D01*
X107656866Y-66990984D01*
X107636650Y-67057865D01*
X107585275Y-67102382D01*
X107527267Y-67129431D01*
X107527265Y-67129432D01*
X107340858Y-67259954D01*
X107179954Y-67420858D01*
X107049432Y-67607265D01*
X107049431Y-67607267D01*
X106953261Y-67813502D01*
X106953259Y-67813508D01*
X106935976Y-67878012D01*
X106899611Y-67937672D01*
X106836764Y-67968201D01*
X106767388Y-67959906D01*
X106728520Y-67933599D01*
X105126819Y-66331898D01*
X105093334Y-66270575D01*
X105090500Y-66244217D01*
X105090500Y-56831456D01*
X105052052Y-56638170D01*
X105052051Y-56638169D01*
X105052051Y-56638165D01*
X105052049Y-56638160D01*
X104976635Y-56456092D01*
X104976628Y-56456079D01*
X104867140Y-56292219D01*
X104838285Y-56263364D01*
X104727782Y-56152861D01*
X104727781Y-56152860D01*
X98364208Y-49789288D01*
X98364206Y-49789285D01*
X98364206Y-49789286D01*
X98357139Y-49782219D01*
X98357139Y-49782218D01*
X98217782Y-49642861D01*
X98217781Y-49642860D01*
X98217780Y-49642859D01*
X98053920Y-49533371D01*
X98053907Y-49533364D01*
X97924562Y-49479789D01*
X97871836Y-49457949D01*
X97871828Y-49457947D01*
X97719342Y-49427616D01*
X97719341Y-49427615D01*
X97698941Y-49423558D01*
X97678542Y-49419500D01*
X97678541Y-49419500D01*
X89634541Y-49419500D01*
X85707125Y-49419500D01*
X85640086Y-49399815D01*
X85607858Y-49369811D01*
X85590933Y-49347202D01*
X85590044Y-49346014D01*
X105114000Y-49346014D01*
X105114000Y-50296000D01*
X106413999Y-50296000D01*
X106388979Y-50356402D01*
X106364000Y-50481981D01*
X106364000Y-50610019D01*
X106388979Y-50735598D01*
X106413999Y-50796000D01*
X105114000Y-50796000D01*
X105114000Y-51745985D01*
X105124493Y-51848689D01*
X105124494Y-51848696D01*
X105179641Y-52015118D01*
X105179643Y-52015123D01*
X105271684Y-52164344D01*
X105395655Y-52288315D01*
X105544876Y-52380356D01*
X105544881Y-52380358D01*
X105711303Y-52435505D01*
X105711310Y-52435506D01*
X105814014Y-52445999D01*
X105814027Y-52446000D01*
X106764000Y-52446000D01*
X106764000Y-51146001D01*
X106824402Y-51171021D01*
X106949981Y-51196000D01*
X107078019Y-51196000D01*
X107203598Y-51171021D01*
X107264000Y-51146001D01*
X107264000Y-52446000D01*
X108213973Y-52446000D01*
X108213985Y-52445999D01*
X108316689Y-52435506D01*
X108316696Y-52435505D01*
X108483118Y-52380358D01*
X108483123Y-52380356D01*
X108632344Y-52288315D01*
X108756315Y-52164344D01*
X108848356Y-52015123D01*
X108848358Y-52015118D01*
X108903505Y-51848696D01*
X108903506Y-51848689D01*
X108913999Y-51745985D01*
X108914000Y-51745972D01*
X108914000Y-50796000D01*
X107614001Y-50796000D01*
X107639021Y-50735598D01*
X107664000Y-50610019D01*
X107664000Y-50481981D01*
X107639021Y-50356402D01*
X107614001Y-50296000D01*
X108914000Y-50296000D01*
X108914000Y-49346027D01*
X108913999Y-49346014D01*
X108903506Y-49243310D01*
X108903505Y-49243303D01*
X108848358Y-49076881D01*
X108848356Y-49076876D01*
X108756315Y-48927655D01*
X108632344Y-48803684D01*
X108483123Y-48711643D01*
X108483118Y-48711641D01*
X108316696Y-48656494D01*
X108316689Y-48656493D01*
X108213985Y-48646000D01*
X107264000Y-48646000D01*
X107264000Y-49945998D01*
X107203598Y-49920979D01*
X107078019Y-49896000D01*
X106949981Y-49896000D01*
X106824402Y-49920979D01*
X106764000Y-49945998D01*
X106764000Y-48646000D01*
X105814014Y-48646000D01*
X105711310Y-48656493D01*
X105711303Y-48656494D01*
X105544881Y-48711641D01*
X105544876Y-48711643D01*
X105395655Y-48803684D01*
X105271684Y-48927655D01*
X105179643Y-49076876D01*
X105179641Y-49076881D01*
X105124494Y-49243303D01*
X105124493Y-49243310D01*
X105114000Y-49346014D01*
X85590044Y-49346014D01*
X85459971Y-49172258D01*
X85459966Y-49172253D01*
X85459961Y-49172247D01*
X85267752Y-48980038D01*
X85267746Y-48980033D01*
X85267742Y-48980029D01*
X85050113Y-48817113D01*
X85050108Y-48817110D01*
X85050107Y-48817109D01*
X84811518Y-48686830D01*
X84811519Y-48686830D01*
X84739689Y-48660039D01*
X84556801Y-48591825D01*
X84556794Y-48591823D01*
X84556793Y-48591823D01*
X84291167Y-48534040D01*
X84291160Y-48534039D01*
X84020001Y-48514645D01*
X84019999Y-48514645D01*
X83748839Y-48534039D01*
X83748832Y-48534040D01*
X83483206Y-48591823D01*
X83483202Y-48591824D01*
X83483199Y-48591825D01*
X83355843Y-48639326D01*
X83228480Y-48686830D01*
X82989892Y-48817109D01*
X82989891Y-48817110D01*
X82772259Y-48980028D01*
X82772247Y-48980038D01*
X82580038Y-49172247D01*
X82580028Y-49172259D01*
X82417110Y-49389891D01*
X82417109Y-49389892D01*
X82286830Y-49628480D01*
X82239835Y-49754480D01*
X82191825Y-49883199D01*
X82191824Y-49883202D01*
X82191823Y-49883206D01*
X82134040Y-50148832D01*
X82134039Y-50148839D01*
X82114645Y-50419998D01*
X79670000Y-50419998D01*
X79670000Y-50355981D01*
X79645021Y-50230402D01*
X79620001Y-50170000D01*
X80920000Y-50170000D01*
X80920000Y-49220027D01*
X80919999Y-49220014D01*
X80909506Y-49117310D01*
X80909505Y-49117303D01*
X80854358Y-48950881D01*
X80854356Y-48950876D01*
X80762315Y-48801655D01*
X80638344Y-48677684D01*
X80489123Y-48585643D01*
X80489118Y-48585641D01*
X80322696Y-48530494D01*
X80322689Y-48530493D01*
X80219985Y-48520000D01*
X79270000Y-48520000D01*
X79270000Y-49819998D01*
X79209598Y-49794979D01*
X79084019Y-49770000D01*
X78955981Y-49770000D01*
X78830402Y-49794979D01*
X78770000Y-49819998D01*
X78770000Y-48520000D01*
X77820014Y-48520000D01*
X77717310Y-48530493D01*
X77717303Y-48530494D01*
X77550881Y-48585641D01*
X77550876Y-48585643D01*
X77401655Y-48677684D01*
X77277684Y-48801655D01*
X77185643Y-48950876D01*
X77185641Y-48950881D01*
X77130494Y-49117303D01*
X77130493Y-49117310D01*
X77120000Y-49220014D01*
X70007582Y-49220014D01*
X70032337Y-49181007D01*
X70166303Y-48896315D01*
X70263531Y-48597079D01*
X70322488Y-48288015D01*
X70342244Y-47974000D01*
X70342244Y-47973994D01*
X130114556Y-47973994D01*
X130114556Y-47974005D01*
X130134310Y-48288004D01*
X130134311Y-48288011D01*
X130134312Y-48288015D01*
X130192266Y-48591823D01*
X130193270Y-48597083D01*
X130290497Y-48896316D01*
X130290499Y-48896321D01*
X130424461Y-49181003D01*
X130424464Y-49181009D01*
X130593051Y-49446661D01*
X130593054Y-49446665D01*
X130793606Y-49689090D01*
X130793608Y-49689092D01*
X131022968Y-49904476D01*
X131022978Y-49904484D01*
X131277504Y-50089408D01*
X131277509Y-50089410D01*
X131277516Y-50089416D01*
X131553234Y-50240994D01*
X131553239Y-50240996D01*
X131553241Y-50240997D01*
X131553242Y-50240998D01*
X131845771Y-50356818D01*
X131845774Y-50356819D01*
X132091841Y-50419998D01*
X132150527Y-50435066D01*
X132216010Y-50443338D01*
X132462670Y-50474499D01*
X132462679Y-50474499D01*
X132462682Y-50474500D01*
X132462684Y-50474500D01*
X132777316Y-50474500D01*
X132777318Y-50474500D01*
X132777321Y-50474499D01*
X132777329Y-50474499D01*
X132963593Y-50450968D01*
X133089473Y-50435066D01*
X133394225Y-50356819D01*
X133394228Y-50356818D01*
X133686757Y-50240998D01*
X133686758Y-50240997D01*
X133686756Y-50240997D01*
X133686766Y-50240994D01*
X133962484Y-50089416D01*
X134217030Y-49904478D01*
X134446390Y-49689094D01*
X134646947Y-49446663D01*
X134815537Y-49181007D01*
X134949503Y-48896315D01*
X135046731Y-48597079D01*
X135105688Y-48288015D01*
X135125444Y-47974000D01*
X135109916Y-47727190D01*
X135105689Y-47659995D01*
X135105688Y-47659988D01*
X135105688Y-47659985D01*
X135046731Y-47350921D01*
X134949503Y-47051685D01*
X134815537Y-46766993D01*
X134646947Y-46501337D01*
X134628983Y-46479622D01*
X134446393Y-46258909D01*
X134446391Y-46258907D01*
X134217031Y-46043523D01*
X134217021Y-46043515D01*
X133962495Y-45858591D01*
X133962488Y-45858586D01*
X133962484Y-45858584D01*
X133686766Y-45707006D01*
X133686763Y-45707004D01*
X133686758Y-45707002D01*
X133686757Y-45707001D01*
X133394228Y-45591181D01*
X133394225Y-45591180D01*
X133089476Y-45512934D01*
X133089463Y-45512932D01*
X132777329Y-45473500D01*
X132777318Y-45473500D01*
X132462682Y-45473500D01*
X132462670Y-45473500D01*
X132150536Y-45512932D01*
X132150523Y-45512934D01*
X131845774Y-45591180D01*
X131845771Y-45591181D01*
X131553242Y-45707001D01*
X131553241Y-45707002D01*
X131277516Y-45858584D01*
X131277504Y-45858591D01*
X131022978Y-46043515D01*
X131022968Y-46043523D01*
X130793608Y-46258907D01*
X130793606Y-46258909D01*
X130593054Y-46501334D01*
X130593051Y-46501338D01*
X130424464Y-46766990D01*
X130424461Y-46766996D01*
X130290499Y-47051678D01*
X130290497Y-47051683D01*
X130193270Y-47350916D01*
X130134311Y-47659988D01*
X130134310Y-47659995D01*
X130114556Y-47973994D01*
X70342244Y-47973994D01*
X70326716Y-47727190D01*
X70322489Y-47659995D01*
X70322488Y-47659988D01*
X70322488Y-47659985D01*
X70263531Y-47350921D01*
X70166303Y-47051685D01*
X70032337Y-46766993D01*
X69863747Y-46501337D01*
X69845783Y-46479622D01*
X69663193Y-46258909D01*
X69663191Y-46258907D01*
X69433831Y-46043523D01*
X69433821Y-46043515D01*
X69179295Y-45858591D01*
X69179288Y-45858586D01*
X69179284Y-45858584D01*
X68903566Y-45707006D01*
X68903563Y-45707004D01*
X68903558Y-45707002D01*
X68903557Y-45707001D01*
X68611028Y-45591181D01*
X68611025Y-45591180D01*
X68306276Y-45512934D01*
X68306263Y-45512932D01*
X67994129Y-45473500D01*
X67994118Y-45473500D01*
X67679482Y-45473500D01*
X67679470Y-45473500D01*
X67367336Y-45512932D01*
X67367323Y-45512934D01*
X67062574Y-45591180D01*
X67062571Y-45591181D01*
X66770042Y-45707001D01*
X66770041Y-45707002D01*
X66494316Y-45858584D01*
X66494304Y-45858591D01*
X66239778Y-46043515D01*
X66239768Y-46043523D01*
X66010408Y-46258907D01*
X66010406Y-46258909D01*
X65809854Y-46501334D01*
X65809851Y-46501338D01*
X65641264Y-46766990D01*
X65641261Y-46766996D01*
X65507299Y-47051678D01*
X65507297Y-47051683D01*
X65410070Y-47350916D01*
X65351111Y-47659988D01*
X65351110Y-47659995D01*
X65331356Y-47973994D01*
X64254500Y-47973994D01*
X64254500Y-44566500D01*
X64274185Y-44499461D01*
X64326989Y-44453706D01*
X64378500Y-44442500D01*
X135967500Y-44442500D01*
X136034539Y-44462185D01*
G37*
%TD.AperFunction*%
%TD*%
M02*
